<?xml version="1.0" encoding="UTF-8" standalone="no"?>
<!-- Created with Inkscape (http://www.inkscape.org/) -->

<svg
   width="192mm"
   height="295mm"
   viewBox="0 0 192 295"
   version="1.1"
   id="svg1"
   inkscape:export-filename="LOGO3.svg"
   inkscape:export-xdpi="96"
   inkscape:export-ydpi="96"
   xmlns:inkscape="http://www.inkscape.org/namespaces/inkscape"
   xmlns:sodipodi="http://sodipodi.sourceforge.net/DTD/sodipodi-0.dtd"
   xmlns="http://www.w3.org/2000/svg"
   xmlns:svg="http://www.w3.org/2000/svg">
  <sodipodi:namedview
     id="namedview1"
     pagecolor="#ffffff"
     bordercolor="#000000"
     borderopacity="0.25"
     inkscape:showpageshadow="2"
     inkscape:pageopacity="0.0"
     inkscape:pagecheckerboard="0"
     inkscape:deskcolor="#d1d1d1"
     inkscape:document-units="mm">
    <inkscape:page
       x="0"
       y="0"
       width="192"
       height="295.00003"
       id="page2"
       margin="0"
       bleed="0" />
  </sodipodi:namedview>
  <defs
     id="defs1" />
  <g
     inkscape:label="Layer 1"
     inkscape:groupmode="layer"
     id="layer1">
    <g
       id="g23"
       transform="matrix(0.82049764,0,0,0.82049764,-297.83887,-443.2624)">
      <path
         class="cls-8"
         d="m 590.14,891.9 h -0.98 v 6.19 h 0.98 v -2.46 h 5 v -1.26 h -5 z"
         id="path21"
         style="fill:#a6adbb;stroke-width:0px" />
      <path
         class="cls-8"
         d="m 595.14,882.99 h -5.43 c -0.17,0 -0.3,0.05 -0.39,0.13 -0.1,0.1 -0.14,0.23 -0.14,0.39 v 1.38 l 4.74,2.18 -4.74,2.18 v 1.37 c 0,0.17 0.05,0.3 0.14,0.39 0.1,0.09 0.23,0.14 0.39,0.14 h 5.43 v -1.21 h -4.99 l 4.99,-2.27 v -1.2 l -5,-2.28 h 5 v -1.21 z"
         id="path22"
         style="fill:#a6adbb;stroke-width:0px" />
      <path
         class="cls-1"
         d="m 498.11,724.94 h 40.05 c 32.13,0 58.17,25.83 58.17,57.71 h -58.17 c 32.13,0 58.17,25.83 58.17,57.71 0,31.88 -26.04,57.71 -58.17,57.71 H 421.83 c -32.13,0 -58.17,-25.83 -58.17,-57.71 v -57.71 c 0,-31.88 26.04,-57.71 58.17,-57.71 h 33.45 c 0.03,0.25 0.04,0.5 0.06,0.75 0.02,0.27 0.04,0.55 0.07,0.82 0.03,0.22 0.08,0.44 0.13,0.65 0.02,0.1 0.05,0.19 0.07,0.29 0.05,0.23 0.11,0.46 0.16,0.69 0.1,0.42 0.19,0.83 0.28,1.25 0.03,0.14 0.02,0.3 0,0.45 -0.11,0.64 0.01,1.25 0.27,1.83 0.26,0.6 0.41,1.21 0.24,1.88 -0.15,0.61 -0.14,1.23 -0.04,1.86 0.05,0.29 0,0.61 -0.04,0.9 -0.08,0.46 -0.17,0.92 -0.26,1.38 -0.09,0.49 -0.19,0.98 -0.27,1.47 -0.18,1.09 -0.18,2.19 0.1,3.27 0.1,0.37 0.3,0.74 0.52,1.06 0.28,0.42 0.55,0.82 0.37,1.36 -0.03,0.1 -0.02,0.22 0,0.34 0,0.02 0,0.04 0,0.05 0.06,0.44 0.12,0.89 0.18,1.33 0.03,0.21 0.06,0.43 0.09,0.64 0.11,0.82 -0.32,1.43 -0.75,2.04 -0.02,0.03 -0.04,0.05 -0.06,0.08 -0.05,0.07 -0.11,0.15 -0.16,0.22 -0.15,0.2 -0.29,0.4 -0.41,0.61 -0.09,0.16 -0.13,0.37 -0.1,0.55 0.06,0.41 -0.01,0.79 -0.14,1.18 -0.15,0.44 -0.19,0.88 -0.1,1.34 0.14,0.69 -0.05,1.33 -0.47,1.88 -0.34,0.44 -0.52,0.92 -0.6,1.45 -0.11,0.82 -0.38,1.59 -0.64,2.36 -0.07,0.19 -0.13,0.39 -0.2,0.58 -0.16,0.5 -0.32,1.01 -0.47,1.51 v 0 c -0.04,0.15 -0.09,0.3 -0.14,0.44 -0.12,0.4 -0.25,0.79 -0.35,1.19 -0.19,0.77 -0.36,1.55 -0.52,2.33 -0.1,0.5 -0.24,0.98 -0.52,1.43 -0.21,0.32 -0.35,0.69 -0.5,1.05 -0.07,0.17 -0.14,0.33 -0.21,0.5 -0.1,0.22 -0.2,0.44 -0.32,0.66 -0.14,0.25 -0.28,0.49 -0.43,0.73 -0.02,0.03 -0.04,0.07 -0.06,0.1 -0.07,0.12 -0.14,0.24 -0.24,0.31 -0.3,0.22 -0.42,0.54 -0.52,0.86 -0.5,1.61 -0.99,3.23 -1.48,4.84 -0.34,1.11 -0.67,2.22 -1,3.33 -0.07,0.24 -0.2,0.42 -0.38,0.61 -0.38,0.41 -0.73,0.87 -1.02,1.35 -0.69,1.12 -1.35,2.25 -2.01,3.39 l -0.11,0.18 c -0.11,0.18 -0.2,0.37 -0.3,0.56 -0.12,0.23 -0.23,0.47 -0.37,0.68 -0.09,0.15 -0.21,0.27 -0.33,0.4 -0.1,0.11 -0.2,0.22 -0.29,0.34 -1.14,1.62 -2.14,3.32 -2.97,5.12 v 0.02 c -0.08,0.15 -0.16,0.33 -0.13,0.47 0.08,0.34 -0.05,0.59 -0.19,0.86 -0.03,0.06 -0.06,0.13 -0.1,0.19 -0.37,0.79 -0.68,1.61 -0.98,2.43 -0.62,1.73 -1.23,3.47 -1.81,5.22 -0.11,0.34 -0.17,0.7 -0.23,1.05 -0.03,0.2 -0.07,0.41 -0.11,0.61 -0.03,0.14 -0.09,0.29 -0.19,0.39 -0.82,0.77 -1.04,1.78 -1.15,2.83 -0.01,0.11 0.03,0.23 0.06,0.35 0,0.03 0.02,0.06 0.03,0.09 0.01,0.05 0.04,0.1 0.06,0.15 0.04,0.07 0.08,0.15 0.08,0.22 0,0.65 0.42,0.83 0.96,0.88 0.05,0 0.1,0.01 0.15,0.02 0.06,0.01 0.12,0.02 0.18,0.02 0.28,0.01 0.57,0.02 0.85,0.04 0.78,0.03 1.55,0.07 2.33,0.08 1.35,0.03 2.7,0.06 4.05,0.08 0.77,0.01 1.55,0.03 2.32,0.04 0.89,0.02 1.78,0.04 2.67,0.06 0.89,0.02 1.78,0.04 2.67,0.05 1.06,0.02 2.12,0.04 3.18,0.06 1.06,0.02 2.12,0.04 3.18,0.06 h 0.06 c 0.21,0 0.41,0 0.54,0.22 h 1.14 c 0.07,-0.01 0.14,-0.03 0.21,-0.04 0.15,-0.03 0.3,-0.07 0.45,-0.07 2.21,0 4.43,0 6.64,0 0.15,0 0.3,0.03 0.45,0.07 0.07,0.01 0.14,0.03 0.21,0.04 h 0.23 c 0.45,-0.17 0.91,-0.17 1.37,0 h 35.07 c 0.06,-0.01 0.13,-0.03 0.19,-0.04 0.14,-0.03 0.27,-0.07 0.41,-0.07 1.23,0 2.46,0 3.69,0 0.14,0 0.27,0.03 0.41,0.07 0.06,0.02 0.13,0.03 0.19,0.04 h 2.05 c 0.41,-0.32 1.07,-0.32 1.48,0 h 1.94 c 0.14,-0.24 0.36,-0.23 0.57,-0.23 0.03,0 0.06,0 0.09,0 0.32,0 0.63,0 0.95,0 0.61,0 1.23,0.01 1.84,-0.02 0.67,-0.03 1.33,-0.1 2,-0.17 0.18,-0.02 0.37,-0.04 0.55,-0.06 0.15,-0.01 0.32,-0.04 0.43,-0.12 0.03,-0.03 0.07,-0.05 0.11,-0.08 0.19,-0.13 0.39,-0.27 0.45,-0.45 0.36,-1.21 0.54,-2.45 -0.31,-3.53 -0.39,-0.51 -0.59,-1.06 -0.8,-1.64 l -0.02,-0.05 c -0.54,-1.52 -1.12,-3.03 -1.71,-4.54 -0.16,-0.42 -0.33,-0.85 -0.49,-1.27 -0.15,-0.39 -0.31,-0.77 -0.47,-1.15 -0.1,-0.23 -0.19,-0.46 -0.29,-0.69 -0.1,-0.26 -0.27,-0.47 -0.43,-0.69 -0.11,-0.15 -0.22,-0.29 -0.3,-0.44 -0.11,-0.18 -0.13,-0.41 -0.16,-0.63 -0.03,-0.22 -0.05,-0.45 -0.15,-0.66 -0.86,-1.8 -1.83,-3.54 -2.9,-5.22 -0.04,-0.07 -0.08,-0.13 -0.13,-0.2 -0.16,-0.25 -0.32,-0.5 -0.45,-0.77 -0.92,-1.9 -1.91,-3.75 -3.06,-5.53 -0.01,-0.02 -0.02,-0.04 -0.04,-0.06 -0.04,-0.07 -0.08,-0.13 -0.13,-0.17 -0.41,-0.25 -0.54,-0.65 -0.66,-1.07 -0.02,-0.06 -0.04,-0.12 -0.05,-0.18 -0.66,-2.1 -1.34,-4.2 -2.02,-6.29 -0.18,-0.54 -0.38,-1.07 -0.59,-1.6 -0.07,-0.17 -0.19,-0.33 -0.33,-0.46 -0.89,-0.79 -1.61,-1.73 -2.33,-2.67 -0.23,-0.29 -0.45,-0.59 -0.68,-0.88 -0.02,-0.03 -0.05,-0.06 -0.07,-0.09 -0.06,-0.08 -0.11,-0.16 -0.19,-0.21 -0.81,-0.53 -1.25,-1.35 -1.67,-2.16 -0.05,-0.09 -0.1,-0.18 -0.14,-0.27 -0.64,-1.2 -1.21,-2.44 -1.77,-3.68 -0.11,-0.24 -0.22,-0.49 -0.33,-0.73 -0.11,-0.24 -0.14,-0.56 -0.1,-0.83 0.11,-0.72 0.15,-1.43 0.19,-2.15 0,-0.13 0.02,-0.26 0.02,-0.39 0.05,-0.75 0,-1.46 -0.1,-2.2 -0.06,-0.4 0,-0.82 0.07,-1.23 0.02,-0.12 0.04,-0.23 0.05,-0.35 0.09,-0.69 0.12,-1.36 -0.27,-1.99 -0.1,-0.16 -0.11,-0.38 -0.12,-0.58 v -0.02 c 0,-0.16 0,-0.32 0,-0.49 0,-0.2 0,-0.4 -0.01,-0.59 -0.02,-0.26 -0.06,-0.55 -0.19,-0.76 -0.37,-0.59 -0.46,-1.25 -0.48,-1.91 -0.02,-0.64 -0.2,-1.24 -0.39,-1.84 l -0.03,-0.1 c -0.26,-0.85 -0.49,-1.71 -0.7,-2.58 -0.06,-0.24 -0.01,-0.51 0.03,-0.77 v -0.02 c 0.06,-0.37 0.15,-0.74 0.25,-1.11 0.12,-0.48 0.19,-0.94 -0.25,-1.31 -0.07,-0.06 -0.13,-0.17 -0.12,-0.25 0.02,-0.14 0.02,-0.29 0.03,-0.43 0.01,-0.37 0.02,-0.73 0.27,-1.05 0.26,-0.33 0.33,-0.71 0.34,-1.12 0.01,-0.3 0.04,-0.59 0.06,-0.89 0.02,-0.21 0.04,-0.43 0.05,-0.64 0,-0.13 0,-0.27 0,-0.41 0,-0.17 0,-0.33 0.02,-0.49 v 0 c 0.03,-0.29 0.05,-0.57 0.15,-0.83 0.16,-0.43 0.26,-0.86 0.29,-1.32 0.04,-0.53 0.17,-1.05 0.3,-1.56 0.05,-0.21 0.2,-0.41 0.34,-0.58 0.59,-0.68 0.71,-1.44 0.45,-2.28 0,-0.03 -0.02,-0.06 -0.03,-0.09 -0.02,-0.08 -0.05,-0.16 -0.08,-0.23 -0.16,-0.33 -0.12,-0.63 0.02,-0.93 z m 3.49,-9.89 h 94.74 v -57.71 h -58.17 c 32.13,0 58.17,-25.83 58.17,-57.71 0,-31.88 -26.04,-57.71 -58.17,-57.71 H 421.83 c -32.13,0 -58.17,25.83 -58.17,57.71 h 58.17 c -32.13,0 -58.17,25.83 -58.17,57.71 v 57.71 h 91.28 c 0,-0.25 0,-0.5 -0.01,-0.75 -0.03,-0.57 -0.2,-1.16 -0.42,-1.7 -0.33,-0.83 -0.29,-1.63 -0.02,-2.45 0.05,-0.14 0.14,-0.29 0.25,-0.36 0.34,-0.21 0.37,-0.52 0.29,-0.85 -0.22,-1.01 -0.49,-1.99 -1.13,-2.83 -0.18,-0.23 -0.32,-0.48 -0.46,-0.74 -0.04,-0.08 -0.09,-0.15 -0.13,-0.23 -0.06,-0.1 -0.12,-0.2 -0.17,-0.3 -0.41,-0.72 -0.83,-1.44 -1.37,-2.08 l -0.03,-0.03 c -0.54,-0.64 -1.09,-1.28 -1.19,-2.17 -0.02,-0.14 -0.1,-0.28 -0.18,-0.42 -0.03,-0.05 -0.06,-0.1 -0.08,-0.14 -0.33,-0.62 -0.69,-1.21 -1.35,-1.57 -0.35,-0.19 -0.53,-0.55 -0.38,-0.98 0.13,-0.39 0.05,-0.75 -0.14,-1.1 -0.14,-0.25 -0.29,-0.5 -0.43,-0.75 -0.18,-0.31 -0.36,-0.61 -0.53,-0.92 -0.11,-0.19 -0.19,-0.42 -0.21,-0.63 -0.02,-0.21 0,-0.42 0.03,-0.64 0,-0.07 0.02,-0.14 0.02,-0.21 0.07,-0.68 0.12,-1.36 -0.3,-1.98 -0.14,-0.22 -0.24,-0.48 -0.3,-0.73 -0.28,-1.12 -0.55,-2.24 -0.83,-3.36 -0.11,-0.46 -0.23,-0.93 -0.34,-1.39 -0.02,-0.08 -0.04,-0.16 -0.06,-0.24 -0.06,-0.23 -0.11,-0.47 -0.18,-0.69 -0.06,-0.2 -0.13,-0.4 -0.2,-0.61 -0.1,-0.3 -0.21,-0.6 -0.29,-0.91 0,-0.03 -0.02,-0.06 -0.03,-0.1 -0.17,-0.64 -0.35,-1.29 -0.21,-1.98 0.02,-0.11 0,-0.23 -0.03,-0.35 0,-0.03 -0.01,-0.06 -0.02,-0.09 -0.04,-0.26 -0.09,-0.52 -0.15,-0.78 -0.03,-0.15 -0.07,-0.3 -0.1,-0.45 -0.16,-0.72 -0.32,-1.43 -0.5,-2.15 -0.09,-0.38 -0.2,-0.75 -0.3,-1.13 -0.1,-0.37 -0.21,-0.75 -0.3,-1.13 -0.05,-0.2 -0.06,-0.43 -0.01,-0.62 0.13,-0.54 0.04,-1.05 -0.06,-1.58 -0.03,-0.18 -0.04,-0.37 -0.05,-0.56 0,-0.12 -0.01,-0.23 -0.02,-0.34 -0.02,-0.22 -0.04,-0.45 -0.05,-0.68 -0.04,-0.68 -0.09,-1.36 -0.34,-2.01 -0.14,-0.36 -0.14,-0.73 -0.1,-1.12 0.03,-0.28 0,-0.57 -0.03,-0.85 -0.01,-0.13 -0.03,-0.26 -0.04,-0.39 0,-0.11 -0.02,-0.21 -0.02,-0.32 -0.02,-0.21 -0.03,-0.42 -0.04,-0.63 0,-0.06 0,-0.12 0.01,-0.18 0,-0.09 0.02,-0.18 0,-0.27 -0.05,-0.19 -0.09,-0.38 -0.14,-0.58 -0.14,-0.59 -0.27,-1.17 -0.49,-1.72 -0.32,-0.81 -0.34,-1.61 -0.14,-2.4 0.2,-0.81 0.06,-1.49 -0.37,-2.16 -0.23,-0.36 -0.43,-0.76 -0.6,-1.16 -0.23,-0.54 -0.43,-1.09 -0.62,-1.65 -0.4,-1.19 -0.78,-2.37 -1.16,-3.56 l -0.12,-0.38 c -0.12,-0.36 -0.23,-0.73 -0.35,-1.09 -0.19,-0.59 -0.37,-1.18 -0.57,-1.77 -0.05,-0.16 -0.13,-0.31 -0.21,-0.46 -0.05,-0.1 -0.1,-0.2 -0.15,-0.31 -0.02,-0.06 -0.05,-0.11 -0.08,-0.17 -0.08,-0.17 -0.17,-0.34 -0.18,-0.52 -0.03,-0.51 -0.21,-0.96 -0.42,-1.41 -0.1,-0.22 -0.21,-0.43 -0.32,-0.65 -0.2,-0.4 -0.4,-0.79 -0.55,-1.2 -0.2,-0.55 -0.35,-1.12 -0.51,-1.68 -0.08,-0.28 -0.15,-0.55 -0.23,-0.83 -0.04,-0.14 -0.08,-0.28 -0.11,-0.42 -0.09,-0.34 -0.17,-0.69 -0.34,-0.99 -0.47,-0.84 -0.44,-1.71 -0.35,-2.6 0.03,-0.28 0,-0.52 -0.15,-0.76 -0.24,-0.37 -0.29,-0.77 -0.18,-1.2 0.01,-0.05 0.02,-0.09 0.04,-0.14 0.06,-0.23 0.12,-0.46 0.16,-0.69 0.05,-0.28 0.08,-0.56 0.08,-0.84 0,-0.34 0,-0.68 0,-1.01 0,-0.53 0,-1.07 0.02,-1.6 0.02,-0.47 0.07,-0.93 0.11,-1.4 0.03,-0.31 0.06,-0.62 0.09,-0.93 0.08,-1.04 0.91,-1.66 1.93,-1.44 0.03,0 0.06,0.01 0.09,0.02 0.08,0.02 0.16,0.04 0.25,0.04 0.28,0.01 0.43,-0.12 0.45,-0.39 0,-0.09 0,-0.17 -0.02,-0.26 0,-0.05 -0.02,-0.09 -0.02,-0.14 -0.03,-0.26 -0.06,-0.53 -0.1,-0.79 -0.11,-0.88 -0.23,-1.77 -0.18,-2.66 0.04,-0.76 0.08,-1.53 0.11,-2.29 v -0.04 c 0.02,-0.29 -0.04,-0.54 -0.24,-0.79 -0.13,-0.16 -0.2,-0.42 -0.2,-0.62 0.02,-0.6 0.07,-1.21 0.15,-1.81 0.4,-2.73 1.12,-5.39 1.98,-8.01 0.89,-2.73 1.99,-5.37 3.33,-7.92 1.1,-2.11 2.26,-4.17 3.77,-6.02 0.48,-0.59 0.99,-1.15 1.55,-1.65 0.05,-0.05 0.1,-0.09 0.16,-0.14 0.23,-0.2 0.46,-0.4 0.66,-0.64 0.27,-0.32 0.56,-0.63 0.85,-0.93 0.12,-0.12 0.23,-0.24 0.35,-0.37 0.05,-0.05 0.09,-0.1 0.14,-0.15 0.07,-0.07 0.14,-0.15 0.21,-0.22 0.14,-0.16 0.28,-0.33 0.41,-0.5 0.27,-0.33 0.55,-0.66 0.84,-0.97 0.5,-0.52 1.03,-1.01 1.58,-1.47 0.15,-0.12 0.29,-0.24 0.44,-0.37 0.84,-0.7 1.69,-1.41 2.59,-2.03 2.07,-1.45 4.29,-2.64 6.6,-3.67 1.97,-0.87 3.98,-1.59 6.05,-2.16 2.28,-0.63 4.62,-0.86 6.96,-1.03 0.02,0 0.04,0 0.06,0 0.19,-0.01 0.38,-0.02 0.49,-0.22 v 0 c 0,0 0.34,0 0.34,0 0.06,0.01 0.12,0.03 0.17,0.04 0.12,0.03 0.25,0.06 0.37,0.07 1.08,0 2.15,0 3.23,0 0.12,0 0.25,-0.03 0.37,-0.07 0.06,-0.02 0.12,-0.03 0.17,-0.04 h 0.34 c 0.11,0.2 0.28,0.21 0.47,0.22 0.02,0 0.05,0 0.07,0 0.1,0 0.2,0.02 0.3,0.02 0.39,0.03 0.78,0.06 1.17,0.12 0.26,0.04 0.52,0.09 0.78,0.13 1.46,0.24 2.92,0.48 4.37,0.77 3.3,0.65 6.43,1.81 9.41,3.34 1.66,0.86 3.26,1.86 4.83,2.89 1.44,0.94 2.76,2.05 4.01,3.26 1.23,1.19 2.31,2.51 3.34,3.87 0.26,0.34 0.55,0.73 0.63,1.13 0.09,0.44 0.35,0.61 0.69,0.72 0.35,0.11 0.6,0.33 0.81,0.6 0.42,0.53 0.83,1.06 1.24,1.6 0.35,0.45 0.71,0.91 1.06,1.36 0.24,0.31 0.45,0.62 0.17,0.99 0.1,0.14 0.2,0.27 0.3,0.4 0.21,0.27 0.41,0.54 0.59,0.81 0.26,0.38 0.49,0.77 0.71,1.17 0.14,0.26 0.27,0.52 0.41,0.78 0.47,0.88 0.94,1.76 1.34,2.67 0.4,0.88 0.73,1.79 1.07,2.71 0.08,0.23 0.17,0.46 0.25,0.68 0.21,0.57 0.41,1.15 0.56,1.73 0.26,1.07 0.5,2.15 0.75,3.22 0.11,0.5 0.22,0.99 0.34,1.49 0.04,0.19 0.1,0.37 0.17,0.54 0.17,0.45 0.38,0.52 0.76,0.23 0.07,-0.05 0.13,-0.11 0.19,-0.18 0.03,-0.03 0.07,-0.07 0.1,-0.1 0.16,-0.15 0.32,-0.31 0.48,-0.46 0.36,-0.34 0.71,-0.69 1.09,-1 0.45,-0.38 0.98,-0.29 1.31,0.19 0.14,0.2 0.21,0.45 0.27,0.7 0,0.03 0.02,0.06 0.02,0.09 0.05,0.17 0.07,0.34 0.09,0.51 0,0.05 0.01,0.11 0.02,0.16 0.02,0.18 0.05,0.36 0.08,0.54 0.07,0.42 0.13,0.84 0.15,1.26 0.02,0.45 0.08,0.85 0.38,1.21 0.28,0.34 0.45,0.74 0.43,1.2 0,0.07 0,0.15 -0.01,0.22 -0.02,0.45 -0.05,0.91 0.19,1.33 0.03,0.06 0.04,0.15 0.03,0.22 -0.1,0.36 0.02,0.66 0.18,0.98 0.04,0.08 0.05,0.18 0.06,0.28 0,0.07 0.01,0.15 0.03,0.22 0.06,0.23 0.13,0.45 0.2,0.68 0.04,0.13 0.08,0.26 0.12,0.39 v 0.57 c -0.12,0.3 -0.24,0.6 -0.35,0.9 -0.28,0.72 -0.56,1.44 -0.85,2.16 -0.52,1.31 -0.81,2.68 -0.97,4.08 -0.15,1.3 -0.35,2.6 -0.56,3.89 -0.13,0.79 -0.29,1.57 -0.49,2.34 -0.15,0.61 -0.35,1.2 -0.56,1.79 -0.13,0.35 -0.27,0.7 -0.41,1.05 -0.12,0.3 -0.25,0.6 -0.36,0.91 -0.33,0.9 -0.71,1.76 -1.4,2.45 -0.33,0.34 -0.46,0.77 -0.39,1.26 0.04,0.27 0.05,0.55 0.06,0.82 0,0.05 0,0.09 0,0.14 0,0.15 0,0.29 0,0.44 0,0.27 -0.01,0.55 0.03,0.81 0.3,1.84 -0.11,3.59 -0.66,5.31 -0.17,0.54 -0.37,1.07 -0.56,1.6 -0.23,0.62 -0.46,1.25 -0.65,1.89 -0.22,0.75 -0.57,1.42 -0.92,2.1 -0.06,0.11 -0.11,0.22 -0.17,0.33 -0.34,0.67 -0.66,1.36 -0.82,2.11 -0.17,0.8 -0.37,1.59 -0.66,2.35 -0.02,0.06 -0.05,0.12 -0.07,0.18 -0.3,0.77 -0.59,1.54 -0.69,2.37 -0.01,0.11 -0.05,0.22 -0.08,0.34 0,0.04 -0.02,0.07 -0.03,0.11 -0.11,0.43 -0.31,0.81 -0.65,1.11 -0.12,0.11 -0.23,0.26 -0.3,0.41 -0.27,0.59 -0.54,1.17 -0.78,1.77 -0.03,0.08 -0.07,0.17 -0.11,0.26 -0.15,0.34 -0.3,0.69 -0.3,1.03 0,0.57 -0.17,1.03 -0.46,1.49 -0.1,0.16 -0.18,0.33 -0.24,0.51 -0.26,0.89 -0.52,1.78 -0.77,2.68 -0.03,0.1 -0.04,0.2 -0.05,0.31 0,0.07 -0.02,0.13 -0.03,0.19 -0.02,0.12 -0.04,0.25 -0.05,0.37 -0.04,0.29 -0.07,0.58 -0.18,0.84 -0.26,0.65 -0.39,1.32 -0.37,2 0.03,1.3 -0.26,2.51 -0.67,3.73 -0.3,0.89 -0.46,1.83 -0.39,2.8 0.04,0.65 -0.02,1.32 -0.62,1.75 -0.39,0.28 -0.46,0.61 -0.26,0.98 0.26,0.5 0.19,1 0.05,1.49 -0.06,0.22 -0.14,0.42 -0.22,0.63 -0.04,0.11 -0.08,0.22 -0.12,0.33 -0.04,0.1 -0.08,0.21 -0.12,0.31 -0.1,0.23 -0.2,0.47 -0.22,0.71 -0.07,0.74 -0.35,1.4 -0.62,2.07 -0.07,0.17 -0.14,0.34 -0.21,0.52 -0.1,0.27 -0.18,0.54 -0.25,0.81 -0.11,0.44 -0.22,0.88 -0.32,1.32 -0.12,0.52 -0.25,1.03 -0.38,1.55 -0.08,0.32 -0.17,0.63 -0.25,0.94 -0.08,0.29 -0.16,0.58 -0.23,0.87 -0.04,0.17 -0.08,0.35 -0.12,0.53 -0.06,0.27 -0.11,0.54 -0.2,0.8 -0.11,0.35 -0.26,0.68 -0.41,1.01 -0.04,0.08 -0.07,0.16 -0.11,0.24 -0.08,0.19 -0.18,0.39 -0.27,0.58 -0.16,0.34 -0.32,0.68 -0.45,1.03 -0.13,0.39 -0.26,0.77 -0.4,1.16 -0.55,1.61 -1.09,3.22 -1.79,4.77 -0.23,0.52 -0.45,1.05 -0.58,1.6 -0.09,0.41 -0.14,0.83 -0.19,1.24 -0.01,0.13 -0.03,0.25 -0.05,0.38 z m -69.33,149.29 v -33.66 h 25.87 l -2.68,7.34 h -12.71 v 6.81 h 10.23 l -2.68,7.35 h -7.55 v 12.16 z m 39.56,-33.66 h -10.48 v 33.66 h 10.48 z m 7.2,33.66 v -33.66 h 25.87 l -2.68,7.34 h -12.71 v 6.81 h 10.23 l -2.68,7.35 h -7.55 v 12.16 z m 38,-25.02 4.19,14.02 h -8.24 l 4.04,-14.02 z m -5.29,-8.65 -12.26,33.66 h 10.33 l 1.3,-4.52 h 11.85 l 1.36,4.52 h 10.59 l -12.26,-33.66 h -10.9 z"
         id="path23"
         style="fill:#a6adbb;fill-rule:evenodd;stroke-width:0px" />
    </g>
  </g>
</svg>
