<?xml version="1.0" encoding="UTF-8" standalone="no"?>
<!-- Created with Inkscape (http://www.inkscape.org/) -->

<svg
   width="300mm"
   height="300mm"
   viewBox="0 0 300 300"
   version="1.1"
   id="svg1"
   xml:space="preserve"
   xmlns:inkscape="http://www.inkscape.org/namespaces/inkscape"
   xmlns:sodipodi="http://sodipodi.sourceforge.net/DTD/sodipodi-0.dtd"
   xmlns="http://www.w3.org/2000/svg"
   xmlns:svg="http://www.w3.org/2000/svg"><sodipodi:namedview
     id="namedview1"
     pagecolor="#ffffff"
     bordercolor="#000000"
     borderopacity="0.25"
     inkscape:showpageshadow="2"
     inkscape:pageopacity="0.0"
     inkscape:pagecheckerboard="0"
     inkscape:deskcolor="#d1d1d1"
     inkscape:document-units="mm"><inkscape:page
       x="0"
       y="0"
       width="300"
       height="300"
       id="page2"
       margin="0"
       bleed="0" /></sodipodi:namedview><defs
     id="defs1"><style
       id="style1">
      .cls-1 {
        fill: #fff;
      }

      .cls-2 {
        fill: #b71315;
      }

      .cls-3 {
        fill: #8b1d1e;
      }

      .cls-4 {
        fill: #d6b631;
      }

      .cls-5 {
        fill: #ffc700;
      }
    </style></defs><g
     inkscape:label="Layer 1"
     inkscape:groupmode="layer"
     id="layer1"><g
       id="Calque_1-2"
       data-name="Calque 1"
       transform="matrix(0.04466559,0,0,0.04466559,43.454032,6.6395357)"><path
         class="cls-1"
         d="M 2278.23,6360.06 C 809.21,5548.91 0,4289.37 0,2813.54 V 218.77 L 2383.38,0 l 13.81,1.77 2373.64,216.95 v 2594.82 c 0,1475.78 -809.21,2735.37 -2278.56,3546.68 l -107.53,59.06 -106.5,-59.23 z"
         id="path1" /><g
         id="g106"><path
           class="cls-4"
           d="m 4503.8,2813.5 c 0,1050.97 -445,1986.31 -1271.91,2708.97 L 1731.04,1274.94 H 4503.8 Z"
           id="path2" /><path
           class="cls-3"
           d="M 2385.51,6113.43 C 1019.37,5350.93 267.25,4179.85 267.25,2813.5 V 1274.94 H 1633.6 l 1523.3,4311.51 c -229.81,192.12 -487.36,368.31 -771.4,526.98 z"
           id="path3" /><path
           d="m 2385.73,127.8 -4.45,-0.43 L 126.4,333.89 v 2479.82 c 0,1427.36 786.01,2647.54 2213.36,3435.68 l 45.54,25.24 45.96,-25.24 C 3858.41,5461.25 4644.41,4241.07 4644.41,2813.71 V 333.89 Z m -0.22,5985.63 C 1019.37,5350.93 267.25,4179.85 267.25,2813.49 V 1274.94 H 1633.6 l 1523.3,4311.74 c -229.81,192.06 -487.37,368.31 -771.4,526.98 M 4503.8,2813.49 c 0,1050.98 -445.06,1986.32 -1271.92,2708.98 L 1731.03,1274.94 H 4503.8 Z m 0,-1630.69 H 267.25 V 462.24 L 2381.49,267.8 4503.98,462.24 v 720.56 h -0.17 z"
           id="path4" /><path
           class="cls-1"
           d="m 2906.99,2293.73 h 299.91 l 1.91,-49.56 h -341.43 z"
           id="path5" /><path
           class="cls-1"
           d="m 2913.33,2738.09 h 277.89 l 14.4,-409 h -291.44 z"
           id="path6" /><path
           class="cls-1"
           d="M 3151.18,2103.31 H 3115.6 V 2166 h -98.7 v -62.69 h -36 V 2166 h -97.01 v -62.69 h -37.28 v 105.48 h 363.25 l 1.48,-39.82 h -60.15 v -65.66 z"
           id="path7" /><path
           class="cls-1"
           d="m 2913.33,2823.23 h 274.92 l 1.7,-49.77 h -276.62 z"
           id="path8" /><path
           class="cls-1"
           d="m 2742.19,3663.25 h 158.64 v -231.08 c 0,-53.8 41.3,-97.64 92.13,-97.64 50.83,0 92.14,43.84 92.14,97.64 v 231.08 h 40.45 l 42.57,-307.97 c -21.4,-13.13 -35.8,-37.7 -35.8,-66.09 0,-30.92 17.37,-57.82 42.36,-69.89 l 12.71,-360.5 h -277.47 l -167.32,804.44 h -0.43 z"
           id="path9" /><path
           class="cls-1"
           d="m 3969.41,2244.16 h -343.14 l 1.67,49.56 h 302.03 z"
           id="path10" /><path
           class="cls-1"
           d="m 3313.86,2977 h -59.52 v 234.68 h 59.52 z"
           id="path11" /><path
           class="cls-1"
           d="m 3923.83,2773.46 h -280.02 l 1.72,49.77 h 278.52 l -0.23,-49.77 z"
           id="path12" /><path
           class="cls-1"
           d="m 3936.13,3663.25 h 158.66 l -167.74,-804.44 h -280.42 l 11.84,359.23 c 26.5,11.01 45.53,38.54 45.53,70.96 0,28.59 -14.83,53.16 -36.22,66.08 l 42.6,307.97 h 41.51 v -231.08 c 0,-53.8 41.27,-97.65 92.15,-97.65 50.88,0 91.92,43.84 91.92,97.65 v 231.08 l 0.17,0.21 z"
           id="path13" /><path
           class="cls-1"
           d="m 3922.79,2329.09 h -293.58 l 13.39,409 h 281.28 z"
           id="path14" /><path
           class="cls-1"
           d="m 3446.86,2977 h -59.3 v 234.68 h 59.3 z"
           id="path15" /><path
           class="cls-1"
           d="m 3580.12,2977 h -59.53 v 234.68 h 59.53 z"
           id="path16" /><path
           class="cls-1"
           d="m 3990.17,2103.31 h -37.31 V 2166 h -96.98 v -62.69 h -36.04 V 2166 h -98.7 v -62.69 h -35.35 v 65.66 h -61.86 l 1.26,39.82 h 364.98 z"
           id="path17" /><path
           d="m 3723.26,2640.87 v -146.78 c 0,-33.68 25.64,-61.42 57.2,-61.42 31.56,0 57.2,27.74 57.2,61.42 v 146.78 z"
           id="path18" /><path
           d="m 3113.71,2640.87 v -146.78 c 0,-33.68 -25.63,-61.42 -57.19,-61.42 -31.56,0 -57.19,27.74 -57.19,61.42 v 146.78 h 114.37 z"
           id="path19" /><path
           class="cls-1"
           d="m 605.07,1688.38 h 519.34 c 167.75,0 283.82,44.06 357.53,119.46 64.18,62.69 97.22,147.2 97.22,255.44 v 3.17 c 0,167.75 -89.39,279.16 -225.79,337.2 l 262,382.52 H 1263.99 L 1042.86,2453.85 H 909.64 v 332.32 H 605.28 V 1688.38 Z m 505.15,527.39 c 103.36,0 163.09,-50.41 163.09,-130.26 v -3.17 c 0,-86.21 -62.69,-130.26 -164.57,-130.26 H 909.43 v 263.7 h 200.79 z"
           id="path20" /><path
           class="cls-1"
           d="M 928.09,3615.18 V 3612 c 0,-319.82 246.33,-570.82 578.86,-570.82 224.31,0 368.33,94.04 465.76,228.96 l -228.96,177.28 c -62.69,-78.58 -134.92,-128.78 -239.98,-128.78 -153.56,0 -262,130.26 -262,290.17 v 3.18 c 0,164.57 108.23,293.14 262,293.14 114.59,0 181.94,-53.38 247.82,-133.44 l 228.75,163.3 c -103.36,142.54 -242.94,247.81 -486.09,247.81 -313.68,0 -566.16,-240.19 -566.16,-567.85"
           id="path21" /><path
           class="cls-1"
           d="m 1812.78,4328.53 h 304.36 v 831.15 h 531.63 v 266.62 h -835.99 z"
           id="path22" /><path
           d="m 2122.67,406.96 h 27.96 v 197.4 h -40.46 V 450.59 l -32.62,8.47 -8.47,-35.37 z"
           id="path23" /><path
           d="m 2260.11,607.76 c -27.11,0 -45.54,-9.53 -61.21,-23.3 l 21.6,-32.83 c 13.55,11.65 24.99,16.73 40.67,16.73 22.88,0 35.16,-18.22 37.92,-44.48 -9.11,8.05 -21.61,13.35 -37.92,13.35 -40.45,0 -66.51,-23.51 -66.51,-63.55 0,-40.04 29.02,-69.05 71.17,-69.05 24.99,0 39.82,6.35 53.8,21.39 13.35,13.98 22.03,35.37 22.03,74.35 0,63.75 -28.59,107.17 -81.54,107.17 m 6.98,-165.62 c -20.33,0 -31.77,12.28 -31.77,30.07 0,17.79 12.28,29.66 32.62,29.66 20.34,0 31.99,-12.28 31.99,-29.44 0,-17.16 -12.28,-30.28 -32.83,-30.28 z"
           id="path24" /><path
           d="m 2443.75,607.75 c -49.77,0 -82.6,-44.05 -82.6,-101.03 0,-56.98 33.26,-101.67 83.24,-101.67 49.98,0 82.6,44.06 82.6,101.03 0,56.97 -33.25,101.66 -83.03,101.66 m -0.21,-163.92 c -24.78,0 -40.67,26.05 -40.67,62.27 0,36.22 16.31,62.69 41.09,62.69 24.78,0 40.46,-26.27 40.46,-62.27 0,-36 -16.31,-62.69 -41.09,-62.69"
           id="path25" /><path
           d="m 2664.88,459.91 c -12.28,-9.74 -22.02,-15.67 -38.12,-15.67 -23.29,0 -34.95,19.69 -37.49,45.32 9.32,-6.56 20.12,-12.7 38.55,-12.7 37.06,0 65.65,21.6 65.65,62.69 0,41.09 -30.71,67.99 -71.16,67.99 -24.36,0 -40.67,-7.2 -53.8,-20.97 -13.56,-14.19 -22.03,-35.37 -22.03,-74.55 0,-60.79 26.05,-107.17 81.76,-107.17 25.42,0 41.94,7.84 58.46,21.6 l -21.6,33.25 -0.21,0.21 z m -44.9,52.95 c -20.12,0 -31.98,11.65 -31.98,28.59 0,16.94 12.28,29.44 32.62,29.44 20.34,0 31.98,-12.07 31.98,-29.23 0,-17.16 -12.28,-28.81 -32.4,-28.81"
           id="path26" /><path
           d="m 416.15,685.9 h 113.32 c 41.09,0 67.14,16.31 83.24,42.36 13.77,22.45 21.18,49.78 21.18,87.9 v 1.06 c 0,54.01 -17.58,91.71 -45.75,113.32 l 54.01,126.23 H 553.83 L 509.99,950.66 h -16.73 v 106.11 H 415.95 V 685.69 l 0.21,0.21 z m 110.77,176.44 c 18.42,0 29.65,-13.13 29.65,-35.8 v -1.06 c 0,-23.94 -11.44,-35.58 -29.23,-35.58 h -33.89 v 72.65 h 33.47 z"
           id="path27" /><path
           d="m 742.53,683.16 h 76.67 l 97.43,373.83 h -84.09 l -12.07,-49.77 h -81.12 l -11.87,49.77 h -82.81 l 97.65,-373.83 z m 58.88,236.16 -21.18,-90.23 -21.18,90.23 z"
           id="path28" /><path
           d="m 901.59,872.51 v -1.06 c 0,-110.99 54.22,-193.38 123.27,-193.38 50.84,0 85.15,39.61 104.84,96.37 l -63.75,59.73 c -8.69,-26.26 -20.76,-44.9 -41.94,-44.9 -26.05,0 -43.21,36.43 -43.21,81.12 v 1.06 c 0,48.08 17.79,82.39 43.21,82.39 21.82,0 34.1,-19.27 43.63,-46.81 l 63.75,58.03 c -19.7,55.07 -51.89,100.19 -109.51,100.19 -64.18,0 -120.09,-77.52 -120.09,-192.53"
           id="path29" /><path
           d="m 1225.9,685.9 h -77.52 v 371.08 h 77.52 z"
           id="path30" /><path
           d="m 1258.3,685.9 h 72.44 l 82.39,163.73 V 685.9 h 76.88 v 371.08 h -68.83 l -85.99,-171.35 v 171.35 h -76.89 z"
           id="path31" /><path
           d="m 1506.95,872.51 v -1.06 c 0,-110.99 54.43,-193.38 127.72,-193.38 39.61,0 71.81,20.97 97.01,56.13 l -43.42,83.66 c -15.25,-20.76 -32.19,-32.19 -51.25,-32.19 -29.87,0 -51.89,37.07 -51.89,87.26 v 1.27 c 0,52.53 22.66,88.53 55.28,88.53 13.13,0 20.33,-3.18 26.27,-8.47 v -37.07 h -39.82 v -79.42 h 112.05 v 171.77 c -24.99,32.62 -60.37,55.7 -102.3,55.7 -72.01,0 -129.84,-77.52 -129.84,-192.53"
           id="path32" /><path
           d="m 1853.68,872.51 v -1.06 c 0,-110.99 54.01,-193.38 123.06,-193.38 50.84,0 85.15,39.61 104.84,96.37 l -63.75,59.73 c -8.68,-26.26 -20.76,-44.9 -42.15,-44.9 -26.05,0 -43.42,36.43 -43.42,81.12 v 1.06 c 0,48.08 18,82.39 43.42,82.39 21.82,0 34.1,-19.27 43.63,-46.81 l 63.75,58.03 c -19.48,55.07 -51.89,100.19 -109.5,100.19 -64.18,0 -119.88,-77.52 -119.88,-192.53"
           id="path33" /><path
           d="m 2099.99,685.9 h 77.53 v 264.97 h 108.65 v 106.11 h -186.18 z"
           id="path34" /><path
           d="m 2298.05,890.51 v -204.6 h 79 v 203.12 c 0,45.96 14.83,65.66 35.58,65.66 20.75,0 35.8,-18 35.8,-63.12 V 686.12 h 78.58 v 201.85 c 0,126.87 -46.18,176.64 -115.01,176.64 -68.83,0 -113.95,-50.84 -113.95,-174.1 z"
           id="path35" /><path
           d="m 2557.91,685.9 h 129.62 c 32.2,0 52.32,11.44 65.87,33.26 8.26,13.13 14.19,32.19 14.19,57.61 v 1.27 c 0,43.84 -16.31,70.96 -41.3,84.94 29.65,13.77 48.93,39.18 48.93,90.23 v 1.06 c 0,59.52 -30.5,102.94 -88.96,102.94 h -128.35 v -371.3 z m 109.29,145.73 c 16.52,0 24.36,-8.89 24.36,-25.41 v -1.06 c 0,-16.31 -8.26,-25.42 -24.78,-25.42 h -33.47 v 52.11 h 33.89 v -0.21 z m 4.88,131.53 c 16.94,0 25.63,-11.01 25.63,-27.11 v -1.06 c 0,-15.88 -8.26,-26.9 -24.99,-26.9 h -39.18 v 55.07 h 38.76 -0.21 z"
           id="path36" /><path
           d="m 2889.61,685.9 h 88.53 c 91.92,0 138.09,72.44 138.09,182.36 v 1.06 c 0,109.71 -47.02,187.87 -140.63,187.87 h -85.78 V 686.11 Z m 90.23,262.64 c 35.37,0 58.24,-23.3 58.24,-76.67 v -1.06 c 0,-53.58 -22.67,-77.09 -58.24,-77.09 h -12.92 v 154.83 h 12.92 z"
           id="path37" /><path
           d="m 3132.35,685.9 h 197.41 V 787.57 H 3208.4 v 37.7 h 113.31 v 89.81 H 3208.4 v 40.24 h 123.05 v 101.67 h -199.1 V 685.91 Z"
           id="path38" /><path
           d="m 3449.62,685.9 h 77.31 v 264.97 h 108.89 v 106.11 h -186.2 z"
           id="path39" /><path
           d="m 3663.36,685.9 h 197.41 v 101.67 h -121.41 v 37.7 h 113.13 v 89.81 h -113.13 v 40.24 h 122.85 v 101.67 H 3663.37 V 685.91 Z"
           id="path40" /><path
           d="m 3891,685.9 h 72.43 l 82.44,163.73 V 685.9 h 76.63 v 371.08 h -68.58 l -86,-171.35 v 171.35 H 3891 Z"
           id="path41" /><path
           d="m 4135.84,1001.28 41.33,-79 c 25.18,30.71 53.98,43.42 80.88,43.42 14.03,0 19.95,-5.72 19.95,-15.67 v -1.48 c 0,-10.38 -7.24,-16.31 -32.02,-24.14 -51.85,-16.95 -97.61,-40.88 -97.61,-119.46 v -1.06 c 0,-70.53 34.32,-125.39 98.24,-125.39 44.49,0 77.78,17.15 104.45,51.05 l -37.71,83.87 c -22.02,-25.63 -47.89,-36.85 -69.44,-36.85 -11.44,0 -16.79,6.56 -16.79,15.68 v 1.06 c 0,10.16 6.15,16.52 30.75,23.93 59.27,17.37 98.88,44.9 98.88,119.88 v 1.06 c 0,77.94 -40.01,125.81 -102.27,125.81 -46.79,0 -89.16,-21.18 -118.65,-62.48"
           id="path42" /><path
           class="cls-1"
           d="m 4391.94,2645.53 c -14.37,-21.6 -32.19,-29.86 -44.49,-32.83 -0.8,0 -4.43,-1.27 -10.12,-1.27 -15.46,0 -39.44,6.99 -57.2,43.63 -4.89,30.28 -12.53,63.33 -23.74,99.34 h 18.22 c 2.53,-9.11 6.38,-19.91 11.84,-29.44 12.3,-21.18 32.19,-32.82 55.93,-32.82 9.77,0 16.73,2.12 18.22,2.33 11.44,2.75 27.31,10.16 42.77,27.11 4.02,-20.97 4.48,-49.56 -11.44,-76.04 z"
           id="path43" /><path
           class="cls-1"
           d="m 4167.63,2754.18 c -10.58,-34.53 -18.22,-66.29 -22.88,-95.52 -13.97,-30.71 -33.86,-47.23 -58.23,-47.23 -5.69,0 -9.54,1.06 -9.54,1.06 -13.11,3.18 -30.93,11.44 -45.53,33.68 -15.64,26.05 -15.23,54.65 -10.98,75.62 15.64,-17.16 31.56,-24.57 44.03,-27.54 0.23,0 7.42,-2.12 17.13,-2.12 23.74,0 43.63,11.65 55.93,32.82 5.52,9.53 9.31,20.33 11.84,29.44 h 18.68 l -0.46,-0.21 z"
           id="path44" /><path
           class="cls-1"
           d="m 4184.58,2851.4 4.66,40.88 c 3.39,29.86 14.83,47.02 23.11,55.7 8.28,-8.69 19.72,-26.05 23.05,-56.13 l 4.48,-41.52 26.67,31.99 c 13.57,16.31 27.13,22.66 35.99,25.2 2.36,-11.22 3.22,-30.71 -9.31,-56.34 l -5.69,-15.25 h -150.15 l -5.12,13.56 c -12.7,26.48 -12.3,46.39 -9.94,57.83 8.91,-2.55 22.25,-8.9 35.58,-24.78 l 26.5,-31.56 0.17,0.43 z"
           id="path45" /><path
           d="m 4421.77,2626.67 c -16.27,-24.99 -39.78,-42.15 -65.02,-48.29 -1.44,-0.43 -8.68,-2.33 -19.49,-2.33 -12.07,0 -31.33,2.75 -50.82,16.52 5.92,-146.78 -58.46,-209.26 -62.26,-212.65 l -12.07,-11.22 -12.07,11.22 c -3.62,3.39 -68.41,66.09 -62.26,213.08 -19.72,-14.4 -39.21,-16.95 -51.51,-16.95 -10.81,0 -18.22,2.12 -18.4,2.12 -26.27,6.35 -49.78,23.51 -66.51,49.14 -40.47,66.93 -4.25,139.16 -2.53,142.12 l 15.64,30.28 15.92,-30.28 c 12.07,-23.09 26.67,-37.28 43.17,-41.3 0,0 3.22,-1.06 7.88,-1.06 10.98,0 19.26,5.08 25.18,15.04 2.53,4.66 4.66,9.74 6.38,14.83 -14.43,6.14 -24.6,20.75 -24.6,37.7 0,12.71 5.75,23.93 14.6,31.56 l -3.39,9.11 c -28.17,58.04 -5.69,98.07 -4.83,99.76 l 6.96,9.11 h 10.18 c 7.01,0 26.67,-1.48 48.75,-16.73 13.97,42.15 41.51,57.61 42.94,58.24 l 8.51,4.66 8.28,-4.66 c 1.44,-0.85 29.2,-16.1 43,-58.67 22.42,15.46 43.17,18.64 52.49,16.73 l 9.14,-0.85 4.66,-8.05 c 1.04,-1.7 23.51,-41.94 -4.02,-98.49 l -4.02,-11.01 c 8.68,-7.41 14.2,-18.64 14.2,-31.13 0,-17.37 -10.4,-31.98 -25.24,-37.91 1.72,-5.08 3.79,-10.16 6.38,-14.61 5.92,-10.17 14.2,-15.25 25.41,-15.25 4.43,0 7.82,1.06 8.68,1.06 15.87,3.81 30.3,18 42.14,40.88 l 15.69,30.29 15.64,-30.29 c 1.72,-2.97 37.94,-75.19 -2.93,-142.76 m -340.17,66.28 c -9.77,0 -16.96,2.12 -17.19,2.12 -12.3,3.17 -28.17,10.38 -43.86,27.54 -4.02,-20.97 -4.66,-49.56 11.04,-75.62 14.83,-22.24 32.59,-30.5 45.53,-33.68 0,0 3.62,-1.06 9.54,-1.06 24.37,0 44.49,16.73 58.23,47.44 4.89,29.23 12.3,61 22.88,95.52 h -18.63 c -2.53,-9.11 -6.38,-19.91 -11.84,-29.44 -12.3,-21.18 -32.02,-32.62 -55.93,-32.62 m 221.33,215.42 c -8.91,-2.54 -22.42,-8.89 -35.99,-25.2 l -26.67,-31.99 -4.48,41.52 c -3.39,30.28 -14.83,47.44 -23.05,56.12 -8.28,-8.68 -19.72,-25.63 -23.11,-55.7 l -4.66,-40.88 -26.5,31.56 c -13.34,15.88 -26.67,22.24 -35.58,24.78 -2.3,-11.44 -2.93,-31.35 10,-57.83 l 5.06,-13.76 h 150.15 l 5.75,15.25 c 12.47,25.63 11.61,45.12 9.31,56.34 m 100.37,-186.18 c -15.46,-17.16 -31.1,-24.36 -42.77,-27.11 -1.26,-0.43 -8.45,-2.33 -18.22,-2.33 -23.74,0 -43.63,11.65 -55.93,32.83 -5.46,9.53 -9.31,20.33 -11.84,29.44 h -17.99 c 11.04,-36 18.86,-69.05 23.51,-99.34 17.76,-36.64 41.51,-43.63 57.2,-43.63 5.69,0 9.48,1.06 10.17,1.27 12.24,2.97 30.07,11.23 44.44,32.83 15.92,26.48 15.46,55.07 11.44,76.04 z"
           id="path46" /><path
           class="cls-1"
           d="m 4203.44,2750.37 h 17.36 c 60.82,-191.05 15.23,-292.51 -8.45,-328.72 -23.97,36.22 -69.5,137.67 -8.68,328.72"
           id="path47" /><path
           class="cls-1"
           d="m 2803.83,2645.53 c -14.4,-21.6 -32.19,-29.86 -44.48,-32.83 -0.85,0 -4.45,-1.27 -10.16,-1.27 -15.46,0 -39.4,6.99 -57.19,43.63 -4.87,30.28 -12.49,63.33 -23.72,99.34 h 18.22 c 2.54,-9.11 6.35,-19.91 11.86,-29.44 12.28,-21.18 32.19,-32.82 55.92,-32.82 9.74,0 16.73,2.12 18.21,2.33 11.44,2.75 27.32,10.16 42.79,27.11 4.02,-20.97 4.45,-49.56 -11.44,-76.04 z"
           id="path48" /><path
           class="cls-1"
           d="m 2579.72,2754.18 c -10.59,-34.53 -18.22,-66.29 -22.87,-95.52 -13.98,-30.71 -33.89,-47.23 -58.24,-47.23 -5.72,0 -9.53,1.06 -9.53,1.06 -13.14,3.18 -30.93,11.44 -45.54,33.68 -15.67,26.05 -15.25,54.65 -11.01,75.62 15.68,-17.16 31.56,-24.57 44.06,-27.54 0.21,0 7.41,-2.12 17.15,-2.12 23.72,0 43.63,11.65 55.92,32.82 5.51,9.53 9.32,20.33 11.86,29.44 h 18.64 l -0.43,-0.21 z"
           id="path49" /><path
           class="cls-1"
           d="m 2596.46,2851.4 4.66,40.88 c 3.39,29.86 14.83,47.02 23.09,55.7 8.26,-8.69 19.7,-26.05 23.09,-56.13 l 4.45,-41.52 26.69,31.99 c 13.56,16.31 27.11,22.66 36.01,25.2 2.33,-11.22 3.18,-30.71 -9.32,-56.34 l -5.72,-15.25 h -150.17 l -5.08,13.56 c -12.71,26.48 -12.28,46.39 -9.96,57.83 8.9,-2.55 22.24,-8.9 35.58,-24.78 l 26.48,-31.56 0.21,0.43 z"
           id="path50" /><path
           d="m 2833.69,2626.67 c -16.31,-24.99 -39.82,-42.15 -65.02,-48.29 -1.48,-0.43 -8.69,-2.33 -19.49,-2.33 -12.07,0 -31.35,2.75 -50.83,16.52 5.93,-146.78 -58.46,-209.26 -62.27,-212.65 l -12.07,-11.22 -12.07,11.22 c -3.6,3.39 -68.41,66.09 -62.27,213.08 -19.7,-14.4 -39.19,-16.95 -51.47,-16.95 -10.8,0 -18.21,2.12 -18.42,2.12 -26.27,6.35 -49.78,23.51 -66.51,49.14 -40.46,66.93 -4.24,139.16 -2.54,142.12 l 15.67,30.28 15.88,-30.28 c 12.08,-23.09 26.69,-37.28 43.21,-41.3 0,0 3.17,-1.06 7.84,-1.06 11.01,0 19.27,5.08 25.2,15.04 2.55,4.66 4.66,9.74 6.36,14.83 -14.41,6.14 -24.57,20.75 -24.57,37.7 0,12.71 5.72,23.93 14.61,31.56 l -3.39,9.11 c -28.17,58.04 -5.72,98.07 -4.87,99.76 l 6.99,9.11 h 10.17 c 6.98,0 26.68,-1.48 48.71,-16.73 13.98,42.15 41.51,57.61 42.99,58.24 l 8.47,4.66 8.26,-4.66 c 1.48,-0.85 29.23,-16.1 42.99,-58.67 22.45,15.46 43.21,18.64 52.53,16.73 l 9.11,-0.85 4.66,-8.05 c 1.06,-1.7 23.51,-41.94 -4.02,-98.49 l -4.02,-11.01 c 8.68,-7.41 14.19,-18.64 14.19,-31.13 0,-17.37 -10.38,-31.98 -25.2,-37.91 1.69,-5.08 3.81,-10.16 6.35,-14.61 5.93,-10.17 14.19,-15.25 25.41,-15.25 4.45,0 7.84,1.06 8.69,1.06 15.88,3.81 30.29,18 42.15,40.88 l 15.68,30.29 15.67,-30.29 c 1.7,-2.97 37.91,-75.19 -2.97,-142.76 m -340.16,66.28 c -9.74,0 -16.95,2.12 -17.15,2.12 -12.28,3.17 -28.17,10.38 -43.84,27.54 -4.02,-20.97 -4.66,-49.56 11.01,-75.62 14.83,-22.24 32.62,-30.5 45.53,-33.68 0,0 3.6,-1.06 9.53,-1.06 24.36,0 44.48,16.73 58.25,47.44 4.87,29.23 12.28,61 22.87,95.52 h -18.64 c -2.54,-9.11 -6.35,-19.91 -11.86,-29.44 -12.28,-21.18 -31.98,-32.62 -55.92,-32.62 m 221.34,215.42 c -8.9,-2.54 -22.45,-8.89 -36.01,-25.2 l -26.69,-31.99 -4.45,41.52 c -3.39,30.28 -14.83,47.44 -23.09,56.12 -8.26,-8.68 -19.7,-25.63 -23.09,-55.7 l -4.66,-40.88 -26.47,31.56 c -13.34,15.88 -26.69,22.24 -35.58,24.78 -2.33,-11.44 -2.97,-31.35 9.95,-57.83 l 5.09,-13.76 h 150.17 l 5.71,15.25 c 12.5,25.63 11.65,45.12 9.32,56.34 m 100.62,-186.18 c -15.46,-17.16 -31.13,-24.36 -42.79,-27.11 -1.27,-0.43 -8.47,-2.33 -18.22,-2.33 -23.72,0 -43.63,11.65 -55.91,32.83 -5.51,9.53 -9.32,20.33 -11.87,29.44 h -18 c 11.01,-36 18.86,-69.05 23.51,-99.34 17.79,-36.64 41.52,-43.63 57.19,-43.63 5.72,0 9.53,1.06 10.17,1.27 12.28,2.97 30.08,11.23 44.48,32.83 15.88,26.48 15.46,55.07 11.44,76.04 z"
           id="path51" /><path
           class="cls-1"
           d="m 2615.53,2750.37 h 17.37 c 60.79,-191.05 15.25,-292.51 -8.47,-328.72 -23.93,36.22 -69.47,137.67 -8.68,328.72"
           id="path52" /><path
           d="m 4138.42,3698.63 -179.18,-857.6 -0.86,-525.91 67.37,-84.72 V 2067.74 H 3917.5 v 62.9 h -26.04 v -62.9 h -106.75 v 62.9 h -27.94 v -62.9 h -106.12 v 65.66 h -27.77 l -5.69,-169.87 112.04,-7.2 -0.86,-28.59 -270.48,-173.68 c 23.51,-14.83 39.4,-42.36 39.4,-73.71 0,-47.23 -35.58,-85.57 -79.42,-85.57 -43.84,0 -79.64,38.34 -79.64,85.57 0,31.56 16.1,59.3 40.03,73.92 l -271.75,173.46 v 28.59 l 112.05,7.2 -5.93,169.87 h -26.05 v -65.66 h -106.33 v 62.9 h -27.96 v -62.9 h -106.96 v 62.9 h -26.05 v -62.9 h -108.02 v 162.66 l 67.56,84.72 -0.63,522.31 -179.62,860.99 h 237.44 v -266.45 c 0,-34.31 25.42,-62.27 56.77,-62.27 31.35,0 56.76,27.96 56.76,62.27 v 266.45 h 70.96 l -6.78,49.14 v 31.55 h 607.88 l 0.63,-31.55 -6.78,-49.14 h 72.26 v -266.45 c 0,-34.31 25.41,-62.27 56.74,-62.27 31.33,0 56.34,27.96 56.34,62.27 v 266.45 h 237.65 v 0.21 z M 3391.6,1974.11 h 53.8 v 127.93 h -53.8 z m 118.82,0 h 53.77 v 127.93 h -53.77 z m -136.19,-293.78 c 0,-25.84 19.69,-46.81 43.63,-46.81 23.94,0 43.42,20.97 43.42,46.81 0,25.84 -19.27,46.6 -43.42,46.6 -24.15,0 -43.63,-20.97 -43.63,-46.6 z m -99.55,293.78 h 53.8 v 127.93 h -53.8 z m 649.38,849.12 h -278.52 l -1.67,-49.77 h 280.02 v 49.77 z M 2913.97,2329.09 h 291.66 l -14.4,409.2 h -277.89 z m -0.63,444.37 h 276.62 l -1.7,49.77 h -274.92 z m 1010.54,-35.37 h -281.11 l -13.51,-409.21 h 293.52 l 1.09,409.21 z m 6.1,-444.37 h -302.03 l -1.67,-49.56 h 343.14 z m -244.2,-124.75 v -65.66 h 35.41 V 2166 h 98.7 v -62.69 h 35.99 V 2166 h 96.81 v -62.69 h 37.25 v 105.48 h -364.92 l -1.26,-39.82 h 62.03 z M 2883.9,2103.31 V 2166 h 96.8 v -62.69 h 36.01 V 2166 h 98.7 v -62.69 h 35.58 v 65.66 h 60.15 l -1.48,39.82 h -363.24 v -105.48 h 37.49 z m -16.52,140.85 h 341.22 l -1.7,49.56 h -300.12 z m 217.31,1419.09 v -231.08 c 0,-53.8 -41.3,-97.64 -92.13,-97.64 -50.83,0 -92.14,43.84 -92.14,97.64 v 231.08 h -158.64 l 167.32,-804.43 h 277.46 l -12.7,360.49 c -24.99,12.07 -42.36,38.76 -42.36,69.9 0,28.59 14.4,53.16 35.79,66.08 l -42.57,307.97 h -40.46 0.43 z M 3254.35,2977 h 59.52 v 234.68 h -59.52 z m 133.22,0 h 59.3 v 234.68 h -59.3 z m 192.55,234.9 h -59.53 v -234.68 h 59.53 z m 264.09,122.42 c -50.82,0 -92.09,43.84 -92.09,97.64 v 231.08 h -41.73 l -42.6,-307.97 c 21.38,-13.14 36.22,-37.71 36.22,-66.09 0,-32.41 -19.03,-60.15 -45.53,-70.96 l -11.84,-359.22 h 280.42 l 167.74,804.43 h -158.66 v -231.08 c 0,-53.8 -41.27,-97.64 -91.92,-97.64"
           id="path53" /><path
           class="cls-1"
           d="M 4503.8,1182.81 H 267.25 V 462.25 L 2381.28,267.81 4503.81,462.25 v 720.56 z"
           id="path54" /><path
           class="cls-5"
           d="m 4503.8,2813.5 c 0,1050.97 -445,1986.31 -1271.91,2708.97 L 1731.04,1274.94 H 4503.8 Z"
           id="path55" /><path
           class="cls-2"
           d="M 2385.51,6113.43 C 1019.37,5350.93 267.25,4179.85 267.25,2813.5 V 1274.94 H 1633.6 l 1523.3,4311.51 c -229.81,192.12 -487.36,368.31 -771.4,526.98 z"
           id="path56" /><path
           d="m 2385.73,127.8 -4.45,-0.43 L 126.4,333.89 v 2479.82 c 0,1427.36 786.01,2647.54 2213.36,3435.68 l 45.54,25.24 45.96,-25.24 C 3858.41,5461.25 4644.41,4241.07 4644.41,2813.71 V 333.89 Z m -0.22,5985.63 C 1019.37,5350.93 267.25,4179.85 267.25,2813.49 V 1274.94 H 1633.6 l 1523.3,4311.74 c -229.81,192.06 -487.37,368.31 -771.4,526.98 M 4503.8,2813.49 c 0,1050.98 -445.06,1986.32 -1271.92,2708.98 L 1731.03,1274.94 H 4503.8 Z m 0,-1630.69 H 267.25 V 462.24 L 2381.49,267.8 4503.98,462.24 v 720.56 h -0.17 z"
           id="path57" /><path
           class="cls-1"
           d="m 2906.99,2293.73 h 299.91 l 1.91,-49.56 h -341.43 z"
           id="path58" /><path
           class="cls-1"
           d="m 2913.33,2738.09 h 277.89 l 14.4,-409 h -291.44 z"
           id="path59" /><path
           class="cls-1"
           d="M 3151.18,2103.31 H 3115.6 V 2166 h -98.7 v -62.69 h -36 V 2166 h -97.01 v -62.69 h -37.28 v 105.48 h 363.25 l 1.48,-39.82 h -60.15 v -65.66 z"
           id="path60" /><path
           class="cls-1"
           d="m 2913.33,2823.23 h 274.92 l 1.7,-49.77 h -276.62 z"
           id="path61" /><path
           class="cls-1"
           d="m 2742.19,3663.25 h 158.64 v -231.08 c 0,-53.8 41.3,-97.64 92.13,-97.64 50.83,0 92.14,43.84 92.14,97.64 v 231.08 h 40.45 l 42.57,-307.97 c -21.4,-13.13 -35.8,-37.7 -35.8,-66.09 0,-30.92 17.37,-57.82 42.36,-69.89 l 12.71,-360.5 h -277.47 l -167.32,804.44 h -0.43 z"
           id="path62" /><path
           class="cls-1"
           d="m 3969.41,2244.16 h -343.14 l 1.67,49.56 h 302.03 z"
           id="path63" /><path
           class="cls-1"
           d="m 3313.86,2977 h -59.52 v 234.68 h 59.52 z"
           id="path64" /><path
           class="cls-1"
           d="m 3923.83,2773.46 h -280.02 l 1.72,49.77 h 278.52 l -0.23,-49.77 z"
           id="path65" /><path
           class="cls-1"
           d="m 3936.13,3663.25 h 158.66 l -167.74,-804.44 h -280.42 l 11.84,359.23 c 26.5,11.01 45.53,38.54 45.53,70.96 0,28.59 -14.83,53.16 -36.22,66.08 l 42.6,307.97 h 41.51 v -231.08 c 0,-53.8 41.27,-97.65 92.15,-97.65 50.88,0 91.92,43.84 91.92,97.65 v 231.08 l 0.17,0.21 z"
           id="path66" /><path
           class="cls-1"
           d="m 3922.79,2329.09 h -293.58 l 13.39,409 h 281.28 z"
           id="path67" /><path
           class="cls-1"
           d="m 3446.86,2977 h -59.3 v 234.68 h 59.3 z"
           id="path68" /><path
           class="cls-1"
           d="m 3580.12,2977 h -59.53 v 234.68 h 59.53 z"
           id="path69" /><path
           class="cls-1"
           d="m 3990.17,2103.31 h -37.31 V 2166 h -96.98 v -62.69 h -36.04 V 2166 h -98.7 v -62.69 h -35.35 v 65.66 h -61.86 l 1.26,39.82 h 364.98 z"
           id="path70" /><path
           d="m 3723.26,2640.87 v -146.78 c 0,-33.68 25.64,-61.42 57.2,-61.42 31.56,0 57.2,27.74 57.2,61.42 v 146.78 z"
           id="path71" /><path
           d="m 3113.71,2640.87 v -146.78 c 0,-33.68 -25.63,-61.42 -57.19,-61.42 -31.56,0 -57.19,27.74 -57.19,61.42 v 146.78 h 114.37 z"
           id="path72" /><path
           class="cls-1"
           d="m 605.07,1688.38 h 519.34 c 167.75,0 283.82,44.06 357.53,119.46 64.18,62.69 97.22,147.2 97.22,255.44 v 3.17 c 0,167.75 -89.39,279.16 -225.79,337.2 l 262,382.52 H 1263.99 L 1042.86,2453.85 H 909.64 v 332.32 H 605.28 V 1688.38 Z m 505.15,527.39 c 103.36,0 163.09,-50.41 163.09,-130.26 v -3.17 c 0,-86.21 -62.69,-130.26 -164.57,-130.26 H 909.43 v 263.7 h 200.79 z"
           id="path73" /><path
           class="cls-1"
           d="M 928.09,3615.18 V 3612 c 0,-319.82 246.33,-570.82 578.86,-570.82 224.31,0 368.33,94.04 465.76,228.96 l -228.96,177.28 c -62.69,-78.58 -134.92,-128.78 -239.98,-128.78 -153.56,0 -262,130.26 -262,290.17 v 3.18 c 0,164.57 108.23,293.14 262,293.14 114.59,0 181.94,-53.38 247.82,-133.44 l 228.75,163.3 c -103.36,142.54 -242.94,247.81 -486.09,247.81 -313.68,0 -566.16,-240.19 -566.16,-567.85"
           id="path74" /><path
           class="cls-1"
           d="m 1812.78,4328.53 h 304.36 v 831.15 h 531.63 v 266.62 h -835.99 z"
           id="path75" /><path
           d="m 2122.67,406.96 h 27.96 v 197.4 h -40.46 V 450.59 l -32.62,8.47 -8.47,-35.37 z"
           id="path76" /><path
           d="m 2260.11,607.76 c -27.11,0 -45.54,-9.53 -61.21,-23.3 l 21.6,-32.83 c 13.55,11.65 24.99,16.73 40.67,16.73 22.88,0 35.16,-18.22 37.92,-44.48 -9.11,8.05 -21.61,13.35 -37.92,13.35 -40.45,0 -66.51,-23.51 -66.51,-63.55 0,-40.04 29.02,-69.05 71.17,-69.05 24.99,0 39.82,6.35 53.8,21.39 13.35,13.98 22.03,35.37 22.03,74.35 0,63.75 -28.59,107.17 -81.54,107.17 m 6.98,-165.62 c -20.33,0 -31.77,12.28 -31.77,30.07 0,17.79 12.28,29.66 32.62,29.66 20.34,0 31.99,-12.28 31.99,-29.44 0,-17.16 -12.28,-30.28 -32.83,-30.28 z"
           id="path77" /><path
           d="m 2443.75,607.75 c -49.77,0 -82.6,-44.05 -82.6,-101.03 0,-56.98 33.26,-101.67 83.24,-101.67 49.98,0 82.6,44.06 82.6,101.03 0,56.97 -33.25,101.66 -83.03,101.66 m -0.21,-163.92 c -24.78,0 -40.67,26.05 -40.67,62.27 0,36.22 16.31,62.69 41.09,62.69 24.78,0 40.46,-26.27 40.46,-62.27 0,-36 -16.31,-62.69 -41.09,-62.69"
           id="path78" /><path
           d="m 2664.88,459.91 c -12.28,-9.74 -22.02,-15.67 -38.12,-15.67 -23.29,0 -34.95,19.69 -37.49,45.32 9.32,-6.56 20.12,-12.7 38.55,-12.7 37.06,0 65.65,21.6 65.65,62.69 0,41.09 -30.71,67.99 -71.16,67.99 -24.36,0 -40.67,-7.2 -53.8,-20.97 -13.56,-14.19 -22.03,-35.37 -22.03,-74.55 0,-60.79 26.05,-107.17 81.76,-107.17 25.42,0 41.94,7.84 58.46,21.6 l -21.6,33.25 -0.21,0.21 z m -44.9,52.95 c -20.12,0 -31.98,11.65 -31.98,28.59 0,16.94 12.28,29.44 32.62,29.44 20.34,0 31.98,-12.07 31.98,-29.23 0,-17.16 -12.28,-28.81 -32.4,-28.81"
           id="path79" /><path
           d="m 416.15,685.9 h 113.32 c 41.09,0 67.14,16.31 83.24,42.36 13.77,22.45 21.18,49.78 21.18,87.9 v 1.06 c 0,54.01 -17.58,91.71 -45.75,113.32 l 54.01,126.23 H 553.83 L 509.99,950.66 h -16.73 v 106.11 H 415.95 V 685.69 l 0.21,0.21 z m 110.77,176.44 c 18.42,0 29.65,-13.13 29.65,-35.8 v -1.06 c 0,-23.94 -11.44,-35.58 -29.23,-35.58 h -33.89 v 72.65 h 33.47 z"
           id="path80" /><path
           d="m 742.53,683.16 h 76.67 l 97.43,373.83 h -84.09 l -12.07,-49.77 h -81.12 l -11.87,49.77 h -82.81 l 97.65,-373.83 z m 58.88,236.16 -21.18,-90.23 -21.18,90.23 z"
           id="path81" /><path
           d="m 901.59,872.51 v -1.06 c 0,-110.99 54.22,-193.38 123.27,-193.38 50.84,0 85.15,39.61 104.84,96.37 l -63.75,59.73 c -8.69,-26.26 -20.76,-44.9 -41.94,-44.9 -26.05,0 -43.21,36.43 -43.21,81.12 v 1.06 c 0,48.08 17.79,82.39 43.21,82.39 21.82,0 34.1,-19.27 43.63,-46.81 l 63.75,58.03 c -19.7,55.07 -51.89,100.19 -109.51,100.19 -64.18,0 -120.09,-77.52 -120.09,-192.53"
           id="path82" /><path
           d="m 1225.9,685.9 h -77.52 v 371.08 h 77.52 z"
           id="path83" /><path
           d="m 1258.3,685.9 h 72.44 l 82.39,163.73 V 685.9 h 76.88 v 371.08 h -68.83 l -85.99,-171.35 v 171.35 h -76.89 z"
           id="path84" /><path
           d="m 1506.95,872.51 v -1.06 c 0,-110.99 54.43,-193.38 127.72,-193.38 39.61,0 71.81,20.97 97.01,56.13 l -43.42,83.66 c -15.25,-20.76 -32.19,-32.19 -51.25,-32.19 -29.87,0 -51.89,37.07 -51.89,87.26 v 1.27 c 0,52.53 22.66,88.53 55.28,88.53 13.13,0 20.33,-3.18 26.27,-8.47 v -37.07 h -39.82 v -79.42 h 112.05 v 171.77 c -24.99,32.62 -60.37,55.7 -102.3,55.7 -72.01,0 -129.84,-77.52 -129.84,-192.53"
           id="path85" /><path
           d="m 1853.68,872.51 v -1.06 c 0,-110.99 54.01,-193.38 123.06,-193.38 50.84,0 85.15,39.61 104.84,96.37 l -63.75,59.73 c -8.68,-26.26 -20.76,-44.9 -42.15,-44.9 -26.05,0 -43.42,36.43 -43.42,81.12 v 1.06 c 0,48.08 18,82.39 43.42,82.39 21.82,0 34.1,-19.27 43.63,-46.81 l 63.75,58.03 c -19.48,55.07 -51.89,100.19 -109.5,100.19 -64.18,0 -119.88,-77.52 -119.88,-192.53"
           id="path86" /><path
           d="m 2099.99,685.9 h 77.53 v 264.97 h 108.65 v 106.11 h -186.18 z"
           id="path87" /><path
           d="m 2298.05,890.51 v -204.6 h 79 v 203.12 c 0,45.96 14.83,65.66 35.58,65.66 20.75,0 35.8,-18 35.8,-63.12 V 686.12 h 78.58 v 201.85 c 0,126.87 -46.18,176.64 -115.01,176.64 -68.83,0 -113.95,-50.84 -113.95,-174.1 z"
           id="path88" /><path
           d="m 2557.91,685.9 h 129.62 c 32.2,0 52.32,11.44 65.87,33.26 8.26,13.13 14.19,32.19 14.19,57.61 v 1.27 c 0,43.84 -16.31,70.96 -41.3,84.94 29.65,13.77 48.93,39.18 48.93,90.23 v 1.06 c 0,59.52 -30.5,102.94 -88.96,102.94 h -128.35 v -371.3 z m 109.29,145.73 c 16.52,0 24.36,-8.89 24.36,-25.41 v -1.06 c 0,-16.31 -8.26,-25.42 -24.78,-25.42 h -33.47 v 52.11 h 33.89 v -0.21 z m 4.88,131.53 c 16.94,0 25.63,-11.01 25.63,-27.11 v -1.06 c 0,-15.88 -8.26,-26.9 -24.99,-26.9 h -39.18 v 55.07 h 38.76 -0.21 z"
           id="path89" /><path
           d="m 2889.61,685.9 h 88.53 c 91.92,0 138.09,72.44 138.09,182.36 v 1.06 c 0,109.71 -47.02,187.87 -140.63,187.87 h -85.78 V 686.11 Z m 90.23,262.64 c 35.37,0 58.24,-23.3 58.24,-76.67 v -1.06 c 0,-53.58 -22.67,-77.09 -58.24,-77.09 h -12.92 v 154.83 h 12.92 z"
           id="path90" /><path
           d="m 3132.35,685.9 h 197.41 V 787.57 H 3208.4 v 37.7 h 113.31 v 89.81 H 3208.4 v 40.24 h 123.05 v 101.67 h -199.1 V 685.91 Z"
           id="path91" /><path
           d="m 3449.62,685.9 h 77.31 v 264.97 h 108.89 v 106.11 h -186.2 z"
           id="path92" /><path
           d="m 3663.36,685.9 h 197.41 v 101.67 h -121.41 v 37.7 h 113.13 v 89.81 h -113.13 v 40.24 h 122.85 v 101.67 H 3663.37 V 685.91 Z"
           id="path93" /><path
           d="m 3891,685.9 h 72.43 l 82.44,163.73 V 685.9 h 76.63 v 371.08 h -68.58 l -86,-171.35 v 171.35 H 3891 Z"
           id="path94" /><path
           d="m 4135.84,1001.28 41.33,-79 c 25.18,30.71 53.98,43.42 80.88,43.42 14.03,0 19.95,-5.72 19.95,-15.67 v -1.48 c 0,-10.38 -7.24,-16.31 -32.02,-24.14 -51.85,-16.95 -97.61,-40.88 -97.61,-119.46 v -1.06 c 0,-70.53 34.32,-125.39 98.24,-125.39 44.49,0 77.78,17.15 104.45,51.05 l -37.71,83.87 c -22.02,-25.63 -47.89,-36.85 -69.44,-36.85 -11.44,0 -16.79,6.56 -16.79,15.68 v 1.06 c 0,10.16 6.15,16.52 30.75,23.93 59.27,17.37 98.88,44.9 98.88,119.88 v 1.06 c 0,77.94 -40.01,125.81 -102.27,125.81 -46.79,0 -89.16,-21.18 -118.65,-62.48"
           id="path95" /><path
           class="cls-1"
           d="m 4391.94,2645.53 c -14.37,-21.6 -32.19,-29.86 -44.49,-32.83 -0.8,0 -4.43,-1.27 -10.12,-1.27 -15.46,0 -39.44,6.99 -57.2,43.63 -4.89,30.28 -12.53,63.33 -23.74,99.34 h 18.22 c 2.53,-9.11 6.38,-19.91 11.84,-29.44 12.3,-21.18 32.19,-32.82 55.93,-32.82 9.77,0 16.73,2.12 18.22,2.33 11.44,2.75 27.31,10.16 42.77,27.11 4.02,-20.97 4.48,-49.56 -11.44,-76.04 z"
           id="path96" /><path
           class="cls-1"
           d="m 4167.63,2754.18 c -10.58,-34.53 -18.22,-66.29 -22.88,-95.52 -13.97,-30.71 -33.86,-47.23 -58.23,-47.23 -5.69,0 -9.54,1.06 -9.54,1.06 -13.11,3.18 -30.93,11.44 -45.53,33.68 -15.64,26.05 -15.23,54.65 -10.98,75.62 15.64,-17.16 31.56,-24.57 44.03,-27.54 0.23,0 7.42,-2.12 17.13,-2.12 23.74,0 43.63,11.65 55.93,32.82 5.52,9.53 9.31,20.33 11.84,29.44 h 18.68 l -0.46,-0.21 z"
           id="path97" /><path
           class="cls-1"
           d="m 4184.58,2851.4 4.66,40.88 c 3.39,29.86 14.83,47.02 23.11,55.7 8.28,-8.69 19.72,-26.05 23.05,-56.13 l 4.48,-41.52 26.67,31.99 c 13.57,16.31 27.13,22.66 35.99,25.2 2.36,-11.22 3.22,-30.71 -9.31,-56.34 l -5.69,-15.25 h -150.15 l -5.12,13.56 c -12.7,26.48 -12.3,46.39 -9.94,57.83 8.91,-2.55 22.25,-8.9 35.58,-24.78 l 26.5,-31.56 0.17,0.43 z"
           id="path98" /><path
           d="m 4421.77,2626.67 c -16.27,-24.99 -39.78,-42.15 -65.02,-48.29 -1.44,-0.43 -8.68,-2.33 -19.49,-2.33 -12.07,0 -31.33,2.75 -50.82,16.52 5.92,-146.78 -58.46,-209.26 -62.26,-212.65 l -12.07,-11.22 -12.07,11.22 c -3.62,3.39 -68.41,66.09 -62.26,213.08 -19.72,-14.4 -39.21,-16.95 -51.51,-16.95 -10.81,0 -18.22,2.12 -18.4,2.12 -26.27,6.35 -49.78,23.51 -66.51,49.14 -40.47,66.93 -4.25,139.16 -2.53,142.12 l 15.64,30.28 15.92,-30.28 c 12.07,-23.09 26.67,-37.28 43.17,-41.3 0,0 3.22,-1.06 7.88,-1.06 10.98,0 19.26,5.08 25.18,15.04 2.53,4.66 4.66,9.74 6.38,14.83 -14.43,6.14 -24.6,20.75 -24.6,37.7 0,12.71 5.75,23.93 14.6,31.56 l -3.39,9.11 c -28.17,58.04 -5.69,98.07 -4.83,99.76 l 6.96,9.11 h 10.18 c 7.01,0 26.67,-1.48 48.75,-16.73 13.97,42.15 41.51,57.61 42.94,58.24 l 8.51,4.66 8.28,-4.66 c 1.44,-0.85 29.2,-16.1 43,-58.67 22.42,15.46 43.17,18.64 52.49,16.73 l 9.14,-0.85 4.66,-8.05 c 1.04,-1.7 23.51,-41.94 -4.02,-98.49 l -4.02,-11.01 c 8.68,-7.41 14.2,-18.64 14.2,-31.13 0,-17.37 -10.4,-31.98 -25.24,-37.91 1.72,-5.08 3.79,-10.16 6.38,-14.61 5.92,-10.17 14.2,-15.25 25.41,-15.25 4.43,0 7.82,1.06 8.68,1.06 15.87,3.81 30.3,18 42.14,40.88 l 15.69,30.29 15.64,-30.29 c 1.72,-2.97 37.94,-75.19 -2.93,-142.76 m -340.17,66.28 c -9.77,0 -16.96,2.12 -17.19,2.12 -12.3,3.17 -28.17,10.38 -43.86,27.54 -4.02,-20.97 -4.66,-49.56 11.04,-75.62 14.83,-22.24 32.59,-30.5 45.53,-33.68 0,0 3.62,-1.06 9.54,-1.06 24.37,0 44.49,16.73 58.23,47.44 4.89,29.23 12.3,61 22.88,95.52 h -18.63 c -2.53,-9.11 -6.38,-19.91 -11.84,-29.44 -12.3,-21.18 -32.02,-32.62 -55.93,-32.62 m 221.33,215.42 c -8.91,-2.54 -22.42,-8.89 -35.99,-25.2 l -26.67,-31.99 -4.48,41.52 c -3.39,30.28 -14.83,47.44 -23.05,56.12 -8.28,-8.68 -19.72,-25.63 -23.11,-55.7 l -4.66,-40.88 -26.5,31.56 c -13.34,15.88 -26.67,22.24 -35.58,24.78 -2.3,-11.44 -2.93,-31.35 10,-57.83 l 5.06,-13.76 h 150.15 l 5.75,15.25 c 12.47,25.63 11.61,45.12 9.31,56.34 m 100.37,-186.18 c -15.46,-17.16 -31.1,-24.36 -42.77,-27.11 -1.26,-0.43 -8.45,-2.33 -18.22,-2.33 -23.74,0 -43.63,11.65 -55.93,32.83 -5.46,9.53 -9.31,20.33 -11.84,29.44 h -17.99 c 11.04,-36 18.86,-69.05 23.51,-99.34 17.76,-36.64 41.51,-43.63 57.2,-43.63 5.69,0 9.48,1.06 10.17,1.27 12.24,2.97 30.07,11.23 44.44,32.83 15.92,26.48 15.46,55.07 11.44,76.04 z"
           id="path99" /><path
           class="cls-1"
           d="m 4203.44,2750.37 h 17.36 c 60.82,-191.05 15.23,-292.51 -8.45,-328.72 -23.97,36.22 -69.5,137.67 -8.68,328.72"
           id="path100" /><path
           class="cls-1"
           d="m 2803.83,2645.53 c -14.4,-21.6 -32.19,-29.86 -44.48,-32.83 -0.85,0 -4.45,-1.27 -10.16,-1.27 -15.46,0 -39.4,6.99 -57.19,43.63 -4.87,30.28 -12.49,63.33 -23.72,99.34 h 18.22 c 2.54,-9.11 6.35,-19.91 11.86,-29.44 12.28,-21.18 32.19,-32.82 55.92,-32.82 9.74,0 16.73,2.12 18.21,2.33 11.44,2.75 27.32,10.16 42.79,27.11 4.02,-20.97 4.45,-49.56 -11.44,-76.04 z"
           id="path101" /><path
           class="cls-1"
           d="m 2579.72,2754.18 c -10.59,-34.53 -18.22,-66.29 -22.87,-95.52 -13.98,-30.71 -33.89,-47.23 -58.24,-47.23 -5.72,0 -9.53,1.06 -9.53,1.06 -13.14,3.18 -30.93,11.44 -45.54,33.68 -15.67,26.05 -15.25,54.65 -11.01,75.62 15.68,-17.16 31.56,-24.57 44.06,-27.54 0.21,0 7.41,-2.12 17.15,-2.12 23.72,0 43.63,11.65 55.92,32.82 5.51,9.53 9.32,20.33 11.86,29.44 h 18.64 l -0.43,-0.21 z"
           id="path102" /><path
           class="cls-1"
           d="m 2596.46,2851.4 4.66,40.88 c 3.39,29.86 14.83,47.02 23.09,55.7 8.26,-8.69 19.7,-26.05 23.09,-56.13 l 4.45,-41.52 26.69,31.99 c 13.56,16.31 27.11,22.66 36.01,25.2 2.33,-11.22 3.18,-30.71 -9.32,-56.34 l -5.72,-15.25 h -150.17 l -5.08,13.56 c -12.71,26.48 -12.28,46.39 -9.96,57.83 8.9,-2.55 22.24,-8.9 35.58,-24.78 l 26.48,-31.56 0.21,0.43 z"
           id="path103" /><path
           d="m 2833.69,2626.67 c -16.31,-24.99 -39.82,-42.15 -65.02,-48.29 -1.48,-0.43 -8.69,-2.33 -19.49,-2.33 -12.07,0 -31.35,2.75 -50.83,16.52 5.93,-146.78 -58.46,-209.26 -62.27,-212.65 l -12.07,-11.22 -12.07,11.22 c -3.6,3.39 -68.41,66.09 -62.27,213.08 -19.7,-14.4 -39.19,-16.95 -51.47,-16.95 -10.8,0 -18.21,2.12 -18.42,2.12 -26.27,6.35 -49.78,23.51 -66.51,49.14 -40.46,66.93 -4.24,139.16 -2.54,142.12 l 15.67,30.28 15.88,-30.28 c 12.08,-23.09 26.69,-37.28 43.21,-41.3 0,0 3.17,-1.06 7.84,-1.06 11.01,0 19.27,5.08 25.2,15.04 2.55,4.66 4.66,9.74 6.36,14.83 -14.41,6.14 -24.57,20.75 -24.57,37.7 0,12.71 5.72,23.93 14.61,31.56 l -3.39,9.11 c -28.17,58.04 -5.72,98.07 -4.87,99.76 l 6.99,9.11 h 10.17 c 6.98,0 26.68,-1.48 48.71,-16.73 13.98,42.15 41.51,57.61 42.99,58.24 l 8.47,4.66 8.26,-4.66 c 1.48,-0.85 29.23,-16.1 42.99,-58.67 22.45,15.46 43.21,18.64 52.53,16.73 l 9.11,-0.85 4.66,-8.05 c 1.06,-1.7 23.51,-41.94 -4.02,-98.49 l -4.02,-11.01 c 8.68,-7.41 14.19,-18.64 14.19,-31.13 0,-17.37 -10.38,-31.98 -25.2,-37.91 1.69,-5.08 3.81,-10.16 6.35,-14.61 5.93,-10.17 14.19,-15.25 25.41,-15.25 4.45,0 7.84,1.06 8.69,1.06 15.88,3.81 30.29,18 42.15,40.88 l 15.68,30.29 15.67,-30.29 c 1.7,-2.97 37.91,-75.19 -2.97,-142.76 m -340.16,66.28 c -9.74,0 -16.95,2.12 -17.15,2.12 -12.28,3.17 -28.17,10.38 -43.84,27.54 -4.02,-20.97 -4.66,-49.56 11.01,-75.62 14.83,-22.24 32.62,-30.5 45.53,-33.68 0,0 3.6,-1.06 9.53,-1.06 24.36,0 44.48,16.73 58.25,47.44 4.87,29.23 12.28,61 22.87,95.52 h -18.64 c -2.54,-9.11 -6.35,-19.91 -11.86,-29.44 -12.28,-21.18 -31.98,-32.62 -55.92,-32.62 m 221.34,215.42 c -8.9,-2.54 -22.45,-8.89 -36.01,-25.2 l -26.69,-31.99 -4.45,41.52 c -3.39,30.28 -14.83,47.44 -23.09,56.12 -8.26,-8.68 -19.7,-25.63 -23.09,-55.7 l -4.66,-40.88 -26.47,31.56 c -13.34,15.88 -26.69,22.24 -35.58,24.78 -2.33,-11.44 -2.97,-31.35 9.95,-57.83 l 5.09,-13.76 h 150.17 l 5.71,15.25 c 12.5,25.63 11.65,45.12 9.32,56.34 m 100.62,-186.18 c -15.46,-17.16 -31.13,-24.36 -42.79,-27.11 -1.27,-0.43 -8.47,-2.33 -18.22,-2.33 -23.72,0 -43.63,11.65 -55.91,32.83 -5.51,9.53 -9.32,20.33 -11.87,29.44 h -18 c 11.01,-36 18.86,-69.05 23.51,-99.34 17.79,-36.64 41.52,-43.63 57.19,-43.63 5.72,0 9.53,1.06 10.17,1.27 12.28,2.97 30.08,11.23 44.48,32.83 15.88,26.48 15.46,55.07 11.44,76.04 z"
           id="path104" /><path
           class="cls-1"
           d="m 2615.53,2750.37 h 17.37 c 60.79,-191.05 15.25,-292.51 -8.47,-328.72 -23.93,36.22 -69.47,137.67 -8.68,328.72"
           id="path105" /><path
           d="m 4138.42,3698.63 -179.18,-857.6 -0.86,-525.91 67.37,-84.72 V 2067.74 H 3917.5 v 62.9 h -26.04 v -62.9 h -106.75 v 62.9 h -27.94 v -62.9 h -106.12 v 65.66 h -27.77 l -5.69,-169.87 112.04,-7.2 -0.86,-28.59 -270.48,-173.68 c 23.51,-14.83 39.4,-42.36 39.4,-73.71 0,-47.23 -35.58,-85.57 -79.42,-85.57 -43.84,0 -79.64,38.34 -79.64,85.57 0,31.56 16.1,59.3 40.03,73.92 l -271.75,173.46 v 28.59 l 112.05,7.2 -5.93,169.87 h -26.05 v -65.66 h -106.33 v 62.9 h -27.96 v -62.9 h -106.96 v 62.9 h -26.05 v -62.9 h -108.02 v 162.66 l 67.56,84.72 -0.63,522.31 -179.62,860.99 h 237.44 v -266.45 c 0,-34.31 25.42,-62.27 56.77,-62.27 31.35,0 56.76,27.96 56.76,62.27 v 266.45 h 70.96 l -6.78,49.14 v 31.55 h 607.88 l 0.63,-31.55 -6.78,-49.14 h 72.26 v -266.45 c 0,-34.31 25.41,-62.27 56.74,-62.27 31.33,0 56.34,27.96 56.34,62.27 v 266.45 h 237.65 v 0.21 z M 3391.6,1974.11 h 53.8 v 127.93 h -53.8 z m 118.82,0 h 53.77 v 127.93 h -53.77 z m -136.19,-293.78 c 0,-25.84 19.69,-46.81 43.63,-46.81 23.94,0 43.42,20.97 43.42,46.81 0,25.84 -19.27,46.6 -43.42,46.6 -24.15,0 -43.63,-20.97 -43.63,-46.6 z m -99.55,293.78 h 53.8 v 127.93 h -53.8 z m 649.38,849.12 h -278.52 l -1.67,-49.77 h 280.02 v 49.77 z M 2913.97,2329.09 h 291.66 l -14.4,409.2 h -277.89 z m -0.63,444.37 h 276.62 l -1.7,49.77 h -274.92 z m 1010.54,-35.37 h -281.11 l -13.51,-409.21 h 293.52 l 1.09,409.21 z m 6.1,-444.37 h -302.03 l -1.67,-49.56 h 343.14 z m -244.2,-124.75 v -65.66 h 35.41 V 2166 h 98.7 v -62.69 h 35.99 V 2166 h 96.81 v -62.69 h 37.25 v 105.48 h -364.92 l -1.26,-39.82 h 62.03 z M 2883.9,2103.31 V 2166 h 96.8 v -62.69 h 36.01 V 2166 h 98.7 v -62.69 h 35.58 v 65.66 h 60.15 l -1.48,39.82 h -363.24 v -105.48 h 37.49 z m -16.52,140.85 h 341.22 l -1.7,49.56 h -300.12 z m 217.31,1419.09 v -231.08 c 0,-53.8 -41.3,-97.64 -92.13,-97.64 -50.83,0 -92.14,43.84 -92.14,97.64 v 231.08 h -158.64 l 167.32,-804.43 h 277.46 l -12.7,360.49 c -24.99,12.07 -42.36,38.76 -42.36,69.9 0,28.59 14.4,53.16 35.79,66.08 l -42.57,307.97 h -40.46 0.43 z M 3254.35,2977 h 59.52 v 234.68 h -59.52 z m 133.22,0 h 59.3 v 234.68 h -59.3 z m 192.55,234.9 h -59.53 v -234.68 h 59.53 z m 264.09,122.42 c -50.82,0 -92.09,43.84 -92.09,97.64 v 231.08 h -41.73 l -42.6,-307.97 c 21.38,-13.14 36.22,-37.71 36.22,-66.09 0,-32.41 -19.03,-60.15 -45.53,-70.96 l -11.84,-359.22 h 280.42 l 167.74,804.43 h -158.66 v -231.08 c 0,-53.8 -41.27,-97.64 -91.92,-97.64"
           id="path106" /></g></g></g></svg>
