<?xml version="1.0" encoding="UTF-8" standalone="no"?>
<!-- Created with Inkscape (http://www.inkscape.org/) -->

<svg
   width="400mm"
   height="400mm"
   viewBox="0 0 400 400"
   version="1.1"
   id="svg1"
   xml:space="preserve"
   inkscape:export-filename="..\New folder\ZAMALEK.svg"
   inkscape:export-xdpi="96"
   inkscape:export-ydpi="96"
   sodipodi:docname="CHELSEA.svg"
   xmlns:inkscape="http://www.inkscape.org/namespaces/inkscape"
   xmlns:sodipodi="http://sodipodi.sourceforge.net/DTD/sodipodi-0.dtd"
   xmlns="http://www.w3.org/2000/svg"
   xmlns:svg="http://www.w3.org/2000/svg"><sodipodi:namedview
     id="namedview1"
     pagecolor="#ffffff"
     bordercolor="#000000"
     borderopacity="0.25"
     inkscape:showpageshadow="2"
     inkscape:pageopacity="0.0"
     inkscape:pagecheckerboard="0"
     inkscape:deskcolor="#d1d1d1"
     inkscape:document-units="mm"><inkscape:page
       x="0"
       y="0"
       width="400"
       height="400"
       id="page2"
       margin="0"
       bleed="0" /></sodipodi:namedview><defs
     id="defs1" /><g
     inkscape:label="Layer 1"
     inkscape:groupmode="layer"
     id="layer1"><g
       id="layer1-5"
       transform="matrix(1.0534119,0,0,1.0534119,58.810249,2.4852703)"><path
         id="path19889"
         class="s0"
         d="m 252.3,76.2 -0.5,-1.5 -1.4,-0.6 C 213.9,56.8 169.3,53.9 137.7,53.5 v -0.1 h -3.7 -3.6 v 0.1 C 98.8,53.9 54.2,56.8 17.6,74.1 l -1.3,0.6 -0.5,1.5 c -55.8,167.2 49,258.3 116.4,297.7 l 1.8,1.1 1.9,-1.1 C 203.3,334.5 308,243.4 252.3,76.2 Z" /><path
         id="path19891"
         class="s1"
         d="M 248.9,77.3 C 210.8,59.4 164,57.3 134,57 104.1,57.3 57.2,59.4 19.2,77.3 -35.7,242.2 67.7,332 134,370.8 200.4,332 303.8,242.2 248.9,77.3 Z" /><path
         id="path19893"
         class="s2"
         d="m 51.9,217.7 v 61.9 C 61.7,294.2 73.1,307 84.7,318 V 240.8 C 72.5,235.1 61.3,227.2 51.9,217.7 Z" /><path
         id="path19895"
         class="s2"
         d="m 216.2,279.5 v -62.9 c -9.4,9.7 -20.5,17.8 -32.9,23.6 V 318 c 11.7,-11 23,-23.8 32.9,-38.5 z" /><path
         id="path19897"
         class="s2"
         d="m 133.5,251.6 c -5.4,0 -10.7,-0.4 -15.9,-1.1 v 93.7 c 5.7,3.9 11.3,7.3 16.4,10.3 5.2,-3 10.7,-6.4 16.5,-10.3 v -93.9 c -5.6,0.8 -11.2,1.3 -17,1.3 z" /><path
         id="path19899"
         class="s3"
         d="m 108.4,0 5.3,16.4 H 131 L 117,26.6 122.4,43 108.4,32.9 94.4,43 99.7,26.6 85.8,16.4 H 103 Z" /><path
         id="path19899 copy"
         class="s3"
         d="m 164.6,0 5.4,16.4 h 17.2 L 173.3,26.6 178.6,43 164.6,32.9 150.6,43 156,26.6 142,16.4 h 17.3 z" /><path
         id="path19901"
         class="s3"
         d="M 240.6,87 C 202,69 150.9,68.6 134.1,68 H 134 c 0,0 0,0 -0.1,0 C 117.2,68.6 66,69 27.5,87 -27.9,252.8 91.9,334.8 134,358.8 176.2,334.8 295.9,252.8 240.6,87 Z M 134,354.5 C 86.9,327.3 11.5,264.5 19.6,155.4 c 9.2,54.6 56.7,96.2 113.9,96.2 58.8,0 107.4,-44.1 114.6,-101 10.7,112.1 -66.3,176.3 -114.1,203.9 z" /><path
         id="path19903"
         class="s0"
         d="m 63,117.4 c -2,-1.6 -4.8,-2.4 -7.7,-2.4 -3.1,0 -5.7,0.8 -7.8,2.4 -2.9,2.2 -4.7,5.9 -4.7,9.9 v 17.6 c 0,0.3 0.2,0.5 0.5,0.5 h 6.3 c 0.3,0 0.5,-0.2 0.5,-0.5 v -8.2 h 10.3 v 8.2 c 0,0.3 0.3,0.5 0.5,0.5 h 6.3 c 0.3,0 0.5,-0.2 0.5,-0.5 v -17.6 c 0,-4 -1.7,-7.7 -4.7,-9.9 z m -2.6,12.9 H 50.1 v -2.7 c 0,-2 0.5,-3.6 1.7,-4.6 0.9,-0.8 2,-1.2 3.5,-1.2 1.4,0 2.6,0.4 3.5,1.2 1.1,1 1.6,2.6 1.6,4.6 z" /><path
         id="path19905"
         class="s0"
         d="M 90.9,139 H 78.8 v -23.1 c 0,-0.2 -0.2,-0.5 -0.5,-0.5 H 72 c -0.3,0 -0.5,0.3 -0.5,0.5 v 29 c 0,0.3 0.2,0.5 0.5,0.5 h 18.9 c 0.3,0 0.5,-0.2 0.5,-0.5 v -5.4 c 0,-0.3 -0.2,-0.5 -0.5,-0.5 z" /><path
         id="path19907"
         class="s0"
         d="m 119.9,117.4 c -2.1,-1.6 -4.8,-2.4 -7.8,-2.4 -3,0 -5.7,0.8 -7.8,2.4 -2.9,2.2 -4.7,5.9 -4.7,9.9 v 17.6 c 0,0.3 0.3,0.5 0.5,0.5 h 6.3 c 0.3,0 0.5,-0.2 0.5,-0.5 v -8.2 h 10.4 v 8.2 c 0,0.3 0.2,0.5 0.5,0.5 h 6.3 c 0.3,0 0.5,-0.2 0.5,-0.5 v -17.6 c 0,-4 -1.8,-7.7 -4.7,-9.9 z m -2.6,12.9 h -10.4 v -2.7 c 0,-2 0.6,-3.6 1.7,-4.6 0.9,-0.8 2,-1.2 3.5,-1.2 1.4,0 2.6,0.4 3.5,1.2 1.1,1 1.7,2.6 1.7,4.6 z" /><path
         id="path19909"
         class="s0"
         d="m 135.2,115.4 h -6.3 c -0.3,0 -0.5,0.3 -0.5,0.5 v 29 c 0,0.3 0.2,0.5 0.5,0.5 h 6.3 c 0.3,0 0.5,-0.2 0.5,-0.5 v -29 c 0,-0.2 -0.2,-0.5 -0.5,-0.5 z" /><path
         id="path19911"
         class="s0"
         d="M 165.9,115.4 H 160 c -0.3,0 -0.5,0.3 -0.5,0.5 v 17.5 l -13,-17.3 c -0.4,-0.6 -0.7,-0.7 -1.2,-0.7 h -5.5 c -0.3,0 -0.5,0.3 -0.5,0.5 v 29 c 0,0.3 0.2,0.5 0.5,0.5 h 5.9 c 0.3,0 0.6,-0.2 0.6,-0.5 v -17.5 l 12.9,17.3 c 0.4,0.6 0.7,0.7 1.2,0.7 h 5.5 c 0.3,0 0.5,-0.2 0.5,-0.5 v -29 c 0,-0.2 -0.2,-0.5 -0.5,-0.5 z" /><path
         id="path19913"
         class="s0"
         d="m 176.9,145.4 h 6.2 c 0.3,0 0.6,-0.2 0.6,-0.5 v -11.4 h 11.9 c 0.3,0 0.5,-0.2 0.5,-0.5 v -5.4 c 0,-0.3 -0.2,-0.5 -0.5,-0.5 h -11.9 v -5.3 h 13.9 c 0.3,0 0.5,-0.2 0.5,-0.5 v -5.4 c 0,-0.2 -0.2,-0.5 -0.5,-0.5 h -20.7 c -0.3,0 -0.6,0.3 -0.6,0.5 v 29 c 0,0.3 0.3,0.5 0.6,0.5 z" /><path
         id="path19915"
         class="s0"
         d="m 215.7,145.9 c 4.6,0 7.5,-1.1 9.5,-2.1 0.3,-0.1 0.3,-0.3 0.2,-0.6 l -2.6,-5.4 c -0.1,-0.2 -0.2,-0.2 -0.2,-0.2 q -0.1,0 -0.3,0.1 c -2.2,1.1 -4.3,1.6 -6.6,1.6 -4.9,0 -8.4,-3.7 -8.4,-8.9 0,-4.9 3.7,-8.8 8.4,-8.8 2.6,0 4.5,0.7 6.3,1.5 0.1,0.1 0.4,0.2 0.6,-0.2 l 2.5,-5.3 c 0.2,-0.4 0,-0.5 -0.2,-0.6 -1.7,-0.9 -4.5,-2 -9,-2 -9.3,0 -16.3,6.6 -16.3,15.4 0,9.7 6,15.5 16.1,15.5 z" /><path
         id="path19917"
         class="s0"
         d="m 48.5,90.8 c -2.7,0.5 -4.8,3.2 -4.8,6.2 0,1.6 0.7,2.5 1.9,2.2 0.7,-0.1 1.2,-0.7 1.3,-1 0.2,-0.3 0.3,-0.5 0.5,-0.9 0,0 -0.4,0.3 -0.7,0.2 -0.3,-0.1 -0.5,-0.7 -0.5,-1.3 0,-2.8 1.5,-3.8 2.3,-3.9 0.9,-0.2 2,0.6 2,3.4 0,3.2 -1.6,3.5 -2.3,3.6 -0.2,0.1 -0.3,0.1 -0.4,0.1 -3.3,0.6 -3.8,2.7 -3.8,3.8 0,1.4 0,2.1 0,3.6 0.9,-0.2 1.4,-0.2 2.3,-0.4 v -3.1 c 0,-1.1 0.2,-1.3 1.2,-1.5 0.3,-0.1 0.5,-0.1 0.8,-0.2 2.7,-0.4 5,-3.3 5,-6.2 0,-3.2 -2,-5.1 -4.8,-4.6 z" /><path
         id="path19919"
         class="s0"
         d="m 81.3,93.2 c 0,0.9 -0.4,1.3 -1.2,1.4 -1.2,0.2 -1.9,0.2 -3.2,0.4 -0.4,0 -0.6,0.1 -1,0.1 -0.2,0 -0.3,0 -0.4,0.1 -0.6,0 -1.2,-0.4 -1.5,-0.7 q 0.4,-1.1 0.4,-2.2 c 0,-2.8 -1.6,-5.5 -4.6,-5.1 -2,0.3 -3.4,1.7 -3.4,3.4 0,1.9 1.8,2.7 3.3,3.4 0.7,0.3 1.2,0.5 1.6,0.8 -0.2,0.6 -0.6,1 -1.5,1.1 -1.8,0.2 -2.7,0.4 -4.5,0.6 -0.3,0.1 -0.5,0.1 -0.9,0.2 q 0.1,-0.4 0.1,-0.7 c 0,-0.7 -0.4,-1.8 -1.9,-2.8 0,0 -1.4,-0.9 -4.5,-3.2 -0.2,-0.2 -0.3,-0.2 -0.5,-0.4 -0.4,1 -0.6,1.5 -1,2.4 1.9,1.2 2.8,1.9 4.7,3.1 0.9,0.6 1.2,1.3 1.2,1.7 0,0.1 0,0.1 -0.1,0.2 -3.1,0.4 -4.7,0.7 -7.7,1.2 v 2.3 c 3.6,-0.6 5.4,-0.9 9,-1.4 0.7,-0.1 1,-0.1 1.6,-0.2 1.7,-0.3 2.6,-0.4 4.3,-0.6 1.3,-0.2 2.5,-0.9 3.3,-1.9 0.5,0.6 1.5,1.2 2.9,1.1 0,0 0,0 0.1,0 0.4,-0.1 0.6,-0.1 1,-0.2 1.3,-0.1 2,-0.2 3.3,-0.3 1.6,-0.2 3.4,-1.3 3.4,-3.6 V 81.9 c -0.9,0.1 -1.4,0.2 -2.3,0.3 z M 69.8,88.7 C 71,88.5 72,90.3 72,92.6 q 0,0.1 0,0.3 -0.5,-0.3 -1.1,-0.5 c -1.2,-0.6 -2.2,-1.1 -2.2,-2.3 0,-0.8 0.5,-1.3 1.1,-1.4 z" /><path
         id="path19921"
         class="s0"
         d="M 86.6,96.3 C 87.5,96.2 88,96.1 88.9,96 V 81.4 c -0.9,0.1 -1.4,0.1 -2.3,0.2 0,6.3 0,8.8 0,14.7 z" /><path
         id="path19923"
         class="s0"
         d="m 155.2,95 c -0.7,0 -1.4,0.6 -1.4,1.4 0,0.9 0.7,1.6 1.4,1.6 0.8,0 1.4,-0.6 1.4,-1.4 0,-0.9 -0.6,-1.5 -1.4,-1.6 z" /><path
         id="path19925"
         class="s0"
         d="m 152.2,94.9 c -0.8,0 -1.4,0.6 -1.4,1.4 0,0.8 0.6,1.5 1.4,1.6 0.7,0 1.4,-0.7 1.4,-1.5 0,-0.8 -0.7,-1.5 -1.4,-1.5 z" /><path
         id="path19927"
         class="s0"
         d="m 97.7,84.3 c -2.8,0.3 -5,3 -5,6.1 0,3.3 1.9,5.4 5,5.1 2.8,-0.2 5,-2.9 5,-5.9 0,-3.3 -2.1,-5.5 -5,-5.3 z m -2.6,5.8 c 0,-3.1 1.6,-4.1 2.5,-4.2 0.9,0 2.6,0.7 2.6,3.8 0,2.7 -1.5,4.1 -2.6,4.2 -1,0.1 -2.5,-1.1 -2.5,-3.8 z" /><path
         id="path19929"
         class="s0"
         d="m 99.3,83.5 c 0.7,-0.1 1.4,-0.7 1.4,-1.5 0,-0.9 -0.7,-1.5 -1.4,-1.4 -0.8,0 -1.4,0.7 -1.4,1.6 0,0.8 0.6,1.4 1.4,1.3 z" /><path
         id="path19931"
         class="s0"
         d="m 96.2,83.7 c 0.8,0 1.4,-0.7 1.4,-1.5 0,-0.8 -0.6,-1.5 -1.4,-1.4 -0.8,0 -1.4,0.8 -1.4,1.6 0,0.8 0.6,1.4 1.4,1.3 z" /><path
         id="path19933"
         class="s0"
         d="m 71.4,86.4 c 0.7,-0.1 1.3,-0.8 1.3,-1.7 0,-0.8 -0.6,-1.4 -1.3,-1.3 -0.8,0.1 -1.4,0.9 -1.4,1.7 0,0.8 0.6,1.4 1.4,1.3 z" /><path
         id="path19935"
         class="s0"
         d="m 68.3,86.8 c 0.8,-0.1 1.4,-0.9 1.4,-1.7 0,-0.8 -0.7,-1.4 -1.4,-1.3 -0.8,0.1 -1.4,0.9 -1.4,1.7 0,0.8 0.6,1.4 1.4,1.3 z" /><path
         id="path19937"
         class="s0"
         d="m 127.3,90.3 c 0,0.9 -0.4,1.3 -1.2,1.3 -1.4,0 -2.1,0.1 -3.5,0.1 -0.7,0 -1.1,0 -1.8,0 -0.1,0 -0.1,0 -0.2,0 -0.8,-1.3 -1.8,-3.2 -2,-3.6 -0.7,-1.4 -1.7,-1.9 -2.5,-2.2 1.3,-1.6 2.7,-3 4.2,-4.7 0.6,-0.7 0.9,-1.1 1.5,-1.8 -1.1,0 -1.7,0 -2.9,0.1 -0.1,0.1 -0.1,0.1 -0.2,0.2 0,0 -3,3.7 -3.6,4.3 -1.4,1.7 -1.3,3.1 -1.3,3.2 v 2.7 c 0,-0.3 0.8,-2 1.3,-2.7 0.4,0.4 1,1 1.4,1.8 0.6,1.2 0.9,1.7 1.5,2.8 -2.6,0.1 -4,0.2 -6.6,0.3 -0.3,0 -0.4,0 -0.6,0 -0.2,0 -0.3,0.1 -0.5,0.1 -0.6,0 -1.7,-0.7 -1.8,-1.1 v -6.3 c -0.9,0 -1.4,0.1 -2.3,0.1 v 11 c 0,1.2 -1.3,1.7 -2,1.3 -0.5,-0.2 -0.8,-0.4 -1.3,-0.6 0.5,0.9 0.7,1.5 1.1,2.5 0.1,0 0.1,0 0.2,0 0.5,0.1 1,0.1 1,0.1 1.9,-0.2 3.3,-1.7 3.3,-3.8 v -1.5 c 0.6,0.3 1.3,0.6 2.1,0.6 0.1,0 0.1,0 0.2,-0.1 0.2,0 0.3,0 0.6,0 3.7,-0.2 5.6,-0.2 9.4,-0.3 0.7,-0.1 1.1,-0.1 1.8,-0.1 1.4,0 2.1,0 3.6,-0.1 1.6,0 3.4,-0.9 3.4,-3.1 V 79.2 c -0.9,0.1 -1.4,0.1 -2.3,0.1 0,4.7 0,6.7 0,11 z" /><path
         id="path19939"
         class="s0"
         d="m 141,85.1 c 0.8,0 1.4,-0.6 1.4,-1.4 0,-0.8 -0.6,-1.4 -1.4,-1.4 -0.7,-0.1 -1.4,0.6 -1.4,1.4 0,0.7 0.7,1.4 1.4,1.4 z" /><path
         id="path19941"
         class="s0"
         d="m 176.4,92.1 c 0,0.8 -0.3,1.1 -1.1,1.1 -0.9,-0.1 -1.4,-0.1 -2.2,-0.2 -2,-0.2 -3,-0.2 -5,-0.4 -2.8,-0.2 -3.1,-2.3 -3.1,-3.2 0,-1.9 1.2,-3.9 2.9,-3.8 1.2,0.1 2.1,1.4 2.1,1.5 0,-1 0,-1.6 0.1,-2.6 -0.7,-0.3 -1.9,-0.5 -2.7,-0.5 -3.2,-0.1 -4.9,2.7 -4.9,5.4 0,1.1 0.4,2.1 1,2.9 -2.1,-0.1 -3.1,-0.1 -5.2,-0.2 -0.3,0 -0.5,-0.1 -0.8,-0.1 -0.1,0 -0.1,0 -0.2,0 -0.9,0 -1.7,-0.9 -1.8,-1.2 v -6.3 c -0.9,0 -1.4,0 -2.3,-0.1 v 6.4 c 0,0.7 -0.5,1.1 -1.4,1 -0.4,0 -0.6,0 -1.1,0 -0.1,0 -0.2,0 -0.3,-0.1 -0.2,0 -0.4,0 -0.6,0 -0.8,0 -1.6,-0.8 -1.8,-1.1 v -5.4 c -0.9,0 -1.4,0 -2.3,0 v 5.6 c 0,3.4 -2.3,4.7 -3,5 -0.2,0.1 -0.7,0.3 -1.5,0.3 -2.9,0 -4.5,-3 -4.5,-5.7 v -5.3 c -0.9,0 -1.4,0 -2.3,0 v 3.4 c 0,2 0,2.2 0,2.8 0.1,0.2 0.1,0.4 0.1,0.7 0.6,3.4 3.2,5.9 6.6,5.9 3,0.1 5.6,-1.9 6.5,-4.8 0.7,0.6 1.6,1 2.6,1 0.1,0 0.1,0 0.2,0 0.1,0 0.2,0 0.3,0 0.5,0 0.7,0 1.1,0 1.7,0.1 2.6,-0.4 3.1,-1 0.6,0.6 1.5,1.2 2.7,1.3 0.1,0 0.1,0 0.2,0 0.2,0 0.3,0 0.5,0 5.9,0.3 8.8,0.5 14.8,0.9 0.9,0.1 1.3,0.2 2.2,0.2 q 0.1,0 0.2,0.1 v -0.1 c 1.6,0.1 3.2,-0.6 3.2,-2.8 V 81.2 c -0.9,-0.1 -1.4,-0.1 -2.3,-0.2 z" /><path
         id="path19943"
         class="s0"
         d="m 181.7,96.1 c 1,0.1 1.4,0.1 2.4,0.2 V 81.7 c -1,-0.1 -1.4,-0.1 -2.4,-0.2 z" /><path
         id="path19945"
         class="s0"
         d="m 197,91.5 c 0.2,-4.5 2.4,-5.1 4.4,-4.8 0.3,0 0.5,0 0.8,0.1 -0.3,-0.7 -0.4,-1 -0.7,-1.7 -0.1,0 -0.2,0 -0.3,-0.1 -6.2,-0.8 -6.4,4.9 -6.6,8.9 0,0.2 0,0.3 0,0.5 2,0.3 3.1,0.4 5.1,0.7 -0.6,1.9 -2.3,3.1 -4.3,2.8 -2.8,-0.3 -4.3,-3.3 -4.3,-5.8 v -3.7 c -0.9,-0.2 -1.4,-0.2 -2.3,-0.3 v 3.6 c 0,4.1 2.8,7.6 6.6,8.1 4.1,0.5 6.5,-1.7 6.9,-6.1 0.1,-0.2 0.1,-0.3 0.1,-0.6 -2.2,-0.3 -3.3,-0.4 -5.5,-0.7 0.1,-0.3 0.1,-0.6 0.1,-0.9 z" /><path
         id="path19947"
         class="s0"
         d="m 209.4,91.6 q -1,-1 -2.2,-2.3 c -0.2,-0.2 -0.3,-0.3 -0.5,-0.5 -0.4,0.8 -0.6,1.2 -1.1,2 1.9,1.8 2.8,2.7 4.6,4.5 1.4,1.3 1.4,2.1 1.4,2.1 0,0.1 -0.1,0.2 -0.1,0.2 -3.1,-0.5 -4.7,-0.8 -7.8,-1.2 v 2.3 c 3.1,0.5 4.7,0.7 7.7,1.2 0.6,-0.5 0.9,-0.7 1.5,-1.2 0.2,-0.2 0.6,-0.7 0.6,-1.5 0,-1.5 -1.3,-2.9 -4.1,-5.6 z" /><path
         id="path19949"
         class="s0"
         d="m 224.8,90.6 c 0.8,0.1 1.4,-0.4 1.4,-1.3 0,-0.8 -0.6,-1.6 -1.4,-1.7 -0.8,-0.2 -1.4,0.4 -1.4,1.2 0,0.8 0.6,1.6 1.4,1.8 z" /><path
         id="path19951"
         class="s0"
         d="m 223.7,98.4 c 0,0.9 -0.4,1.2 -1.2,1.1 -0.1,0 -0.2,-0.1 -0.3,-0.1 -1.1,-0.2 -1.7,-0.3 -2.9,-0.5 -0.1,0 -0.2,0 -0.3,-0.1 -0.1,0 -1.3,-0.2 -1.3,-1.4 V 86.3 c -0.9,-0.2 -1.3,-0.2 -2.3,-0.4 v 11.5 c 0,3.1 2.9,3.6 3.9,3.8 0,0 0,0 0,0 1.2,0.2 1.8,0.3 2.9,0.5 0.2,0 0.2,0.1 0.4,0.1 1.6,0.3 3.4,-0.2 3.4,-2.5 v -7.7 c -0.9,-0.2 -1.4,-0.2 -2.3,-0.4 z" /><path
         id="path19953"
         class="s0"
         d="m 118.4,329.3 h -5.7 c -0.2,0 -0.3,-0.1 -0.3,-0.2 v -1.7 c 0,-0.1 0.1,-0.2 0.3,-0.2 h 1.7 v -8.9 l -2,0.3 c -0.1,0.1 -0.2,-0.1 -0.2,-0.2 v -1.5 c 0,-0.1 0.1,-0.2 0.2,-0.2 l 2.3,-0.8 c 0.1,0 0.2,0 0.3,0 h 1.5 c 0.1,0 0.2,0.1 0.2,0.2 v 11.1 h 1.7 c 0.1,0 0.3,0.1 0.3,0.2 v 1.7 c 0,0.1 -0.2,0.2 -0.3,0.2 z" /><path
         id="path19955"
         class="s0"
         d="m 125.4,329.5 c -2.1,0 -2.9,-0.7 -3.6,-1.1 -0.1,-0.1 -0.1,-0.3 0,-0.4 l 1.1,-1.4 c 0.1,-0.1 0.2,-0.1 0.3,-0.1 0.8,0.6 1.4,0.8 2.2,0.8 1.7,0 2.6,-1.6 2.9,-3.7 -0.7,0.6 -1.6,1 -2.7,1 -2.4,0 -4.1,-1.7 -4.1,-4.5 0,-2.4 1.9,-4.2 4.5,-4.2 2.8,0 4.7,1.6 4.7,6.1 0,2.9 -0.8,7.5 -5.3,7.5 z M 126,318 c -1.4,0 -2.2,1 -2.2,2.1 0,1.7 0.9,2.3 1.8,2.3 0.9,0 1.9,-0.2 2.7,-1.4 -0.1,-2.1 -0.9,-3 -2.3,-3 z" /><path
         id="path19957"
         class="s0"
         d="m 138.5,329.5 c -2.8,0 -4.7,-1.7 -4.7,-6.2 0,-2.9 0.8,-7.4 5.3,-7.4 2.1,0 2.9,0.6 3.6,1.1 0.1,0.1 0.1,0.2 0,0.3 l -1.1,1.5 c -0.1,0.1 -0.2,0.1 -0.3,0 -0.8,-0.6 -1.4,-0.8 -2.2,-0.8 -1.7,0 -2.6,1.6 -2.9,3.7 0.7,-0.5 1.6,-0.9 2.7,-0.9 2.4,0 4.1,1.6 4.1,4.4 0,2.5 -1.9,4.3 -4.5,4.3 z m 0.4,-6.6 c -0.8,0 -1.9,0.2 -2.7,1.5 0.2,2 0.9,2.9 2.3,2.9 1.4,0 2.2,-1 2.2,-2.1 0,-1.7 -0.8,-2.3 -1.8,-2.3 z" /><path
         id="path19959"
         class="s0"
         d="m 151.4,329.5 c -3.1,0 -4.9,-1.4 -4.9,-3.6 0,-2.2 1.5,-3.1 2.6,-3.6 -0.9,-0.4 -2.1,-1.2 -2.1,-3.1 0,-1.9 1.7,-3.3 4.4,-3.3 2.6,0 4.3,1.4 4.3,3.3 0,1.7 -0.9,2.5 -2.1,3.1 1.9,1 2.6,1.8 2.6,3.6 0,2.2 -1.8,3.6 -4.8,3.6 z m -0.1,-6.1 c -1.2,0.5 -2.5,1.3 -2.5,2.5 0,0.4 0.3,1.4 2.5,1.4 2.3,0 2.5,-1 2.5,-1.4 0,-1.1 -1.1,-1.8 -2.5,-2.5 z m 0.1,-5.4 c -1.9,0 -2.1,1 -2.1,1.2 0,0.9 1.1,1.5 2.1,2 1.1,-0.5 1.9,-1 1.9,-2 0,-0.2 -0.1,-1.2 -1.9,-1.2 z" /><path
         id="path19961"
         class="s1"
         d="m 215.9,265.7 0.3,1.7 c -0.8,-0.4 -1.6,-0.7 -2.6,-1 l -0.2,-1.2 -2.8,-7.2 -2.1,5.5 0.2,1.5 q -1.1,-0.2 -2.4,-0.5 l -0.2,-1.2 -3.1,-7.4 -2.9,6.9 c -0.6,-4 -1.5,-9.9 -2.4,-15.5 0,-0.7 -0.3,-1.4 -0.7,-2.1 l -0.3,-1.6 -1.3,-5.9 -0.9,2.3 0.4,2.9 q -0.8,-0.7 -2,-1.5 l -0.2,-1.7 -2.1,-6.5 -1.5,3.8 0.3,2.5 q -0.9,-0.4 -1.9,-0.8 l -0.2,-1.9 -2,-6.5 -0.9,1.7 -2.6,-19.8 c 0,0 -0.1,-0.5 -0.7,-1.2 l -1,-4.7 -0.3,1.1 0.3,2.1 c -0.5,-0.5 -1,-1 -1.7,-1.6 l -0.1,-0.9 -1.3,-4.5 -0.8,2.1 0.3,1.8 c -0.6,-0.4 -1.3,-0.8 -2,-1.3 l -0.1,-0.9 -1.5,-4.7 -1.1,2.7 0.2,1.6 c -0.6,-0.3 -1.3,-0.7 -2,-1 l -0.1,-0.9 -1.8,-5 -1.8,3.2 0.1,1.4 c -0.6,-0.3 -1.3,-0.5 -2,-0.7 v -1 l -2.2,-5 -2.2,3.5 0.1,1.3 q -1,-0.2 -2.1,-0.5 l -0.1,-1 -2.6,-5.1 -2.3,3.3 c -0.3,-3.2 -0.8,-8.8 -1.2,-13.6 h 3.2 c -0.1,-0.4 -0.3,-0.8 -0.6,-0.9 -0.4,-0.2 -1.4,-0.4 -2.7,-0.6 -0.2,-2 -0.4,-3.7 -0.5,-4.9 q -0.3,-0.8 -0.8,-1.5 l -0.8,-3.4 -0.7,1.6 q -0.6,-0.5 -1.2,-0.9 l -1.6,-4.1 -1.6,2.5 c -0.3,-0.1 -0.7,-0.2 -1.1,-0.4 l -1.8,-4 -1.8,3.2 c -0.4,-0.1 -0.8,-0.1 -1.2,-0.2 l -1.9,-3.9 -2,3.6 c -0.2,0 -0.4,0 -0.6,0 q -0.3,0 -0.5,0 l -2.1,-3.6 -1.9,3.9 q -0.5,0.1 -1.1,0.2 l -1.9,-3.2 -1.8,4 c -0.4,0.2 -0.7,0.3 -1.1,0.4 l -1.6,-2.5 -1.6,4.1 q -0.6,0.4 -1.1,0.9 l -0.8,-1.6 -0.8,3.4 c -0.4,0.4 -0.7,1 -0.9,1.5 -0.1,1.3 -0.3,3 -0.5,4.9 -1.3,0.1 -2.4,0.4 -2.8,0.6 -0.4,0.1 -0.5,0.5 -0.6,0.9 h 3.3 c -0.4,4.8 -0.9,10.3 -1.2,13.6 l -2.2,-3.3 -2.6,5.1 -0.1,1.1 q -1.1,0.3 -2.2,0.5 l 0.1,-1.4 -2.2,-3.4 -2.1,5 -0.1,0.9 q -1,0.3 -1.9,0.6 l 0.1,-1.3 -1.9,-3.1 -1.7,4.9 -0.1,0.9 q -1.1,0.4 -2,0.9 l 0.1,-1.4 -1,-2.7 -1.6,4.6 -0.1,0.9 q -1,0.6 -1.9,1.2 l 0.3,-1.7 -0.8,-2.1 -1.3,4.6 -0.1,0.7 q -1,0.9 -1.7,1.6 l 0.3,-2 -0.3,-1.1 -1.1,4.5 c -0.5,0.8 -0.6,1.2 -0.6,1.2 l -2.5,20.3 -1,-1.7 -1.9,6.3 -0.1,1.8 q -1,0.4 -1.9,0.8 l 0.3,-2.5 -1.5,-3.8 -2.2,6.6 -0.1,1.6 c -0.8,0.4 -1.4,0.9 -2,1.4 l 0.4,-2.8 -0.9,-2.5 -1.3,6.1 -0.2,1.4 c -0.5,0.8 -0.8,1.5 -1,2.3 -0.6,4.2 -1.4,9.8 -2.3,15 l -0.3,-0.1 h -0.1 v -0.1 l -2.6,-6.2 -3.1,7.4 -0.2,1.2 c -0.9,0.2 -1.7,0.4 -2.4,0.6 l 0.2,-1.5 -2.1,-5.6 -2.8,7.3 -0.2,1.2 c -1,0.3 -1.9,0.6 -2.6,1 l 0.3,-1.7 -1.1,-4.5 -2.6,7.5 c 0.1,0.2 0.2,0.3 0.3,0.5 0,0 0,0 0,0 3.4,5.7 7,11.1 10.8,16.3 q 0,0 0,-0.1 c 0.8,1 1.5,2 2.2,2.9 h 38.8 q -0.1,0.4 -0.2,0.5 h 33.6 q 0,0 0,-0.3 0,0.3 0,0.3 h 71.7 c 4.9,-6.3 9.5,-13 13.7,-20.2 l -2.6,-7.5 z" /><path
         id="path19963"
         class="s0"
         d="m 147.7,296.6 3.4,2.6 38.9,-2.6 z" /><path
         id="path19965"
         class="s0"
         d="m 155.6,302.4 22.8,16.1 q 1.2,-1.1 2.4,-2.2 z" /><path
         id="path19967"
         class="s0"
         d="m 196,292.3 h -51.4 l 3.6,1.9 z" /><path
         id="path19969"
         class="s0"
         d="m 80.1,274.3 c 0,0 1.7,0 1.7,-1.1 l 0.3,-2.3 c 0.1,-1 -0.3,-1.7 -1.6,-1.7 -1.3,0.1 -1.5,0.9 -1.6,1.9 l -0.3,2.2 c 0,1.1 0.6,1 1.5,1 z" /><path
         id="path19971"
         class="s0"
         d="M 129.1,169.1 H 129 l -2.5,-4.1 -2.3,5.3 q 0,0 0,0 l -2.1,-3.5 -2.3,5.8 -1.3,-2.7 -1.6,6.3 v 0.1 c 0,0.1 0,0.3 -0.1,0.4 0.2,-0.4 0.5,-0.7 0.8,-1.1 2.6,-3.3 8.8,-5.6 16.5,-5.7 7.7,0.1 14,2.4 16.6,5.7 q 0.3,0.4 0.6,0.9 v -0.4 l -1.5,-6.2 -1.3,2.7 -2.3,-5.8 -2.1,3.5 -2.4,-5.3 -2.4,4.2 c 0,0 -0.1,0 -0.1,-0.1 l -2.4,-5 -2.7,4.6 -2.6,-4.6 z" /><path
         id="path19973"
         class="s0"
         d="m 97.2,217 0.5,-6 c 0,0 -0.9,0.4 -1.3,0.5 0,0.6 -0.5,5.6 -0.6,6 0.8,-0.3 1.4,-0.5 1.4,-0.5 z" /><path
         id="path19975"
         class="s0"
         d="m 140.6,264.3 c 0.1,7.4 0.2,17.5 0.2,18.1 -3.7,0.1 -6.8,0.2 -6.8,0.2 l -0.1,-0.1 c -0.3,0 -3.3,0 -6.7,-0.1 0,-0.5 0.1,-9.2 0.1,-16.4 -20.4,5.5 -26.2,20.9 -26.7,22.9 h 105.3 c 4,-5.2 7.8,-10.7 11.5,-16.5 -11.4,-5.6 -43.8,-7.9 -76.8,-8.1 z m 18.1,8.3 c 0,0 -2.1,0.2 -2.1,-0.9 l -0.1,-2.2 c 0,-1.2 0.3,-1.9 1.8,-1.9 1.8,0.1 2.2,0.5 2.3,1.9 l 0.1,1.9 c 0,1.2 -0.9,1.3 -2,1.2 z M 142,286.3 h -15.4 v -2 H 142 Z m 46,-12 c 0,0 -1.7,0 -1.7,-1.1 l -0.2,-2.3 c -0.1,-0.9 0.3,-1.7 1.5,-1.7 1.4,0.1 1.5,0.9 1.6,1.9 l 0.3,2.2 c 0,1.2 -0.6,1 -1.5,1 z" /><path
         id="path19977"
         class="s0"
         d="m 50.7,272.4 q 4.3,6.8 9,13.2 c 0.8,-4.6 2.1,-12.1 2.8,-16.7 h -0.1 c -5,1 -8.9,2.1 -11.7,3.5 z" /><path
         id="path19979"
         class="s0"
         d="m 120.4,294.3 3.6,-2 H 72.5 Z" /><path
         id="path19981"
         class="s0"
         d="m 89.9,318.7 23,-16.3 -25.4,14.1 c 0.8,0.7 1.6,1.5 2.4,2.2 z" /><path
         id="path19983"
         class="s0"
         d="M 120.9,296.7 H 78.6 l 38.9,2.5 z" /><path
         id="path19985"
         class="s0"
         d="m 145,296.6 h -21.7 v 2.2 H 145 Z" /><path
         id="path19987"
         class="s0"
         d="m 125,294 h 18.5 v -1.7 H 125 Z" /><path
         id="path19989"
         class="s0"
         d="m 88,204.2 -1.5,6.8 -0.3,2.3 c 0.3,-0.6 0.6,-1.2 1.1,-1.8 6.7,-9.5 30.9,-13.7 46.8,-13.4 15.9,-0.3 40.1,3.9 46.9,13.4 0.4,0.6 0.7,1.2 1,1.7 -0.1,-0.2 -0.2,-1.1 -0.2,-1.1 l -0.1,-1.1 -1.5,-6.8 -0.9,3 0.2,1.6 c -0.2,-0.2 -0.4,-0.3 -0.6,-0.5 l -0.1,-1.4 -1.8,-6.1 -1.3,3.7 0.2,1.4 c -0.2,-0.2 -0.5,-0.3 -0.8,-0.5 l -0.2,-1.4 -2,-6 -1.5,4.1 0.1,1.3 c -0.3,-0.1 -0.7,-0.3 -1,-0.4 l -0.1,-1.3 -2.1,-6 -2.5,4.2 0.1,1.3 q -0.4,-0.1 -0.9,-0.3 l -0.1,-1.3 -2.6,-5.9 -2.7,4.4 0.1,1.3 c -0.4,-0.1 -0.8,-0.1 -1.2,-0.2 l -0.1,-1.3 -3,-6 -2.5,3.5 c -0.2,-3.1 -0.7,-8 -1,-12.3 h 3.7 c 0,0 0,-1.4 -1,-1.9 -0.6,-0.3 -2,-0.5 -3,-0.6 0,-0.1 0,-0.2 0,-0.3 v 0.1 c -0.1,-1.2 0,-1.8 -0.7,-3 -2.8,-4.1 -9.5,-5.3 -13.7,-5.7 -0.9,0.5 -1.7,1.2 -2.4,2.1 0.3,0.3 0.5,0.6 0.5,1.2 0.1,2.5 0.1,3.6 0,3.9 -0.4,0 -1.1,0 -1.2,0 0,0 -0.7,0 -1.2,0 0,-0.2 0,-0.8 0,-1.9 -1.8,3.8 -2.6,8.8 -3,13 l -3.8,5.7 v 1.1 q -0.8,0 -1.5,0.2 v -1.2 l -3.2,-5.3 -1.3,2.2 c 0.4,-6.5 1.1,-17.2 1.2,-18.5 0,0 0.1,0 0.1,-0.1 -1.6,0.8 -3,1.9 -4,3.3 -0.7,1.2 -0.7,1.8 -0.9,3 v 0.2 c -0.9,0.1 -2.5,0.3 -3.1,0.6 -0.9,0.5 -1,1.9 -1,1.9 h 3.9 c -0.4,4.3 -0.8,9.2 -1.1,12.4 l -2.4,-3.6 -3,6 -0.1,1.3 c -0.4,0.1 -0.8,0.2 -1.1,0.3 l 0.1,-1.4 -2.9,-4.4 -2.5,6 -0.1,1.2 q -0.4,0.2 -0.9,0.3 l 0.1,-1.2 -2.5,-4.3 -2.1,6 -0.1,1.2 c -0.4,0.2 -0.7,0.3 -1,0.5 l 0.1,-1.3 -1.6,-4 -1.9,5.9 -0.1,1.3 c -0.3,0.2 -0.6,0.4 -0.9,0.6 l 0.2,-1.4 -1.3,-3.7 -1.8,6.1 -0.1,1.3 q -0.3,0.3 -0.6,0.5 l 0.2,-1.4 z m 54.3,-28.4 c 0.1,1.3 0.2,4.1 0.2,4.1 0,0 -0.5,-0.1 -1.3,-0.3 -0.1,-1 -0.2,-4.1 -0.2,-4.1 0,0 0.7,0.1 1.3,0.3 z m 3.2,0.9 c 0,0.4 0.2,4 0.2,4.3 -0.5,-0.2 -1.2,-0.5 -1.2,-0.5 l -0.2,-4.2 c 0,0 0.5,0.1 1.2,0.4 z m 2.5,0 c 0.3,0.2 0.6,0.9 0.6,1.4 0.1,1.3 0.2,3.6 0.3,4.6 -0.4,-0.3 -1.1,-0.7 -1.1,-0.7 0,0 -0.2,-4.2 -0.2,-4.4 0,-0.3 0,-0.8 0.4,-0.9 z m -9.2,-1.5 c 0,1 0.1,3.3 0.1,4 -0.7,-0.1 -1.4,-0.2 -1.4,-0.2 l -0.1,-4 c 0,0 1,0.1 1.4,0.2 z" /><path
         id="path19991"
         class="s0"
         d="m 122.7,176.7 c 0,0.5 -0.1,4 -0.2,4.3 0.5,-0.2 1.2,-0.4 1.2,-0.4 l 0.3,-4.3 c 0,0 -0.6,0.2 -1.3,0.4 z" /><path
         id="path19993"
         class="s0"
         d="m 127.2,175.6 c 0,0 -0.7,0.1 -1.3,0.2 -0.1,1.3 -0.2,4.1 -0.2,4.1 0,0 0.5,-0.1 1.3,-0.3 0.1,-0.9 0.2,-4 0.2,-4 z" /><path
         id="path19995"
         class="s0"
         d="m 98.4,241.8 c -0.4,0.1 -1.5,0.3 -1.7,0.3 -0.3,0.1 -0.4,0.2 -0.4,0.5 -0.1,0.2 -0.2,1.7 -0.2,2.1 0,0.4 0.2,0.4 0.4,0.3 0.5,0 1.1,-0.1 1.6,-0.2 0.3,-0.1 0.5,-0.2 0.5,-0.4 0,-0.2 0.1,-1.6 0.1,-2.2 0.1,-0.3 0,-0.5 -0.3,-0.4 z" /><path
         id="path19997"
         class="s0"
         d="m 134,233.1 c 19,-0.2 45.6,2 58.8,9.7 2,1.2 3.7,2.5 4.9,4 l -0.5,-3.4 -1.7,-7.4 -1.5,3.8 0.4,2.5 c -0.3,-0.2 -0.6,-0.4 -0.9,-0.6 l -0.3,-2.1 -2.5,-8 -2,5.2 0.2,2.4 c -0.3,-0.1 -0.5,-0.2 -0.8,-0.4 l -0.3,-2.1 -2.3,-7.7 -1.2,2.1 -1.6,-12.7 c -0.4,-2 -2,-6.1 -7.2,-9.4 -2.2,-1.3 -5,-2.5 -8.1,-3.5 -7.1,-2.4 -16.5,-4.1 -26.8,-4.6 -5.4,0.5 -9.6,2.2 -12.8,4.6 0,2 -0.1,5.7 -0.1,5.7 0,0 -1,0 -1.9,0.1 0.1,-0.4 0.1,-2.4 0.2,-4.2 -5.4,5.2 -7.4,12.4 -8.2,17.7 l -0.1,0.2 c 0.2,-4.6 0.4,-9.5 0.5,-10.1 0.1,-1.2 -1.5,-1 -1.6,0.1 0,0.7 -0.3,7.7 -0.6,13.2 l -0.7,1.3 -0.1,2.1 q -0.8,0.1 -1.9,0.2 l 0.1,-2.2 -3.5,-6.8 -3.8,7.6 -0.2,2.4 c -0.5,0.1 -1.1,0.2 -1.6,0.2 l 0.1,-2.3 -3.6,-6.5 -3.8,7.7 -0.2,2.5 q -0.9,0.1 -1.7,0.3 l 0.2,-2.5 -1.7,-4.1 -1,-2.1 -0.2,0.4 c 0.2,-2 0.4,-3.8 0.5,-4.6 0.1,-1 0.8,-1.6 1.2,-1.5 0.4,-4.2 0.8,-8.7 1.2,-12.7 q -1.4,0.7 -2.5,1.4 c -6,3.8 -7.2,8.7 -7.3,10.2 0,-0.1 0,-0.2 0,-0.2 l -1.5,12.4 -1.3,-2 -2.1,7.3 -0.2,2.1 c -0.3,0.1 -0.6,0.2 -0.9,0.4 l 0.3,-2.3 -2.1,-5.2 -2.5,7.9 -0.2,2 q -0.5,0.3 -0.9,0.7 l 0.3,-2.4 -1.4,-4.2 -1.8,7.7 -0.5,3.4 c 1.1,-1.4 2.7,-2.6 4.7,-3.8 13.2,-7.7 39.7,-10.1 58.6,-9.9 z m 1.6,-7.2 c -0.7,0 -2.3,0 -3,0 0,-0.9 0.1,-1.3 0.1,-3.8 0.1,-1.8 1.4,-2.9 1.4,-2.9 0,0 1.4,1.1 1.4,2.9 0.1,2.5 0.2,2.9 0.1,3.8 z m 6.6,-20.4 c 0,1.8 0.1,5.2 0.1,5.8 -0.8,-0.1 -1.8,-0.1 -1.8,-0.1 0,0 -0.1,-3.9 -0.1,-5.9 0.7,0.1 1.4,0.1 1.8,0.2 z m 6.2,0.5 0.3,5.9 -1.9,-0.2 c 0,0 -0.2,-4.1 -0.2,-5.9 1,0.1 1.8,0.2 1.8,0.2 z m 3.3,9 c 0,0.7 0.3,7.4 0.5,12.8 l -1.6,-3.2 c -0.2,-4.5 -0.4,-9.1 -0.5,-9.7 -0.1,-1.2 1.5,-1 1.6,0.1 z m 2.1,-8.3 c 0.1,1.2 0.3,5.4 0.4,5.8 -0.9,-0.1 -1.9,-0.2 -1.9,-0.2 l -0.3,-5.9 c 0,0 1.1,0.2 1.8,0.3 z m 5,0.9 c 0.1,1.7 0.3,5.4 0.3,5.9 -0.8,-0.1 -1.5,-0.3 -1.5,-0.3 l -0.3,-5.9 c 0,0 0.8,0.2 1.5,0.3 z m 3.8,-0.8 c 0.4,0.2 1,1 1.2,2.6 0.2,2 0.3,4.4 0.4,5.3 -1.1,-0.3 -2.3,-0.6 -2.3,-0.6 0,0 -0.2,-2.2 -0.4,-5.2 -0.1,-2 1.1,-2.1 1.1,-2.1 z m 2.7,21.4 -0.7,1.3 -1.6,-0.4 c 0,0 -0.1,-1.3 -0.4,-4.4 -0.1,-1.8 1.2,-2.2 1.2,-2.2 0,0 1.1,0.7 1.3,2.6 0.1,1.8 0.2,2.6 0.2,3.1 z m 2.8,-18.1 c 0.1,0.6 0.4,5.6 0.5,6 -1,-0.3 -1.6,-0.5 -1.6,-0.5 l -0.5,-6 c 0,0 1,0.3 1.6,0.5 z m 3.7,1.4 c 0,0.6 0.5,5.6 0.6,6 -0.8,-0.3 -1.4,-0.5 -1.4,-0.5 l -0.5,-6 c 0,0 0.9,0.4 1.3,0.5 z m 3.6,10.3 c 0.1,0.8 0.2,2.4 0.4,4.2 l -1.1,2.3 c -0.3,-3.2 -0.6,-6.7 -0.7,-7.4 -0.2,-1.2 1.2,-0.6 1.4,0.9 z m -42.8,-16.3 c 0,-1.2 0.9,-1.8 1.5,-2 0.7,0.2 1.5,0.8 1.5,2 0.1,2.8 0,5 0,5.6 h -3 c 0,-0.6 -0.1,-2.8 0,-5.6 z" /><path
         id="path19999"
         class="s0"
         d="m 85.7,244.7 c -0.6,0.2 -1.3,0.4 -1.7,0.6 -0.3,0 -0.3,0.5 -0.4,0.7 0,0.4 -0.1,1 -0.1,1.4 0,0.4 0.2,0.5 0.4,0.4 0.7,-0.2 0.9,-0.2 1.5,-0.4 0.3,-0.1 0.5,-0.3 0.5,-0.5 0,-0.2 0.2,-1.4 0.2,-1.8 0.1,-0.4 -0.1,-0.5 -0.4,-0.4 z" /><path
         id="path20001"
         class="s0"
         d="m 130.9,175.1 c 0,0 -1.1,0.1 -1.4,0.1 -0.1,1 -0.1,3.4 -0.1,4 0.6,0 1.4,-0.1 1.4,-0.1 z" /><path
         id="path20003"
         class="s0"
         d="m 101.2,215.6 0.5,-6 c 0,0 -1,0.3 -1.6,0.5 0,0.6 -0.4,5.6 -0.5,6 1,-0.3 1.6,-0.5 1.6,-0.5 z" /><path
         id="path20005"
         class="s0"
         d="m 121.4,211.7 c 0,0 0.2,-4.1 0.3,-5.9 -1.1,0.1 -1.9,0.2 -1.9,0.2 l -0.3,5.9 z" /><path
         id="path20007"
         class="s0"
         d="m 104.4,209.4 c -0.2,2 -0.4,4.4 -0.4,5.3 1.1,-0.3 2.3,-0.6 2.3,-0.6 0,0 0.2,-2.2 0.4,-5.2 0.1,-2 -1.1,-2.1 -1.1,-2.1 -0.5,0.2 -1.1,1 -1.2,2.6 z" /><path
         id="path20009"
         class="s0"
         d="m 215.4,265.6 0.3,1.5 q -0.8,-0.3 -1.6,-0.6 l -0.2,-1.5 -3.3,-8.5 -2.6,6.9 0.2,1.4 q -0.6,-0.1 -1.3,-0.2 l -0.3,-1.5 -3.6,-8.5 -3,7.2 c -0.4,-2.6 -0.9,-5.8 -1.4,-9 -0.9,-3.7 -3.1,-5.8 -7.2,-7.9 -12.4,-6.7 -36.4,-8.4 -51.6,-8.7 -18.7,0.9 -25,9.4 -27.9,16.5 l -1.5,-3.1 -4.9,8.7 -0.1,1.2 q -1.7,0.1 -3.6,0.2 v -1.4 l -4,-8.1 -4.7,8.7 -0.1,1.4 c -1.2,0.1 -2.3,0.2 -3.5,0.3 l 0.2,-1.3 -4.1,-7.9 -4.6,8.7 -0.1,1.3 c -0.6,0.1 -1.2,0.2 -1.8,0.3 0.5,-3.5 1.7,-12.6 2.5,-18.7 -1.8,0.6 -3.4,1.3 -4.8,2.1 -4.2,2.1 -6.2,4.1 -7.1,7.8 -0.4,3 -0.9,6.2 -1.4,9.2 V 262 l -3.1,-7.4 -3.6,8.5 -0.2,1.5 c -0.5,0.1 -0.9,0.2 -1.4,0.3 l 0.2,-1.4 -2.6,-6.9 -3.2,8.5 -0.3,1.5 q -0.8,0.3 -1.6,0.6 l 0.4,-1.5 -1.6,-6.2 -3,8.8 q 0.6,1.1 1.3,2.2 c 1.3,-0.6 3,-1.2 5.1,-1.8 19.2,-5.9 58.1,-7.6 79.3,-7.4 21.2,-0.2 60.1,1.5 79.3,7.4 2.2,0.7 3.9,1.2 5.2,1.8 0.5,-0.8 1,-1.6 1.4,-2.4 l -3,-8.7 z" /><path
         id="path20011"
         class="s0"
         d="m 109.4,272.6 c 0,0 2.1,0.2 2.1,-0.9 l 0.1,-2.2 c 0,-1.2 -0.3,-1.9 -1.8,-1.9 -1.8,0.1 -2.1,0.5 -2.3,1.9 v 1.9 c 0,1.1 0.8,1.3 1.9,1.2 z" /><path
         id="path20013"
         class="s0"
         d="m 115.9,212.3 0.2,-5.9 c 0,0 -1.1,0.2 -1.8,0.3 -0.1,1.2 -0.3,5.4 -0.3,5.9 0.9,-0.2 1.9,-0.3 1.9,-0.3 z" /><path
         id="path20015"
         class="s0"
         d="m 110.6,213.2 0.3,-5.9 c 0,0 -0.7,0.2 -1.5,0.3 -0.1,1.7 -0.3,5.4 -0.3,5.9 0.9,-0.1 1.5,-0.3 1.5,-0.3 z" /><path
         id="path20017"
         class="s0"
         d="m 197.2,100.5 c -0.8,0 -1.4,0.6 -1.4,1.4 0,0.8 0.6,1.5 1.4,1.5 0.7,0.1 1.4,-0.6 1.4,-1.4 0,-0.8 -0.7,-1.5 -1.4,-1.5 z" /><path
         id="path20019"
         class="s0"
         d="m 194.1,100.4 c -0.8,-0.1 -1.4,0.6 -1.4,1.3 0,0.9 0.6,1.6 1.4,1.6 0.8,0 1.4,-0.6 1.4,-1.5 0,-0.7 -0.7,-1.4 -1.4,-1.4 z" /></g></g><style
     id="style110">
		.s0 { fill: #272525 } 
		.s1 { fill: url(#g1) } 
		.s2 { fill: #d5001a } 
		.s3 { fill: none } 
		.s4 { fill: #ffffff } 
		.s5 { opacity: .63;fill: #b4221a } 
		.s6 { fill: url(#g2) } 
		.s7 { fill: url(#g3) } 
		.s8 { fill: url(#g4) } 
		.s9 { fill: url(#g5) } 
		.s10 { fill: url(#g6) } 
		.s11 { fill: url(#g7) } 
	</style><style
     id="style1">
		.s0 { fill: #dba111 } 
		.s1 { fill: #001489 } 
		.s2 { fill: #ffffff } 
		.s3 { fill: #d1d3d4 } 
		.s4 { fill: #ff0000 } 
		.s5 { fill: #6a7ab5 } 
		.s6 { fill: none } 
	</style><style
     id="style1-4">
		.s0 { fill: #ffffff } 
		.s1 { fill: #632e87 } 
		.s2 { fill: #754794 } 
		.s3 { fill: #a18f5e } 
	</style></svg>
