<?xml version="1.0" encoding="UTF-8" standalone="no"?>
<!-- Created with Inkscape (http://www.inkscape.org/) -->

<svg
   width="400mm"
   height="400mm"
   viewBox="0 0 400 400"
   version="1.1"
   id="svg1"
   xml:space="preserve"
   inkscape:export-filename="HAMDY_FATHY.svg"
   inkscape:export-xdpi="96"
   inkscape:export-ydpi="96"
   sodipodi:docname="RAMI.svg"
   xmlns:inkscape="http://www.inkscape.org/namespaces/inkscape"
   xmlns:sodipodi="http://sodipodi.sourceforge.net/DTD/sodipodi-0.dtd"
   xmlns="http://www.w3.org/2000/svg"
   xmlns:svg="http://www.w3.org/2000/svg"><sodipodi:namedview
     id="namedview1"
     pagecolor="#ffffff"
     bordercolor="#000000"
     borderopacity="0.25"
     inkscape:showpageshadow="2"
     inkscape:pageopacity="0.0"
     inkscape:pagecheckerboard="0"
     inkscape:deskcolor="#d1d1d1"
     inkscape:document-units="mm"><inkscape:page
       x="0"
       y="0"
       width="400"
       height="400"
       id="page2"
       margin="0"
       bleed="0" /></sodipodi:namedview><defs
     id="defs1"><linearGradient
       id="g1"
       x2="1"
       gradientUnits="userSpaceOnUse"
       gradientTransform="matrix(0,215.27,-167.175,0,110.064,-2.867)"><stop
         offset=".142"
         stop-color="#805500"
         id="stop1" /><stop
         offset=".22"
         stop-color="#a87f28"
         id="stop2" /><stop
         offset=".297"
         stop-color="#c9a149"
         id="stop3" /><stop
         offset=".36"
         stop-color="#deb65d"
         id="stop4" /><stop
         offset=".402"
         stop-color="#e5be64"
         id="stop5" /><stop
         offset=".454"
         stop-color="#e4bb60"
         id="stop6" /><stop
         offset=".682"
         stop-color="#dfb254"
         id="stop7" /><stop
         offset=".743"
         stop-color="#a27820"
         id="stop8" /><stop
         offset=".775"
         stop-color="#875e08"
         id="stop9" /><stop
         offset=".793"
         stop-color="#8c630d"
         id="stop10" /><stop
         offset=".816"
         stop-color="#9b721a"
         id="stop11" /><stop
         offset=".842"
         stop-color="#b4892f"
         id="stop12" /><stop
         offset=".868"
         stop-color="#d7ab4d"
         id="stop13" /><stop
         offset=".874"
         stop-color="#dfb254"
         id="stop14" /><stop
         offset="1"
         stop-color="#dfb254"
         id="stop15" /></linearGradient><linearGradient
       id="g2"
       x2="1"
       gradientUnits="userSpaceOnUse"
       gradientTransform="matrix(200.942,-2.85,2.487,175.343,33.613,127.158)"><stop
         offset=".142"
         stop-color="#805500"
         id="stop16" /><stop
         offset=".22"
         stop-color="#a87f28"
         id="stop17" /><stop
         offset=".297"
         stop-color="#c9a149"
         id="stop18" /><stop
         offset=".36"
         stop-color="#deb65d"
         id="stop19" /><stop
         offset=".402"
         stop-color="#e5be64"
         id="stop20" /><stop
         offset=".482"
         stop-color="#f6d67a"
         id="stop21" /><stop
         offset=".541"
         stop-color="#ffe286"
         id="stop22" /><stop
         offset=".608"
         stop-color="#fee084"
         id="stop23" /><stop
         offset=".636"
         stop-color="#f9d97d"
         id="stop24" /><stop
         offset=".657"
         stop-color="#f1cd70"
         id="stop25" /><stop
         offset=".674"
         stop-color="#e6bc5f"
         id="stop26" /><stop
         offset=".682"
         stop-color="#dfb254"
         id="stop27" /><stop
         offset=".743"
         stop-color="#a27820"
         id="stop28" /><stop
         offset=".775"
         stop-color="#875e08"
         id="stop29" /><stop
         offset=".793"
         stop-color="#8c630d"
         id="stop30" /><stop
         offset=".816"
         stop-color="#9b721a"
         id="stop31" /><stop
         offset=".842"
         stop-color="#b4892f"
         id="stop32" /><stop
         offset=".868"
         stop-color="#d7ab4d"
         id="stop33" /><stop
         offset=".874"
         stop-color="#dfb254"
         id="stop34" /><stop
         offset="1"
         stop-color="#dfb254"
         id="stop35" /></linearGradient><linearGradient
       id="g3"
       x2="1"
       gradientUnits="userSpaceOnUse"
       gradientTransform="matrix(228.324,0.458,-0.438,217.944,-1.396,12.017)"><stop
         offset=".142"
         stop-color="#805500"
         id="stop36" /><stop
         offset=".22"
         stop-color="#a87f28"
         id="stop37" /><stop
         offset=".297"
         stop-color="#c9a149"
         id="stop38" /><stop
         offset=".36"
         stop-color="#deb65d"
         id="stop39" /><stop
         offset=".402"
         stop-color="#e5be64"
         id="stop40" /><stop
         offset=".454"
         stop-color="#e4bb60"
         id="stop41" /><stop
         offset=".682"
         stop-color="#dfb254"
         id="stop42" /><stop
         offset=".743"
         stop-color="#a27820"
         id="stop43" /><stop
         offset=".775"
         stop-color="#875e08"
         id="stop44" /><stop
         offset=".793"
         stop-color="#8c630d"
         id="stop45" /><stop
         offset=".816"
         stop-color="#9b721a"
         id="stop46" /><stop
         offset=".842"
         stop-color="#b4892f"
         id="stop47" /><stop
         offset=".868"
         stop-color="#d7ab4d"
         id="stop48" /><stop
         offset=".874"
         stop-color="#dfb254"
         id="stop49" /><stop
         offset="1"
         stop-color="#dfb254"
         id="stop50" /></linearGradient><linearGradient
       id="g4"
       x2="1"
       gradientUnits="userSpaceOnUse"
       gradientTransform="matrix(228.324,0.458,-0.438,217.944,-1.396,11.111)"><stop
         offset=".142"
         stop-color="#805500"
         id="stop51" /><stop
         offset=".22"
         stop-color="#a87f28"
         id="stop52" /><stop
         offset=".297"
         stop-color="#c9a149"
         id="stop53" /><stop
         offset=".36"
         stop-color="#deb65d"
         id="stop54" /><stop
         offset=".402"
         stop-color="#e5be64"
         id="stop55" /><stop
         offset=".454"
         stop-color="#e4bb60"
         id="stop56" /><stop
         offset=".682"
         stop-color="#dfb254"
         id="stop57" /><stop
         offset=".743"
         stop-color="#a27820"
         id="stop58" /><stop
         offset=".775"
         stop-color="#875e08"
         id="stop59" /><stop
         offset=".793"
         stop-color="#8c630d"
         id="stop60" /><stop
         offset=".816"
         stop-color="#9b721a"
         id="stop61" /><stop
         offset=".842"
         stop-color="#b4892f"
         id="stop62" /><stop
         offset=".868"
         stop-color="#d7ab4d"
         id="stop63" /><stop
         offset=".874"
         stop-color="#dfb254"
         id="stop64" /><stop
         offset="1"
         stop-color="#dfb254"
         id="stop65" /></linearGradient><linearGradient
       id="g5"
       x2="1"
       gradientUnits="userSpaceOnUse"
       gradientTransform="matrix(228.324,0.458,-0.438,217.944,-1.396,11.054)"><stop
         offset=".142"
         stop-color="#805500"
         id="stop66" /><stop
         offset=".22"
         stop-color="#a87f28"
         id="stop67" /><stop
         offset=".297"
         stop-color="#c9a149"
         id="stop68" /><stop
         offset=".36"
         stop-color="#deb65d"
         id="stop69" /><stop
         offset=".402"
         stop-color="#e5be64"
         id="stop70" /><stop
         offset=".454"
         stop-color="#e4bb60"
         id="stop71" /><stop
         offset=".682"
         stop-color="#dfb254"
         id="stop72" /><stop
         offset=".743"
         stop-color="#a27820"
         id="stop73" /><stop
         offset=".775"
         stop-color="#875e08"
         id="stop74" /><stop
         offset=".793"
         stop-color="#8c630d"
         id="stop75" /><stop
         offset=".816"
         stop-color="#9b721a"
         id="stop76" /><stop
         offset=".842"
         stop-color="#b4892f"
         id="stop77" /><stop
         offset=".868"
         stop-color="#d7ab4d"
         id="stop78" /><stop
         offset=".874"
         stop-color="#dfb254"
         id="stop79" /><stop
         offset="1"
         stop-color="#dfb254"
         id="stop80" /></linearGradient><linearGradient
       id="g6"
       x2="1"
       gradientUnits="userSpaceOnUse"
       gradientTransform="matrix(228.324,0.458,-0.438,217.944,-1.396,11.847)"><stop
         offset=".142"
         stop-color="#805500"
         id="stop81" /><stop
         offset=".22"
         stop-color="#a87f28"
         id="stop82" /><stop
         offset=".297"
         stop-color="#c9a149"
         id="stop83" /><stop
         offset=".36"
         stop-color="#deb65d"
         id="stop84" /><stop
         offset=".402"
         stop-color="#e5be64"
         id="stop85" /><stop
         offset=".454"
         stop-color="#e4bb60"
         id="stop86" /><stop
         offset=".682"
         stop-color="#dfb254"
         id="stop87" /><stop
         offset=".743"
         stop-color="#a27820"
         id="stop88" /><stop
         offset=".775"
         stop-color="#875e08"
         id="stop89" /><stop
         offset=".793"
         stop-color="#8c630d"
         id="stop90" /><stop
         offset=".816"
         stop-color="#9b721a"
         id="stop91" /><stop
         offset=".842"
         stop-color="#b4892f"
         id="stop92" /><stop
         offset=".868"
         stop-color="#d7ab4d"
         id="stop93" /><stop
         offset=".874"
         stop-color="#dfb254"
         id="stop94" /><stop
         offset="1"
         stop-color="#dfb254"
         id="stop95" /></linearGradient><linearGradient
       id="g7"
       x2="1"
       gradientUnits="userSpaceOnUse"
       gradientTransform="matrix(239.822,0.482,-0.46,228.846,-51.446,236.48)"><stop
         offset=".142"
         stop-color="#805500"
         id="stop96" /><stop
         offset=".22"
         stop-color="#a87f28"
         id="stop97" /><stop
         offset=".297"
         stop-color="#c9a149"
         id="stop98" /><stop
         offset=".36"
         stop-color="#deb65d"
         id="stop99" /><stop
         offset=".402"
         stop-color="#e5be64"
         id="stop100" /><stop
         offset=".454"
         stop-color="#e4bb60"
         id="stop101" /><stop
         offset=".682"
         stop-color="#dfb254"
         id="stop102" /><stop
         offset=".743"
         stop-color="#a27820"
         id="stop103" /><stop
         offset=".775"
         stop-color="#875e08"
         id="stop104" /><stop
         offset=".793"
         stop-color="#8c630d"
         id="stop105" /><stop
         offset=".816"
         stop-color="#9b721a"
         id="stop106" /><stop
         offset=".842"
         stop-color="#b4892f"
         id="stop107" /><stop
         offset=".868"
         stop-color="#d7ab4d"
         id="stop108" /><stop
         offset=".874"
         stop-color="#dfb254"
         id="stop109" /><stop
         offset="1"
         stop-color="#dfb254"
         id="stop110" /></linearGradient></defs><g
     inkscape:label="Layer 1"
     inkscape:groupmode="layer"
     id="layer1"><g
       id="g152"
       transform="matrix(1.5929999,0,0,1.5929999,24.770013,2.069764)"><g
         id="g111"><g
           id="g110" /></g><path
         id="path2"
         fill-rule="evenodd"
         class="s0"
         d="m 35.8,118.3 c 0,48.6 12.9,80 74.2,103.9 61.3,-23.8 74.2,-55.3 74.2,-103.9 l 0.6,-31.6 V 37.2 C 135.4,27 84.6,27 35.2,37.2 v 49.5 c 0.1,0 0.4,14.2 0.6,31.6 z" /><path
         id="path16"
         fill-rule="evenodd"
         class="s1"
         d="m 39.7,118.7 c 0,46 12.3,75.7 70.3,98.3 58,-22.6 70.3,-52.3 70.3,-98.3 l 0.6,-29.9 V 41.9 C 134.2,32.3 86,32.3 39.2,41.9 v 46.9 z"
         style="fill:url(#g1)" /><path
         id="path17"
         class="s2"
         d="M 177.4,45.4 C 133,36.2 87.1,36.2 42.7,45.4 v 44.7 l 0.4,28.6 c 0,43.9 11.7,72.4 66.9,93.9 55.2,-21.6 66.9,-50 66.9,-93.9 v -16.9 c 0.3,-3.9 0.5,-7.7 0.5,-11.7 z" /><g
         id="g25"><path
           id="path18"
           class="s3"
           d="M 161.6,42.5 C 130.4,54.9 90,68.5 42.7,78.6 v 7 c 53.5,-11.5 98.2,-27.4 130.4,-41.1 -3.8,-0.8 -7.6,-1.4 -11.5,-2 z" /><path
           id="path19"
           class="s3"
           d="M 42.7,45.4 V 74.5 C 86.4,65.3 124.1,53 154.2,41.4 c -37,-5 -74.7,-3.7 -111.5,4 z" /><path
           id="path20"
           class="s3"
           d="M 177.4,66.3 C 145.5,80.4 99.3,97.6 43,110 l 0.2,8.7 q 0,5.6 0.2,10.8 l 134,-40.8 z" /><path
           id="path21"
           class="s3"
           d="M 176.9,129.2 52,167.1 c 3.8,8 9.2,15.1 16.5,21.7 l 103.6,-31.4 c 2.9,-8.6 4.3,-17.9 4.8,-28.2 z" /><path
           id="path22"
           class="s4"
           d="m 177.2,118.7 c 0,0 0.2,-24.6 0.2,-28.6 v -1.4 l -134,40.8 c 0.7,14.2 3.2,26.6 8.6,37.6 l 124.9,-37.9 c 0.2,-3.4 0.3,-6.9 0.3,-10.5 z" /><path
           id="path23"
           class="s5"
           d="M 172.2,157.4 68.6,188.8 c 9.9,8.9 23.3,16.7 41.4,23.8 37,-14.4 54.6,-32 62.2,-55.2 z" /><path
           id="path24"
           class="s5"
           d="M 177.4,45.4 C 176,45.1 174.6,44.8 173.1,44.5 140.9,58.1 96.2,74.1 42.7,85.6 v 4.5 L 43,110 C 99.3,97.5 145.4,80.3 177.4,66.3 Z" /><path
           id="path25"
           class="s5"
           d="M 154.2,41.4 C 124.1,53 86.4,65.3 42.7,74.5 v 4.1 C 90,68.5 130.4,54.9 161.6,42.4 c -2.5,-0.3 -4.9,-0.7 -7.4,-1 z" /></g><g
         id="g36"><g
           id="g26"><path
             id="path26"
             class="s4"
             d="m 137.2,53.6 c -1,-2.7 -4,-6.6 -4.5,-7.3 -0.6,-0.7 -0.8,0 -0.8,0.4 0,0.4 0,1.8 0.1,2.5 0,0.7 0.9,6.9 1,8.1 0.1,1.2 0.5,2.4 1.1,2.3 0.6,0 0,-2.7 -0.3,-3.8 -0.3,-1 -0.7,-5 -0.7,-5 0,0 0.4,0.3 1,1.1 1.5,2 2.9,5.5 3.5,8.2 0.6,2.7 -0.5,7.3 -2.9,8.8 -2.4,1.6 -4.2,-0.7 -4.2,-0.7 0,-0.3 0.5,-1 0.9,-4.7 0.5,-3.7 -2.3,-8 -2.7,-8.8 -0.3,-0.8 -0.6,-0.6 -0.7,-0.3 0,0.2 -0.1,1 -0.9,5.5 -1.1,6.2 0.8,8.3 0.8,8.3 -2.3,2.7 -4.2,0.5 -4.3,0.5 0,0 0.1,-0.3 0.8,-3.4 0.8,-3.7 -1,-6.8 -1.4,-8.1 -0.5,-1.4 -0.8,-2.4 -1.1,-2.4 -0.5,0 -0.4,1.4 -0.8,2.6 -0.3,1.3 -0.9,2.9 -1.3,6 -0.5,3 1.2,5.4 1.2,5.4 -0.8,1.1 -3.1,2.2 -4.4,2.1 -6.3,-0.8 -4.8,-7.4 -4.8,-7.4 1.4,-0.9 4,-4.1 4,-4.1 2.6,-0.3 6.2,-4.8 3.8,-10.2 -2.4,-5.5 -6.8,-5.4 -8,-4.8 -4.2,2 -1.4,9 -0.9,9.8 0.5,0.8 0.4,-0.7 0.3,-1.1 -0.8,-2.6 -0.6,-4.4 -0.1,-4.9 2.6,-2.4 6.6,1 7,1.5 0.5,0.6 1.5,2 1.1,3.3 -0.4,1.3 -1.7,2.2 -1.7,2.2 0,-2.6 -1.3,-3.6 -2.3,-3.5 -1.1,0.2 -1.7,1.7 -1.8,3.9 0,2.3 0.7,2.9 0.7,2.9 -3.4,3.7 -7.1,4.6 -10.8,4 -6.8,-1.2 -6.6,-10.1 -6.6,-10.1 -0.2,-4.3 -0.6,-6.7 -0.9,-7.3 -0.2,-0.6 -0.5,-0.6 -0.6,-0.3 -0.2,0.2 -0.7,1.3 -0.9,1.9 -0.2,0.6 -0.2,0.8 -0.2,0.8 0.5,1.1 0.5,2.8 0.9,4.2 0.2,1.3 -0.3,2.6 -0.7,3.4 -0.5,0.8 -2.4,2.8 -2.8,3.5 -0.5,0.7 -1,1.4 -1.2,3.7 -0.3,2.4 1.4,2.9 2.8,3.2 1.5,0.3 1.5,1 1.7,1.7 0.2,0.7 -1.9,3.9 -5.8,3.8 -4.2,-0.3 -5.3,-2.8 -5.8,-4.4 -1.2,-4.2 1,-7.7 1.4,-8.4 0.4,-0.7 3.1,-6.3 3.3,-6.8 0.2,-0.5 0.5,-1.5 0.5,-1.8 0,-0.2 0.4,-2.6 0.4,-2.9 0,-0.3 -0.1,-0.4 -0.2,-0.2 -0.2,0.3 -0.7,2.2 -0.8,3.4 -0.3,1.2 -2.1,4.6 -2.6,5.7 -1.1,1.8 -3.7,7.2 -3.6,9.8 0.1,8.2 5.9,8.8 7.8,8.8 4.6,-0.1 6.7,-4.9 6.9,-7.7 0.2,-2.8 -0.8,-3.8 -2.8,-4.2 -2.1,-0.5 -2,-1.4 -2,-1.4 0.3,-0.3 1.8,-2.2 2,-2.6 0.3,-0.4 1.4,-2.4 1.6,-2.7 0.2,-0.4 0.3,-0.4 0.3,-0.4 0.5,9.5 7.2,11 10.8,10.7 3,-0.3 5.2,-1.8 5.2,-1.8 -0.9,4.5 1.9,7.5 3.5,8.4 5.2,3 7.9,-1.7 7.9,-1.7 4.7,4.4 6.8,-0.5 6.8,-0.5 1.7,1.8 3.6,2.4 4.4,2.3 3.3,-0.4 4.5,-5.9 4.7,-7.5 0.8,-6 -0.6,-9.6 -1.3,-11.5 z m -6.9,10 c -0.2,1.8 -1.2,3 -1.2,3 0,0 -0.2,0.1 -1,-2.1 -0.8,-2.2 -0.1,-4.3 0,-5.7 0.1,-1.1 0.4,-0.5 0.8,0.4 0.3,0.7 0.8,1.6 0.9,1.9 0.4,0.7 0.7,0.8 0.5,2.5 z m -8.1,3.7 c -1.3,-1.9 -1.4,-3.4 -1.5,-4.2 -0.1,-0.8 0.5,-3 0.8,-4 0.2,-1 0.4,-0.1 0.4,-0.1 0,0 1.5,2.9 1.6,4 0.4,2.2 -1.3,4.3 -1.3,4.3 z m -7.3,-12.7 c 1.2,-0.1 1.3,0.7 1.3,0.8 -0.1,0.2 -0.2,0.9 -1.1,0.8 -1.4,-0.2 -1.3,-1.6 -0.2,-1.6 z m 11,-6 c -0.2,-1 -0.6,-0.9 -1.1,-0.8 -1.1,0.3 -1.4,0 -1.4,-0.1 0.2,-0.9 1.2,-1.2 1.4,-1.2 0.3,0.1 0.5,-0.1 0.5,-0.1 0,0 0.1,0.1 0.2,-0.5 0.2,-0.6 -0.1,-0.7 -0.3,-0.7 -0.1,0 -0.3,0 -1.1,0.5 -0.9,0.5 -1.5,1.8 -1.4,2.8 0.1,0.9 1.4,0.8 2.1,0.6 0.8,-0.2 0.3,0.8 0,1 -0.5,0.7 -2.2,1.7 -2.5,1.9 -0.3,0.2 -0.6,0.3 -0.6,0.3 0.9,-0.1 1.5,-0.5 2.2,-0.7 0.9,-0.4 2.2,-2 2,-3 z" /></g><g
           id="g35"><g
             id="g34"><path
               id="path27"
               class="s4"
               d="m 91,78.6 h 1.5 l 1.2,6.3 h -1.2 l -0.3,-1.4 h -1 L 91,84.9 h -1.2 z m 1.1,4.2 -0.4,-2.6 -0.4,2.6 z" /><path
               id="path28"
               class="s4"
               d="m 95,78.6 h 1.3 v 5.5 h 1.5 v 0.8 H 95 Z" /><path
               id="path29"
               class="s4"
               d="m 102.7,78.6 h 1.4 l 1.2,6.3 h -1.2 l -0.2,-1.4 h -1 l -0.3,1.4 h -1.2 z m 1.1,4.2 -0.3,-2.6 -0.4,2.6 z" /><path
               id="path30"
               class="s4"
               d="m 106.7,78.6 h 1.3 v 2.6 h 1.1 v -2.6 h 1.2 v 6.3 h -1.2 V 82.1 H 108 v 2.8 h -1.3 z" /><path
               id="path31"
               class="s4"
               d="m 112,78.6 h 1.3 v 5.5 h 1.5 v 0.8 H 112 Z" /><path
               id="path32"
               class="s4"
               d="m 116.4,82.4 -1.2,-3.8 h 1.2 l 0.7,2.2 0.6,-2.2 h 1.2 l -1.2,3.8 v 2.5 h -1.2 v -2.5 z" /><path
               id="path33"
               class="s4"
               d="m 122.8,78.6 h 2.6 v 0.9 H 124 v 1.7 h 1.2 v 0.9 H 124 v 2.8 h -1.2 z" /><path
               id="path34"
               class="s4"
               d="m 127.1,84.5 q -0.4,-0.5 -0.4,-1.6 v -2.2 c 0,-0.7 0.1,-1.2 0.4,-1.6 q 0.4,-0.5 1.4,-0.5 1,0 1.4,0.4 0.4,0.5 0.4,1.4 v 0.5 h -1.2 v -0.6 c 0,-0.2 0,-0.3 -0.1,-0.4 0,-0.1 0,-0.3 -0.1,-0.3 -0.1,-0.1 -0.2,-0.1 -0.4,-0.1 -0.2,0 -0.4,0.1 -0.5,0.2 0,0.2 0,0.4 0,0.7 v 2.8 q 0,0.5 0.1,0.7 0.1,0.2 0.4,0.2 0.3,0 0.4,-0.2 c 0.1,-0.2 0.1,-0.4 0.1,-0.7 v -0.6 h 1.2 v 0.5 q 0,0.9 -0.4,1.4 -0.4,0.5 -1.3,0.5 c -0.6,0 -1.1,-0.2 -1.4,-0.5 z" /></g></g></g><g
         id="g52"><g
           id="g51"><path
             id="path36"
             class="s4"
             d="m 72.8,184.3 c -0.2,-0.3 -0.3,-0.8 -0.3,-1.4 v -2.1 c 0,-0.6 0.1,-1.1 0.3,-1.4 0.3,-0.3 0.7,-0.5 1.3,-0.5 q 0.9,0 1.3,0.4 0.3,0.4 0.3,1.3 v 0.5 h -1.1 v -0.6 q 0,-0.3 -0.1,-0.4 0,-0.1 -0.1,-0.3 c -0.1,0 -0.2,-0.1 -0.3,-0.1 q -0.4,0.1 -0.4,0.3 c -0.1,0.1 -0.1,0.3 -0.1,0.6 v 2.6 c 0,0.3 0,0.4 0.1,0.6 0.1,0.1 0.2,0.2 0.4,0.2 0.2,0 0.3,-0.1 0.4,-0.2 0,-0.2 0,-0.3 0,-0.6 v -0.6 h 1.2 v 0.5 c 0,0.5 -0.1,1 -0.4,1.3 q -0.3,0.5 -1.2,0.4 -0.8,0 -1.3,-0.5 z" /><path
             id="path37"
             class="s4"
             d="m 77.1,179 h 1.2 v 4.9 h 1.3 v 0.8 h -2.5 z" /><path
             id="path38"
             class="s4"
             d="M 81.4,184.6 C 81.2,184.5 81,184.2 80.9,184 q -0.2,-0.5 -0.2,-1.1 V 179 h 1.2 v 4.1 c 0,0.3 0,0.5 0.1,0.6 q 0.1,0.3 0.4,0.3 0.3,0 0.4,-0.3 c 0.1,-0.1 0.1,-0.3 0.1,-0.6 V 179 h 1.2 v 3.9 q 0,0.6 -0.2,1.1 c -0.1,0.2 -0.3,0.5 -0.5,0.6 -0.2,0.2 -0.6,0.2 -1,0.2 -0.4,0 -0.7,0 -1,-0.2 z" /><path
             id="path39"
             class="s4"
             d="M 85.5,179 H 87 c 0.6,0 1,0.1 1.3,0.3 0.3,0.2 0.4,0.6 0.4,1.2 q 0,0.5 -0.2,0.8 c -0.1,0.2 -0.4,0.3 -0.6,0.4 q 0.5,0 0.8,0.4 0.2,0.3 0.2,0.9 c 0,1.2 -0.5,1.8 -1.7,1.8 h -1.7 z m 1.5,2.3 c 0.2,0 0.4,0 0.6,-0.2 q 0.1,-0.2 0.1,-0.6 0,-0.4 -0.2,-0.5 c -0.1,-0.1 -0.3,-0.2 -0.6,-0.2 h -0.3 v 1.5 z m 0.1,2.6 c 0.3,0 0.5,-0.1 0.6,-0.2 q 0.2,-0.2 0.2,-0.7 c 0,-0.3 -0.1,-0.5 -0.2,-0.7 -0.2,-0.2 -0.3,-0.3 -0.6,-0.3 h -0.3 v 1.9 z" /><path
             id="path40"
             class="s4"
             d="m 93,184.3 q -0.4,-0.4 -0.4,-1.4 v -2.1 q 0,-1 0.4,-1.5 c 0.3,-0.3 0.7,-0.4 1.4,-0.4 0.6,0 1,0.1 1.2,0.4 q 0.5,0.5 0.5,1.5 v 2.1 c 0,0.6 -0.2,1.1 -0.5,1.4 -0.2,0.4 -0.6,0.5 -1.2,0.5 -0.7,0 -1.1,-0.1 -1.4,-0.5 z m 1.8,-0.5 q 0,-0.2 0.1,-0.6 v -2.7 q -0.1,-0.3 -0.1,-0.5 c -0.1,-0.2 -0.2,-0.2 -0.4,-0.2 q -0.3,0 -0.5,0.2 c -0.1,0.1 -0.1,0.3 -0.1,0.5 v 2.7 q 0.1,0.4 0.1,0.6 0.1,0.2 0.5,0.2 c 0.1,0 0.3,-0.1 0.4,-0.2 z" /><path
             id="path41"
             class="s4"
             d="m 97.5,179 h 2.4 v 0.8 h -1.3 v 1.5 h 1.1 v 0.9 h -1.1 v 2.6 h -1.1 z" /><path
             id="path42"
             class="s4"
             d="m 104.1,179.8 h -0.8 V 179 h 2.9 v 0.8 h -0.9 v 5 h -1.2 z" /><path
             id="path43"
             class="s4"
             d="m 107.4,179 h 1.2 v 2.3 h 1 V 179 h 1.2 v 5.8 h -1.2 v -2.6 h -1 v 2.6 h -1.2 z" /><path
             id="path44"
             class="s4"
             d="m 112.3,179 h 2.5 v 0.8 h -1.4 v 1.5 h 1.1 v 0.8 h -1.1 v 1.8 h 1.4 v 0.8 h -2.5 z" /><path
             id="path45"
             class="s4"
             d="m 118.8,184.3 c -0.3,-0.3 -0.4,-0.8 -0.4,-1.4 v -2.1 c 0,-0.6 0.1,-1.1 0.4,-1.4 0.2,-0.3 0.6,-0.5 1.2,-0.5 q 0.9,0 1.3,0.4 0.3,0.4 0.4,1.3 v 0.5 h -1.2 v -0.6 q 0,-0.3 0,-0.4 0,-0.1 -0.2,-0.3 c -0.1,0 -0.2,-0.1 -0.3,-0.1 q -0.3,0.1 -0.4,0.3 c -0.1,0.1 -0.1,0.3 -0.1,0.6 v 2.6 c 0,0.3 0,0.4 0.1,0.6 0.1,0.1 0.2,0.2 0.4,0.2 0.2,0 0.3,-0.1 0.4,-0.2 0,-0.2 0.1,-0.3 0.1,-0.6 v -0.6 h 1.1 v 0.5 c 0,0.5 -0.1,1 -0.4,1.3 q -0.3,0.5 -1.2,0.4 -0.8,0 -1.2,-0.5 z" /><path
             id="path46"
             class="s4"
             d="m 123.1,179 h 2.5 v 0.8 h -1.3 v 1.5 h 1 v 0.8 h -1 v 1.8 h 1.4 v 0.8 h -2.6 z" /><path
             id="path47"
             class="s4"
             d="m 126.8,179 h 0.9 l 1.3,2.9 V 179 h 0.9 v 5.8 h -0.8 l -1.2,-3.3 v 3.3 h -1.1 z" /><path
             id="path48"
             class="s4"
             d="m 132,179.8 h -0.9 V 179 h 3 v 0.8 h -0.9 v 5 H 132 Z" /><path
             id="path49"
             class="s4"
             d="m 135.8,184.6 c -0.2,-0.1 -0.4,-0.4 -0.5,-0.6 q -0.1,-0.5 -0.1,-1.1 V 179 h 1.1 v 4.1 c 0,0.3 0.1,0.5 0.1,0.6 q 0.1,0.3 0.4,0.3 0.4,0 0.4,-0.3 c 0.1,-0.1 0.1,-0.3 0.1,-0.6 V 179 h 1.2 v 3.9 q 0,0.6 -0.2,1.1 c -0.1,0.2 -0.2,0.5 -0.5,0.6 -0.2,0.2 -0.6,0.2 -1,0.2 -0.4,0 -0.8,0 -1,-0.2 z" /><path
             id="path50"
             class="s4"
             d="m 139.9,179 h 1.6 c 0.6,0 1.1,0.1 1.4,0.3 0.3,0.2 0.4,0.6 0.4,1.2 q 0,0.5 -0.1,0.9 -0.1,0.4 -0.5,0.5 l 0.7,2.8 h -1.2 l -0.6,-2.6 h -0.4 v 2.6 H 140 V 179 Z m 1.6,2.4 c 0.3,0 0.5,0 0.6,-0.1 0.1,-0.2 0.2,-0.4 0.2,-0.7 q 0,-0.4 -0.2,-0.6 -0.1,-0.2 -0.5,-0.2 h -0.4 v 1.6 z" /><path
             id="path51"
             class="s4"
             d="m 145.4,182.5 -1.1,-3.5 h 1.1 l 0.6,2 0.6,-2 h 1 l -1.1,3.5 v 2.3 h -1.1 z" /></g></g><g
         id="g56"><g
           id="g55"><path
             id="path52"
             class="s4"
             d="m 98.5,190.8 c -0.1,0 -0.2,0.1 -0.4,0.1 q -0.3,0.1 -0.4,0.1 c -0.4,0.2 -0.6,0.2 -0.7,0.3 v -1.4 c 0.3,-0.2 0.7,-0.3 1,-0.6 0.4,-0.2 0.7,-0.4 0.9,-0.6 h 1.5 v 10.1 h -1.9 z" /><path
             id="path53"
             class="s4"
             d="m 104,198.4 q -0.6,-0.7 -0.6,-2 v -0.1 h 1.8 q 0,0.7 0.1,1 0.1,0.2 0.6,0.2 c 0.2,0 0.4,0 0.4,-0.2 0.1,-0.1 0.2,-0.3 0.3,-0.6 q 0,-0.4 0,-1.2 v -1 q -0.1,0.3 -0.5,0.4 -0.3,0.1 -0.8,0.1 -1.1,0 -1.6,-0.8 c -0.3,-0.5 -0.5,-1.3 -0.5,-2.1 0,-2.3 0.9,-3.4 2.7,-3.4 0.9,0 1.6,0.2 2,0.8 0.5,0.6 0.7,1.4 0.7,2.4 v 3.7 c 0,1.1 -0.2,1.9 -0.6,2.5 -0.5,0.6 -1.1,0.9 -2.2,0.9 -0.8,0 -1.5,-0.2 -1.8,-0.6 z m 2.7,-5.3 v -1.6 c 0,-0.5 -0.1,-0.8 -0.2,-1.1 -0.1,-0.2 -0.3,-0.3 -0.6,-0.3 -0.3,0 -0.5,0.1 -0.6,0.4 q -0.1,0.4 -0.1,1.3 c 0,0.4 0,0.8 0,1 q 0.1,0.3 0.2,0.5 c 0.1,0.2 0.3,0.3 0.5,0.3 0.3,0 0.6,-0.2 0.8,-0.5 z" /><path
             id="path54"
             class="s4"
             d="m 111.8,198.3 c -0.5,-0.5 -0.7,-1.3 -0.7,-2.2 v -4.5 q 0,-1.3 0.7,-2.1 c 0.4,-0.5 1.1,-0.8 2,-0.8 0.9,0 1.6,0.3 2,0.8 q 0.7,0.8 0.7,2.1 v 4.5 q 0,1.3 -0.7,2.2 c -0.4,0.5 -1.1,0.7 -2,0.7 q -1.3,0 -2,-0.7 z m 2.7,-2.2 v -4.5 q 0,-0.5 -0.1,-0.9 c -0.1,-0.2 -0.3,-0.3 -0.6,-0.3 -0.3,0 -0.5,0.1 -0.6,0.3 q -0.1,0.4 -0.1,0.9 v 4.5 q -0.1,1.2 0.7,1.2 0.7,0 0.7,-1.2 z" /><path
             id="path55"
             class="s4"
             d="m 121.2,190.3 h -2.7 v -1.5 h 4.6 v 1.2 l -2.1,8.9 h -1.9 z" /></g></g><g
         id="g76"><path
           id="path75"
           class="s6"
           d="m 110.9,174.8 c -0.2,0 -0.3,0 -0.3,0 -0.8,-0.1 -1.5,-0.6 -1.7,-1.4 -0.1,-0.5 0,-1 0.3,-1.4 -0.1,0 -0.3,0 -0.4,0 -0.4,0 -0.9,0.2 -1.5,0.5 -0.7,0.4 -1.7,0.3 -2.2,-0.4 -0.2,-0.2 -0.9,-1.1 -0.8,-2.3 0,-0.6 0.3,-1.1 0.6,-1.6 -2.2,-1.6 -4,-4.8 -2.4,-11.1 -2.7,1.8 -7.1,4.2 -11.6,5.3 -0.2,0 -0.4,0 -0.6,0 -0.3,0 -6.7,-0.8 -11.3,-7.2 -0.3,-0.4 -0.4,-1 -0.2,-1.6 q 0.1,-0.1 0.2,-0.2 c -0.7,-0.1 -1.3,-0.5 -1.6,-1.2 0,-0.1 -1.1,-3 -0.6,-6.5 0.2,-0.8 0.8,-1.4 1.6,-1.5 -0.4,-0.5 -0.6,-1 -0.8,-1.3 -0.7,-2.3 0.9,-4.3 1.1,-4.6 0.3,-0.3 0.6,-0.5 1,-0.6 -3.9,-1.7 -7.3,-3.7 -8.8,-5.8 -0.4,-0.6 -0.5,-1.3 -0.2,-1.9 0.1,-0.1 0.1,-0.2 0.2,-0.3 -3,-1.1 -5.8,-3 -7.4,-6.4 -0.3,-0.7 -0.2,-1.4 0.2,-1.9 0.2,-0.2 0.4,-0.4 0.6,-0.5 -2.2,-1.7 -4,-4.1 -4.6,-7.4 0,-0.4 0,-0.7 0.1,-1 l -0.3,-4.7 c -0.8,-1.9 -1.2,-3.9 -1.1,-6.1 0,-0.5 0.2,-1 0.6,-1.3 l -0.1,-1.3 1.4,-7.3 q 0.4,-1.9 1.3,-3.6 c 0.3,-0.6 0.9,-0.9 1.5,-0.9 0.6,-0.1 1.2,0.2 1.5,0.7 0,0.1 0.7,0.9 1.7,2.3 -0.3,-1.4 -0.5,-2.7 -0.4,-4.1 0.2,-3.9 3.3,-7.5 3.4,-7.6 0.4,-0.5 1,-0.7 1.6,-0.6 0.6,0.1 1.1,0.5 1.4,1 0,0.1 2.4,5.8 5.6,11.3 -0.1,-3.3 0.6,-7 3.9,-9.6 0.5,-0.4 1.2,-0.5 1.8,-0.2 0.6,0.2 1,0.7 1.1,1.3 0,0.1 1.2,7.4 5.1,15.8 2.2,4.8 7.1,13.8 15.1,20.3 2.9,2.4 5.6,4 7.9,5.4 h 0.1 c -0.7,-3.2 -1.4,-9.1 0.9,-13.8 0.3,-0.5 0.9,-0.9 1.5,-1 0.5,0 0.9,0.2 1.3,0.5 0.2,-2.9 1.1,-6.8 3.7,-10.5 0.4,-0.6 1.2,-0.9 2,-0.7 0.2,0 0.4,0.2 0.6,0.3 0.8,-3 2.5,-6.1 6.1,-8.3 0.6,-0.4 1.4,-0.4 1.9,0 0.4,0.3 0.6,0.7 0.7,1.1 1.7,-2.9 4.4,-5.7 8.6,-6.9 0.7,-0.3 1.4,0 1.9,0.5 q 0.4,0.5 0.4,1.1 c 2.8,-2.7 6.1,-4.5 10,-5.4 0.7,-0.1 1.5,0.2 1.9,0.9 0.4,0.6 0.3,1.4 -0.2,2 0,0 -0.1,0.1 -0.2,0.4 3.5,-2.8 7.4,-4.7 11.8,-4.7 0.8,0 1.6,0.1 2.4,0.2 0.7,0.1 1.2,0.6 1.4,1.3 0.2,0.6 0,1.4 -0.5,1.8 -0.1,0.1 -3.5,3.1 -7,6.5 -0.8,0.9 -1.6,1.7 -2.4,2.6 q 0.7,-0.1 1.3,-0.1 2,0 3.8,0.6 c 0.6,0.3 1.1,0.9 1.2,1.5 0,0.7 -0.3,1.4 -0.9,1.7 -0.1,0.1 -9.8,5.7 -18.9,16.3 -1.8,2 -4.2,5.9 -6.6,9.8 -2.8,4.5 -4.8,7.7 -6.4,9.6 4.5,0.5 7,1.4 8.2,2.8 0.4,0.1 0.8,0.3 1.3,0.7 0.9,0.7 1.5,1.8 1.4,2.9 -0.1,1.4 -1.1,2.7 -2.8,3.8 -0.5,0.3 -1.2,0.3 -1.7,0.1 q -0.6,-0.3 -0.8,-0.9 c -1.7,0.8 -6,2.7 -10.1,5.5 -3.4,2.3 -7.8,6.1 -11.4,10.3 q 0.2,0.3 0.2,0.7 c 0,0.3 0.1,1.4 0.7,1.6 2,0.9 5.7,2.6 4.5,5.5 -0.7,1.7 -2.2,2.3 -3.4,2.3 q -0.3,0 -0.3,0 c -0.7,-0.1 -1.2,-0.5 -1.4,-1.1 -0.1,-0.1 -0.1,-0.2 -0.1,-0.3 -0.3,0.4 -0.7,0.7 -1.2,0.9 -0.1,0 -0.4,0 -0.9,0 -1.4,0 -2.4,-0.6 -3.1,-1.6 -0.3,0.8 -0.5,1.5 -0.6,2.2 1.6,1 4.2,2.8 4.1,5.3 -0.3,2.1 -2.1,3.5 -4.9,3.5 z M 81.6,138.4 c 2,2.1 7,3.8 8.8,4.3 0.6,0.2 1,0.6 1.2,1.2 2.4,-0.3 5,-0.8 7.3,-1.7 -1.6,-0.1 -3.4,-0.2 -5.3,-0.6 -3.8,-0.6 -8.2,-1.7 -12,-3.2 z"
           style="fill:url(#g2)" /><path
           id="path76"
           class="s0"
           d="m 142.4,101.1 c 2.7,-9.9 10.4,-19.1 10.4,-19.1 -14.8,3.4 -16.6,20.3 -16.6,20.3 -0.8,-6.5 4.4,-16.5 4.4,-16.5 -10.8,3.3 -10.4,18 -10.4,18 -2,-7 -0.5,-12.4 -0.5,-12.4 -7.5,4.6 -5.5,14.7 -5.5,14.7 -2.3,-2.2 -2.5,-6.5 -2.5,-6.5 -4.6,6.3 -3.3,13.5 -3.3,13.5 -1.7,-0.7 -3,-2.8 -3,-2.8 -3,6.1 -0.3,14.9 -0.3,14.9 6.9,5.1 3.5,9.7 3.5,9.7 1.6,-7.8 -5.4,-8 -14.9,-15.6 -7.1,-5.8 -12.3,-13.8 -15.6,-21 -4,-8.7 -5.3,-16.2 -5.3,-16.2 -6,4.8 -1.8,14.7 -1.8,14.7 l -0.5,0.6 c -5.2,-6.2 -10,-17.7 -10,-17.7 0,0 -2.8,3.2 -2.9,6.6 -0.5,8 9.4,16.5 9.4,16.5 -0.1,0.3 -0.2,1.3 -0.2,1.3 C 71.5,100.4 63.1,89 63.1,89 c -6.2,11.5 13.1,21.2 13.1,21.2 l 0.1,1.2 c -7.4,-2.3 -16.2,-9.6 -16.2,-9.6 -0.4,13 16.5,15.3 16.5,15.3 l 0.1,1.1 c -5.8,-0.7 -15.3,-5.1 -15.3,-5.1 1.8,10.2 16.5,10.2 16.5,10.2 l 0.1,0.8 c -2.9,0.9 -13.1,-1.6 -13.1,-1.6 3.6,7.8 15.3,6.7 15.3,6.7 l 0.5,0.6 c -2.2,1.2 -8.5,0.9 -8.5,0.9 2.8,3.8 12.7,7.8 21.6,9.2 6.4,1 11.5,0.6 11.5,0.6 -7.8,7.3 -26.8,5.4 -26.8,5.4 -0.4,3.1 0.5,5.7 0.5,5.7 3,0.2 10.8,-0.8 10.8,-0.8 -1.7,0.9 -9.3,3.4 -9.3,3.4 4.2,5.8 10,6.4 10,6.4 6,-1.4 12.1,-5.5 13.2,-6.6 1.2,-1 1.9,-0.4 1.9,-0.4 -4.7,11.5 0.6,13.3 1.3,13.7 0.8,0.5 1,1.2 1,1.2 0,0 -0.4,-0.2 -1.4,0.6 -1,0.8 -0.1,1.9 -0.1,1.9 2.7,-1.7 4.4,-0.3 4.8,0.5 0.5,0.8 -0.5,1.5 -0.5,1.5 0,0 3,0.2 3.1,-1.8 0.1,-2.3 -4.2,-4.1 -4.2,-4.1 0.5,-8.6 11.7,-18.8 17.9,-23 5.1,-3.5 10.5,-5.7 11,-6 1.5,-0.8 1.8,1.1 1.8,1.1 2.7,-1.6 2,-3.1 1.2,-3.8 -0.7,-0.5 -1.4,-0.5 -1.4,-0.5 -0.3,-1.3 -3.1,-2.1 -7.2,-2.6 -4.1,-0.5 -10.7,-1.9 -10.7,-1.9 2.1,0.5 8.2,0.1 8.2,0.1 2.8,-1.2 10.1,-15.6 14.3,-20.5 9.5,-10.9 19.4,-16.6 19.4,-16.6 -6.2,-2.2 -12,3 -12,3 0,0 4.4,-4.8 8.7,-9.1 3.6,-3.5 7,-6.6 7,-6.6 -14.2,-2.3 -25.4,20.4 -25.4,20.4 z m -49.8,19.2 c -10.4,1.6 -10.7,-4.9 -10.7,-4.9 3.5,3.4 10.7,4.9 10.7,4.9 z M 92,117 c -13.1,-2.2 -10,-8.4 -10,-8.4 2.7,5 10,8.4 10,8.4 z m -0.1,-3.9 c -13.7,-6.3 -8.7,-12.5 -8.7,-12.5 2.7,7.7 8.7,12.5 8.7,12.5 z m 23.8,50.5 c 0,0 -1,-2.4 1.6,-1.6 2.7,0.7 1.7,2.1 1.7,2.1 0,0 1.3,0.1 1.9,-1.2 0.5,-1.3 -1.8,-2.3 -3.6,-3.2 -1.8,-0.7 -1.8,-3.2 -1.8,-3.2 -1.3,0.7 -0.9,3.8 -0.9,3.8 0,0 -1.3,1.1 -1.2,1.7 0.3,2 2.3,1.6 2.3,1.6 z m 19,-29.5 c 0.7,0.1 1.5,0.2 2.1,0.4 0.2,0 0.3,0.1 0.4,0.1 0.1,0.1 0.9,0.4 0.8,0.5 0,0.1 -0.2,0.1 -0.2,0 -0.4,-0.1 -1.2,0.4 -1.4,0.7 h -0.1 c 0,0 0,-0.1 0,-0.1 -0.3,-0.6 -0.9,-1.2 -1.5,-1.4 -0.1,0 -0.1,-0.1 -0.1,-0.1 0,0 0,-0.1 0,-0.1 z m -8,4.7 c -1,0.4 -2.2,1.5 -2.8,2.2 -0.1,0.1 -0.1,0.1 -0.1,0 -0.1,0 -0.1,0 -0.1,0 0.3,-0.6 0.3,-1.3 -0.1,-1.8 -0.2,-0.3 -0.4,-0.5 -0.7,-0.6 0,0 0,-0.1 0,-0.1 0,-0.1 0,-0.1 0.1,-0.1 1,0.5 2.5,0.7 3.6,0.3 0,0 0.1,0 0.1,0 0.1,0 0.1,0.1 0,0.1 z m -3.7,-4.3 c -0.1,0.1 -0.2,0.1 -0.3,0.2 -0.1,0 -0.1,0 -0.1,-0.1 q 0,-0.1 0,-0.1 c 0.1,-0.1 0.2,-0.1 0.3,-0.2 0.8,-0.7 0.4,-1.8 0,-2.6 0,0 0,-0.1 0,-0.1 0.1,0 0.1,0 0.1,0.1 0.7,0.9 2.1,1.5 3.2,1.5 0,0 0,0.1 0,0.1 0,0 0,0 0,0.1 -1,0.2 -2.3,0.5 -3.2,1.1 z m -0.3,0.6 c 0.8,0.7 2.1,1.2 3.3,0.9 0,0 0.1,0 0.1,0.1 0,0 0,0.1 -0.1,0.1 -0.7,0.2 -2.3,0.9 -2.8,1.4 0,0.1 0,0.1 -0.1,0 q 0,0 0,-0.1 c 0.5,-0.8 0.2,-1.7 -0.5,-2.3 h -0.1 q 0,-0.1 0,-0.1 0,-0.1 0.2,0 z m -32.9,9.3 c 0,0 -7,-2 -9.7,-5 0,0 -2.9,3.5 1.7,4.8 4.6,1.2 8,0.2 8,0.2 z" /></g><g
         id="g135"><path
           id="path90"
           class="s7"
           d="m 72.5,14.7 c 2.3,-1.7 4.6,-3.4 6.9,-5.1 0,0 0.1,0 0.2,-0.1 q 0,0 0,0 c -0.1,0 -0.2,0 -0.2,0 L 70.6,9.6 67.8,0.9 64.9,9.5 H 56.1 C 56,9.5 56,9.5 56,9.4 q 0,0 0,0.1 0,0 0.2,0.1 c 2.3,1.7 4.6,3.4 6.9,5.1 0.1,0 0.1,0.1 0.1,0.3 q -1.2,3.8 -2.5,7.7 c -0.1,0.2 -0.2,0.4 -0.3,0.7 0.1,-0.1 0.2,-0.1 0.2,-0.1 q 3.5,-2.6 7.1,-5.1 c 0,-0.1 0.1,-0.1 0.1,-0.3 q 0,-0.6 0,-1.2 0,0.6 0,1.3 c 0,0.1 0,0.1 0.1,0.2 q 3.5,2.6 7.1,5.1 c 0,0.1 0.1,0.1 0.1,0.1 0,-0.1 0,-0.2 -0.1,-0.2 -0.9,-2.7 -1.7,-5.5 -2.7,-8.2 0,-0.2 0,-0.3 0.2,-0.3 z"
           style="fill:url(#g3)" /><path
           id="path105"
           class="s8"
           d="m 100.7,13.8 c 2.2,-1.7 4.5,-3.4 6.8,-5 0.1,-0.1 0.2,-0.1 0.2,-0.2 q 0,0 0,0 c 0,0 -0.1,0 -0.2,0 L 98.8,8.7 96,0 93.1,8.6 h -8.9 c 0,0 0,0 0,-0.1 q 0,0 0,0.1 0,0.1 0.1,0.1 c 2.3,1.7 4.7,3.4 7,5.1 0.1,0.1 0.1,0.2 0.1,0.3 q -1.3,3.9 -2.6,7.7 c -0.1,0.3 -0.1,0.4 -0.2,0.7 0.1,0 0.1,-0.1 0.2,-0.1 q 3.5,-2.5 7,-5.1 C 95.9,17.2 96,17.2 96,17 q 0,-0.6 0,-1.2 0,0.6 0,1.3 c 0,0.1 0,0.2 0.1,0.3 q 3.5,2.5 7,5.1 c 0.1,0 0.1,0 0.2,0.1 -0.1,-0.1 -0.1,-0.2 -0.1,-0.3 -0.9,-2.7 -1.8,-5.4 -2.7,-8.2 0,-0.1 0,-0.2 0.2,-0.3 z"
           style="fill:url(#g4)" /><path
           id="path120"
           class="s9"
           d="m 128.9,13.8 c 2.3,-1.7 4.6,-3.4 6.9,-5 0,-0.1 0.1,-0.1 0.1,-0.2 q 0,0 0,0 c 0,0 -0.1,0 -0.1,0 L 127,8.7 124.2,0 121.3,8.6 h -8.8 c -0.1,0 -0.1,0 -0.1,-0.1 q 0,0 0,0.1 0,0.1 0.2,0.1 c 2.3,1.7 4.6,3.4 6.9,5.1 0.1,0.1 0.1,0.2 0.1,0.3 q -1.2,3.9 -2.5,7.7 c -0.1,0.3 -0.2,0.4 -0.3,0.7 0.1,0 0.2,-0.1 0.2,-0.1 q 3.5,-2.5 7,-5.1 c 0.1,-0.1 0.2,-0.1 0.2,-0.3 q 0,-0.6 0,-1.2 0,0.6 0,1.3 c 0,0.1 0,0.2 0.1,0.3 q 3.5,2.5 7.1,5.1 c 0,0 0,0 0.1,0.1 -0.1,-0.1 -0.1,-0.2 -0.1,-0.3 -0.9,-2.7 -1.7,-5.4 -2.7,-8.2 0,-0.1 0,-0.2 0.2,-0.3 z"
           style="fill:url(#g5)" /><path
           id="path135"
           class="s10"
           d="m 157.1,14.7 c 2.3,-1.7 4.6,-3.4 6.9,-5.1 0,0 0.1,0 0.2,-0.1 q 0,0 0,0 c -0.1,0 -0.2,0 -0.2,0 l -8.8,0.1 -2.8,-8.7 -2.9,8.6 h -8.8 c -0.1,0 -0.1,0 -0.1,-0.1 q 0,0 0,0.1 0,0 0.2,0.1 c 2.3,1.7 4.6,3.4 6.9,5.1 0.2,0 0.2,0.1 0.1,0.3 q -1.2,3.8 -2.5,7.7 c -0.1,0.2 -0.2,0.4 -0.3,0.7 0.1,-0.1 0.2,-0.1 0.2,-0.1 q 3.5,-2.6 7.1,-5.1 c 0.1,-0.1 0.1,-0.1 0.1,-0.3 q 0,-0.6 0,-1.2 0,0.6 0,1.3 c 0,0.1 0,0.1 0.1,0.2 q 3.6,2.6 7.1,5.1 c 0,0.1 0.1,0.1 0.1,0.1 0,-0.1 0,-0.2 -0.1,-0.2 -0.9,-2.7 -1.7,-5.5 -2.6,-8.2 -0.1,-0.2 0,-0.3 0.1,-0.3 z"
           style="fill:url(#g6)" /></g><path
         id="path150"
         class="s11"
         d="m 115,239.4 c 2.4,-1.7 4.8,-3.5 7.3,-5.3 q 0.1,-0.1 0.1,-0.1 0,0 0,-0.1 c 0,0 -0.1,0.1 -0.1,0.1 H 113 l -2.9,-9.1 -3.1,9.1 -9.2,-0.1 c -0.1,0 -0.1,0 -0.1,0 q 0,0 0,0 c 0,0.1 0.1,0.1 0.1,0.2 2.5,1.7 4.9,3.5 7.4,5.3 0.1,0 0.1,0.1 0,0.3 q -1.3,4.1 -2.6,8.1 c -0.1,0.2 -0.1,0.5 -0.2,0.7 q 0.1,0 0.2,-0.1 c 2.4,-1.8 4.9,-3.6 7.3,-5.4 q 0.2,-0.1 0.2,-0.2 c 0,-0.5 0,-0.9 0,-1.4 0,0.5 0,0.9 0,1.4 q 0,0.2 0.1,0.2 c 2.5,1.8 4.9,3.6 7.4,5.4 0.1,0.1 0.1,0.1 0.1,0.1 0,-0.1 0,-0.2 0,-0.2 -1,-2.9 -1.9,-5.7 -2.8,-8.6 0,-0.1 0,-0.2 0.1,-0.3 z"
         style="fill:url(#g7)" /><g
         id="g151"><g
           id="g150" /></g></g></g><style
     id="style110">
		.s0 { fill: #272525 } 
		.s1 { fill: url(#g1) } 
		.s2 { fill: #d5001a } 
		.s3 { fill: none } 
		.s4 { fill: #ffffff } 
		.s5 { opacity: .63;fill: #b4221a } 
		.s6 { fill: url(#g2) } 
		.s7 { fill: url(#g3) } 
		.s8 { fill: url(#g4) } 
		.s9 { fill: url(#g5) } 
		.s10 { fill: url(#g6) } 
		.s11 { fill: url(#g7) } 
	</style></svg>
