<?xml version="1.0" encoding="UTF-8" standalone="no"?>
<!-- Creator: CorelDRAW 2019 (64-Bit) -->

<svg
   xml:space="preserve"
   width="200mm"
   height="200mm"
   version="1.1"
   style="clip-rule:evenodd;fill-rule:evenodd;image-rendering:optimizeQuality;shape-rendering:geometricPrecision;text-rendering:geometricPrecision"
   viewBox="0 0 20000.001 20000"
   id="svg16"
   sodipodi:docname="Chivas.svg"
   inkscape:version="1.4.2 (f4327f4, 2025-05-13)"
   xmlns:inkscape="http://www.inkscape.org/namespaces/inkscape"
   xmlns:sodipodi="http://sodipodi.sourceforge.net/DTD/sodipodi-0.dtd"
   xmlns="http://www.w3.org/2000/svg"
   xmlns:svg="http://www.w3.org/2000/svg"><sodipodi:namedview
   id="namedview16"
   pagecolor="#ffffff"
   bordercolor="#000000"
   borderopacity="0.25"
   inkscape:showpageshadow="2"
   inkscape:pageopacity="0.0"
   inkscape:pagecheckerboard="0"
   inkscape:deskcolor="#d1d1d1"
   inkscape:document-units="mm"
   inkscape:zoom="0.76420456"
   inkscape:cx="408.26765"
   inkscape:cy="527.99999"
   inkscape:window-width="1920"
   inkscape:window-height="1009"
   inkscape:window-x="-8"
   inkscape:window-y="-8"
   inkscape:window-maximized="1"
   inkscape:current-layer="Capa_x0020_1" />
 <defs
   id="defs1">
  <style
   type="text/css"
   id="style1">
   <![CDATA[
    .str0 {stroke:black;stroke-width:7.62;stroke-miterlimit:22.9256}
    .fil1 {fill:#002856}
    .fil4 {fill:#3DAD2B}
    .fil5 {fill:#AEB0B0}
    .fil6 {fill:#C0531B}
    .fil3 {fill:#CD0E2D}
    .fil2 {fill:#FEC629}
    .fil0 {fill:#FEFEFE}
   ]]>
  </style>
 </defs>
 <g
   id="Capa_x0020_1"
   inkscape:label="Capa 1"
   inkscape:groupmode="layer"
   transform="matrix(1.1546393,0,0,1.1546393,-2604.3253,-4457.0133)">
  <metadata
   id="CorelCorpID_0Corel-Layer" />
  <path
   class="fil0 str0"
   d="m 4651.16,14104.56 v 580.94 c 21.03,58.92 21.22,261.08 29.3,343.78 65.98,674.98 270.1,1473.32 565.52,2055.51 88.3,174 166.57,329.6 258.49,490 92.76,161.85 192.54,311.78 293.53,455.33 104.05,147.9 210.16,287.73 326.83,421.63 351.61,403.53 719.17,767.76 1161.61,1072.95 820.6,566.04 1648.17,928.16 2658.78,1085.85 105.32,16.43 627.96,60.44 664.61,75.17 h 612.83 c 198.99,-79.96 1562.55,57.21 3316.39,-1156.32 237.63,-164.43 413.51,-321.62 618.52,-504.3 226.05,-201.43 340.39,-324.5 544.44,-567.35 112.72,-134.16 218.88,-263.68 322.69,-414.02 438.73,-635.45 745.67,-1252.66 948.83,-2022.01 53.64,-203.14 96.87,-405.45 130.73,-618.42 17.67,-111.13 59.38,-622.18 77.07,-664.77 v -515.51 c -15.24,-57.04 -18.59,-292.95 -26.08,-376.57 -30.52,-340.65 -92.87,-690.46 -178.86,-1015.78 -210.61,-796.74 -563.77,-1512.56 -1034.61,-2147.05 -101.04,-136.15 -431.51,-545.58 -550.44,-642.74 -40.22,-32.86 -68.93,-60.85 -100.27,-98.6 -35.65,-42.95 -71.93,-66.51 -93.89,-100.22 211.89,-473.08 395.34,-846.31 324.5,-1427.51 -66.18,-542.99 -415.68,-1107.15 -872.92,-1350.95 -345.26,-184.09 -721.52,-229.13 -1121.67,-173.7 -675.52,93.58 -1000.85,420.32 -1398.25,363.55 13.27,-18.9 64.1,-62.89 85.93,-84.39 414.07,-407.88 400.59,-1137.39 -117.12,-1543.85 -35.46,-27.84 -61.02,-48.46 -104.6,-70.76 -36.6,-18.73 -81.23,-29.62 -109.56,-52.2 -1.62,-369.97 45.08,-616.48 -349.74,-880.65 -407.77,-272.83 -818.95,-184.65 -989.89,-265.71 h -57.53 l -1.75,767.92 c -200.62,131.37 -155.29,69.74 -402.01,264.28 -427.33,336.94 -514.6,885.27 -563.51,1444.29 l 492.03,-135.19 c -29.65,47.62 -70.62,72.64 -112.61,120.97 -168.39,193.83 -183.94,322.84 -251.63,437.79 -229.03,17.96 -512.88,-120.34 -695.25,-192.86 -958.36,-381.1 -1962.02,-225.83 -2434.02,703.01 -394.16,775.68 -218.64,1369.85 117.18,2075.96 l -191.61,200.91 c -45.39,41.94 -62.61,54.74 -100.51,98.17 l -182.3,203.7 c -560.22,617.35 -1066.74,1593.7 -1287.58,2421.15 -55.4,207.56 -103.63,423.23 -139.98,643.35 -18.47,111.85 -66.23,657.6 -81.62,695.22 z"
   id="path1" />
  <path
   class="fil1 str0"
   d="m 10811.8,5310.74 c -103.24,67.43 -349.83,126.09 -596.69,373.83 -158.04,158.6 -261.48,359.69 -299.1,671.81 l 512.93,-141.29 c -36.23,250.39 -65.28,314.15 -41.67,590.54 -105.07,41.61 -247.78,200.48 -311.82,295.01 -236.38,348.89 -216.57,811.31 38.5,1152.7 51.31,68.66 101.02,99.04 151.27,162.35 -35.95,104.04 -87.1,88.28 -168.25,98.91 -80.58,10.56 -160.27,27.95 -240.48,35.63 -2.29,-164.46 -20.89,-294.03 -93.85,-436.95 -23.37,-45.78 -49.65,-70.77 -65.64,-106.53 122.46,-114.18 158.39,-227.69 189.96,-448.42 -299.18,6.33 -485.31,3.14 -752.71,-91.01 -217.96,-76.74 -379.96,-166.44 -617.64,-226.01 -517.29,-129.67 -1016.8,-83.3 -1354.74,209.9 -536.99,465.9 -675.44,1135.34 -395.42,1868.03 108.9,284.93 246.05,474.04 284.45,574.26 -56.07,40.39 -94.39,82.12 -148.97,128.57 -62.86,53.49 -89.15,77.35 -148.28,144.2 -44.03,49.78 -98.43,87.17 -143.41,137.3 -651.81,726.52 -1061.04,1360.46 -1380.25,2375.02 -402.98,1280.78 -304.01,2747.71 174.84,3932.65 230.82,571.2 616.46,1216.51 971.71,1613.63 145.4,162.54 256.1,294.59 417.83,447.96 1036.8,983.23 2432.91,1661.31 4116.58,1662.76 717.45,0.62 1347.65,-121.88 1971.42,-333.49 1601.48,-543.29 2908.37,-1821.85 3542.5,-3382.97 482.8,-1188.58 579,-2642.8 180.4,-3930.16 -190.77,-616.13 -431.01,-1100.53 -736.34,-1568.56 -173.25,-265.57 -311.53,-422.81 -502.32,-655.93 -107.39,-131.21 -458.14,-485.07 -585.74,-569.52 43.82,-140.65 442.7,-660.31 428.8,-1280.41 -12.11,-540.19 -267.22,-927.41 -537.95,-1163.21 -331.05,-288.35 -836.71,-339.57 -1355.48,-209.73 -348.38,87.2 -574.85,254.51 -956.65,307.5 -142.23,19.73 -295.83,-3.25 -414.96,14.44 43.29,247.5 55.9,291.65 185.26,442.72 -30.54,71.48 -64.87,75 -113.2,227.92 -31.31,99.09 -41.27,204.32 -42.77,313.43 -71.05,-1.89 -164.49,-23.01 -235.23,-32.66 -123.1,-16.79 -128.32,2.16 -171.79,-99.27 324.85,-311.68 456.73,-713.04 276.61,-1154.82 -24.1,-59.13 -61.5,-105.25 -79.56,-160.25 271.07,-142.7 465.87,-465 402.73,-805.16 -47.45,-255.67 -207.19,-413.18 -402.04,-523.04 -68.03,-38.35 -154.85,-58.77 -216.9,-93.97 41.75,-566.58 63.87,-903.59 -735.07,-972.44 z M 7494.69,9541.05 c -25.74,-19.21 -58.31,-76.59 -74.11,-103.7 -58.92,-101.1 -114.8,-256.63 -144.87,-370.18 -270.58,-1021.93 691.03,-1583.48 1227.94,-1192.45 427.85,311.61 60.24,828.72 -244.96,619.36 -172.45,-118.3 -68.25,-322.86 -39.73,-526.29 -121.91,27.31 -342.66,117.49 -435.77,174.92 -112.9,69.63 -216.43,176.62 -269.64,327.12 -57.05,161.41 -49.49,381.01 7.69,539.15 69.68,192.68 151.86,239.81 240.25,355.4 -80.96,54.17 -181.61,125.68 -266.8,176.67 z m 6113.22,-1571.87 c 34.8,207.47 137.78,409.34 -40.23,529.47 -290.7,196.18 -679.3,-303.85 -232.09,-629.94 518.02,-377.72 1496.37,169.03 1217.24,1205.5 -41.83,155.32 -123.86,377.89 -213.93,466 -49.26,-24.97 -86.66,-58.25 -134.22,-89.54 -43.17,-28.4 -91.61,-60.18 -133.9,-85.1 32.01,-49.08 94.89,-102.2 139.37,-166.27 139.82,-201.41 191.57,-488.69 107.57,-727.18 -55.76,-158.31 -160.83,-256.96 -277.08,-331.46 -86.43,-55.39 -321.22,-149.94 -432.73,-171.48 z M 9500.45,9030.86 c 80.68,-152.16 39,-146.55 138.04,-167.78 28.13,-6.03 49.9,-10.98 77.36,-16.89 107.19,-23.05 231.88,-50.35 343.34,-60.46 -18.16,38.82 -18.91,33 -48.04,64.02 -70.51,75.09 -27.19,79.3 -114.86,96.36 z m 2823.9,-0.32 c -102.7,-24.82 -211.44,-51.36 -317.6,-72.13 -64.28,-12.58 -109.89,-8.8 -144.49,-55.07 l -88.59,-117.65 c 64.84,5.75 458.76,62.89 491.79,112.29 10.92,16.32 56.07,120.77 58.89,132.56 z m -4691.41,742.07 c 1.8,-2.3 4.6,-5.18 5.91,-6.49 l 12.2,-12.33 c 1.81,-1.63 4.51,-3.97 6.43,-5.59 l 196.78,-127.49 28.97,128.5 c -23.1,22.95 -159.67,115.14 -187.8,126.12 z m 6341.56,-154.54 c 39.76,17.66 193.86,115.03 224.7,155.1 l -61.78,101.89 c -48.98,-22.57 -143.5,-90.01 -190.17,-126.16 z m -8604.13,4775.08 c 12.2,3079.73 2478.1,5549.38 5552.28,5549.38 3052.66,0 5551.49,-2487.09 5539.3,-5561.07 -5.15,-1299.14 -432.71,-2418.95 -1157.59,-3374.98 -54.81,-72.29 -109,-133.37 -167.85,-206.37 l -178.12,-196.19 c -97.1,-98.46 -279.7,-299.12 -386.61,-371.38 14.67,-46.58 39.47,-75.63 63.31,-116.97 156.3,89.91 622.18,609.58 758.56,789.92 223.41,295.41 421.74,589.66 606.02,961.49 363.38,733.22 596.17,1587.13 594.07,2537.87 -6.91,3129.68 -2536.17,5670.05 -5682.79,5670.05 -3128.66,0 -5681.97,-2544.56 -5672.36,-5693.44 4.14,-1355.22 445.74,-2467.68 1191.01,-3462.85 160.31,-214.05 562.23,-657.12 760.91,-800.33 l 73.74,109.97 c -92.7,68.25 -307.02,279.13 -384.55,368.38 -30.48,35.09 -63,59.48 -91.64,95.2 -360.34,449.34 -531.65,616.6 -841.1,1241.33 -348.02,702.61 -580.19,1550.94 -576.59,2459.99 z m 3098.48,-3193.44 c 33.44,-42.17 250.94,-187.15 310.34,-217.21 l 1.11,160.97 c -85.13,49.18 -174.53,133.88 -259.85,177.04 z m 4588.27,-217.02 c 62.86,38.1 267.67,168.54 307.75,217.93 l -55.52,116.81 c -61.99,-23.11 -183.13,-131.67 -257.54,-172.32 z m 943.09,826.19 c 98.84,92.47 219.62,277.35 305.15,407.14 782.99,1188.02 838.32,2764.76 207.77,4000.6 -173.86,340.76 -362.75,609.78 -583.77,854.96 -29.75,33.01 -49.25,63.96 -80.65,95.34 l -480.89,431.32 c -2045.72,1521.97 -4854.63,883.11 -6036.89,-1356.85 -656.92,-1244.62 -573.32,-2791.28 177.98,-3997.94 58.34,-93.7 247.18,-380.15 320.91,-420.81 -16.25,304.29 34.12,125.82 -207.71,498.78 -527.9,814.18 -708.92,1857.78 -526.72,2822.19 119.45,632.26 485.69,1400.59 931.62,1864.2 752.1,781.93 1679.18,1287.79 2907.34,1281.83 2360.5,-11.46 4165.03,-2097.5 3834.27,-4454.02 -51.77,-368.81 -172.74,-777.01 -318.85,-1074.25 -108.41,-220.54 -245.15,-470.91 -390.64,-662.04 -74.89,-98.36 -55.61,-77.82 -58.92,-290.45 z m 920.54,744.02 c 63.07,-48.58 94.62,-91.48 143.8,-148.21 l 421.34,-442.63 59.09,139.82 -118.28,128.57 152.38,341.5 174.5,-1.89 57.54,138.02 -838.61,-0.81 c -19.23,-54.2 -50.07,-95.01 -51.76,-154.37 z m -8724.7,51.88 c -40.21,-76.72 -36.59,-189.28 -12.9,-271.96 65.01,-226.92 333.82,-364.89 561.7,-242.73 333.58,178.82 215.88,652.77 -69.12,736.77 -29.11,-30.45 -49.75,-77.02 -62.29,-123.26 229.01,-62.32 272.1,-370.03 65.16,-477.36 -108.54,-56.29 -241.4,-20.81 -303.06,41.98 -86.02,87.58 -68.23,169.96 -63.39,308.08 z m 8115.16,451.38 c 69.49,211.67 136.4,385.75 182.27,620.85 96.26,493.23 94.67,960.89 -2.68,1453.5 -29.06,147.08 -119.45,508.79 -186.63,609.06 -29.49,148.44 -248.04,524.45 -327.26,642.77 -60.61,90.52 -340.64,487.2 -435.37,540.61 -37,86.19 -582.86,529.81 -740.22,593.81 -92.44,87.48 -600.58,311.38 -766.43,352.63 -160.91,69.98 -544.04,141.74 -737.84,156.13 -156.06,26.7 -608.36,32.16 -761.67,-0.87 -182.84,-8.16 -584.57,-89.64 -737.59,-155.4 -161.61,-37.72 -677.63,-267.91 -766.57,-352.23 -153.71,-59.07 -704.85,-510.77 -740.91,-592.74 -50.29,-28.37 -187.09,-201.65 -234.78,-261.05 -68.69,-85.57 -141.31,-187.03 -204.74,-286.63 -168.54,-264.63 -312.74,-609.49 -328.62,-634.48 -71.26,-215 -138.24,-390.16 -184.72,-630.34 -93.39,-482.59 -94.3,-972.99 4.99,-1454.6 27.38,-132.81 126.53,-518.02 186.04,-606.13 37.9,-154.38 340.68,-704.35 422.49,-771.78 135.09,74.55 53.36,73.53 122.82,236.79 48.79,114.69 99.62,112.7 185.23,180.95 -2.83,206.68 -7.34,296.25 35.57,495.85 43.77,139.28 103.12,212.13 158.62,321.97 153.81,-74.46 262.42,-311.29 325.37,-420.96 19.37,361.2 -49.72,624.31 129.34,985.64 30.05,60.63 117.94,199.42 129.12,238.3 14.65,11.77 7.2,4.73 20.84,19.9 0.75,0.84 18.49,23.26 21.47,27.35 14.23,19.52 20.33,28.22 39.55,53.53 25.07,33.03 57.42,74.32 84.35,102.98 l 592.17,527.79 c 59.51,25.48 125.48,76.36 181.13,114.26 58.66,39.95 116,74.44 180.47,111.98 121.77,70.91 247.21,140.88 379.02,207.57 42.35,22.78 338.55,165 376.76,166.97 39.67,2.04 337.98,-141.35 383.05,-167.53 131.53,-61.98 260.89,-137.89 380.23,-207.49 64.1,-37.39 123.4,-72.77 181.42,-111.2 58.37,-38.66 125.86,-92.19 179.89,-115.53 20.71,-27.29 74.23,-58.58 103.24,-80.88 152.11,-116.9 368.02,-305.56 489.29,-446.36 33.71,-39.15 133.26,-181.14 167.14,-206.01 19.95,-56.47 91.85,-164.04 127.87,-236.34 175.46,-352.11 112.56,-621.55 129.3,-974.63 173.72,278.04 12.56,116.94 313.61,408.23 46.52,-37.99 144.86,-243.48 168.08,-323.6 42.68,-183.9 40.72,-298.05 34.76,-491.79 46.74,-41.91 130.48,-55.55 185.73,-184.95 65.86,-154.27 2.94,-154.01 75.51,-205.25 22.3,-15.74 34.13,-20.96 50.7,-27.67 185.34,186.08 384.11,707.81 428.59,777.02 z m -8300.73,-285.38 737.59,219.16 -33.97,137.85 -615.24,-174.89 -93.16,314.8 -125.14,-36.64 z m 9655.52,316.88 c 32.79,-52.12 134.07,-167.66 198.25,-210.47 l 33.38,147.35 c -47.91,72.01 -104.26,107.75 -158.8,160.69 -44.56,43.24 -15.24,96.45 18.98,223.91 l 221.03,-48.64 29.78,140.99 -743.18,174.69 c -79.65,-251.35 -202.04,-655.05 163,-683.08 144.12,-11.07 161.67,56.61 237.56,94.56 z m -9150.98,1111.02 c -357.95,-32.52 -785.63,-15.86 -728.61,-436.85 56.52,-417.3 461.21,-270.75 809.48,-236.43 l -16.51,142.06 c -219.19,10.15 -631.79,-176.29 -662.92,118.74 -16.63,157.54 83.7,202.97 223.39,219.4 129.81,15.27 261.15,35.73 391.05,46.4 z m 9535.4,-488.27 6.62,155.46 -156.22,69.18 19.84,377.96 124.72,46.36 c 21.58,9.88 1.76,-0.21 23.89,13.35 l 24.01,153.01 -774.73,-291.53 c -16.03,-14.86 -16.2,-124.18 -17.17,-154.79 z m -9536.07,641.18 c 5.25,143.14 42.23,393.27 -11.57,511.86 -61.99,136.64 -244.51,150.87 -325.01,-9.39 -29.13,79.02 -59.91,138.83 -148.07,157.25 -311.27,65.04 -275.63,-407.41 -283.21,-618.55 z m 8795.98,262.34 c 111.34,0 562.32,38.33 637.75,76.97 75.71,38.79 125.35,122.14 113.33,240.73 -12.41,122.38 -67.49,159.02 -130.7,218.59 -34.19,-14.19 -79.24,-52.89 -102.97,-79.69 26.1,-29.66 78.26,-71.16 90.47,-129.71 16.07,-77.1 -22.22,-119.69 -85.95,-131.8 -82.07,-15.61 -321.33,-36.42 -404.83,-34.4 -3.64,57.17 -9.26,213.54 -35.61,258.47 l -117.49,-10.77 z m 676.24,803.91 -174.26,25.53 -88.85,363.94 c 44.64,32.55 104.62,71.32 136.21,106.53 l -31.46,139.1 c -88.02,-36.59 -557.37,-444.5 -663.55,-496.07 l 51.78,-156.26 77.75,-16.46 c 193.25,-29.81 587.91,-106.74 728.76,-117.28 z m -10084.34,251.59 723.24,-230.11 c 37.5,64.48 129.23,370.73 124.47,463.29 -8.88,172.74 -124.92,293.5 -262.97,337 -200.73,63.27 -337.91,-25.2 -423.87,-134.37 -46.88,-59.54 -149.2,-339.53 -160.87,-435.81 z m 9687.18,948.33 -704.65,-296.02 49.55,-133.31 584.5,243.95 132.01,-298.15 118.95,44.71 z m -8895.13,-123.57 169.68,333.06 -116.1,59.93 -167.15,-322.48 c -42.97,8.27 -136.86,57.97 -169.66,86.09 l 192.3,372.97 -113.99,64.23 -263.6,-505.76 671.19,-360.64 c 27.94,28.09 252.26,453.37 264.93,503.44 l -116.06,51.09 -184.4,-361.81 z m 8720.98,443.39 -162.95,-26.33 -197.54,312.22 c 19.07,54.87 68.8,94.28 93.29,152.57 -23.21,47.22 -50.52,72.96 -68.12,121.13 l -39.59,-39.34 c -11.1,-14.92 -14.67,-22.63 -27.68,-41.89 l -174.28,-258.58 c -51.97,-75.82 -206.62,-281.73 -233.81,-354.5 l 72.13,-121.04 827.85,123.52 c -20.84,44.43 -55.46,105.82 -89.3,132.24 z m -8692.73,476.25 c -31.58,-31.04 -59.04,-68.24 -83.2,-107.98 30.36,-40.38 585.1,-453.41 608.51,-464.51 138.54,194.17 371.95,389.51 216.5,598.01 -95.34,127.88 -311.55,176.98 -453.58,-12.18 -32.27,-42.97 -76.95,-95.7 -95.75,-139.53 -75.42,26.17 -121.7,87.33 -192.48,126.19 z m 7218.55,192.54 c 83.13,-79.58 225.45,-254.4 309.09,-307.41 235.65,-149.36 512.51,8.84 570.96,225.89 25.31,94 9.18,193.84 -28.47,269.65 -27.7,55.81 -248.31,312.44 -289.97,334.12 -25.48,-14.02 -119.9,-102.78 -146.4,-126.86 -56.88,-51.68 -399.19,-360.48 -415.21,-395.39 z m -6651.2,389.64 c -54.66,-239.94 122.21,-444.77 321.78,-469.48 232.26,-28.76 424.55,148.99 464.91,332.23 53.23,241.72 -123.82,440.91 -324.68,465.51 -232.4,28.46 -420.55,-146.31 -462.01,-328.26 z m 6213.14,-34.04 c 24.74,-22.88 71.01,-57.95 96.67,-74.53 41.14,-26.59 51.19,-4.6 98.91,23.25 71.44,41.69 143,82.49 216.41,123.01 146.45,80.83 290.73,173.65 432.72,245.04 -26.4,32.71 -83.37,76.99 -125.82,93.78 l -139.63,-79.9 c -62.36,23.54 -243.34,186.47 -305.74,216 l 40.15,176.78 c -27.49,26.23 -89.63,71.57 -123.66,88.25 z m -429.86,275.83 132.08,-61.59 c 44.88,134.04 157.04,291.99 210.6,426.97 80.32,202.45 -18.48,340.63 -160.38,415.23 -203.28,106.89 -354.94,28.47 -440.19,-107.31 -71.22,-113.42 -162.18,-305.33 -214.26,-423.79 l 122.09,-67.75 c 42.78,53.96 130.63,248.28 168.19,322.2 56.82,111.81 122.64,246.67 297.27,162.58 139.89,-67.36 122.63,-187.88 52.25,-325.26 -58.36,-113.92 -116.09,-221.85 -167.65,-341.28 z m -4601.55,429.53 7.61,298.2 -141.03,-80.62 -8.86,-270.24 -156.07,-93.66 -115.45,178.11 c -48.46,-11.37 -87.48,-45.06 -122.3,-71.44 l 398.03,-647.75 c 59.16,22.47 170.35,100.15 224.17,134.64 156.64,100.39 305.74,210.82 162.14,439.57 -46.58,74.2 -118.61,117.68 -248.24,113.19 z m 407.76,-215.11 42.7,-110.43 575.29,235.99 -44.4,120 -224.55,-89.3 -242.55,585.17 -134.41,-52.01 245.01,-595.36 c -49.28,-12.3 -188.49,-67.94 -217.09,-94.06 z m 3580.31,302.16 c -116.49,-29.32 -199.99,-55.48 -306.93,15.14 -67.77,44.76 -138.72,133.46 -114.94,263.92 18.32,100.49 96.02,177.62 186.55,199.87 139.24,34.21 222.32,-36.92 290.5,-87.14 l -54.88,-201.85 123.74,-42.12 77.43,274.68 c -185.66,261.02 -639.25,281.51 -756.11,-57.62 -65.21,-189.25 18.77,-335.18 123.68,-426.7 138.28,-120.64 284.05,-112.48 476.62,-66.64 z m -2931.41,623.14 -139.85,-36.64 213.9,-736.31 138.3,36.8 z m 300.72,-693.02 146.24,21.34 c 31.82,54 93.98,428.23 115.63,542.94 9.16,48.55 6.41,53.44 26.03,82.29 l 314.16,-549.44 145.14,21.37 c -14.55,48.06 -315.03,538.26 -392.86,664.14 l -32.85,44.07 c -174.13,-15.46 -136.22,36.67 -218.74,-349.24 -33.43,-156.29 -77.9,-320.68 -102.75,-477.47 z m 779.99,574.85 c -96.37,-536.41 729.38,-634.25 806.74,-140.19 82.82,528.91 -720.56,619.82 -806.74,140.19 z m 4486.84,-6683.55 335.91,-4.44 -99.5,-240.97 c -48.3,25.74 -79.96,75.08 -118.15,116.89 -33.98,37.19 -100.33,89 -118.26,128.52 z m 256.47,923.51 c 73.03,-12.57 214.96,-36.65 272.04,-69.34 -16.35,-131.9 -48.02,-326.12 -205.97,-298.81 -179.83,31.1 -97.05,235.35 -66.07,368.15 z m 118.74,643.11 c 50.37,39.86 242.35,100.9 318.78,119.53 l -14.03,-263.48 z m -129.16,1367.33 c 43.13,56.83 202.45,152.89 265.51,207.12 l 69.9,-254.66 z m -373.3,1593.24 140.74,-221.31 -328.77,-54.77 c 16.14,44.39 157.23,248.36 188.03,276.08 z m -649.48,660.95 c 29.99,32.16 58.89,52.08 93.84,82.06 30.93,26.54 59.07,59.14 87.52,85.05 32.7,-20.18 148.78,-146.22 172.36,-199.6 51.77,-117.17 -4.93,-216.48 -67.53,-276.87 -180.1,-173.77 -391.1,-9.58 -467.57,139.73 z m -661.08,281.67 c 16.97,81.36 55.3,263.81 84.6,327.74 44.67,-30.32 173.54,-121.63 204.83,-161.58 z M 5879.6,14529.34 c 0.57,112.59 -15.56,319.83 104.54,328.84 146.76,11.02 105.61,-223.36 96.59,-332.8 z m 511.92,-24.33 -181.05,6.24 c -16.89,105.92 -12.23,302.1 100.5,302.09 130.68,-0.02 84.93,-201.47 80.55,-308.33 z m -324.56,1263.31 c 41.85,161.49 114.51,409.37 368.62,325.07 239.64,-79.49 194.75,-339.17 109.35,-475.56 z m 938.95,1431.85 c 63.42,109.1 175.41,271.44 309.26,181.61 158.98,-106.69 -38.44,-269.58 -78.26,-349.77 -47.47,20.25 -190.57,132.8 -231,168.16 z m 419.61,756.76 c 16.18,130.72 137.06,237.99 288.21,221.29 324.41,-35.87 285.26,-551.92 -68.14,-512.42 -131.82,14.73 -239.03,137.94 -220.07,291.13 z m 813.41,444.11 c 91.46,48.61 272.58,215.51 364.39,70.09 92.77,-146.94 -78.45,-243.96 -209.87,-306.03 z m 2702.36,532.85 c -334.43,93.51 -186.12,584.74 141.69,494.98 314.82,-86.2 194.77,-589.06 -141.69,-494.98 z M 10185.25,6087.83 c 23.09,-108.45 140.19,-217.36 201.33,-283.28 134.91,-145.45 432.53,-266.58 625.47,-333.81 207.45,-72.29 210.91,-100.23 331.56,-151.6 11.72,473.7 -20.74,451.41 -497.07,582.59 -219.91,60.56 -442.62,131.71 -661.29,186.1 z m 821.82,-1116.16 c 78.72,-6.32 326.48,109.63 312.47,184.2 -32.88,59.84 -224.69,181.39 -312.44,182.93 z m -87.72,445.7 c -333.09,88.68 -841.01,436.19 -860.76,786.63 120.93,-24.37 261.98,-72.2 386.65,-107.27 133.07,-37.43 266.61,-75.42 401.26,-113.2 312.07,-87.58 580.98,-88.04 580.98,-453.34 v -292.44 c 0,-242.51 -263.77,-350.91 -508.13,-378.95 z"
   id="path2" />
  <path
   class="fil2 str0"
   d="m 13160.16,9555.45 c -227.63,-4.77 -459.63,-0.63 -687.74,-0.63 -154.33,0 -172.3,-12.38 -307.36,39.92 -85.63,33.16 -167.75,65.69 -252.77,98.26 -123.5,47.32 -956.34,387.25 -1009.26,389.86 -32.16,1.58 -1065.17,-408.98 -1261.94,-484.88 -137.55,-53.05 -142.73,-43.16 -304.13,-43.16 -232.79,0.01 -467.54,-2.98 -700.08,0.45 51.03,97.64 98.12,112.23 182.64,314.29 55.04,131.59 81.65,274.29 82.69,430.24 l -0.04,3076.49 c -0.02,377.71 42.85,541.04 211.37,808.29 241.41,382.83 703.48,730.28 1098.21,960.61 89.54,52.24 605.58,338.23 682.99,342.01 73.62,3.6 593.37,-285.47 676.18,-333.59 400.73,-232.87 854.05,-569.08 1103.05,-955.89 167.44,-260.1 220.33,-441.21 220.3,-809.73 l -0.06,-3076.51 c 0.75,-238.27 55,-413.7 165.23,-606.19 35.59,-62.15 70.39,-98.7 100.72,-149.84 z m -895.54,601.21 c 24.94,161.79 3.38,542.86 3.33,728.05 l -0.36,2199.14 c 0,247.98 10.43,431.04 -89.07,641.84 -82.7,175.24 -201.53,322.85 -318.5,418.75 -138.99,113.95 -254.11,200.28 -439.25,297.47 -78.36,41.13 -437.33,202.92 -527.56,200.62 -92.23,-2.36 -451.06,-164.75 -532.01,-208.3 -185.27,-99.68 -299.53,-185.13 -437.64,-299.29 -106.68,-88.18 -238.32,-254.91 -312.36,-424.77 -94.26,-216.27 -82.37,-388.95 -82.37,-638.01 0,-190.53 -14.73,-2805.23 3.95,-2917.79 z m -4114.15,2054.57 c 23.46,233.08 -0.8,326.9 250.04,347.82 -11.66,215.19 -62.78,551.3 70.68,715.15 41.64,-18.48 38.77,-27.88 82.79,-95.97 370.24,-572.74 -71.94,-1617.21 -326.85,-2119.56 -168.31,-331.71 -349.58,-620.82 -538,-912.75 C 7534.94,9907 7250.84,9483 7162.43,9222.27 c -327.76,-966.69 336.61,-1758.9 1110.26,-1602.08 352.73,71.5 703.96,416.12 478.66,830.67 -147.39,271.22 -515,304.41 -689.42,47.23 -64.45,-95.03 -67.4,-189.84 -53.97,-323.27 -116.39,27.13 -252.28,130.68 -300.24,191.96 -165.75,211.81 -137.86,534.49 15.71,750.53 58.22,81.89 164.76,188.56 259.79,229.99 -27.78,285.34 11.03,515.11 290.81,560.77 -57.23,-216.46 -153.25,-364.47 15.12,-562.15 253.29,-30.95 378.03,-34.53 554.73,-170.87 59.57,-45.96 123.3,-122.34 161.95,-200.51 41.43,-83.82 58,-244.13 85.44,-291.13 45.07,25.77 104.81,76.77 147.75,111.75 39.51,32.18 102.62,88.41 145.45,109.89 92.48,-136.38 24.84,-335.07 1.02,-490.74 l 312.8,148.79 c 2.92,-134.83 -9.44,-246.9 -57.28,-357.13 -21.87,-50.41 -46.89,-90.86 -81.99,-128.33 -20.67,-22.06 -32.47,-31.51 -53.7,-52.3 -15.94,-15.62 -31.13,-37.42 -45.75,-48.99 95.87,-71.64 207.31,-106.83 236.61,-281.52 -533.28,-30.62 -516.93,-77.18 -962.51,-242.73 -303.96,-112.93 -692.78,-199.15 -1045.96,-123.37 -361.02,77.45 -545.86,276.3 -703.48,501.87 -413.73,592.07 -230.77,1273.18 101.11,1854.53 144.61,253.3 309.84,502.47 463.26,753.36 281.54,460.42 506.32,739.33 409.63,1359.77 -14.67,94.15 -17.27,200.67 16.26,285.24 33.16,83.64 77.6,101.59 175.98,127.73 z m 3946.89,-4518.44 c 19.27,141.99 129.46,229.76 235.91,274.96 -18.07,34.36 -15.65,26.84 -45.84,53.61 -157.72,139.9 -193.13,323.5 -193.72,538.7 l 312.87,-146.34 c -15.31,137.43 -97,385.48 7.35,489.45 78.54,-54.75 236.49,-189.61 292.48,-218.65 34.65,79.08 29.52,178.96 79.81,283.89 42.31,88.27 96.6,147.57 160.45,202.15 124.43,106.35 341.47,175.29 557.85,171.57 175.35,242.47 66.21,363.78 17.13,565.89 358.68,-57.29 289.56,-421.12 294.38,-555.7 175.68,-145.4 377.97,-274.65 380.17,-608.17 1.15,-174.29 -21.88,-276.04 -113.56,-381.68 -58.29,-67.17 -175.47,-161.3 -297.25,-189.66 13.83,124.83 20.74,199.01 -38.03,301.91 -96.57,169.1 -309.03,243.16 -494.74,167.87 -88.33,-35.81 -150.64,-100.65 -194.26,-168.66 -258.89,-403.71 98.27,-775.84 445.77,-850.52 408.34,-87.74 779.82,82.55 1005.02,406.12 232.61,334.2 275.06,735.44 129.93,1172.88 -70.59,212.78 -144.09,318.15 -243.68,481.64 -469.07,770.02 -1015.67,1500.33 -1229.86,2420 -95.37,409.48 -108.95,926.89 156.82,1173.77 132.17,-183.89 87.39,-490.81 72.38,-720.18 246.98,-15.03 229.22,-123.77 249.56,-348.38 374.9,-90.16 87.75,-449.99 198.37,-960.34 74.47,-343.59 253.55,-560.26 404.01,-812.79 461.45,-774.47 1183.66,-1641.97 568.95,-2595.97 -403.95,-626.92 -1087.55,-639.71 -1744.3,-392.33 -348.13,131.12 -533.07,240.11 -973.97,244.96 z"
   id="path3" />
  <path
   class="fil3 str0"
   d="m 13535.27,13188.6 5.63,3734.15 c 94.72,-53.42 374.75,-450.09 435.36,-540.61 79.23,-118.32 297.78,-494.33 327.26,-642.77 -19.78,-111.81 -6.3,-2189.43 -5.99,-2598.55 0.01,-11.98 -0.08,-35 1.55,-46.14 l 7.84,-29.64 c 0.69,-2.31 2.08,-6.22 3.64,-9.09 -44.47,-69.21 -243.24,-590.93 -428.59,-777.02 -16.57,6.72 -28.39,11.93 -50.69,27.68 -72.57,51.24 -9.65,50.98 -75.52,205.25 -55.24,129.4 -138.98,143.04 -185.73,184.94 5.96,193.75 7.92,307.9 -34.76,491.8 z"
   id="path4" />
  <path
   class="fil3 str0"
   d="m 7527.83,13050.85 c 24.09,152.88 4.93,491.29 4.93,663.64 0,226.16 0,452.31 0,678.46 0,175.62 20.09,1285.43 -11.23,1348.97 15.88,24.99 160.07,369.85 328.61,634.48 63.43,99.6 136.05,201.06 204.75,286.63 47.68,59.4 184.48,232.68 234.77,261.05 l 4.29,-3731.42 c -42.92,-199.6 -38.4,-289.17 -35.58,-495.86 -85.61,-68.24 -136.43,-66.25 -185.23,-180.94 -69.46,-163.26 12.27,-162.24 -122.81,-236.79 -81.82,67.43 -384.59,617.4 -422.5,771.78 z"
   id="path5" />
  <path
   class="fil3 str0"
   d="m 9030.57,17516.82 c 88.95,84.32 604.96,314.51 766.57,352.23 l -2.37,-2819.9 -592.16,-527.79 c -26.94,-28.65 -59.29,-69.94 -84.36,-102.97 -19.22,-25.31 -25.31,-34.02 -39.55,-53.54 -2.98,-4.09 -20.71,-26.5 -21.47,-27.34 -13.63,-15.17 -6.18,-8.13 -20.83,-19.9 z"
   id="path6" />
  <path
   class="fil3 str0"
   d="m 12036.75,15048.19 -2.51,2821 c 165.85,-41.25 673.99,-265.15 766.44,-352.63 l -4.27,-3201.62 c -33.87,24.87 -133.42,166.86 -167.14,206.01 -121.26,140.8 -337.18,329.46 -489.28,446.36 -29.02,22.3 -82.53,53.59 -103.24,80.88 z"
   id="path7" />
  <path
   class="fil4 str0"
   d="m 11873.07,11365.8 c 56.84,-274.19 -128.79,-475.68 -251.98,-573.52 -524.73,-416.77 -1567.9,-233.26 -1691.94,378.29 -57.41,283.06 123.64,483.15 252.55,581.43 546.68,416.81 1561.23,241.5 1691.37,-386.2 z"
   id="path8" />
  <path
   class="fil3 str0"
   d="m 10534.74,18024.45 c 153.31,33.03 605.6,27.56 761.67,0.87 l -1.21,-2542.91 c -45.06,26.18 -343.38,169.57 -383.05,167.53 -38.2,-1.97 -334.41,-144.19 -376.76,-166.97 z"
   id="path9" />
  <path
   class="fil5 str0"
   d="m 10071.07,7558.06 c -11.34,157 -16.77,179.19 31.7,336.45 169.82,-16.99 286.18,-15.64 452.82,18.2 66.55,13.51 128.38,30.98 192.17,52.16 36.92,12.27 166.84,69.78 187.98,70.69 85.68,3.68 287.3,-182.64 842.05,-141.38 47.94,-135.35 39.46,-200.62 33.09,-335.73 -601.95,-67.01 -750.46,-290.03 -877.36,-340.84 -204.64,180.5 -508.05,306.02 -862.45,340.45 z m -48.44,1627.35 c 262.42,117.5 559.27,289.91 912.42,292.39 289.91,2.04 721.2,-176.81 923.58,-292.87 -19.17,-107.02 -78.8,-201.69 -140.42,-260.28 -36.13,-34.35 -60.63,-64.01 -102.76,-96.3 -65.14,-49.95 -73.19,-38.39 -153.82,-9.86 -201.58,71.35 -375.14,192.21 -516.02,300.93 -58.63,-25.19 -235.52,-192.37 -516.88,-297.94 -135.98,-51.02 -133,-22.27 -259.64,97 -64.53,60.78 -129.53,150.42 -146.46,266.93 z M 10976,6657.72 c 210.88,9.85 274.31,54.49 438.75,114.79 87.23,-67.79 141.98,-300.33 661.63,-380.65 9.25,-249.81 -190.52,-438.8 -401.06,-536.24 -132.74,-61.44 -120.84,-68.89 -214.22,14.55 -205.33,183.46 -430.12,496.75 -485.1,787.55 z M 9672.61,9425.37 c 122.1,53.31 1227.16,506.62 1264.48,508.6 25.58,1.35 1155.36,-457.03 1271.21,-509.06 -67.05,-59.28 -232.07,-62.72 -333.05,-50.06 -172.72,21.65 -577.53,253.35 -929.41,259.5 -315.51,5.52 -781.14,-238.25 -930.37,-258.25 -102.21,-13.7 -277.27,-12.27 -342.86,49.27 z m 443.57,-2046.58 c 343.45,-13.93 625.89,-207.3 820.71,-357.83 50.05,27.45 108.47,80.17 168.32,118.61 61.85,39.72 125.45,75.82 194.15,109.9 130.04,64.52 298.25,125.04 464.7,128.82 -39.57,-165.99 -192.6,-317.05 -292.28,-394.74 -127.07,-99.04 -321.61,-160.69 -524.93,-161.89 -207.76,-1.22 -394.98,61.24 -530.39,156.59 -95.31,67.11 -267.19,240.85 -300.28,400.54 z m 1588.06,644.47 c -283.39,-33.34 -616.97,98 -764.7,228.13 -177.27,-145.83 -451.19,-243.99 -764.42,-230.15 20.52,63.06 85.77,134.31 128.27,177.35 140.85,142.64 448.29,303.09 631.85,306.83 213.25,4.35 667.09,-232.09 769,-482.16 z M 10523.55,6739.43 c 29.75,-7.07 311.67,-83.65 316.29,-86.57 18.95,-26.29 98.64,-278.37 128.22,-340.04 52.92,-110.35 173.17,-292.23 177.42,-302.45 l -512.63,154.79 c -65.79,24.04 -77.51,139.16 -94.9,243.35 -18.11,108.48 -22.13,218.85 -14.4,330.92 z m -160.01,1903.73 c 21.89,15.55 320.75,137.29 439.92,201.69 47.14,25.48 101.75,69.78 143.31,81.29 44.62,-25.46 77.64,-53.32 130.96,-81.93 45.36,-24.34 92.32,-48.84 139.81,-70.86 99.61,-46.19 206.22,-83.07 302.24,-125.46 4.04,-89.33 -26.46,-114.05 -69.93,-157.14 -130.41,23.94 -335.97,253.66 -782.99,104.69 -76.68,-25.56 -185.84,-93.93 -234.87,-105.17 -39.01,34.88 -80.14,72.92 -68.45,152.89 z m 1172.31,-1801.43 179.22,169.87 c 143.11,-79.79 340.29,-268.7 360.42,-501.77 -264.28,17.86 -452.74,181.86 -539.64,331.9 z"
   id="path10" />
  <path
   class="fil2 str0"
   d="m 10055.19,12839.7 c -46.82,102.87 -121.1,273.94 -224.45,283.64 -113.35,-131.71 -55.4,-331.9 -58.58,-506.1 -1.62,-89.06 -48.61,-188.26 -42.7,-240.09 11.87,-104.01 -9.15,-145.96 -85.49,-178.37 -59.79,155.99 19.99,182.94 64.81,283.25 87.03,194.75 -99.02,387.06 14.11,663.96 44.82,109.71 16.18,61.53 24.79,173.48 5.25,68.26 27.66,89.03 53.39,140.2 -44.02,63.2 -53.73,99.19 -5.01,151.38 36.68,39.29 70.58,76.21 108.96,113.68 17.29,16.88 112.89,103.45 117.43,105.2 39.77,15.3 169.72,5.7 220.53,5.6 -33.22,-98.42 -104.93,-43.21 -191.96,-81.89 -62.66,-27.86 -62.98,-129.42 -71.64,-200.39 42.06,-40.11 78.78,-63.92 83.69,-152.37 259.04,9.7 262.86,186.85 395.32,150.71 l 297.43,-196.02 c 25.85,-23.23 30.4,-2.14 20.65,-90.86 -93,5.31 -200.52,164.94 -279.89,172.31 -62.01,5.76 -238,-132.07 -293.26,-160.46 l 66.9,-55.84 c 26.6,-20.11 33.03,-25.22 53.87,-51.65 110.21,-139.83 -26.41,-145.77 182.39,-146.79 39.24,-49.31 73.15,-107.34 112.7,-142.76 163.47,-146.35 160.92,13.92 157.61,-224.64 -115.21,9.56 -196.44,320.51 -356.95,202.55 -20.21,-14.86 -6.96,-3.84 -21.19,-21 76.31,-6.62 80.23,-3.38 118.25,-47.82 83.98,-98.16 132.62,-198.65 264.45,-226.37 l 0.07,-183.92 c -55.92,5.04 -38.09,-4.12 -64.42,49.34 -60.77,123.41 -199.01,330.3 -356.9,303.71 -46.16,-145.12 90.91,-71.51 64.06,-191.86 -65.28,19.96 -71.26,23.97 -124.59,-3.18 -15.02,-49.14 -9.1,-70.09 5.94,-110.85 84.03,-21.37 94.42,15.61 155.51,40.45 l 28.63,-93.62 -424.18,-161.48 c -38.74,112.59 -41.92,80.69 -116.72,138.56 -21.81,16.88 -42.14,39.48 -52.73,76.69 -21.58,75.77 9.03,106.77 9.03,106.77 23.37,69.94 -40.22,149.11 47.52,232.46 11.45,10.88 6.45,3.46 19.31,15.4 1.69,1.56 4.29,3.85 5.92,5.46 l 34.25,35.68 c 15.11,9.88 8.99,4.48 25.06,11.48 z"
   id="path11" />
  <path
   class="fil2 str0"
   d="m 11557.54,13836.69 c 195.45,0.27 191.1,23.49 272.73,-50.66 364.9,-331.44 127.31,-243.54 184.09,-352.69 66.14,-127.13 15.68,-170.46 42.12,-239.89 90.71,-238.19 61.12,-269.94 16.76,-512.87 -48,-262.9 161.93,-245.59 84.21,-481.87 -92.34,34.75 -92.89,77.02 -84.96,188.61 2.77,38.97 -44.4,147.77 -44.2,241.67 0.4,183.85 52.29,359.22 -59.53,498.35 -104.49,-25.46 -172.89,-174.57 -222.09,-287.64 2.91,-1.55 7.26,-2.18 9.44,-2.98 2.17,-0.78 6.71,-2.08 9.31,-3.11 l 109.98,-101.88 c 32.49,-48.58 15.45,-20.19 18.28,-56.8 8.58,-110.73 -2.34,-53.36 -4.04,-105.51 -2.18,-67.02 70.56,-144.18 -43.76,-223.84 -145.71,-101.52 -57.24,-81.6 -121.42,-132.68 l -416.33,156.12 31.21,97.73 c 48.3,-23.56 81.52,-66.48 143.24,-40.3 43.65,36.33 35.66,71.92 9.37,119.71 -57.72,14.39 -62.26,10.3 -114,-6.59 -28.17,115.9 111.76,56.81 63.81,191.29 -115.15,21.87 -198.57,-77.08 -247.15,-131.76 -136.48,-153.6 -82.43,-209.08 -175.3,-219.2 l 5.52,179.06 c 120.17,58.76 119.27,58.55 192.41,146.02 150.24,179.7 58.2,98.48 188.16,139.12 -189.55,144.23 -254.07,-172.57 -380.53,-188.2 -2.04,193.35 -10.11,119.2 82.55,170.89 88.62,49.44 125.94,116.8 186.46,196.93 155.71,0.22 109.43,-11.32 144.89,79.58 40.72,104.4 115.96,116.46 156.58,169.21 -41.52,36.02 -233.59,170.67 -289.42,165.71 -46.47,-4.13 -101.32,-61.23 -137.15,-88.07 -43.93,-32.91 -76.37,-79.96 -148.93,-84.26 0.05,84.69 -9.7,71.26 52.71,110.43 l 252.11,170.06 c 141.28,63.31 149.55,-136.66 413.96,-144.18 4.32,78.54 38.24,110.92 83.25,151.05 -6.69,68.22 -8.41,172.79 -70.34,201.1 -84.78,38.75 -158.98,-16.9 -194,82.34 z"
   id="path12" />
  <path
   class="fil6 str0"
   d="m 10813.73,12020.86 c -7.76,359.68 -0.71,727.32 -0.71,1087.88 0,192.78 14.49,330.05 -40.9,508.21 -37.65,121.1 -149.67,337.4 -156.35,378.79 82.54,45 171.72,95.41 291.38,92.82 96.27,-2.09 230.55,-45.7 278.97,-102.5 -20.82,-63.49 -58.62,-123.43 -88.04,-191.02 -129.51,-297.53 -109.21,-371.79 -109.21,-697.99 0,-356.96 6.46,-719.92 -0.66,-1076.71 z"
   id="path13" />
  <path
   class="fil3 str0"
   d="m 10185.25,6087.83 c 218.67,-54.39 441.38,-125.54 661.29,-186.1 476.33,-131.18 508.79,-108.89 497.07,-582.59 -120.65,51.37 -124.11,79.31 -331.56,151.6 -192.94,67.23 -490.56,188.36 -625.47,333.81 -61.14,65.92 -178.24,174.83 -201.33,283.28 z"
   id="path14" />
  <path
   class="fil3 str0"
   d="m 12516.4,9970.04 c -31.59,74.51 -102.7,131.81 -139.42,206.86 l 133.06,0.35 71.85,-113.64 80.62,114.95 134.18,-0.71 c -21.71,-63.09 -109.29,-143.35 -137.01,-207.81 34.02,-50.24 110.68,-143.56 132.79,-194.65 l -125.94,-0.01 -72.84,109.77 c -34.38,-32.97 -50.73,-76.09 -78.6,-110.26 h -129.35 c 11.18,39.75 101.56,149.08 130.66,195.15 z m -0.16,1953.5 c -31.28,73.92 -102.68,133.01 -139.43,207.35 l 133.63,0.46 70.8,-113.85 c 115.54,91.77 -20.09,114.47 215.91,114.47 -23.98,-65.36 -108.32,-142.58 -137.49,-208.43 35.07,-53.55 108.58,-140.18 132.75,-194.71 l -125.88,-0.02 -73.1,109.68 -77.48,-109.4 -130.04,-0.99 c 11.64,41.33 100.93,147.39 130.33,195.44 z m -92.31,1953.49 c -32.09,73.46 -103.75,135.25 -137.89,205.35 l 131.73,2.66 c 23.13,-40.96 50.84,-75.41 70.33,-115.59 34.38,27.21 54.76,74.32 83.4,115.59 l 136.3,-1.08 c -35.73,-72.39 -103.59,-132.03 -139.28,-206.93 35.61,-57.61 112.3,-144.6 130.99,-194.76 l -125.27,-0.23 c -27.91,34.06 -46.07,74.3 -72.03,110.43 -109.33,-90.83 23.18,-110.4 -208.37,-110.4 18.37,54.35 97.32,135.4 130.09,194.96 z m -1719.59,998.82 132.61,194.33 c -29.41,63 -116.74,146.61 -137.8,207.87 206.8,0.11 105.64,0.76 209.76,-111.68 l 65.96,110.9 136.55,0.65 c -25.85,-69.24 -109.26,-140.41 -138.03,-207.74 39.15,-66.97 96.23,-125.55 133.01,-195.01 l -130.61,2.06 -74.96,109.71 c -7.37,-14.53 -52.04,-92.68 -62.02,-100.27 -30.06,-22.85 -94.29,-11.86 -134.47,-10.82 z M 9149.91,11923.54 c -32.92,68.61 -117.99,148.43 -135.74,207.67 h 131.63 c 37.44,-51.98 41.89,-80.89 84.85,-114.88 l 69.22,114.14 133.96,0.55 c -36.77,-76.26 -104.88,-131.51 -139.29,-207.48 33.78,-58.66 113.11,-142.24 131.27,-196 l -130.73,-0.07 c -26.39,32.08 -45.98,75.97 -77.77,111.1 l -71.21,-111.23 -128.27,0.3 c 28.24,65.73 91.71,126.31 132.08,195.9 z m 0.03,-1953.5 c -32.46,73.25 -114.12,141.73 -136.47,207.81 h 133.34 l 63.68,-96.46 c 12.94,-13.98 6.36,-7.64 20.59,-18.81 l 68.5,114.51 134.51,0.5 c -36.44,-71.45 -111.36,-139.13 -139.48,-207.55 32.01,-52.12 117.16,-148.67 130.74,-195.15 -212.08,0 -101.78,4.9 -208.88,110.89 l -70.97,-111.25 -127.28,0.49 c 18.94,49.91 95.85,138.08 131.72,195.02 z m 92.46,3906.99 c -35.17,71.59 -112.69,142.73 -139.5,205.72 l 136.22,2.63 c 24.16,-39.9 52.04,-93.32 83.66,-116.31 l 71.47,114.51 127.31,1.6 c -21.13,-66.76 -105.44,-137.03 -135.19,-208.15 35.32,-53.2 110.8,-146.8 130.06,-194.84 -43.93,-0.17 -110.16,-13.62 -141.21,16.27 -20.79,20.02 -35.21,68.5 -66.44,91.3 l -72.65,-107.43 -124.88,-0.27 c 13.57,41.07 99.7,145.37 131.15,194.97 z"
   id="path15" />
  <path
   class="fil3 str0"
   d="m 11007.1,5338.8 c 87.75,-1.54 279.56,-123.09 312.44,-182.93 14.01,-74.57 -233.75,-190.52 -312.47,-184.2 z"
   id="path16" />
 </g>
</svg>
