<?xml version="1.0" encoding="UTF-8" standalone="no"?>
<!-- Generator: Adobe Illustrator 14.0.0, SVG Export Plug-In . SVG Version: 6.00 Build 43363)  -->

<svg
   version="1.1"
   id="Layer_1"
   x="0px"
   y="0px"
   width="206"
   height="206"
   viewBox="0 0 206 206"
   enable-background="new 0 0 204.25 206"
   xml:space="preserve"
   sodipodi:docname="Cruz_Azul.svg"
   inkscape:version="1.4.2 (f4327f4, 2025-05-13)"
   xmlns:inkscape="http://www.inkscape.org/namespaces/inkscape"
   xmlns:sodipodi="http://sodipodi.sourceforge.net/DTD/sodipodi-0.dtd"
   xmlns="http://www.w3.org/2000/svg"
   xmlns:svg="http://www.w3.org/2000/svg"><defs
   id="defs7" /><sodipodi:namedview
   id="namedview7"
   pagecolor="#ffffff"
   bordercolor="#000000"
   borderopacity="0.25"
   inkscape:showpageshadow="2"
   inkscape:pageopacity="0.0"
   inkscape:pagecheckerboard="0"
   inkscape:deskcolor="#d1d1d1"
   inkscape:zoom="3.9174757"
   inkscape:cx="102.2342"
   inkscape:cy="103"
   inkscape:window-width="1920"
   inkscape:window-height="1009"
   inkscape:window-x="-8"
   inkscape:window-y="-8"
   inkscape:window-maximized="1"
   inkscape:current-layer="Layer_1" />
<g
   id="g7"
   transform="translate(-0.12799999,0.1235)">
	<path
   fill-rule="evenodd"
   clip-rule="evenodd"
   fill="#2e3192"
   d="m 103.129,9.334 c 51.521,0 93.542,42.021 93.542,93.542 0,51.523 -42.021,93.543 -93.542,93.543 -51.523,0 -93.544,-42.02 -93.544,-93.543 C 9.584,51.356 51.606,9.334 103.129,9.334 Z"
   id="path1" />
	<path
   fill-rule="evenodd"
   clip-rule="evenodd"
   fill="#ffffff"
   d="m 103.129,36.398 c 36.615,0 66.479,29.864 66.479,66.479 0,36.616 -29.863,66.479 -66.479,66.479 -36.617,0 -66.48,-29.863 -66.48,-66.479 -10e-4,-36.615 29.863,-66.479 66.48,-66.479 z"
   id="path2" />
	<polygon
   fill-rule="evenodd"
   clip-rule="evenodd"
   fill="#ee3124"
   points="140.394,65.612 140.394,140.143 65.863,140.143 65.863,65.612 "
   id="polygon2" />
	<path
   fill-rule="evenodd"
   clip-rule="evenodd"
   fill="#ffffff"
   d="m 103.129,73.479 c 16.191,0 29.398,13.207 29.398,29.398 0,16.193 -13.207,29.4 -29.398,29.4 -16.193,0 -29.4,-13.207 -29.4,-29.4 0,-16.192 13.207,-29.398 29.4,-29.398 z"
   id="path3" />
	<polygon
   fill-rule="evenodd"
   clip-rule="evenodd"
   fill="#2e3192"
   points="78.493,110.369 78.493,95.387 95.637,95.387 95.637,78.242 110.619,78.242 110.619,95.387 127.764,95.387 127.764,110.369 110.619,110.369 110.619,127.514 95.637,127.514 95.637,110.369 "
   id="polygon3" />
	<path
   fill-rule="evenodd"
   clip-rule="evenodd"
   fill="#ffffff"
   d="m 70.487,169.359 4.723,1.908 -1.034,7.801 4.669,-6.332 4.704,1.9 -4.692,11.613 -2.93,-1.186 3.578,-8.854 -5.853,7.936 -2.652,-1.072 1.313,-9.77 -3.578,8.855 -2.939,-1.189 z m 13.263,5.045 10.18,1.979 -0.51,2.625 -6.374,-1.238 -0.38,1.955 5.912,1.148 -0.487,2.508 -5.912,-1.15 -0.471,2.424 6.558,1.275 -0.541,2.783 -10.365,-2.014 z m 10.55,2.174 4.262,0.148 2.083,3.93 2.288,-3.777 4.215,0.148 -4.104,5.926 4.034,6.604 -4.345,-0.152 -2.327,-4.107 -2.617,3.936 -4.319,-0.15 4.546,-6.371 z m 13.093,0.076 3.864,-0.34 1.092,12.479 -3.865,0.338 z m 14.934,5.393 3.526,0.359 c -0.042,0.979 -0.243,1.826 -0.602,2.545 -0.359,0.719 -0.865,1.307 -1.516,1.766 -0.65,0.455 -1.527,0.793 -2.629,1.008 -1.335,0.26 -2.464,0.275 -3.387,0.053 -0.922,-0.225 -1.786,-0.766 -2.591,-1.625 -0.807,-0.859 -1.356,-2.051 -1.653,-3.576 -0.396,-2.037 -0.158,-3.703 0.711,-5.01 0.869,-1.303 2.294,-2.145 4.271,-2.529 1.55,-0.301 2.828,-0.225 3.836,0.229 1.006,0.455 1.853,1.287 2.535,2.5 l -3.209,1.4 c -0.191,-0.354 -0.367,-0.602 -0.529,-0.752 -0.27,-0.25 -0.572,-0.422 -0.91,-0.52 -0.337,-0.098 -0.698,-0.107 -1.078,-0.033 -0.86,0.168 -1.453,0.641 -1.775,1.424 -0.248,0.582 -0.265,1.424 -0.051,2.525 0.266,1.365 0.655,2.258 1.166,2.684 0.513,0.428 1.144,0.564 1.893,0.42 0.726,-0.141 1.236,-0.451 1.528,-0.932 0.295,-0.481 0.449,-1.126 0.464,-1.936 z m 3.364,-1.859 c -0.766,-1.896 -0.834,-3.586 -0.204,-5.07 0.628,-1.482 1.887,-2.604 3.771,-3.365 1.932,-0.781 3.632,-0.863 5.096,-0.25 1.465,0.617 2.576,1.859 3.331,3.729 0.548,1.355 0.769,2.563 0.664,3.613 -0.105,1.055 -0.493,1.998 -1.162,2.828 -0.666,0.834 -1.646,1.51 -2.933,2.029 -1.311,0.531 -2.479,0.76 -3.506,0.688 -1.026,-0.07 -1.988,-0.447 -2.887,-1.137 -0.898,-0.689 -1.622,-1.71 -2.17,-3.065 z m 3.595,-1.438 c 0.474,1.176 1.031,1.93 1.674,2.266 0.644,0.334 1.338,0.352 2.088,0.047 0.771,-0.311 1.269,-0.801 1.487,-1.475 0.22,-0.672 0.066,-1.656 -0.459,-2.957 -0.441,-1.092 -0.983,-1.803 -1.629,-2.127 -0.644,-0.326 -1.344,-0.338 -2.1,-0.031 -0.722,0.291 -1.201,0.781 -1.432,1.473 -0.23,0.687 -0.106,1.622 0.371,2.804 z"
   id="path4" />
	<path
   fill-rule="evenodd"
   clip-rule="evenodd"
   fill="#ffffff"
   d="m 88.354,13.139 3.76,7.444 8.271,-1.31 -5.968,5.937 3.859,7.4 -7.493,-3.685 -5.848,5.798 1.315,-8.17 -7.553,-3.845 8.358,-1.339 z m -27.81,9.256 5.979,5.815 7.393,-3.932 -3.709,7.557 6.059,5.741 -8.284,-1.045 -3.643,7.387 -1.417,-8.154 -8.394,-1.177 7.468,-3.986 z m -23.43,17.972 7.546,3.552 5.711,-6.125 -1.047,8.353 7.597,3.456 -8.173,1.708 -1.039,8.17 -3.994,-7.248 -8.319,1.619 5.762,-6.2 z m -16.893,25.274 8.291,0.901 3.406,-7.65 1.729,8.239 8.308,0.794 -7.171,4.276 1.677,8.063 -6.136,-5.553 -7.339,4.24 3.43,-7.739 z m 97.682,-52.502 -3.761,7.444 -8.271,-1.31 5.968,5.938 -3.859,7.4 7.493,-3.685 5.849,5.798 -1.315,-8.17 7.554,-3.846 -8.359,-1.338 z m 27.81,9.256 -5.979,5.815 -7.394,-3.932 3.71,7.557 -6.059,5.741 8.284,-1.045 3.643,7.387 1.416,-8.154 8.394,-1.177 -7.467,-3.986 z m 23.43,17.972 -7.546,3.551 -5.711,-6.124 1.048,8.353 -7.598,3.456 8.173,1.709 1.039,8.17 3.994,-7.248 8.318,1.62 -5.762,-6.2 z m 16.893,25.274 -8.291,0.901 -3.406,-7.65 -1.729,8.239 -8.308,0.794 7.171,4.276 -1.678,8.063 6.137,-5.553 7.339,4.241 -3.431,-7.739 z"
   id="path5" />
	<path
   fill-rule="evenodd"
   clip-rule="evenodd"
   fill="#2e3192"
   d="m 71.934,147.986 2.35,0.789 c -0.158,0.73 -0.406,1.34 -0.746,1.83 -0.339,0.488 -0.761,0.859 -1.263,1.109 -0.503,0.248 -1.144,0.375 -1.921,0.375 -0.942,0 -1.712,-0.154 -2.31,-0.457 -0.597,-0.305 -1.113,-0.838 -1.547,-1.605 -0.435,-0.766 -0.651,-1.746 -0.651,-2.939 0,-1.594 0.382,-2.816 1.146,-3.674 0.763,-0.855 1.844,-1.281 3.239,-1.281 1.094,0 1.953,0.246 2.579,0.734 0.624,0.49 1.089,1.242 1.394,2.258 l -2.368,0.584 c -0.083,-0.293 -0.17,-0.506 -0.261,-0.643 -0.15,-0.229 -0.333,-0.404 -0.55,-0.527 -0.217,-0.121 -0.461,-0.182 -0.729,-0.182 -0.607,0 -1.072,0.27 -1.395,0.813 -0.246,0.404 -0.369,1.035 -0.369,1.898 0,1.066 0.147,1.799 0.438,2.195 0.292,0.396 0.703,0.592 1.232,0.592 0.512,0 0.9,-0.158 1.162,-0.479 0.263,-0.317 0.452,-0.78 0.57,-1.39 z m 3.284,3.932 v -9.623 h 4.469 c 0.828,0 1.46,0.08 1.9,0.236 0.438,0.158 0.791,0.451 1.059,0.879 0.268,0.424 0.401,0.945 0.401,1.557 0,0.535 -0.102,0.996 -0.307,1.383 -0.205,0.387 -0.487,0.701 -0.846,0.941 -0.229,0.152 -0.542,0.279 -0.941,0.381 0.318,0.117 0.552,0.236 0.697,0.355 0.1,0.076 0.242,0.246 0.43,0.504 0.187,0.258 0.313,0.459 0.376,0.598 l 1.295,2.789 h -3.03 l -1.432,-2.939 c -0.182,-0.381 -0.344,-0.629 -0.484,-0.742 -0.194,-0.148 -0.414,-0.223 -0.658,-0.223 h -0.236 v 3.904 z m 2.693,-5.723 h 1.13 c 0.123,0 0.359,-0.043 0.71,-0.131 0.177,-0.041 0.321,-0.141 0.435,-0.303 0.112,-0.162 0.168,-0.348 0.168,-0.559 0,-0.311 -0.089,-0.549 -0.267,-0.715 -0.177,-0.166 -0.51,-0.248 -1,-0.248 H 77.91 v 1.956 z m 11.734,-3.9 h 2.674 v 5.736 c 0,0.57 -0.08,1.107 -0.24,1.611 -0.16,0.506 -0.41,0.949 -0.751,1.328 -0.341,0.377 -0.7,0.643 -1.074,0.797 -0.521,0.215 -1.146,0.322 -1.875,0.322 -0.423,0 -0.883,-0.033 -1.383,-0.1 -0.498,-0.066 -0.915,-0.197 -1.251,-0.391 -0.335,-0.193 -0.643,-0.471 -0.92,-0.83 -0.278,-0.357 -0.468,-0.729 -0.571,-1.109 -0.165,-0.611 -0.249,-1.154 -0.249,-1.629 v -5.736 h 2.674 v 5.877 c 0,0.523 0.132,0.934 0.394,1.229 0.262,0.297 0.627,0.443 1.092,0.443 0.462,0 0.824,-0.145 1.086,-0.436 0.263,-0.291 0.394,-0.705 0.394,-1.236 z m 3.826,0 h 7.586 v 1.924 l -4.864,5.633 h 5.042 v 2.066 h -8.231 v -1.996 l 4.812,-5.572 h -4.345 z m 18.349,8.035 h -3.052 l -0.421,1.588 h -2.739 l 3.26,-9.623 h 2.924 l 3.261,9.623 h -2.805 z m -0.561,-2.082 -0.959,-3.457 -0.951,3.457 z m 4.029,-5.953 h 7.587 v 1.924 l -4.865,5.633 h 5.042 v 2.066 h -8.23 v -1.996 l 4.812,-5.572 h -4.345 v -2.055 z m 14.213,0 h 2.674 v 5.736 c 0,0.57 -0.08,1.107 -0.239,1.611 -0.16,0.506 -0.41,0.949 -0.751,1.328 -0.341,0.377 -0.7,0.643 -1.074,0.797 -0.521,0.215 -1.147,0.322 -1.876,0.322 -0.423,0 -0.883,-0.033 -1.383,-0.1 -0.498,-0.066 -0.915,-0.197 -1.252,-0.391 -0.334,-0.193 -0.642,-0.471 -0.919,-0.83 -0.279,-0.357 -0.468,-0.729 -0.57,-1.109 -0.166,-0.611 -0.249,-1.154 -0.249,-1.629 v -5.736 h 2.674 v 5.877 c 0,0.523 0.132,0.934 0.394,1.229 0.262,0.297 0.628,0.443 1.093,0.443 0.462,0 0.824,-0.145 1.086,-0.436 0.262,-0.291 0.394,-0.705 0.394,-1.236 v -5.876 z m 4.045,0 h 2.681 v 7.254 h 4.185 v 2.369 h -6.865 v -9.623 z"
   id="path6" />
	<path
   fill-rule="evenodd"
   clip-rule="evenodd"
   fill="#2e3192"
   d="m 65.846,53.833 h 4.001 c 0.79,0 1.426,0.119 1.912,0.355 0.486,0.236 0.888,0.576 1.204,1.018 0.316,0.442 0.548,0.956 0.689,1.542 0.143,0.586 0.215,1.208 0.215,1.863 0,1.028 -0.106,1.826 -0.318,2.393 -0.211,0.566 -0.507,1.042 -0.883,1.425 -0.377,0.383 -0.78,0.637 -1.213,0.764 -0.591,0.175 -1.126,0.263 -1.606,0.263 h -4.001 z m 2.694,2.179 v 5.257 h 0.66 c 0.562,0 0.962,-0.069 1.201,-0.207 0.238,-0.138 0.423,-0.378 0.559,-0.723 0.134,-0.342 0.203,-0.899 0.203,-1.67 0,-1.018 -0.151,-1.717 -0.452,-2.094 -0.301,-0.376 -0.8,-0.564 -1.499,-0.564 H 68.54 Z m 6.331,-2.179 h 7.218 v 2.055 H 77.57 v 1.529 h 4.191 v 1.962 H 77.57 v 1.897 h 4.649 v 2.18 H 74.87 v -9.623 z m 8.381,0 h 4.478 c 0.974,0 1.705,0.257 2.19,0.768 0.486,0.512 0.729,1.242 0.729,2.186 0,0.971 -0.265,1.73 -0.794,2.278 -0.53,0.546 -1.337,0.82 -2.423,0.82 h -1.475 v 3.571 h -2.705 z m 2.705,4.103 h 0.66 c 0.519,0 0.884,-0.099 1.094,-0.299 0.21,-0.198 0.315,-0.454 0.315,-0.765 0,-0.302 -0.091,-0.558 -0.273,-0.768 -0.183,-0.21 -0.525,-0.316 -1.029,-0.316 h -0.767 z m 5.355,0.715 c 0,-1.571 0.397,-2.794 1.19,-3.669 0.792,-0.875 1.896,-1.313 3.311,-1.313 1.451,0 2.569,0.43 3.354,1.289 0.785,0.861 1.178,2.065 1.178,3.614 0,1.125 -0.172,2.046 -0.514,2.766 -0.342,0.721 -0.838,1.28 -1.487,1.681 -0.647,0.401 -1.456,0.602 -2.422,0.602 -0.983,0 -1.798,-0.173 -2.442,-0.52 -0.644,-0.346 -1.166,-0.892 -1.566,-1.642 -0.401,-0.748 -0.602,-1.683 -0.602,-2.808 z m 2.694,0.013 c 0,0.973 0.163,1.67 0.489,2.095 0.328,0.424 0.772,0.635 1.335,0.635 0.579,0 1.028,-0.207 1.344,-0.623 0.316,-0.415 0.475,-1.161 0.475,-2.238 0,-0.906 -0.165,-1.568 -0.496,-1.984 -0.331,-0.418 -0.78,-0.627 -1.347,-0.627 -0.542,0 -0.979,0.212 -1.307,0.637 -0.329,0.422 -0.493,1.125 -0.493,2.105 z m 7.417,4.792 v -9.623 h 4.491 c 0.831,0 1.467,0.079 1.908,0.237 0.439,0.158 0.795,0.451 1.064,0.877 0.269,0.425 0.403,0.946 0.403,1.557 0,0.534 -0.103,0.995 -0.31,1.383 -0.205,0.387 -0.489,0.701 -0.85,0.941 -0.229,0.153 -0.545,0.28 -0.945,0.381 0.319,0.117 0.555,0.235 0.701,0.354 0.1,0.077 0.243,0.247 0.432,0.503 0.188,0.259 0.313,0.459 0.377,0.599 l 1.302,2.79 h -3.044 l -1.438,-2.94 c -0.183,-0.382 -0.346,-0.629 -0.487,-0.741 -0.194,-0.15 -0.415,-0.224 -0.66,-0.224 h -0.237 v 3.905 h -2.707 z m 2.707,-5.724 h 1.135 c 0.124,0 0.361,-0.043 0.715,-0.131 0.177,-0.041 0.322,-0.141 0.437,-0.303 0.112,-0.162 0.169,-0.348 0.169,-0.558 0,-0.311 -0.09,-0.55 -0.268,-0.716 -0.179,-0.166 -0.514,-0.249 -1.005,-0.249 h -1.183 z m 5.606,-3.899 h 8.188 v 2.376 h -2.748 v 7.247 h -2.694 v -7.247 h -2.745 v -2.376 z m 9.106,0 h 2.7 v 9.623 h -2.7 z m 3.364,0 h 2.816 l 1.963,6.926 1.934,-6.926 h 2.734 l -3.234,9.623 H 125.5 Z m 9.172,4.818 c 0,-1.571 0.397,-2.794 1.191,-3.669 0.791,-0.875 1.896,-1.313 3.31,-1.313 1.451,0 2.57,0.43 3.354,1.289 0.786,0.861 1.179,2.065 1.179,3.614 0,1.125 -0.173,2.046 -0.515,2.766 -0.343,0.721 -0.839,1.28 -1.487,1.681 -0.647,0.401 -1.455,0.602 -2.421,0.602 -0.984,0 -1.799,-0.173 -2.442,-0.52 -0.643,-0.347 -1.165,-0.892 -1.566,-1.642 -0.402,-0.748 -0.603,-1.683 -0.603,-2.808 z m 2.694,0.013 c 0,0.973 0.163,1.67 0.49,2.095 0.327,0.424 0.771,0.635 1.335,0.635 0.578,0 1.027,-0.207 1.344,-0.623 0.317,-0.415 0.476,-1.161 0.476,-2.238 0,-0.906 -0.164,-1.568 -0.497,-1.984 -0.33,-0.418 -0.778,-0.627 -1.347,-0.627 -0.541,0 -0.979,0.212 -1.307,0.637 -0.329,0.422 -0.494,1.125 -0.494,2.105 z"
   id="path7" />
</g>
</svg>
