<?xml version="1.0" encoding="UTF-8" standalone="no"?>
<!-- Generator: Adobe Illustrator 15.0.0, SVG Export Plug-In . SVG Version: 6.00 Build 0)  -->

<svg
   version="1.1"
   id="Layer_1"
   x="0px"
   y="0px"
   width="400"
   height="400"
   viewBox="-215.809 -369.404 822.93572 822.93571"
   enable-background="new -215.809 -369.404 500 846.529"
   xml:space="preserve"
   sodipodi:docname="Pachuca.svg"
   inkscape:version="1.4.2 (f4327f4, 2025-05-13)"
   xmlns:inkscape="http://www.inkscape.org/namespaces/inkscape"
   xmlns:sodipodi="http://sodipodi.sourceforge.net/DTD/sodipodi-0.dtd"
   xmlns="http://www.w3.org/2000/svg"
   xmlns:svg="http://www.w3.org/2000/svg"><defs
   id="defs25" /><sodipodi:namedview
   id="namedview25"
   pagecolor="#ffffff"
   bordercolor="#000000"
   borderopacity="0.25"
   inkscape:showpageshadow="2"
   inkscape:pageopacity="0.0"
   inkscape:pagecheckerboard="0"
   inkscape:deskcolor="#d1d1d1"
   inkscape:zoom="1.386828"
   inkscape:cx="188.55979"
   inkscape:cy="245.52431"
   inkscape:window-width="1920"
   inkscape:window-height="1009"
   inkscape:window-x="-8"
   inkscape:window-y="-8"
   inkscape:window-maximized="1"
   inkscape:current-layer="Layer_1" />

























































<g
   id="g25"
   transform="matrix(0.85104318,0,0,0.85104318,166.56127,-3.7737537)"><path
     fill="#ffffff"
     d="m 29.411,-247.882 c -94.41,64.268 -111.944,64.268 -225.955,64.268 h -8.732 l -0.078,56.929 c -0.836,188.315 -1.706,383.046 235.712,498.52 l 3.789,1.837 3.804,-1.82 C 277.36,257.361 275.368,63.27 273.458,-124.422 l -0.41,-59.139 -8.667,-0.053 c -105.176,0 -118.696,0 -225.545,-64.514 l -4.801,-2.895 z"
     id="path1" /><path
     fill="#162577"
     d="m 29.222,-259.809 c -98.046,66.744 -116.257,66.744 -234.671,66.744 h -9.069 l -0.082,59.127 c -0.865,195.584 -1.763,397.825 244.81,517.752 l 3.94,1.902 3.948,-1.886 C 286.741,264.921 284.675,63.352 282.69,-131.588 l -0.427,-61.418 -9.003,-0.058 c -109.234,0 -123.271,0 -234.244,-67.002 l -4.985,-3.005 z m 5.371,18.252 c 107.672,64.703 127.99,66.577 229.657,66.625 0.09,12.427 0.278,43.536 0.278,43.536 0.172,17.17 0.36,34.458 0.36,51.772 0,78.498 -3.648,157.333 -27.542,228.152 C 204.811,244.865 140.149,313.888 34.207,365.497 -70.89,313.446 -135.22,244.013 -167.957,147.209 c -25.837,-76.429 -28.6,-162.073 -28.6,-246.598 0,-11.528 0.041,-23.02 0.111,-34.467 0,0 0.033,-28.866 0.049,-41.076 110.723,-0.048 135.063,-1.787 230.99,-66.625 z"
     id="path2" /><path
     fill="#162577"
     d="m 140.822,-101.664 c -1.928,-3.575 -2.739,-10.048 -2.616,-19.277 0.14,-7.572 0.96,-12.947 2.477,-16.256 2.222,-4.264 5.092,-6.063 8.945,-5.231 1.656,0.279 3.165,0.968 4.543,2.345 1.246,1.234 2.477,2.886 3.32,4.953 0.55,1.099 0.968,3.03 1.518,5.506 l 14.882,-2.62 c -1.813,-8.261 -4.559,-14.743 -8.413,-19.421 -3.854,-4.817 -9.085,-8.125 -15.973,-9.773 -8.683,-2.071 -15.439,0 -20.244,6.478 -4.978,6.748 -7.576,17.49 -7.863,31.954 -0.14,11.024 1.238,19.974 3.993,27.136 2.624,7.023 5.797,11.992 9.511,14.739 3.715,2.628 8.544,4.001 14.48,4.001 4.806,0 8.807,-1.099 11.972,-3.03 3.165,-2.075 5.789,-4.961 7.855,-8.823 2.066,-3.846 3.723,-8.675 4.698,-14.325 l -14.611,-7.572 c -0.689,4.953 -2.059,8.679 -3.575,11.299 -1.656,2.477 -4.133,3.71 -7.314,3.579 -3.321,-0.279 -5.798,-2.075 -7.585,-5.662 z m 77.133,23.283 h 17.498 l -19.425,-70.119 -18.334,-1.107 -21.204,71.09 h 17.088 l 2.607,-11.836 9.643,0.135 9.511,0.266 z m -359.103,-26.169 c 6.609,-0.271 11.705,-2.468 15.005,-6.752 1.382,-1.923 2.493,-3.997 3.317,-6.465 1.107,-3.173 1.652,-6.9 1.652,-11.024 0,-4.264 -0.427,-7.38 -1.529,-10.278 -0.689,-2.062 -1.644,-3.71 -2.895,-5.096 -3.026,-3.439 -7.441,-4.686 -13.636,-4.272 l -4.542,0.144 -23.418,0.627 v 69.286 h 16.809 v -25.894 l 6.473,-0.275 h 2.764 z m 58.127,25.902 h 17.625 l -19.572,-76.961 -18.859,1.747 -19.01,69.565 -1.517,5.772 h 1.517 15.567 l 2.628,-12.397 9.499,-0.415 9.511,-0.274 z m 67.498,-13.636 c 2.21,-5.096 3.862,-11.438 4.821,-19.154 l -14.739,-6.203 c -0.688,6.063 -1.931,10.745 -3.591,14.054 -1.513,3.165 -3.989,4.957 -7.297,5.088 -3.309,0.279 -5.785,-1.377 -7.572,-4.96 -1.923,-3.444 -2.755,-10.053 -2.612,-19.831 0,-7.994 0.82,-13.915 2.325,-17.912 2.066,-5.506 4.973,-8.814 8.827,-9.782 1.652,-0.41 3.165,-0.139 4.542,0.697 1.374,0.832 2.484,2.337 3.44,4.268 0.553,1.234 0.967,3.317 1.529,6.06 l 14.87,-9.093 c -1.795,-9.921 -4.694,-16.944 -8.548,-20.806 -3.854,-3.71 -9.237,-4.407 -16.121,-2.206 -8.675,2.763 -15.423,8.679 -20.388,17.498 -4.682,8.671 -7.293,19.831 -7.293,33.745 -0.143,10.327 1.234,18.875 3.993,25.349 2.612,6.748 5.92,11.434 9.635,14.189 3.718,2.62 8.544,4.128 14.472,4.128 4.813,0 8.818,-1.242 11.848,-3.71 3.173,-2.613 5.784,-6.323 7.859,-11.419 z m 64.6,13.214 0.828,-105.651 -16.948,-1.374 -0.275,37.464 -18.17,1.099 0.274,-36.775 -16.817,3.71 -0.545,101.654 16.674,-0.135 0.135,-42.568 18.187,-0.688 -0.144,43.249 h 16.801 z m 63.096,-36.23 0.836,-53.854 -16.678,-4.137 -0.82,57.581 c 0,5.231 -0.836,9.372 -2.476,11.988 -1.656,2.891 -3.87,4.133 -6.757,3.998 -3.033,-0.275 -5.231,-1.931 -6.888,-5.096 -1.509,-3.03 -2.476,-7.437 -2.345,-12.812 l 0.836,-60.607 -16.809,-4.272 -0.688,61.714 c -0.14,5.096 0.409,11.024 1.517,17.633 0.549,4.128 1.648,8.126 3.452,11.979 1.64,3.854 3.706,6.752 5.772,8.827 2.066,2.198 4.689,3.432 7.854,4.129 3.034,0.688 5.921,1.099 8.553,1.099 4.542,0 8.552,-1.099 11.717,-3.173 2.32,-1.369 4.543,-3.985 6.748,-7.564 2.059,-3.596 3.715,-7.581 4.683,-12.41 0.935,-4.687 1.493,-9.648 1.493,-15.023 z m 134.234,-45.786 0.705,93.729 h -426.003 l -0.127,-94.156 c 105.536,0 124.662,0.427 213.487,-60.152 100.343,60.579 115.11,60.579 211.938,60.579 z m -40.571,32.159 0.558,-2.075 5.379,25.771 -5.937,-0.279 -5.912,-0.283 z m -349.748,-5.371 c 2.202,0 3.854,0.689 4.694,1.931 1.226,1.365 1.636,3.309 1.636,5.498 0,2.202 -0.545,4.133 -1.922,5.642 -0.956,1.246 -2.468,1.931 -4.399,2.345 -0.84,0.143 -1.521,0.143 -2.341,0.274 l -4.133,0.144 v -15.567 l 4.822,-0.274 c 0.545,0.007 1.09,-0.137 1.643,0.007 z m 48.759,-0.968 6.068,26.862 -6.068,0.553 -5.92,0.41 z"
     id="path3" /><path
     fill="#162577"
     d="m 112.066,240.602 -4.371,-2.771 -2.632,-35.733 -2.14,-3.461 -2.329,-54.888 -22.286,-10.922 2.624,-1.017 c 0,0 15.07,8.036 19.892,9.635 2.042,-3.214 2.624,-5.83 5.265,-7.445 1.164,-2.206 -3.223,-8.061 -3.223,-8.061 l -8.044,-19.301 -3.969,0.812 -2.91,-24.328 v -3.805 c 6.871,-32.618 8.052,-17.694 -1.6,-46.36 L 59.006,26.516 V 15.692 l 1.591,-1.025 c 0.574,0.59 5.854,4.83 5.854,5.854 l -1.033,0.586 c 0,2.193 4.256,4.231 5.428,5.846 h 3.657 c 1.607,-1.607 3.214,-3.21 3.805,-3.653 1.607,1.603 1.607,1.021 1.607,2.046 0.582,0 -2.206,3.218 -1.607,3.218 l 3.788,-0.439 c 1.033,-1.172 4.247,-4.825 1.033,-7.597 -1.033,-4.243 -4.821,-5.854 -5.42,-9.077 L 73.47,7.655 V -3.015 L 72.446,-4.04 v -2.198 l -4.821,-4.223 c -2.206,0 0,0 -4.83,1.603 0,0.586 0,0.586 0,0.586 -0.574,0 -1.607,0.438 -1.607,0 0,-0.586 -0.582,-1.177 0,-2.78 -0.582,-1.603 -3.788,-4.239 -4.821,-5.272 l -2.787,2.058 c -0.435,-1.025 -1.607,-2.05 -2.042,-1.025 l -2.197,2.636 c -1.6,0 -1.6,-4.826 -1.6,-5.851 0,-0.59 -1.033,-0.59 -1.033,-0.59 v 2.78 l -2.771,5.272 h -0.451 c -4.813,-4.239 -5.83,-6.875 -11.836,-6.437 l -3.653,3.214 -1.025,-1.025 c -1.603,4.239 -5.264,4.239 -3.227,7.458 0,1.603 0,3.206 -1.021,4.383 -1.607,0.442 -1.017,0 -2.185,-1.177 -0.451,1.177 -1.033,1.611 -2.644,2.788 0,-0.586 -0.578,-1.168 -1.025,-1.168 l -3.214,1.603 c 0,0 0,0 -0.574,0 -1.611,1.177 -2.636,1.624 -3.8,2.636 L 8.834,6.053 c -2.78,0 -1.603,0 -1.603,0.586 0,1.603 -2.202,0.582 -2.202,0.582 0,0 -0.578,-2.193 -1.603,-0.581 0,1.603 0,3.805 1.603,3.805 3.218,1.603 4.83,2.628 5.416,4.239 0,1.025 -0.578,4.83 -0.578,7.458 l -4.83,3.214 c 0,1.168 -1.013,1.168 -1.013,1.168 0,1.033 2.038,2.636 2.038,2.636 0,1.025 0,1.025 -1.025,1.611 -1.013,0 -1.603,-0.586 -2.189,-0.586 -0.438,0 -1.603,0.586 -1.603,1.603 0,1.611 0,4.239 0,7.458 0,-3.218 -0.438,3.669 -1.472,3.669 l -3.792,2.181 1.025,7.458 1.173,1.611 c 1.595,1.017 0.438,4.817 0.438,4.817 l -5.494,56.413 -5.194,0.328 c 0,0 0,0 -1.033,0 1.033,1.615 1.033,3.805 1.033,4.837 -0.59,0 -1.603,0 -1.603,0.566 l -1.607,1.033 c 0,1.164 0,1.164 -1.033,1.164 l -1.165,4.682 -3.218,2.198 v 4.821 l 7.105,5.739 -1.689,29.649 -1.033,1.033 -1.165,25.14 -3.218,3.215 -0.443,8.052 v 0.574 l -1.168,16.53 -1.025,10.823 -3.792,3.657 v 11.84 l 82.934,4.903 56.241,-5.511 z m -8.478,-27.338 -0.451,1.755 -21.188,-2.197 0.304,6.429 h -4.387 l 1.164,-8.479 z m -4.239,-10.528 -30.994,-2.051 1.164,-5.706 8.052,1.033 6.863,1.606 0.451,2.477 15.932,0.442 z m -8.479,-25.878 3.493,5.69 3.37,1.188 0.295,7.003 -4.682,-0.435 -4.231,-0.582 z m 1.46,16.514 -14.325,-0.582 -12.586,-0.878 3.518,-5.116 7.019,3.944 8.331,-0.14 z m -27.764,-13.02 -0.017,-34.373 5.002,-11.397 1.705,5.076 0.033,43.047 z m 17.186,8.018 -8.945,-0.312 V 178.3 l 8.945,1.591 z m -2.582,-44.868 2.632,5.854 -0.05,27.206 -8.945,-1.64 v -29.289 l 3.305,-1.246 z M 77.71,91.6 c 0.722,0.877 1.755,1.599 2.493,2.197 L 76.25,97.158 74.2,94.075 Z m 5.42,20.76 -9.068,0.147 -7.02,-0.147 8.618,-5.264 c 0.73,0.738 6.593,4.526 7.47,5.264 z m -16.538,-36.692 0.746,-17.121 3.354,1.763 0.295,16.235 0.14,15.628 c -1.313,1.181 -3.066,1.477 -4.821,0.591 -0.149,-7.166 0.424,-7.166 0.286,-17.096 z m -1.46,28.214 c 0.738,0.738 1.599,1.46 2.493,2.198 l -4.092,3.214 -1.911,-2.919 z m -5.264,10.512 30.125,-0.721 c 0.737,0.877 -2.337,3.083 -1.46,3.804 l -32.904,2.493 z m -65.802,21.515 -5.112,-2.345 46.053,-6.002 1.468,-0.131 -0.291,1.754 -1.898,1.591 z m 1.025,2.92 -3.362,0.737 c 0,0 -1.468,1.164 -2.046,2.32 -0.295,0 -2.083,-1.008 -1.931,-1.729 0.139,-0.156 3.677,-3.346 3.677,-3.346 z m 11.705,-23.106 5.649,-4.149 7.875,1.845 -7.675,7.568 z m 21.2,58.79 0.73,-29.387 4.375,-3.378 1.755,-3.51 3.505,1.328 -0.017,33.159 z m 10.364,1.148 v 10.905 l -11.828,0.82 0.742,-9.651 z m -9.192,-37.849 c 0.295,-0.442 3.067,-5.854 3.94,-5.575 l 0.882,1.623 -3.083,5.117 z m -3.078,44.015 -0.144,4.23 -3.366,-1.304 -3.51,4.248 -14.333,-0.156 v -6.297 z M 3.274,144.535 3.127,156.228 0.499,157.113 0.942,145.552 H 1.52 l 1.168,-1.755 z m -3.062,19.729 1.755,-3.936 0.873,1.755 -0.287,27.632 -3.952,1.755 0.874,-26.895 z m 3.653,27.501 17.994,-1.902 16.658,-1.468 -3.215,2.771 -13.152,1.313 -26.046,2.337 z m 36.849,-2.493 6.871,0.59 14.037,0.869 -5.264,2.346 -9.225,0.737 -10.963,-1.476 z m -0.731,-140.155 4.379,1.841 v 31.77 c -1.181,1.328 -2.492,1.574 -4.379,0.705 0,-0.198 0,-34.316 0,-34.316 z m 0.026,36.153 4.37,1.345 v 22.089 l -4.387,2.616 z m 8.609,24.614 c 0.722,0.722 7.175,3.937 8.035,4.674 l -8.33,4.526 -5.854,-5.116 z m -4.256,77.929 -4.37,-1.246 -0.009,-47.295 2.485,0.869 1.91,-3.51 v 51.182 z m 2.617,0.246 0.016,-45.573 6.88,-1.755 4.772,-14.037 3.41,5.543 0.017,55.986 z m 2.926,-166.352 7.33,-3.501 -0.032,8.421 -8.167,2.542 z M 4.017,31.788 c 0.435,1.025 0.586,0.881 1.906,0.295 l 1.747,0.721 5.555,-4.821 1.177,0.726 4.821,-3.661 c 0.586,-0.583 -3.218,-4.526 -3.509,-4.821 l 2.045,-1.316 2.923,2.198 2.05,1.459 5.112,-3.666 c -0.279,-0.877 -4.526,-3.948 -5.407,-4.964 1.308,-1.763 2.333,-1.763 3.653,-3.071 v 0.147 l 3.214,3.948 -0.136,1.754 4.678,4.535 2.923,-0.144 0.738,0.873 c -0.443,2.333 5.985,2.05 8.33,1.168 1.033,0 2.051,0 2.788,0.291 -0.599,6.879 -9.807,3.805 -9.807,9.95 -1.312,0.144 -6.137,-3.374 -5.116,-5.567 l 1.906,-2.341 c 0,-0.435 -7.019,-4.535 -6.129,-3.948 -5.849,-1.315 -13.901,9.8 -18.579,14.035 l 1.168,1.176 c 0,0 -1.312,1.603 -1.463,1.755 l -7.892,0.443 c 0,0 -0.435,-5.994 -0.435,-6.289 0.275,-0.562 0.849,-1.009 1.739,-0.865 z m 22.507,4.837 -2.046,-1.033 2.046,-2.923 2.202,-0.151 c -0.447,1.024 -1.755,3.074 -2.202,4.107 z m 0.743,5.408 c -0.295,0.881 -1.775,3.214 -2.202,4.239 l -2.202,-1.025 2.202,-3.075 z m 1.754,-5.408 0.275,-0.881 1.328,-0.874 h 0.144 c 0.443,0 0.73,0.152 1.021,0.443 l -0.881,1.009 c -0.14,0 -0.275,0 -0.427,0.151 -0.151,0.152 -0.295,0.435 -0.295,0.586 -0.881,0.438 -1.017,1.033 -1.603,1.747 -0.443,-0.144 -0.578,-0.578 -0.738,-1.013 -10e-4,-0.598 0.729,-0.733 1.176,-1.168 z m -7.031,2.923 -1.451,1.755 -2.341,-2.931 0.578,-2.337 c 0.729,0.734 2.484,2.772 3.214,3.513 z M 7.657,44.813 c 0.734,0.722 1.32,8.63 2.042,9.352 L 3.57,54.603 1.967,49.044 Z m -7.076,13.456 9.573,3.943 -3.066,40.785 -11.115,4.1 z m -4.719,51.156 12.562,-5.092 2.87,-41.81 c 0,0 1.202,-1.033 0.759,-2.05 2.046,-2.492 3.661,-4.387 6.002,-6.584 -1.459,-1.168 -3.366,-2.489 -4.973,-3.218 0.574,-1.468 -0.443,-5.851 1.456,-6.297 l 9.798,8.773 c 1.165,-0.152 0.291,-1.603 0.152,-1.906 l -5.703,-4.239 0.586,-0.287 c 0.874,0.152 2.099,1.304 4.014,1.935 2.98,0.988 7.072,-0.943 8.13,-2.058 0.32,-0.369 8.684,-8.122 9.355,-8.659 3.067,1.32 1.165,3.51 2.919,4.83 2.05,-0.873 2.493,-1.459 4.101,-2.345 4.682,0.734 4.682,1.755 8.625,-0.435 l 1.6,0.722 c 0,0.881 0.442,64.055 0.442,64.055 l -2.492,1.468 c -0.435,0.869 -1.46,1.599 -2.633,1.755 -0.582,0 -0.869,-0.591 -1.172,-0.451 -0.582,-0.156 -0.582,0.451 -1.025,0.722 l -4.182,-2.271 V 46.887 l -3.411,-3.555 -5.42,3.075 -0.582,16.666 c -1.75,-0.729 -2.488,-2.493 -3.657,-3.805 -1.468,-1.32 0.295,-3.661 -0.881,-4.969 L 31.06,52.392 c 0.582,-1.603 1.898,-1.906 2.484,-3.501 1.017,-0.295 1.607,-1.915 0.447,-2.202 -1.185,0.287 -1.755,1.906 -2.78,2.628 -0.578,1.025 -1.177,1.463 -1.747,2.193 l 0.722,2.493 1.906,1.459 -0.295,2.484 -2.493,0.738 -0.57,-0.878 -4.526,3.805 c -0.152,-0.155 -2.05,-1.615 -2.341,-1.468 -0.59,0.738 -5.854,5.108 -6.879,7.314 0,0.435 0.582,0.435 0.873,0.869 0.873,0 4.534,-3.944 4.989,-4.821 l 1.308,1.181 c -2.936,3.066 -4.985,6.715 -7.9,9.79 l -0.898,16.238 -0.435,6.592 c 0.435,0.279 1.173,0.591 1.755,0.427 0.873,-2.328 0.586,-5.396 0.729,-8.183 0.586,-4.396 1.033,-9.069 1.033,-13.456 l 6.715,-8.035 0.586,0.877 c 0,0.295 -2.628,5.56 -2.911,5.707 V 91.6 l -0.168,6.133 0.295,1.033 c 1.181,0 4.69,0 6.146,1.017 l -0.59,2.936 c -0.152,0.279 -0.291,0.427 -0.443,0.877 h -6.871 c -0.147,0.148 -0.147,0.287 -0.147,0.443 0,0.451 0.443,0.877 1.021,1.173 0.75,-0.574 1.907,-0.574 2.628,0 l 1.177,-0.435 1.763,0.573 -0.168,1.033 -1.324,3.542 c 0,0 -8.228,-2.378 -9.925,-2.943 -1.697,-0.558 -2.436,-0.533 -3.534,0.246 -0.992,0.771 -14.98,11.151 -15.854,11.906 z m 38.858,-2.476 -0.729,-0.722 -2.628,-1.181 0.578,-1.018 c 0,-0.295 -0.291,-0.442 -0.578,-0.59 l -1.025,0.295 c -0.151,0.147 -0.151,0.591 -0.151,0.886 -0.152,-0.295 -0.152,-0.591 -0.578,-0.738 0.144,0 0.578,-0.155 0.578,-0.59 0.151,-0.295 -0.152,-0.574 -0.443,-0.869 -0.144,0 -0.279,0 -0.447,0 l -0.275,-2.346 c 0.275,-0.295 1.013,0 1.308,-0.442 0.295,0.147 0.295,0.295 0.57,0.442 0.742,-0.442 3.546,-2.099 3.546,-2.099 l -0.021,-26.993 -3.666,-4.387 -0.582,-1.755 4.822,1.911 -6.577,-4.387 c -0.873,0.295 -2.771,2.632 -2.484,2.484 l -1.611,-0.574 3.801,-4.395 6.584,3.214 1.459,1.755 c 0.152,0 0.295,0.295 0.438,0.59 l 0.882,13.891 -0.147,28.354 z m 2.624,2.772 -0.287,3.82 -12.287,-3.361 3.805,-5.125 c 0.721,0.877 7.9,4.091 8.769,4.666 z M 25.659,85.154 v 9.659 c 0,0 -2.197,1.312 -2.636,1.164 L 21.998,76.544 c 1.615,3.354 2.202,5.117 3.661,8.61 z m -44.458,45.786 31.294,-23.106 30.269,8.773 -4.534,0.279 -26.03,-6.429 -31.15,22.951 z m 0.287,4.084 5.408,-1.099 3.247,2.099 -3.526,3.1 z m 6.441,10.397 2.628,-0.459 5.547,-5.149 2.64,2.525 -1.033,33.191 -11.737,1.969 z m -2.386,34.849 12.074,-1.919 -1.066,11.061 -11.545,0.656 z m -0.849,16.939 0.312,-4.419 10.815,-1.017 -2.337,4.969 -1.902,3.066 -9.659,-0.14 z m 8.934,42.949 c 0,0.738 0.151,0.296 0.151,1.329 l -9.068,0.278 -8.925,-0.877 -0.291,-1.304 z m -19.437,9.413 v -3.099 l 20.757,0.951 -0.033,3.148 z m 21.782,-11.888 -14.05,-3.362 14.05,0.574 c 0,0.885 0,1.607 0,2.788 z m -0.439,-7.462 -15.518,0.147 2.202,-9.512 1.185,-10.527 11.836,0.442 1.464,10.233 z m 4.526,-19.744 0.152,-5.265 4.526,1.181 15.071,-0.877 1.168,2.492 -2.771,1.764 z m 36.263,10.823 -1.316,9.216 -16.657,0.738 0.873,-12.726 3.8,-7.904 13.595,1.164 z m 8.007,28.961 -4.403,0.573 0.082,-44.097 4.337,1.065 V 250.26 H 44.33 Z m 16.415,0.869 H 47.74 c -0.59,-0.451 0.738,-0.451 1.902,-0.574 h 1.313 11.987 c -0.442,0.131 -0.869,0.426 -2.197,0.574 z m -14.177,-20.467 1.755,-12.135 4.075,-1.181 -1.165,-9.069 11.119,2.346 0.573,10.232 0.738,10.528 z m -21.942,-30.567 -30.125,0.738 11.697,-5.117 20.187,-0.886 38.165,0.886 1.181,4.969 z m 48.402,21.646 -0.738,9.635 -5.838,0.295 1.312,-7.88 1.173,-5.264 1.173,-7.462 3.361,0.132 z m 9.79,16.53 c -0.147,0.427 -0.565,0.427 -0.722,0.869 l -1.902,0.738 c -0.147,0 -0.442,0 -0.59,0 -0.296,0 -0.443,-0.164 -0.591,-0.442 l -1.902,-1.313 -0.729,-0.877 c 0.155,0 0.303,0 0.451,-0.156 0.278,0.156 0.573,0.156 0.721,0 l 0.878,0.156 c 0.155,-0.296 0.738,0 1.188,0 0.147,-0.296 0.583,0 1.018,0 0.286,-0.296 0.721,0 1.181,0 0,-0.156 0.139,-0.156 0.442,-0.156 l 0.574,0.591 c -0.017,0.001 -0.017,0.443 -0.017,0.59 z m 26.329,11.103 -23.984,2.033 -0.877,-5.698 8.322,-0.279 9.963,0.574 7.019,0.155 z"
     id="path4" /><path
     fill="#162577"
     d="m -125.541,44.805 -0.225,-5.166 c 2.661,-2.091 4.575,-4.358 5.744,-6.793 1.172,-2.443 1.685,-5.194 1.558,-8.277 -0.209,-4.871 -2.198,-8.941 -5.933,-12.226 -3.755,-3.268 -8.171,-4.796 -13.259,-4.567 -5.125,0.217 -9.421,2.132 -12.865,5.744 -3.452,3.608 -5.072,7.835 -4.854,12.66 0.135,3.021 0.874,5.703 2.234,8.044 1.361,2.341 3.341,4.366 5.953,6.063 l 0.209,5.071 c -3.87,-1.865 -6.867,-4.416 -9.015,-7.667 -2.148,-3.251 -3.317,-7.035 -3.493,-11.36 -0.271,-6.232 1.697,-11.562 5.904,-15.998 4.206,-4.432 9.544,-6.789 16.018,-7.068 3.05,-0.135 5.961,0.32 8.741,1.353 2.771,1.033 5.317,2.62 7.601,4.727 2.181,1.997 3.862,4.255 5.026,6.777 1.168,2.509 1.816,5.264 1.943,8.245 0.184,4.321 -0.697,8.253 -2.648,11.795 -1.964,3.534 -4.85,6.416 -8.639,8.643 z"
     id="path5" /><path
     fill="#162577"
     d="m -113.146,52.676 0.521,4.284 -39.042,4.776 1.853,15.202 -4.182,0.517 -2.374,-19.474 z"
     id="path6" /><path
     fill="#162577"
     d="m -109.637,80.038 0.89,4.215 -25.661,5.411 c -2.759,0.591 -4.727,1.132 -5.908,1.624 -1.185,0.508 -2.177,1.147 -2.956,1.869 -1.209,1.181 -2.033,2.509 -2.497,4.034 -0.459,1.517 -0.513,3.1 -0.147,4.764 0.34,1.673 1.049,3.133 2.086,4.354 1.042,1.222 2.337,2.115 3.883,2.664 1.041,0.361 2.197,0.533 3.477,0.517 1.275,-0.016 3.296,-0.327 6.051,-0.901 l 25.652,-5.412 0.873,4.116 -27.112,5.724 c -5.526,1.164 -9.893,0.935 -13.074,-0.688 -3.181,-1.624 -5.231,-4.69 -6.187,-9.184 -1.008,-4.756 -0.422,-8.553 1.763,-11.373 2.189,-2.82 6.096,-4.821 11.737,-6.019 z"
     id="path7" /><path
     fill="#162577"
     d="m -119.69,134.188 c 1.103,3.28 1.254,5.953 0.496,8.02 -0.754,2.082 -2.443,3.559 -5.071,4.428 -2.636,0.869 -4.85,0.737 -6.658,-0.443 -1.804,-1.188 -3.263,-3.427 -4.375,-6.739 l -1.923,-5.765 15.62,-5.215 z m 17.35,-7.61 c 1.021,3.059 1.226,5.56 0.586,7.462 -0.631,1.919 -2.091,3.264 -4.375,4.018 -2.563,0.861 -4.645,0.673 -6.281,-0.549 -1.636,-1.222 -3.116,-3.821 -4.44,-7.831 l -0.841,-2.509 13.989,-4.657 z m -40.075,4.51 3.063,9.184 c 1.579,4.739 3.837,7.971 6.777,9.659 2.948,1.689 6.49,1.854 10.647,0.459 2.324,-0.771 4.153,-1.992 5.489,-3.697 1.329,-1.706 1.997,-3.633 1.989,-5.781 1.287,1.066 2.714,1.722 4.292,1.977 1.579,0.246 3.251,0.09 5.022,-0.492 3.423,-1.173 5.769,-3.189 7.035,-6.093 1.259,-2.902 1.242,-6.297 -0.041,-10.15 l -2.956,-8.839 z"
     id="path8" /><path
     fill="#162577"
     d="m -80.336,177.12 c 2.628,4.543 3.37,8.922 2.193,13.12 -1.201,4.197 -4.087,7.642 -8.716,10.331 -4.703,2.738 -9.192,3.641 -13.468,2.738 -4.289,-0.901 -7.667,-3.477 -10.135,-7.707 l -5.055,-8.725 30.54,-17.744 z m -40.854,8.2 5.699,9.807 c 1.976,3.395 3.731,5.838 5.26,7.347 1.525,1.5 3.333,2.689 5.44,3.632 3.247,1.395 6.556,1.977 9.983,1.723 3.399,-0.263 6.765,-1.361 10.073,-3.288 5.535,-3.23 9.028,-7.568 10.496,-13.087 1.472,-5.493 0.553,-11.053 -2.71,-16.694 l -6.593,-11.331 z"
     id="path9" /><path
     fill="#162577"
     d="m -61.399,199.341 14.157,17.695 -3.219,2.574 -11.458,-14.316 -12.111,9.676 11.422,14.283 -3.218,2.575 -11.41,-14.284 -12.267,9.823 11.426,14.268 -3.214,2.583 -14.124,-17.654 z"
     id="path10" /><path
     fill="#162577"
     d="m 183.902,23.969 0.131,-4.296 39.325,1.14 0.442,-15.304 4.215,0.127 -0.565,19.622 z"
     id="path11" /><path
     fill="#162577"
     d="m 191.216,46.424 c 3.952,-3.1 8.38,-4.366 13.3,-3.805 5.248,0.578 9.479,2.78 12.71,6.576 3.214,3.792 4.542,8.146 3.984,13.066 -0.558,5.001 -2.804,9.02 -6.724,12.069 -3.919,3.05 -8.462,4.297 -13.595,3.706 -5.084,-0.558 -9.216,-2.755 -12.431,-6.593 -3.214,-3.82 -4.542,-8.166 -4.001,-13.013 0.542,-4.913 2.797,-8.919 6.757,-12.006 z m -10.184,20.003 c 0.771,2.706 2.059,5.198 3.887,7.486 1.943,2.468 4.198,4.419 6.789,5.887 2.575,1.451 5.379,2.354 8.413,2.682 6.444,0.722 12.086,-0.771 16.924,-4.51 4.854,-3.73 7.625,-8.708 8.314,-14.932 0.377,-3.255 0.099,-6.33 -0.82,-9.253 -0.927,-2.923 -2.46,-5.608 -4.624,-8.085 -1.895,-2.144 -4.067,-3.829 -6.527,-5.071 -2.443,-1.234 -5.215,-2.034 -8.281,-2.378 -3.1,-0.353 -6.067,-0.106 -8.905,0.713 -2.82,0.833 -5.403,2.21 -7.756,4.133 -2.346,1.906 -4.183,4.087 -5.527,6.555 -1.36,2.477 -2.197,5.231 -2.541,8.262 -0.346,3.001 -0.124,5.846 0.654,8.511 z"
     id="path12" /><path
     fill="#162577"
     d="m 195.652,109.294 c 0.795,-3.346 2.066,-5.707 3.805,-7.085 1.722,-1.36 3.936,-1.722 6.625,-1.082 2.697,0.623 4.51,1.919 5.42,3.87 0.935,1.952 0.984,4.625 0.181,8.02 l -1.395,5.92 -16.021,-3.771 z m -18.753,-2.624 c 0.738,-3.132 1.887,-5.371 3.428,-6.658 1.542,-1.312 3.493,-1.673 5.813,-1.115 2.632,0.599 4.313,1.87 5.06,3.747 0.754,1.911 0.631,4.903 -0.328,9.004 l -0.591,2.558 -14.365,-3.37 z m 36.456,17.219 2.222,-9.429 c 1.156,-4.871 0.91,-8.79 -0.688,-11.775 -1.6,-3.001 -4.543,-4.984 -8.807,-5.985 -2.395,-0.574 -4.592,-0.476 -6.625,0.263 -2.034,0.754 -3.616,2.05 -4.731,3.887 -0.533,-1.591 -1.394,-2.903 -2.615,-3.937 -1.222,-1.049 -2.723,-1.787 -4.526,-2.214 -3.526,-0.844 -6.576,-0.344 -9.184,1.477 -2.615,1.804 -4.37,4.689 -5.305,8.658 l -2.148,9.061 z"
     id="path13" /><path
     fill="#162577"
     d="m 161.107,143.765 7.207,-20.712 4.06,1.427 -2.903,8.306 37.063,12.923 -1.41,4.067 -37.079,-12.923 -2.886,8.306 z"
     id="path14" /><path
     fill="#162577"
     d="m 145.102,177.646 1.928,-3.854 23.45,11.726 c 2.534,1.263 4.387,2.066 5.649,2.411 1.246,0.344 2.402,0.459 3.469,0.377 1.673,-0.181 3.148,-0.722 4.46,-1.623 1.288,-0.895 2.305,-2.116 3.083,-3.625 0.771,-1.541 1.132,-3.115 1.066,-4.723 -0.058,-1.607 -0.517,-3.1 -1.378,-4.493 -0.59,-0.935 -1.377,-1.788 -2.394,-2.566 -1.017,-0.787 -2.788,-1.804 -5.313,-3.059 l -23.451,-11.726 1.887,-3.755 24.795,12.381 c 5.06,2.55 8.314,5.42 9.79,8.675 1.484,3.256 1.205,6.921 -0.86,11.037 -2.182,4.362 -5.002,6.953 -8.462,7.806 -3.461,0.861 -7.773,-0.017 -12.923,-2.591 z"
     id="path15" /><path
     fill="#162577"
     d="m 126.866,204.966 12.3,-17.694 3.542,2.46 -9.889,14.234 12.504,8.675 9.881,-14.234 3.542,2.46 -9.889,14.234 16.202,11.25 -2.395,3.46 z"
     id="path16" /><polygon
     fill="#162577"
     points="23.199,-342.009 33.502,-369.404 43.937,-342.009 74.856,-341.255 50.217,-323.654 59.146,-295.878 33.502,-312.351 7.993,-295.878 16.788,-323.654 -7.84,-341.255 "
     id="polygon16" /><polygon
     fill="#162577"
     points="131.286,-303.487 141.576,-330.882 152.022,-303.487 182.918,-302.721 158.304,-285.133 167.216,-257.365 141.576,-273.83 116.06,-257.365 124.865,-285.133 100.234,-302.721 "
     id="polygon17" /><polygon
     fill="#162577"
     points="232.525,-273.822 242.849,-301.22 253.262,-273.822 284.19,-273.067 259.535,-255.475 268.488,-227.699 242.849,-244.164 217.332,-227.699 226.122,-255.475 201.49,-273.067 "
     id="polygon18" /><polygon
     fill="#162577"
     points="-184.77,-273.822 -174.459,-301.22 -164.045,-273.822 -133.121,-273.067 -157.756,-255.475 -148.823,-227.699 -174.459,-244.164 -199.976,-227.699 -191.182,-255.475 -215.809,-273.067 "
     id="polygon19" /><polygon
     fill="#162577"
     points="-87.597,-302.975 -77.302,-330.37 -66.885,-302.975 -35.952,-302.208 -60.596,-284.621 -51.663,-256.853 -77.302,-273.309 -102.811,-256.853 -94.021,-284.621 -118.657,-302.208 "
     id="polygon20" /><path
     fill="#162577"
     d="m -179.001,-27.86 c 3.907,172.707 43.638,290.255 213.352,372.349 C 204.688,263.708 244.087,145.864 247.203,-27.86 Z M 34.334,340.324 C -131.576,260.067 -170.409,145.142 -174.229,-23.687 H 242.438 C 239.372,146.159 200.867,261.346 34.334,340.324 Z"
     id="path20" /><rect
     x="-179.715"
     y="-58.882999"
     fill="#12692c"
     width="154.106"
     height="23.18"
     id="rect20" /><rect
     x="92.353996"
     y="-58.882999"
     fill="#d8141d"
     width="154.11"
     height="23.18"
     id="rect21" /><polygon
     fill="#ab830d"
     points="-75.338,389.932 -65.036,362.528 -54.618,389.932 -23.686,390.686 -48.329,408.282 -39.396,436.063 -65.036,419.598 -90.544,436.063 -81.755,408.282 -106.378,390.686 "
     id="polygon21" /><polygon
     fill="#ab830d"
     points="-174.935,314.036 -164.624,286.634 -154.206,314.036 -123.281,314.791 -147.917,332.387 -138.992,360.15 -164.624,343.686 -190.132,360.15 -181.342,332.387 -205.978,314.791 "
     id="polygon22" /><polygon
     fill="#ab830d"
     points="146.34,389.932 136.033,362.528 125.611,389.932 94.691,390.686 119.322,408.282 110.401,436.063 136.033,419.598 161.534,436.063 152.761,408.282 177.375,390.686 "
     id="polygon23" /><polygon
     fill="#ab830d"
     points="245.932,314.036 235.625,286.634 225.195,314.036 194.283,314.791 218.914,332.387 209.985,360.15 235.625,343.686 261.142,360.15 252.344,332.387 276.967,314.791 "
     id="polygon24" /><polygon
     fill="#ab830d"
     points="43.608,431.011 33.293,403.608 22.872,431.011 -8.049,431.766 16.586,449.361 7.649,477.125 33.293,460.661 58.802,477.125 50.012,449.361 74.644,431.766 "
     id="polygon25" /></g>

</svg>
