<?xml version="1.0" encoding="UTF-8" standalone="no"?>
<!-- Generator: Adobe Illustrator 21.0.0, SVG Export Plug-In . SVG Version: 6.00 Build 0)  -->

<svg
   version="1.1"
   id="Layer_1"
   x="0px"
   y="0px"
   viewBox="0 0 220 220"
   xml:space="preserve"
   sodipodi:docname="Tigres_UANL.svg"
   width="220"
   height="220"
   inkscape:version="1.4.2 (f4327f4, 2025-05-13)"
   xmlns:inkscape="http://www.inkscape.org/namespaces/inkscape"
   xmlns:sodipodi="http://sodipodi.sourceforge.net/DTD/sodipodi-0.dtd"
   xmlns:xlink="http://www.w3.org/1999/xlink"
   xmlns="http://www.w3.org/2000/svg"
   xmlns:svg="http://www.w3.org/2000/svg"><defs
   id="defs51" /><sodipodi:namedview
   id="namedview51"
   pagecolor="#ffffff"
   bordercolor="#000000"
   borderopacity="0.25"
   inkscape:showpageshadow="2"
   inkscape:pageopacity="0.0"
   inkscape:pagecheckerboard="0"
   inkscape:deskcolor="#d1d1d1"
   inkscape:zoom="0.63264347"
   inkscape:cx="-407.0223"
   inkscape:cy="381.73159"
   inkscape:window-width="1920"
   inkscape:window-height="1009"
   inkscape:window-x="-8"
   inkscape:window-y="-8"
   inkscape:window-maximized="1"
   inkscape:current-layer="Layer_1" />
<style
   type="text/css"
   id="style1">
	.st0{fill:#015DAA;}
	.st1{clip-path:url(#SVGID_2_);}
	.st2{fill:#FBAF35;}
	.st3{fill:#005DAB;}
	.st4{fill:#FFFFFF;}
</style>




<g
   id="g51"
   transform="matrix(0.45687956,0,0,0.45687956,61.323915,68.879029)"><g
     transform="matrix(0.62146893,0,0,-0.62146893,-136.1017,454.88124)"
     id="g48">
	<path
   class="st0"
   d="M 219,218.8 H 573 V 732 H 219 Z"
   id="path1" />
	<g
   id="g47">
		<defs
   id="defs1">
			<rect
   id="SVGID_1_"
   x="149.89999"
   y="328.60001"
   width="492.20001"
   height="380.29999" />
		</defs>
		<clipPath
   id="SVGID_2_">
			<use
   xlink:href="#SVGID_1_"
   style="overflow:visible"
   id="use1" />
		</clipPath>
		<g
   class="st1"
   clip-path="url(#SVGID_2_)"
   id="g46">
			<g
   transform="translate(296.6895,77.4531)"
   id="g1">
			</g>
			<g
   transform="translate(296.6895,77.4531)"
   id="g2">
			</g>
			<g
   transform="translate(371.688,65.2822)"
   id="g3">
			</g>
			<g
   transform="translate(371.688,65.2822)"
   id="g4">
			</g>
			<g
   transform="translate(408.0723,20.085)"
   id="g5">
			</g>
			<g
   transform="translate(408.0723,20.085)"
   id="g6">
			</g>
			<g
   transform="translate(466.7129,77.4531)"
   id="g7">
			</g>
			<g
   transform="translate(466.7129,77.4531)"
   id="g8">
			</g>
			<g
   transform="translate(278.4614,19.4951)"
   id="g9">
			</g>
			<g
   transform="translate(278.4614,19.4951)"
   id="g10">
			</g>
			<g
   transform="translate(508.543,19.4951)"
   id="g11">
			</g>
			<g
   transform="translate(508.543,19.4951)"
   id="g12">
			</g>
			<g
   transform="translate(234.2637,498.7744)"
   id="g13">
			</g>
			<g
   transform="translate(234.2637,498.7744)"
   id="g14">
			</g>
			<g
   transform="translate(383.1816,493.4058)"
   id="g15">
			</g>
			<g
   transform="translate(383.1816,493.4058)"
   id="g16">
			</g>
			<g
   transform="translate(409.6094,498.7236)"
   id="g17">
			</g>
			<g
   transform="translate(409.6094,498.7236)"
   id="g18">
			</g>
			<g
   transform="translate(465.002,506.1641)"
   id="g19">
			</g>
			<g
   transform="translate(465.002,506.1641)"
   id="g20">
			</g>
			<g
   transform="translate(513.2725,444.3438)"
   id="g21">
			</g>
			<g
   transform="translate(513.2725,444.3438)"
   id="g22">
			</g>
			<g
   transform="translate(414.5693,527.3018)"
   id="g23">
			</g>
			<g
   transform="translate(352.9175,574.5615)"
   id="g24">
			</g>
			<g
   transform="translate(447.459,418.5117)"
   id="g25">
			</g>
			<g
   transform="translate(447.459,418.5117)"
   id="g26">
			</g>
			<g
   transform="translate(343.458,243.8857)"
   id="g27">
			</g>
			<g
   transform="translate(448.459,243.8857)"
   id="g28">
			</g>
			<g
   transform="translate(530.459,337.8857)"
   id="g29">
			</g>
			<g
   transform="translate(444.459,236.8857)"
   id="g30">
			</g>
			<g
   transform="translate(530.459,328.8857)"
   id="g31">
			</g>
			<g
   transform="translate(401.459,308.8857)"
   id="g32">
			</g>
			<g
   transform="translate(496.459,257.8857)"
   id="g33">
			</g>
			<g
   transform="translate(339.458,346.8857)"
   id="g34">
			</g>
			<g
   transform="translate(354.458,239.8857)"
   id="g35">
			</g>
			<g
   transform="translate(262.458,328.8857)"
   id="g36">
			</g>
			<g
   transform="translate(392.458,308.8857)"
   id="g37">
			</g>
			<g
   transform="translate(298.458,258.8857)"
   id="g38">
			</g>
			<g
   transform="translate(414.2725,152.6465)"
   id="g39">
			</g>
			<g
   transform="translate(462.2139,179.832)"
   id="g40">
			</g>
			<g
   transform="translate(304.8037,225.5859)"
   id="g41">
			</g>
			<g
   transform="translate(358.7744,289.4199)"
   id="g42">
			</g>
			<g
   transform="translate(327.458,240.8857)"
   id="g43">
			</g>
			<g
   transform="translate(469.459,240.8857)"
   id="g44">
			</g>
			<g
   transform="translate(439.459,249.8857)"
   id="g45">
			</g>
		</g>
	</g>
</g><path
     class="st2"
     d="m 142,62.6 v 55.7 C 110.2,95.8 81.6,117.2 81.6,117.2 V 62.6 H 8.9 v 23.1 c 0,0 11.2,-1.5 11.6,6.7 v 97.9 c 1.7,34.2 18.8,51.3 18.8,51.3 16.7,17 43,28 72.5,28 30.3,0 57.1,-11.5 73.8,-29.3 0,0 15.2,-16.8 16.5,-43.6 V 96.1 c 0.8,-9.6 9.1,-10.4 9.1,-10.4 V 62.6 Z m 40.9,-16.1 4,-2.4 c 2.8,5.2 6.1,7.8 9.8,7.8 1.6,0 3.1,-0.4 4.5,-1.1 1.4,-0.7 2.4,-1.7 3.2,-3 0.7,-1.2 1.1,-2.6 1.1,-3.9 0,-1.6 -0.5,-3.1 -1.6,-4.7 -1.5,-2.1 -4.2,-4.6 -8.1,-7.6 -3.9,-3 -6.4,-5.1 -7.3,-6.5 -1.7,-2.2 -2.5,-4.6 -2.5,-7.2 0,-2.1 0.5,-3.9 1.5,-5.6 1,-1.7 2.4,-3 4.1,-4 1.8,-1 3.7,-1.5 5.8,-1.5 2.2,0 4.3,0.6 6.2,1.7 1.9,1.1 4,3.1 6.2,6.1 l -3.9,2.9 c -1.8,-2.4 -3.3,-3.9 -4.6,-4.7 -1.2,-0.7 -2.6,-1.1 -4.1,-1.1 -1.9,0 -3.5,0.6 -4.7,1.7 -1.2,1.2 -1.8,2.6 -1.8,4.3 0,1 0.2,2 0.6,3 0.4,1 1.2,2 2.3,3.1 0.6,0.6 2.7,2.2 6.1,4.7 4.1,3 6.9,5.7 8.4,8.1 1.5,2.4 2.3,4.7 2.3,7.1 0,3.4 -1.3,6.4 -3.9,8.9 -2.6,2.5 -5.7,3.8 -9.5,3.8 -2.9,0 -5.5,-0.8 -7.8,-2.3 -2.2,-1.4 -4.3,-4 -6.3,-7.6 z M 152.9,8.1 H 180 v 4.7 h -22.3 v 14.8 h 22.1 v 4.6 h -22.1 v 18.5 h 22.1 v 4.7 h -26.9 z m -34.4,4.6 v 16 l 8.1,0.1 c 3.1,0 5.5,-0.3 7,-0.9 1.5,-0.6 2.7,-1.6 3.5,-2.9 0.9,-1.3 1.3,-2.8 1.3,-4.4 0,-1.6 -0.4,-3 -1.3,-4.3 -0.9,-1.3 -2,-2.2 -3.4,-2.8 -1.4,-0.6 -3.7,-0.8 -6.9,-0.8 z m -4.8,-4.6 h 9.4 c 5.2,0 8.8,0.2 10.7,0.6 2.8,0.6 5.1,2 6.8,4.1 1.8,2.1 2.6,4.7 2.6,7.8 0,2.6 -0.6,4.8 -1.8,6.8 -1.2,1.9 -2.9,3.4 -5.2,4.4 -2.2,1 -5.4,1.5 -9.3,1.5 l 17,22 h -5.8 l -16.9,-22 h -2.7 v 22 h -4.7 V 8.1 Z M 102,16 98.3,19.5 c -2.6,-2.6 -5.5,-4.5 -8.7,-5.9 -3.1,-1.3 -6.2,-2 -9.1,-2 -3.7,0 -7.2,0.9 -10.6,2.7 -3.3,1.8 -5.9,4.3 -7.8,7.4 -1.8,3.1 -2.8,6.4 -2.8,9.9 0,3.6 1,6.9 2.9,10.1 1.9,3.2 4.5,5.7 7.9,7.5 3.4,1.8 7,2.7 11,2.7 4.9,0 9,-1.4 12.3,-4.1 3.4,-2.7 5.4,-6.3 6,-10.7 H 84.5 v -4.6 h 20.3 c 0,7.3 -2.2,13.1 -6.5,17.4 -4.3,4.3 -10,6.4 -17.2,6.4 -8.7,0 -15.6,-3 -20.7,-8.9 -3.9,-4.6 -5.9,-9.9 -5.9,-15.9 0,-4.5 1.1,-8.6 3.4,-12.5 2.2,-3.9 5.3,-6.9 9.2,-9 3.9,-2 8.4,-3.1 13.3,-3.1 4,0 7.8,0.7 11.3,2.2 3.5,1.4 7,3.7 10.3,6.9 z M 41.2,8.1 h 4.7 V 55.3 H 41.2 Z M 9.5,12.7 V 8.1 h 25.9 v 4.6 H 24.9 V 55.3 H 20 V 12.7 Z m 144.4,261.8 h 3.6 v 32.2 h 13.7 v 3.4 h -17.3 z m -36.4,35.7 v -35.7 h 0.8 l 23.7,27.3 v -27.3 h 3.5 v 35.7 h -0.8 l -23.5,-26.9 v 26.9 z M 94.9,282.1 88.8,295 H 101 Z m 0.4,-7.6 16.6,35.7 h -3.8 l -5.6,-11.7 H 87.2 l -5.6,11.7 h -4 l 16.8,-35.7 z m -47,0 h 3.6 V 296 c 0,2.6 0,4.1 0.1,4.8 0.2,1.4 0.6,2.6 1.2,3.5 0.6,0.9 1.6,1.7 3,2.4 1.3,0.6 2.7,0.9 4,0.9 1.2,0 2.3,-0.3 3.4,-0.8 1.1,-0.5 2,-1.2 2.7,-2.1 0.7,-0.9 1.3,-2 1.6,-3.2 0.2,-0.9 0.4,-2.8 0.4,-5.6 v -21.5 h 3.6 V 296 c 0,3.2 -0.3,5.8 -0.9,7.7 -0.6,2 -1.9,3.7 -3.7,5.1 -1.9,1.5 -4.1,2.2 -6.8,2.2 -2.9,0 -5.3,-0.7 -7.4,-2.1 -2.1,-1.4 -3.4,-3.2 -4.1,-5.5 -0.4,-1.4 -0.7,-3.9 -0.7,-7.5 z"
     id="path48" /><path
     class="st3"
     d="m 122.2,226.4 c 0,0 -5.1,4.1 -9.4,3.9 0,0 -3.5,1.2 -9.3,-3.1 0,0 -4.8,-3.2 -4.9,1.2 0,0 -0.2,2.1 2.2,3.6 0,0 8.9,6.7 10.1,10 0,0 1,2.5 3,0 0,0 4.6,-6.9 9.6,-9 0,0 2.6,-1.6 2.3,-6 0,0 0,-2.1 -3.6,-0.6 m -13.6,-97.1 c 2.6,1.7 -0.3,4.5 -1.2,6.2 0,2.1 2,2.1 1.9,4.4 -2.7,5.4 -7.8,11 -16.2,8.7 v -3.1 c -4.3,3 -10.7,3.8 -13.1,8.7 1.3,4.5 4.1,7.5 6.2,11.2 -9,1.6 -17.7,-7.2 -14.3,-16.2 1.4,-0.3 0.9,1.2 1.9,1.2 6.1,-4.9 12.2,-9.8 21.8,-11.2 0.9,2 0.1,2.1 0,4.4 4.3,0.7 2.3,-3.8 2.5,-4.4 2.1,-4.7 6.8,-6.9 10.5,-9.9 M 85,172.2 c -2,-0.5 -1.3,1.6 -2.5,1.9 -0.8,-1.2 -1.2,-3 -1.9,-4.4 h -2.5 c -4.4,7.5 11.6,9.8 6.9,2.5 m 21.2,-59.1 c 0.3,1.5 0,8.5 0,12.4 -8.2,-5.6 -14,4.2 -22.4,1.9 -7,6.8 -19.4,14.3 -17.4,26.1 0.6,3.1 -2.6,2.4 -2.5,5 -0.4,4.1 0.9,6.6 2.5,8.7 0.7,-0.1 1.1,0.1 1.2,0.6 14,-2.4 17.5,2.6 23,10.6 3.9,5.6 8.9,11.5 2.5,20.5 -3.5,-6.2 -2.2,-14 -7.5,-18 -2.1,-1.6 -5.7,-1.2 -8.1,-2.5 -3.8,-2.1 -4.5,-7.4 -9.3,-6.8 0.2,5.8 8.2,9.2 13.7,11.8 -1.4,2.3 -4,3.4 -8.1,3.1 -2.4,-4.6 -7,-7.1 -10.6,-10.6 -2.5,0.6 -3.4,2.8 -4.4,5 0.5,2 4,1 4.4,3.1 0.2,2.2 -1.1,3 -1.2,5 2.6,4.5 7.7,6.4 13.1,8.1 -0.4,5.8 -3.5,8.9 -7.5,11.2 -11.7,-2 -21.2,-30.1 -6.2,-36 -3.9,-3.8 -3.1,-10 -1.2,-15.5 -3.4,-0.3 -3.4,2.8 -6.8,2.5 1.6,-6.4 5.6,-12.1 9.3,-18 2.9,-4.7 6.1,-13.1 10.6,-16.2 2.8,-1.9 6.1,-0.8 9.3,-1.9 4.1,-1.4 5.9,-5.5 9.9,-7.5 3.3,-0.2 4.1,2.1 6.8,2.5 2.8,-1.2 4.9,-3.1 6.9,-5.1 m 67.1,47.9 c 6,4.5 14,16.7 6.8,24.9 3.8,11.5 -2.3,19.3 -5,28 -3.2,1.2 -8.3,0.4 -12.4,0.6 -1.9,3.7 -5,5.6 -1.9,9.9 -2.2,1.3 -3.6,6.1 -6.2,5 -2,-10.4 -7,-17.9 -11.8,-25.5 5.6,2.7 10.2,6.4 14.9,9.9 1.8,-1.7 2.8,-4.3 4.4,-6.2 17.7,1.2 14.8,-26.8 10.6,-38.5 1.1,-3.2 2.5,-4.6 0.6,-8.1 m 21.1,-44.1 h 1.9 c -1,11.3 -6.2,18.2 -13.7,23 -5,-2.2 -6.5,-8 -13.1,-8.7 -1.2,8 4.7,14.7 11.2,20.5 4.5,4 12.3,6.9 14.3,12.4 4,11.2 -0.3,27 1.2,40.4 -14.5,-1.9 -5,-26.2 -9.9,-38.5 -6.4,-15.8 -26.2,-22.9 -29.8,-41.6 10,-3.7 16.8,5.8 23,9.9 5.5,-5.3 13.3,-8.3 14.9,-17.4 M 141,174 c 0.1,-1.4 -0.5,-2 -1.9,-1.9 -4.4,6.4 9.7,6.2 7.5,-1.9 -0.7,-0.5 -1.7,-0.8 -3.1,-0.6 -1,1.4 -0.7,3.9 -2.5,4.4 m -24.3,-60.9 c 3.1,1 4.5,3.7 7.5,5 2.4,0.1 4.4,-2.7 6.8,-2.5 3.6,0.3 4.9,5.2 8.7,6.8 3.9,1.7 8.5,0.6 11.2,2.5 3.7,2.6 7.6,11.4 10.6,16.2 4.1,6.6 7.5,12.8 9.3,17.4 -1.6,2.8 -4.4,-2.1 -6.8,-2.5 0.7,6.3 3.5,12.2 -1.9,15.5 15.3,6 6.2,33.3 -5,36.7 -5.1,-1.5 -7.3,-6 -8.7,-11.2 6,-0.8 9.3,-4.4 13.7,-6.8 0.2,-2.5 -1.4,-3.1 -1.2,-5.6 -0.2,-2.7 3.3,-1.6 3.7,-3.7 -0.3,-2.6 -2,-3.8 -3.7,-5 -3,3.5 -8.6,4.2 -9.3,9.9 -3.5,1.3 -8.9,0.6 -9.3,-3.1 6.8,-1.7 11.5,-5.5 14.3,-11.2 -5.1,-1.3 -6.4,4.9 -9.9,6.8 -2,1.1 -4.9,0.7 -6.8,1.9 -5.7,3.5 -6.1,10.6 -8.1,18 -6,-4.1 -5.2,-17 1.9,-19.3 1.3,-10.5 12,-11.6 23.6,-11.8 2.2,-1.5 2.8,-4.6 3.1,-8.1 -0.1,-2.6 -2.4,-3 -3.1,-5 -0.7,-2.7 2.1,-2 1.9,-4.4 -4.3,-9.2 -11.1,-15.8 -18,-22.4 -9.4,2.4 -13.9,-6.8 -23.6,-2.5 -0.1,-3.8 1.4,-8.7 -0.9,-11.6 m -66.5,47.3 c 0.3,2.6 -1.2,5.9 1.2,8.7 -4.5,11.2 -7.3,40.3 10.6,38.5 1.2,2.2 2.4,4.2 3.7,6.2 5.4,-3.1 9.5,-7.5 15.5,-9.9 -5.5,7.1 -9.5,15.8 -12.4,25.5 -3.7,-0.5 -7.6,-6.3 -3.7,-8.7 -0.8,-2.5 -3.2,-3.4 -3.7,-6.2 -4.4,-0.3 -10.5,0.9 -13.1,-1.2 -1.9,-8 -8.6,-15.8 -4.4,-26.1 -7.3,-9.4 1.1,-20.9 6.3,-26.8 M 27.9,116.9 h 1.9 c 0.7,9.7 9.7,11 13.7,17.4 7.6,-3.5 12.4,-12.8 23.6,-10.6 0.1,18.4 -26.6,27.4 -30.5,44.1 -2.9,12.7 4.9,34 -9.3,36.7 2.4,-12.5 -2.5,-28.3 1.2,-39.8 1.6,-4.9 7.1,-6.8 11.8,-10.6 7.1,-5.7 13.5,-14.1 15.5,-22.4 -6.8,-2 -9.3,5.6 -13.7,8.1 -8.3,-4 -13.5,-11.3 -14.2,-22.9 m 86.3,12.4 c 4.9,2.2 8.7,5.4 11.8,9.3 -1.3,3.3 -0.7,3.3 1.2,5.6 1.5,-0.5 -0.2,-4.3 1.2,-5 9,1.8 15.6,6 21.1,11.2 2,0.8 0.5,-2 2.5,-1.2 2.1,10.1 -4.7,16.3 -14.3,16.8 0.9,-5.4 6.4,-7 5.6,-11.8 -0.9,-5.2 -8.4,-4.6 -11.8,-8.7 -1.3,-0.1 -0.3,2.2 -0.6,3.1 -8.4,2.5 -12.5,-3.3 -16.2,-7.5 2,-5.2 0.4,-6.7 -0.5,-11.8 M 75.7,105.7 c -2.4,19 -19.5,-6.1 -26.7,-6.2 -2.4,0 -3.4,2.9 -6.8,3.7 -2.2,0.5 -4.9,-0.5 -6.2,0 -4.4,1.6 -3.7,6.2 -6.8,8.1 -2,-23.8 31.4,-12.7 40.4,-4.4 1.9,-0.3 4.1,-2.8 6.1,-1.2 m 118.7,5.6 c -2.6,-2.2 -2.7,-6.9 -6.2,-8.1 -7.6,2.7 -7.6,-3.8 -13.1,-3.7 -5.9,0 -24.8,25.1 -26.7,5.6 2.4,0 3.9,1.1 5.6,1.9 9.2,-7.6 42.8,-20.4 40.4,4.3"
     id="path49" /><path
     class="st4"
     d="m 137.9,166 c 0,0 -7.7,5.8 -4.4,13.1 0,0 0.5,-8.2 11.6,-10.8 0,0 7.7,-1.1 12.1,-1 0,0 2.9,-0.6 3.1,-8.1 0,0 1.1,-1.4 -2.7,-4.1 0,0 -1.1,-1.7 0.5,-3.3 0,0 2.7,-0.7 0.3,-3.2 0,0 -1.3,-5.6 -11.3,-7.9 0,0 -12,-4 -10.2,-0.5 0,0 0.4,1.2 1.6,2.4 0,0 5.8,3.5 10.6,7.4 0,0 1.5,2.3 1.9,-0.3 0,0 1.1,-1.3 1.3,0.4 0,0 1.2,8 -5.3,13.2 0.1,-0.1 -7.8,3 -9.1,2.7 m 18.6,5.5 c 0,0 -4.3,-0.9 -6.6,3.5 0,0 -2.3,3.8 -6.2,4.1 0,0 -7.6,-1.5 -10.1,10.9 0,0 3.4,-5.9 8.9,-6.2 l -0.3,-1.1 c 0,0 11.6,-1.3 14.3,-11.2 m -88.2,0 c 0,0 2.7,-1.9 7.7,5.6 0,0 2.3,2.4 6.2,2.5 0,0 5.2,-0.9 7.3,7.4 0,0 -5.5,-0.6 -7.5,-3.6 0,0 -7.6,-2.8 -11.2,-6.7 -0.1,-0.1 -3,-2 -2.5,-5.2 m 19.4,-30.1 c 0,0 1.9,-4.3 -2.8,-3 0,0 -18.3,3 -18.5,9.9 0,0 -0.6,2.8 -0.1,4.8 0,0 0.8,2.3 -1.4,3.4 0,0 -1.6,0.6 -1,5 0,0 0.2,3.5 2.5,5.7 0,0 0.9,-0.2 1.2,0.6 0.3,0.8 0.1,-0.3 0.1,-0.3 l 0.6,0.6 c 0,0 8.6,-2.9 15.5,2.1 0,0 4.6,5 6.8,8.2 0,0 4.6,-7.5 -4.7,-11.4 0,0 -7.5,-1.9 -8.5,-3.4 0,0 -5.7,-2.8 -6.1,-10.8 l 0.8,-3.6 c 0,0 0.6,-0.3 1.1,0.6 0,0 0,0.4 0.7,0.7 -0.1,-0.1 7.8,-6.7 13.8,-9.1 m -33.5,39.7 c 0,0 0.2,-1.8 -0.8,-3.2 0,0 0.7,-6 -3.2,-4.7 0,0 -2.6,8.7 -2,15.4 0,0 -2.5,19.8 13.9,19 0,0 2.6,4.9 3.7,6.2 1.2,1.3 6.6,-4.5 6.6,-4.5 0,0 -4.3,0.6 -7.2,-2.8 l -2.6,-0.9 c -0.1,0 -8.7,-7.8 -8.4,-24.5 m 97.8,28.4 c 0,0 1.8,1.9 5.7,4.3 0,0 1.8,-0.7 4.4,-6.2 0,0 11.9,2.3 13.6,-14.9 0,0 1.2,-12.3 -1.9,-19.9 0,0 -2,0.2 -2.1,2.5 0,0 0,3.8 -0.9,5.1 0,0 -0.6,2 -0.6,4.3 0,0 -0.5,17.3 -13,23.5 0,0 -1.3,0.8 -1.6,-0.6 l -1.1,1.5 z m -8.5,-39.8 c 1.4,-0.2 2.4,0.1 3.1,0.6 2.3,8.1 -11.9,8.3 -7.5,1.9 1.4,-0.1 2,0.5 1.9,1.9 1.8,-0.6 1.5,-3.1 2.5,-4.4 m -65.3,0 h 2.5 c 0.7,1.4 1,3.1 1.9,4.4 1.2,-0.3 0.5,-2.4 2.5,-1.9 4.6,7.3 -11.4,5 -6.9,-2.5"
     id="path50" /><path
     class="st2"
     d="m 90.3,-117.7 12.4,9 -4.7,14.5 12.4,-9 12.4,9 -4.7,-14.5 12.4,-9 H 115 l -4.7,-14.5 -4.7,14.5 z m 82.2,83.9 12.4,9 -4.7,14.5 12.4,-9 12.4,9 -4.7,-14.5 12.4,-9 h -15.3 l -4.7,-14.5 -4.7,14.5 z m -54,0 12.4,9 -4.7,14.5 12.4,-9 12.4,9 -4.7,-14.5 12.4,-9 h -15.3 l -4.7,-14.5 -4.7,14.5 z m 0,-41.9 12.4,9 -4.7,14.5 12.4,-9 12.4,9 -4.7,-14.5 12.4,-9 h -15.3 l -4.7,-14.5 -4.7,14.5 z m -53.3,-0.1 12.4,9 -4.7,14.5 12.4,-9 12.4,9 -4.7,-14.5 12.4,-9 H 89.9 l -4.7,-14.5 -4.7,14.5 z m 0,42.9 12.4,9 -4.8,14.5 12.4,-9 12.4,9 -4.7,-14.5 12.4,-9 H 89.9 l -4.7,-14.5 -4.7,14.5 z m -54.3,0 12.4,9 -4.8,14.5 12.4,-9 12.4,9 -4.7,-14.5 12.4,-9 H 35.6 l -4.7,-14.5 -4.7,14.5 z"
     id="path51" /></g>
</svg>
