<?xml version="1.0" encoding="UTF-8" standalone="no"?>
<!-- Created with Inkscape (http://www.inkscape.org/) -->

<svg
   width="400mm"
   height="400mm"
   viewBox="0 0 400 400"
   version="1.1"
   id="svg1"
   xml:space="preserve"
   inkscape:export-filename="..\New folder\PYRAMIDS.svg"
   inkscape:export-xdpi="96"
   inkscape:export-ydpi="96"
   sodipodi:docname="CHELSEA.svg"
   xmlns:inkscape="http://www.inkscape.org/namespaces/inkscape"
   xmlns:sodipodi="http://sodipodi.sourceforge.net/DTD/sodipodi-0.dtd"
   xmlns="http://www.w3.org/2000/svg"
   xmlns:svg="http://www.w3.org/2000/svg"><sodipodi:namedview
     id="namedview1"
     pagecolor="#ffffff"
     bordercolor="#000000"
     borderopacity="0.25"
     inkscape:showpageshadow="2"
     inkscape:pageopacity="0.0"
     inkscape:pagecheckerboard="0"
     inkscape:deskcolor="#d1d1d1"
     inkscape:document-units="mm"><inkscape:page
       x="0"
       y="0"
       width="400"
       height="400"
       id="page2"
       margin="0"
       bleed="0" /></sodipodi:namedview><defs
     id="defs1" /><g
     inkscape:label="Layer 1"
     inkscape:groupmode="layer"
     id="layer1"><g
       id="g24"
       transform="matrix(0.69668456,0,0,0.69758704,56.971491,2.5828692)"><path
         d="m 205.30078,0 c 23.70312,44.503906 93.98438,112.91406 182.625,112.91406 6.84375,0 13.80469,-0.40625 20.85938,-1.26562 C 428.83594,361.4414 277.47656,512.10547 205.30078,566 133.11719,512.10547 -18.238281,361.4414 1.8125,111.64844 c 7.058594,0.85937 14.007813,1.26562 20.863281,1.26562 C 111.30469,112.91406 181.60156,44.5 205.30078,0"
         stroke="none"
         fill="#d12229"
         fill-rule="nonzero"
         id="path1" /><path
         d="M 205.30078,26.683594 C 172.63672,71.78906 105.35547,127.20313 22.675781,127.20313 c -2.519531,0 -5.046875,-0.0508 -7.578125,-0.15235 -2.804687,51.66797 1.816406,102.03906 13.765625,149.9336 11.144531,44.66015 28.785157,87.75 52.433594,128.07422 19.351565,32.9961 42.687505,64.1367 69.355465,92.5625 20.82032,22.1875 40.15235,38.9375 54.64844,50.3672 14.49219,-11.4297 33.82812,-28.1797 54.64452,-50.3672 26.66798,-28.4258 50.00392,-59.5664 69.3594,-92.5625 23.64842,-40.32422 41.28905,-83.41407 52.42968,-128.07422 11.94922,-47.89454 16.57032,-98.26563 13.76562,-149.9336 -2.52734,0.10156 -5.0586,0.15235 -7.57422,0.15235 -82.68358,0 -149.96484,-55.41407 -182.625,-100.519536"
         stroke="none"
         fill="#ffffff"
         fill-rule="nonzero"
         id="path2" /><path
         d="m 205.30078,50.05078 c -36.79297,43.75 -99.42969,89.05469 -176.499999,91.35156 -1.292969,45.48828 3.371094,89.8125 13.925781,132.1211 10.8125,43.33594 27.933598,85.16016 50.894528,124.30468 18.81641,32.07813 41.51172,62.36328 67.45313,90.01563 16.2539,17.32031 31.55078,31.21485 44.22656,41.75391 12.67188,-10.53906 27.96875,-24.4336 44.22266,-41.75391 25.94531,-27.65235 48.64062,-57.9375 67.45312,-90.01563 22.96094,-39.14452 40.08204,-80.96874 50.89454,-124.30468 10.55468,-42.3086 15.21874,-86.63282 13.92578,-132.1211 -77.07032,-2.29687 -139.70704,-47.60156 -176.4961,-91.35156"
         stroke="none"
         fill="#d12229"
         fill-rule="nonzero"
         id="path3" /><path
         d="M 94.203125,311.04297 H 316.39844 v 19.96875 h 17.71484 C 356.66797,275.67188 367.9297,216.73438 367.73047,154.84766 299.3672,148.50781 242.71875,110.87891 205.30078,71.36328 c -37.42188,39.51563 -94.07031,77.14453 -162.433592,83.48438 -0.203126,61.88672 11.0625,120.82422 33.617187,176.16406 v 0 h 17.71875"
         stroke="none"
         fill="#ffffff"
         fill-rule="nonzero"
         id="path4" /><path
         d="m 108.48828,331.01172 h 193.6211 v -5.67969 h -193.6211 z"
         stroke="none"
         fill="#ffffff"
         fill-rule="nonzero"
         id="path5" /><path
         d="m 105.94531,390.59766 c 18.27735,31.16406 40.33203,60.59374 65.54688,87.46874 12.0625,12.85548 23.57031,23.7539 33.80859,32.7383 10.23438,-8.9844 21.74219,-19.88282 33.80078,-32.7383 25.21874,-26.875 47.26954,-56.30468 65.55078,-87.46874 C 313.33203,375.80078 321.10547,360.6914 328,345.30078 v 0 H 82.59766 c 6.89453,15.39062 14.667965,30.5 23.34765,45.29688"
         stroke="none"
         fill="#ffffff"
         fill-rule="nonzero"
         id="path6" /><path
         d="m 207.35156,438.86328 h 8.75391 v -87.16016 h -8.75391 z"
         stroke="none"
         fill="#000000"
         fill-rule="nonzero"
         id="path7" /><path
         d="m 283.4453,363.125 v 24.10156 l -10.58592,16.4375 v -51.96484 h -8.75 v 86.13672 L 294.21484,391.0703 V 363.125"
         stroke="none"
         fill="#000000"
         fill-rule="nonzero"
         id="path8" /><path
         d="m 177.34766,436.53906 v -20.0039 h -12.86328 v -64.83594 h -7.32032 v 76.80468 h 8.92969 l 3.57031,8.03516"
         stroke="none"
         fill="#000000"
         fill-rule="nonzero"
         id="path9" /><path
         d="M 194.49219,424.33594 H 184.3711 v 35.1289 l -12.5547,-12.625 v -3.44922 h -4.47265 v 13.69141 l 23.81641,27.86327 h 4.16406 v -46.08202 h 7.92188 v -87.16406 h -8.75391"
         stroke="none"
         fill="#000000"
         fill-rule="nonzero"
         id="path10" /><path
         d="m 143.4961,400.34375 -3.41798,-1.95703 v -46.6875 h -8.21484 v 31.3789 l -14.3789,-21.46874 v -3.23828 h 8.98437 l 0.88672,-6.67188 h -26.21484 l 0.4414,4.61328 45.80078,74.51562 h 4.33203 v -79.1289 h -8.21874"
         stroke="none"
         fill="#000000"
         fill-rule="nonzero"
         id="path11" /><path
         d="m 177.04297,403.51953 h 7.95313 v -7.67578 h -7.95313 z"
         stroke="none"
         fill="#000000"
         fill-rule="nonzero"
         id="path12" /><path
         d="m 220.6914,421.71484 h 11.63672 v 36.67578 l -16.22265,16.22266 v -20.38672 h -8.75391 v 48.90624 l 34.26563,-34.2617 v -61.6836 h -13.54688 v -12.7422 h 13.54688 V 383.375 H 220.6914"
         stroke="none"
         fill="#000000"
         fill-rule="nonzero"
         id="path13" /><path
         d="m 292.6211,351.6875 h -7.52735 l -1.01172,8.2539 h 8.53907 z"
         stroke="none"
         fill="#000000"
         fill-rule="nonzero"
         id="path14" /><path
         d="m 252.92188,430.27344 -6.94141,8.10156 v 25.40625 l 15.69141,-18.32031 V 383.375 h -8.75"
         stroke="none"
         fill="#000000"
         fill-rule="nonzero"
         id="path15" /><path
         d="m 219.64453,217.5039 c -3.14063,0.9961 -7.88672,2.08594 -13.43359,2 v 0 l -41.82813,-20.82812 -2.34765,-4.69922 c 12.58984,-3.00781 21.32422,-3.24609 27.83594,-6.125 10.26171,-4.53906 16.95312,-8.92968 34.16796,-7.58984 0.41406,11.89844 -0.96484,24.49609 -4.39453,37.24218 z m -49.95703,17.98048 c -7.03906,-5.7461 -10.45703,-13.69141 -12.01953,-35.19141 v 0 l 42.49609,21.16406 c -2.84766,6.15235 -19.93359,14.02735 -30.47656,14.02735 z m -13.10938,-61.50391 40.01954,-63.05078 c 0,0 4.58594,4.47265 4.58594,10.0039 9.28906,9.28907 16.11328,22.12501 19.80078,37.01172 -10.58985,7.78516 -20.15235,9.02735 -33.17188,10.81641 -8.66016,1.1875 -14.5,8.34375 -31.08203,7.46875 z m 153.5586,129.85156 c 0,-2.61719 0,-4.73437 -4.73438,-4.73437 -12.74609,0 -21.80859,-5.32032 -27.41406,-9.02344 -7.33203,-4.84766 -26.89453,-24.94142 -52.16016,-70.2461 4.125,-10.84374 10.54298,-30.58984 10.54298,-48.52734 0,-0.15625 -0.0117,-0.3125 -0.0117,-0.47266 v 0 l 9.60156,-1.47265 -0.30469,7.54297 36.20313,-17.38672 -38.10548,-4.28516 1.35938,5.58594 -9.92968,1.52734 C 232.25783,150.41016 224.4219,137.54297 217.32033,129.25 c -8.23047,-9.61328 -16.56641,-17.5 -12.86328,-33.67969 0,0 -4.12891,0 -10.23828,9.88282 v 0 l -42.20313,68.25781 c -2.64452,1.125 -6.23828,2.2539 -5.07031,-0.38672 0,0 -1.72656,0.17968 -1.19141,-5.59375 -2.30468,0 -4.16796,-1.3125 -4.16796,-1.3125 v 0 l 0.65625,-3.28907 c 1.56641,-0.7578 2.91406,-1.55859 3.51171,-2.30859 -2.85937,-2.26171 -6.4375,-8.92969 -9.8828,-11.30859 -0.33985,-2.64062 1.0703,-4.88282 1.0703,-4.88282 v 0 l -2.3828,-4.05078 c -4.34766,0.28516 -8.82032,-0.83202 -13.69141,-0.83202 -7.19141,0 -16.23828,4.59765 -20.10547,9.34765 -8.07422,9.92187 -7.74219,26.39453 -6.49219,45.77344 -4.91797,3.46093 -13.17969,10.05859 -13.17969,15.34375 0,6.93359 8.050785,7.47266 29.25391,5.99609 15.69922,13.94922 22.58594,27.05469 21.23828,56.1875 0,0 4.14063,2.68359 10.73828,5.19922 0.66016,0.78905 1.46485,1.72265 2.39844,2.76953 2.41797,9.95312 -8.14844,11.76562 -8.14844,16.78906 0,6.92188 3.08594,4.04688 4.36329,13.89063 v 0 h 20.16796 c -2.15234,-5.34767 -6.14844,-8.25391 -6.14844,-10.08985 0,-1.5664 1.89454,-2.83984 9.03126,-2.89062 10.66406,7.8789 24.04296,14.73438 38.33593,14.73438 10.52735,0 16.05469,-6.1211 16.05469,-13.6875 0,-9.13282 -10.3164,-24.19141 -16.03125,-31.83204 6.86328,-7.66796 11.34375,-16.67187 11.34375,-16.67187 v 0 l 3.39062,1.07031 c 0,0 9.28907,18.21875 32.15235,32.6875 2.09765,7.20702 6.78906,13.03906 6.78906,13.03906 1.25,7.49219 4.52735,12.05078 5.85157,13.64063 v 0 h 37.73046 c 6.20314,-1.20703 10.53516,-3.98047 10.53516,-7.21094"
         stroke="none"
         fill="#000000"
         fill-rule="nonzero"
         id="path16" /><path
         d="m 115.08984,185.58984 c 0.004,-6.08594 -0.80859,-17.32422 -0.8125,-24.09374 0,-1.3672 0.0352,-2.5547 0.1211,-3.51563 0.10937,-0.98437 0.15625,-1.65235 0.57031,-2.38672 1.07422,-1.6875 3.05469,-3.25781 5.44922,-4.76172 2.39453,-1.48437 5.19141,-2.83203 7.84765,-3.76563 v 0 l 0.82813,2.35938 c -2.46484,0.86328 -5.13281,2.14844 -7.35547,3.52734 -2.20703,1.35938 -3.98047,2.87891 -4.63281,3.94141 -0.004,0.008 -0.0117,0.0234 -0.0195,0.0469 -0.0156,0.0508 -0.0391,0.14063 -0.0664,0.25782 -0.0469,0.23828 -0.0937,0.58203 -0.13281,1 -0.0742,0.83594 -0.10547,1.97266 -0.10547,3.29688 -0.004,6.61328 0.80859,17.84374 0.80859,24.09374"
         stroke="none"
         fill="#ffffff"
         fill-rule="nonzero"
         id="path17" /><path
         d="m 149.25781,209.48828 c -1.66406,-1.09375 -3.20312,-1.70312 -4.5625,-2.01953 -2.07812,-0.46485 -3.35156,-0.41406 -4.76562,-0.84375 -1.09375,-0.32031 -2.48829,-0.91406 -4.51953,-2.32812 v 0 l -2.20313,5.40234 c 1.62891,1.03516 3.05469,1.72266 4.35937,2.17188 1.59766,0.55468 2.96485,0.73046 4.01172,0.86328 1.60938,0.22265 2.38282,0.28906 3.98828,1.1914 1.41016,0.8125 3.44141,2.44141 6.39844,5.61328 v 0 l 0.47266,-7.55859 c -1.14844,-1.02735 -2.19531,-1.84375 -3.17969,-2.49219"
         stroke="none"
         fill="#ffffff"
         fill-rule="nonzero"
         id="path18" /><path
         d="m 183.14453,253.58203 c 0,-2.26172 -16.79297,-13.93359 -16.79297,-13.93359 0,0 -2.5,1.3125 -2.5,4.52734 0,0 12.26563,10.59766 17.625,10.59766 0.92188,0 1.66797,-0.53125 1.66797,-1.19141"
         stroke="none"
         fill="#ffffff"
         fill-rule="nonzero"
         id="path19" /><path
         d="m 163.60156,278.26562 c -0.0117,-0.96484 0.91797,-1.53515 -0.84375,-1.51952 -1.96875,0.0234 -1.89843,-1.0547 -3.23437,-2.33985 -2.80469,2.34765 2.10546,4.43359 4.07812,3.85937"
         stroke="none"
         fill="#bbbdbf"
         fill-rule="nonzero"
         id="path20" /><path
         d="m 152.65234,277.40625 c 0.96485,-1.45313 -1.60546,-4.17187 -3.21874,-3 0.53906,1.53125 1.55859,2.58203 3.21874,3"
         stroke="none"
         fill="#bbbdbf"
         fill-rule="nonzero"
         id="path21" /><path
         d="m 171.32812,275.26172 c 2.35548,0.32422 -1.24218,-3.78906 -1.28515,-3.85547 -3.80859,1.50391 0.57422,2.65235 1.28515,3.85547"
         stroke="none"
         fill="#bbbdbf"
         fill-rule="nonzero"
         id="path22" /><path
         d="m 178.84375,270.97656 c 1.53125,-2.32422 -0.70703,-5.6289 -3.43359,-4.92968 0.4414,2.0625 2.45703,2.88282 3.43359,4.92968"
         stroke="none"
         fill="#bbbdbf"
         fill-rule="nonzero"
         id="path23" /><path
         d="m 142.13281,272.04688 c -0.94141,-1.77344 -2.28515,-2.66798 -1.93359,-4.92968 1.41016,-0.3711 1.45312,1.62108 2.0039,2.28905 0.23828,0.46485 0.5,0.91797 0.78907,1.35547 0.88671,0.15625 2.23828,0.1875 2.78906,1.07422 v 0 h 7.15625 c 2.57422,0 4.17578,-0.64844 6.44531,-0.91797 1.86329,-0.22267 3.54688,-1.02735 5.29297,-1.65625 1.58594,-0.57032 3.21484,-0.4961 4.64453,-1.27734 1.82031,-0.98828 2.73047,-1.05468 4.37109,-2.58204 0.21876,-1.34764 0.26954,-3.61718 1.9297,-4.07031 1.41015,0.91407 0.0156,1.5 2.57812,1.5 -0.39062,-1.55859 -1.66016,-2.67969 -1.92969,-4.28515 -0.70703,-0.10938 -0.58203,0.75 -1.28906,0.64062 -0.72266,-1.3086 -1.58985,-2.53516 -2.56641,-3.66797 -2.2539,-2.61719 -5.01953,-4.71875 -7.79687,-6.75 -2.19922,-1.60547 -5.93359,-5.80078 -8.49609,-5.00781 -2.84766,0.8789 -7.83204,1.05078 -10.17188,2.60938 -1.66016,1.10937 -2.59766,3.15234 -4.54297,3.86718 -1.34765,0.49219 -2.13672,-0.29297 -3.19141,0.94922 -1.01562,1.19531 -0.98437,2.82422 -0.74609,4.27734 0.29687,1.82422 0.53515,6.33986 2.30078,7.15236 -0.30469,0.92968 0.14844,1.43358 0.60937,2.14452 0.67188,1.03516 -0.9414,1.47656 -1.03515,-0.21484 -1.22265,0.47265 -1.91015,0.74609 -1.9375,-0.85548 -0.0156,-0.7539 -0.41797,-0.95702 -1.20313,-0.59765 -1.86328,-0.25781 -0.67187,2.14063 -0.41796,3.01953 0.80078,2.75392 1.70703,9.76172 6.34765,5.9336"
         stroke="none"
         fill="#bbbdbf"
         fill-rule="nonzero"
         id="path24" /></g></g><style
     id="style110">
		.s0 { fill: #272525 } 
		.s1 { fill: url(#g1) } 
		.s2 { fill: #d5001a } 
		.s3 { fill: none } 
		.s4 { fill: #ffffff } 
		.s5 { opacity: .63;fill: #b4221a } 
		.s6 { fill: url(#g2) } 
		.s7 { fill: url(#g3) } 
		.s8 { fill: url(#g4) } 
		.s9 { fill: url(#g5) } 
		.s10 { fill: url(#g6) } 
		.s11 { fill: url(#g7) } 
	</style><style
     id="style1">
		.s0 { fill: #dba111 } 
		.s1 { fill: #001489 } 
		.s2 { fill: #ffffff } 
		.s3 { fill: #d1d3d4 } 
		.s4 { fill: #ff0000 } 
		.s5 { fill: #6a7ab5 } 
		.s6 { fill: none } 
	</style></svg>
