<?xml version="1.0" encoding="UTF-8" standalone="no"?>
<!-- Created with Inkscape (http://www.inkscape.org/) -->

<svg
   width="400mm"
   height="400mm"
   viewBox="0 0 400 400"
   version="1.1"
   id="svg1"
   xml:space="preserve"
   inkscape:export-filename="..\..\clubs\club\ENGLISH_LEAGUE\Newcastle.svg"
   inkscape:export-xdpi="96"
   inkscape:export-ydpi="96"
   sodipodi:docname="RAMI.svg"
   xmlns:inkscape="http://www.inkscape.org/namespaces/inkscape"
   xmlns:sodipodi="http://sodipodi.sourceforge.net/DTD/sodipodi-0.dtd"
   xmlns="http://www.w3.org/2000/svg"
   xmlns:svg="http://www.w3.org/2000/svg"><sodipodi:namedview
     id="namedview1"
     pagecolor="#ffffff"
     bordercolor="#000000"
     borderopacity="0.25"
     inkscape:showpageshadow="2"
     inkscape:pageopacity="0.0"
     inkscape:pagecheckerboard="0"
     inkscape:deskcolor="#d1d1d1"
     inkscape:document-units="mm"><inkscape:page
       x="0"
       y="0"
       width="400"
       height="400"
       id="page2"
       margin="0"
       bleed="0" /></sodipodi:namedview><defs
     id="defs1" /><g
     inkscape:label="Layer 1"
     inkscape:groupmode="layer"
     id="layer1"><g
       id="g8"
       transform="matrix(1.8923452,0,0,1.8923452,1.7768418,1.7768418)"><path
         id="path3381"
         class="s0"
         d="m 209.5,104.7 c 0,57.9 -46.9,104.8 -104.8,104.8 C 46.9,209.5 0,162.6 0,104.7 0,46.9 46.9,0 104.7,0 162.6,0 209.5,46.9 209.5,104.7 Z" /><path
         id="path3383"
         class="s1"
         d="M 206,104.7 C 206,160.7 160.7,206 104.7,206 48.8,206 3.5,160.7 3.5,104.7 3.5,48.8 48.8,3.5 104.7,3.5 160.7,3.5 206,48.8 206,104.7 Z" /><path
         id="path3385"
         class="s0"
         d="m 176.9,104.7 c 0,39.9 -32.3,72.2 -72.2,72.2 -39.8,0 -72.1,-32.3 -72.1,-72.2 0,-39.8 32.3,-72.1 72.1,-72.1 39.9,0 72.2,32.3 72.2,72.1 z" /><path
         id="path3387"
         class="s2"
         d="m 174.7,104.7 c 0,38.7 -31.3,70 -70,70 -38.6,0 -69.9,-31.3 -69.9,-70 0,-38.6 31.3,-69.9 69.9,-69.9 38.7,0 70,31.3 70,69.9 z" /><path
         id="path3389"
         class="s0"
         d="m 44.8,165.1 c 0.8,0.7 2.7,2.6 2.7,2.6 l 1.8,-2 -5.5,-5.2 -0.7,0.8 -7.3,7.6 2.8,2.7 c 0,0 2.4,-2.5 3.2,-3.4 0.7,0.7 2.4,2.3 2.4,2.3 l 1.9,-1.9 c 0,0 -1.7,-1.6 -2.5,-2.3 0.5,-0.5 0.7,-0.7 1.2,-1.2 z" /><path
         id="path3391"
         fill-rule="evenodd"
         class="s0"
         d="m 58,174.8 c 0,1.3 -0.4,2.6 -1.2,3.7 -1,1.4 -2.4,2.3 -4,2.6 -1.5,0.2 -3,-0.1 -4.2,-1 -1.3,-0.9 -2.1,-2.2 -2.3,-3.7 -0.3,-1.5 0.1,-3.2 1.1,-4.6 1,-1.4 2.4,-2.3 4,-2.6 1.5,-0.2 3,0.1 4.2,1 1.2,0.9 2.1,2.2 2.3,3.7 q 0.1,0.4 0.1,0.9 z m -4.4,1.4 c 0.6,-0.8 1.8,-2.9 0.5,-3.8 -1.3,-0.9 -2.7,0.7 -3.5,1.7 -0.7,1 -1.8,2.9 -0.5,3.8 1.3,1 2.9,-0.9 3.5,-1.7 z" /><path
         id="path3393"
         fill-rule="evenodd"
         class="s0"
         d="m 68.9,184.8 c -0.8,1.5 -2.1,2.6 -3.6,3.1 -1.4,0.5 -2.9,0.4 -4.3,-0.3 -1.4,-0.7 -2.4,-1.8 -2.8,-3.3 -0.5,-1.5 -0.4,-3.2 0.4,-4.7 1.6,-3.1 4.9,-4.3 7.9,-2.8 2.9,1.4 4,4.9 2.4,8 z M 65.4,183 c 0.6,-1.2 0.8,-2.4 0.6,-3.1 q -0.2,-0.5 -0.7,-0.8 c -1.4,-0.7 -2.6,1.1 -3.2,2.3 -0.3,0.6 -0.7,1.6 -0.7,2.4 0,0.6 0.2,1.1 0.8,1.4 q 0.5,0.3 1,0.1 c 0.7,-0.2 1.5,-1.1 2.2,-2.3 z" /><path
         id="path3395"
         class="s0"
         d="m 72.5,181 -0.5,1.6 c 0,0 1.4,0.4 1.8,0.6 -0.5,1.5 -3,8.4 -3,8.4 l 3.6,1.3 c 0,0 2.5,-6.9 3,-8.5 0.4,0.2 1.8,0.7 1.8,0.7 l 0.9,-2.5 -7.2,-2.6 z" /><path
         id="path3397"
         fill-rule="evenodd"
         class="s0"
         d="m 90.6,187.8 q 0,0.4 -0.1,0.7 c -0.1,0.8 -0.5,1.4 -1.1,1.9 q 0.6,0.8 0.6,1.8 0,0.4 0,0.8 c -0.3,1 -0.8,1.8 -1.5,2.3 -0.6,0.4 -1.7,0.8 -3.3,0.4 l -4.9,-1 2.1,-10.4 0.3,-1 4.8,1.1 c 2.3,0.4 3.1,2.1 3.1,3.4 z m -4.4,4.1 c 0,-0.3 -0.1,-0.8 -0.7,-0.9 0,0 -0.3,-0.1 -0.5,-0.1 -0.2,0.7 -0.3,1.2 -0.4,2 0.2,0 0.4,0.1 0.4,0.1 q 0.6,0.1 0.9,-0.1 c 0.1,-0.1 0.2,-0.4 0.3,-0.6 q 0,-0.1 0,-0.4 z m -0.7,-3.6 c 0.2,0 0.3,0.1 0.3,0.1 0.8,0.1 0.9,-0.3 1,-0.6 q 0,-0.2 0,-0.3 0,-0.2 -0.1,-0.3 c -0.1,-0.2 -0.4,-0.4 -0.8,-0.5 -0.2,0.7 -0.2,1 -0.4,1.6 z" /><path
         id="path3399"
         class="s0"
         d="m 96.5,186 -5.3,10.9 3.1,0.2 c 0,0 0.8,-1.7 1.1,-2.4 q 1,0.1 1.9,0.2 c 0.3,0.7 0.9,2.5 0.9,2.5 l 4,0.3 -4.5,-13.9 z" /><path
         id="path3401"
         class="s0"
         d="m 108.5,194.7 c -0.1,-1.6 -0.4,-8.8 -0.4,-8.8 l -3.8,0.2 0.5,11.6 7.7,-0.4 -0.2,-2.7 c 0,0 -2.7,0.1 -3.8,0.1 z" /><path
         id="path3403"
         class="s0"
         d="m 119,193.6 c -0.2,-1.6 -1.4,-8.7 -1.4,-8.7 l -1,0.2 -2.8,0.4 1.8,11.5 7.6,-1.2 -0.4,-2.8 c 0,0 -2.7,0.4 -3.8,0.6 z" /><path
         id="path3405"
         class="s0"
         d="m 141,185.9 c -0.1,1 -0.7,1.8 -1.6,2.2 q -0.7,0.3 -1.4,0 c -0.8,-0.3 -1.5,-1.1 -1.9,-2.2 -0.5,-1.2 -0.6,-2.2 -0.3,-2.9 q 0.4,-0.8 1.4,-1.2 c 0.7,-0.3 1.3,0 2.3,0.5 l 0.8,0.5 1.4,-2.2 -0.8,-0.6 c -1.5,-1 -3.5,-1.2 -5.1,-0.5 -1.5,0.6 -2.7,1.7 -3.4,3.2 -0.6,1.5 -0.6,3.2 0.1,4.8 1.2,3 4.6,4.5 7.6,3.3 2.2,-0.8 3.4,-2.5 3.6,-4.8 l 0.1,-1 -2.8,-0.2 c 0,0 0,1.1 0,1.1 z" /><path
         id="path3407"
         class="s0"
         d="m 149.9,182.7 c -0.8,-1.4 -4.3,-7.7 -4.3,-7.7 l -0.9,0.5 -2.5,1.4 5.7,10.1 6.7,-3.7 -1.3,-2.5 c 0,0 -2.4,1.4 -3.4,1.9 z" /><path
         id="path3409"
         class="s0"
         d="m 157.3,167.1 -0.8,0.6 -1.4,1.1 4.7,6.4 c 0.2,0.2 0.2,0.4 0.2,0.6 -0.1,0.3 -0.4,0.6 -0.7,0.9 -0.2,0.1 -0.5,0.2 -0.8,0.2 q -0.4,-0.1 -0.6,-0.4 l -4.7,-6.4 -3.1,2.3 4.6,6.3 q 1.1,1.4 2.6,1.6 c 1.1,0.2 2.4,-0.2 3.5,-1.1 2.5,-1.7 2.4,-4.1 1.4,-5.5 z" /><path
         id="path3411"
         fill-rule="evenodd"
         class="s0"
         d="m 172.5,167.3 c 0,0.7 -0.3,1.8 -1.4,2.9 l -3.7,3.5 -8.1,-8.3 3.6,-3.5 c 2,-1.9 4.2,-1.1 5.1,-0.1 0.6,0.5 0.9,1.2 0.9,1.9 1,0 1.8,0.3 2.5,1.1 0.7,0.7 1.1,1.6 1.1,2.5 z m -8.6,-2.7 c 0.5,0.5 0.7,0.7 1.2,1.2 0.1,-0.1 0.1,-0.2 0.1,-0.2 0.3,-0.2 0.4,-0.5 0.4,-0.6 0,-0.2 -0.1,-0.4 -0.3,-0.5 -0.2,-0.3 -0.6,-0.6 -1.4,0.1 z m 3,3.1 c 0.5,0.5 0.9,0.9 1.4,1.5 0.2,-0.2 0.3,-0.3 0.3,-0.3 0.3,-0.3 0.5,-0.6 0.5,-0.8 q 0,0 0,0 c 0,-0.2 -0.2,-0.5 -0.4,-0.6 -0.2,-0.2 -0.8,-0.8 -1.4,-0.1 0,0 -0.2,0.1 -0.4,0.3 z" /><path
         id="path3413"
         class="s2"
         d="m 44.8,164 c 0.3,0.3 2.6,2.6 2.6,2.6 l 0.8,-0.8 -4.3,-4.2 -0.2,0.2 -6.8,7.1 1.7,1.6 c 0,0 2.9,-3 3.2,-3.4 0.3,0.3 2.4,2.4 2.4,2.4 l 0.8,-0.8 c 0,0 -2.1,-2.1 -2.4,-2.4 0.2,-0.3 1.9,-2 2.2,-2.3 z" /><path
         id="path3415"
         fill-rule="evenodd"
         class="s2"
         d="m 57.2,174 q 0,0.4 0,0.8 c 0,1.1 -0.3,2.3 -1,3.3 -0.9,1.2 -2.2,2 -3.5,2.2 -1.3,0.2 -2.6,-0.1 -3.7,-0.8 -1.1,-0.8 -1.8,-1.9 -2,-3.2 -0.2,-1.4 0.1,-2.8 1,-4.1 0.9,-1.2 2.1,-2 3.5,-2.2 1.3,-0.3 2.6,0.1 3.7,0.8 1,0.8 1.8,1.9 2,3.2 z m -2.7,-2.3 c -1.9,-1.3 -3.8,0.9 -4.5,2 -0.7,1 -2.2,3.5 -0.3,4.8 1.8,1.4 3.7,-0.8 4.5,-1.9 0.7,-1 2.2,-3.5 0.3,-4.9 z" /><path
         id="path3417"
         fill-rule="evenodd"
         class="s2"
         d="m 68.2,184.4 c -0.7,1.4 -1.8,2.4 -3.1,2.8 -1.2,0.4 -2.6,0.3 -3.8,-0.3 -1.1,-0.6 -2,-1.6 -2.4,-2.8 -0.4,-1.3 -0.3,-2.8 0.4,-4.2 1.3,-2.7 4.3,-3.7 6.8,-2.5 2.6,1.3 3.5,4.3 2.1,7 z m -4.7,1.7 c 1.2,-0.4 2.1,-1.9 2.5,-2.8 0.5,-0.8 1.1,-2.4 0.7,-3.6 q -0.3,-0.8 -1.1,-1.2 c -2,-1.1 -3.6,1.4 -4.1,2.5 -0.6,1.1 -1.7,3.9 0.4,4.9 q 0.8,0.4 1.6,0.2 z" /><path
         id="path3419"
         class="s2"
         d="m 73.3,181.3 -0.3,0.8 c 0,0 1.4,0.5 1.8,0.6 -0.2,0.5 -3,8.5 -3,8.5 l 2.2,0.7 c 0,0 2.8,-8 2.9,-8.4 0.4,0.1 1.8,0.6 1.8,0.6 l 0.4,-1.1 -5.8,-2 c 0,0 0,0.3 0,0.3 z" /><path
         id="path3421"
         fill-rule="evenodd"
         class="s2"
         d="m 89.8,187.8 q 0,0.3 0,0.6 c -0.2,0.9 -0.8,1.5 -1.7,1.8 0.8,0.5 1.2,1.2 1.2,2.1 q 0,0.2 -0.1,0.6 c -0.2,0.7 -0.6,1.4 -1.2,1.7 q -1,0.7 -2.6,0.4 l -4.2,-0.9 2,-9.6 v -0.3 l 4.2,0.9 c 1.9,0.4 2.4,1.8 2.4,2.7 z m -4.5,-2 c -0.1,0.4 -0.6,2.7 -0.7,3.1 0.4,0.1 1,0.2 1,0.2 0.6,0.1 1.6,0.1 1.9,-1.1 q 0.1,-0.3 0.1,-0.5 0,-0.4 -0.2,-0.8 -0.4,-0.5 -1.5,-0.7 c 0,0 -0.4,-0.1 -0.6,-0.2 z m -0.9,4.2 c -0.1,0.4 -0.7,3.1 -0.7,3.5 0.4,0.1 1.1,0.2 1.1,0.2 q 1,0.2 1.5,-0.1 0.5,-0.3 0.6,-1.2 c 0,0 0.1,-0.2 0.1,-0.4 0,-0.6 -0.2,-1.5 -1.4,-1.8 0,0 -0.9,-0.1 -1.2,-0.2 z" /><path
         id="path3423"
         fill-rule="evenodd"
         class="s2"
         d="m 97.5,185.8 3.6,11.1 -2.4,-0.2 c 0,0 -0.7,-2.3 -0.8,-2.6 -0.3,0 -2.6,-0.2 -2.9,-0.2 -0.2,0.3 -1.2,2.4 -1.2,2.4 l -1.4,-0.1 4.8,-9.8 z m -2,7 c 0.5,0 1.6,0.1 2,0.2 -0.1,-0.5 -0.6,-2 -0.8,-2.7 -0.3,0.7 -1,2.1 -1.2,2.5 z" /><path
         id="path3425"
         class="s2"
         d="m 107.8,195.5 c 0,-0.5 -0.4,-8.8 -0.4,-8.8 h -0.2 l -2.1,0.1 0.4,10.1 6.2,-0.3 -0.1,-1.3 c 0,0.1 -3.4,0.2 -3.8,0.2 z" /><path
         id="path3427"
         class="s2"
         d="m 118.4,194.5 c -0.1,-0.5 -1.4,-8.7 -1.4,-8.7 h -0.2 l -2.1,0.3 1.6,10 6.1,-1 -0.2,-1.2 c 0,0 -3.4,0.5 -3.8,0.6 z" /><path
         id="path3429"
         class="s2"
         d="m 141.7,185.9 c 0,1.3 -0.8,2.4 -2,2.9 q -1,0.4 -2,0 c -1,-0.4 -1.8,-1.3 -2.3,-2.6 -0.6,-1.4 -0.6,-2.6 -0.3,-3.6 q 0.5,-1 1.8,-1.5 c 1.1,-0.5 2.1,0.1 3,0.6 l 0.2,0.1 0.6,-1 -0.2,-0.1 c -1.4,-0.9 -3,-1.1 -4.4,-0.5 -1.4,0.5 -2.4,1.5 -3,2.8 -0.5,1.3 -0.5,2.8 0.1,4.2 1,2.7 4,4 6.7,2.9 q 2.8,-1.1 3,-4.1 l 0.1,-0.3 -1.3,-0.1 c 0,0 0,0.3 0,0.3 z" /><path
         id="path3431"
         class="s2"
         d="m 149.6,183.8 c -0.2,-0.5 -4.3,-7.8 -4.3,-7.8 l -0.2,0.2 -1.8,1 4.9,8.8 5.4,-3 -0.6,-1.1 c 0,0 -3,1.6 -3.4,1.9 z" /><path
         id="path3433"
         class="s2"
         d="m 157.2,168.2 -0.2,0.1 -0.9,0.6 4.3,5.8 q 0.4,0.6 0.3,1.2 c -0.1,0.7 -0.7,1.2 -1,1.4 -0.3,0.2 -0.8,0.4 -1.3,0.3 q -0.7,-0.1 -1.1,-0.7 l -4.2,-5.7 -1.9,1.4 4.2,5.6 q 0.8,1.2 2,1.4 c 1.2,0.2 2.4,-0.5 3,-1 2,-1.4 2,-3.3 1.2,-4.5 z" /><path
         id="path3435"
         fill-rule="evenodd"
         class="s2"
         d="m 171.7,167.3 q 0,1.2 -1.2,2.3 l -3.1,3.1 -7,-7.3 3.1,-2.9 c 1.7,-1.7 3.4,-0.9 4,-0.2 0.5,0.5 0.7,1.1 0.7,1.7 q 0,0.3 -0.1,0.7 c 1,-0.4 2,-0.2 2.8,0.6 0.6,0.6 0.8,1.2 0.8,2 z m -5.8,-3.3 q -1.1,-1.2 -2.6,0.1 c 0,0 -0.3,0.3 -0.4,0.5 0.2,0.3 1.9,2 2.1,2.3 0.3,-0.3 0.8,-0.7 0.8,-0.7 0.2,-0.3 0.6,-0.7 0.6,-1.2 0,-0.3 -0.2,-0.7 -0.5,-1 z m 3.3,5.4 q 0.6,-0.7 0.7,-1.3 0,0 0,0 0,-0.6 -0.6,-1.2 c -0.1,0 -1.3,-1.3 -2.6,-0.1 0,0 -0.6,0.6 -0.9,0.9 0.3,0.3 2.2,2.2 2.5,2.5 0.2,-0.2 0.9,-0.8 0.9,-0.8 z" /><path
         id="path3437"
         class="s0"
         d="m 58.2,35.7 -4.2,1.2 0.5,1.5 c 0.5,1.8 0,3.8 -1.4,5 q -1.2,1.1 -2.8,1 c -1.5,-0.1 -3.2,-1.1 -4.6,-2.7 -1.6,-1.9 -2.4,-3.6 -2.3,-5.2 0,-1.1 0.6,-2 1.6,-2.9 1.1,-1 2.6,-1 4.5,-0.6 l 1.5,0.3 0.9,-4.1 -1.4,-0.3 c -3.2,-0.8 -6.4,0 -8.8,2 -4.5,4 -4.9,10.5 -0.8,15.2 3.7,4.3 10.3,4.8 14.6,1.1 3.1,-2.7 4.2,-6.2 3.1,-10 z" /><path
         id="path3439"
         class="s0"
         d="m 69.7,14.5 -4.3,2 c 0,0 2.4,5.2 3.2,6.9 -1.2,0.6 -2.4,1.2 -3.6,1.7 -0.9,-1.7 -3.3,-6.8 -3.3,-6.8 L 56,21 l 8.7,18.3 5.7,-2.6 c 0,0 -2.7,-5.7 -3.6,-7.6 1.3,-0.5 2.5,-1.1 3.7,-1.7 0.9,1.8 3.6,7.5 3.6,7.5 l 5.6,-2.7 -8.6,-18.3 z" /><path
         id="path3441"
         class="s0"
         d="m 89,25.9 q -0.4,-2.1 -0.9,-4.1 c 1.8,-0.4 6.5,-1.3 6.5,-1.3 l -0.8,-4.1 c 0,0 -4.7,0.9 -6.5,1.3 -0.2,-1.3 -0.4,-2.3 -0.7,-3.6 1.8,-0.3 6.8,-1.3 6.8,-1.3 L 92.6,8.7 91.1,9 l -11.5,2.3 4,19.9 13.1,-2.6 -0.8,-4.1 c 0,0 -5.1,1 -6.9,1.4 z" /><path
         id="path3443"
         class="s0"
         d="m 107.6,8.2 -6.3,-0.1 -0.1,1.5 -0.4,18.8 13.3,0.3 0.1,-4.4 c 0,0 -5.1,-0.1 -7,-0.2 0.1,-2.5 0.4,-15.9 0.4,-15.9 z" /><path
         id="path3445"
         class="s0"
         d="m 128,18.5 c -1.6,-1.2 -2.1,-1.7 -1.9,-2.4 0,-0.3 0.4,-1.4 1.6,-1.1 0.7,0.2 1.4,0.5 1.7,2.1 l 0.3,1.6 4.2,-1.4 -0.2,-1.3 c -0.6,-2.6 -2.7,-4.7 -5.5,-5.4 -1.9,-0.5 -3.9,-0.2 -5.5,0.7 -1.5,0.9 -2.5,2.3 -2.9,4 -1.1,4.1 1.7,6.1 3.6,7.5 1.9,1.3 2.4,1.9 2.1,3 q -0.1,0.5 -0.6,0.8 c -0.4,0.3 -0.9,0.3 -1.3,0.2 -1,-0.2 -1.4,-0.7 -1.8,-2 l -0.5,-1.5 -4.2,1.7 0.4,1.3 c 0.8,2.6 2.6,4.2 5.7,5 3.4,0.8 7.6,-0.8 8.6,-4.9 1.1,-4.3 -1.8,-6.5 -3.8,-7.9 z" /><path
         id="path3447"
         class="s0"
         d="m 143,29.3 c 1.6,0.8 5.9,3 5.9,3 l 1.9,-3.8 c 0,0 -4.3,-2.1 -5.9,-2.9 0.6,-1.2 1.1,-2.1 1.7,-3.3 1.6,0.9 6.2,3.2 6.2,3.2 l 1.9,-3.7 -11.9,-6 -0.7,1.3 -8.5,16.8 12,6.1 1.9,-3.8 c 0,0 -4.7,-2.3 -6.4,-3.1 q 1,-1.9 1.9,-3.8 z" /><path
         id="path3449"
         class="s0"
         d="m 166.6,31.2 -18.9,9.8 3.6,3.2 c 0,0 3.1,-1.7 4.2,-2.3 0.9,0.7 2.1,1.8 3,2.6 -0.4,1.2 -1.6,4.6 -1.6,4.6 l 5,4.3 8.1,-23.9 z" /><path
         id="path3451"
         class="s2"
         d="m 57.5,37 -2.2,0.6 0.1,0.5 c 0.7,2.2 0.1,4.6 -1.7,6.1 q -1.5,1.3 -3.4,1.2 c -1.9,-0.1 -3.8,-1.2 -5.4,-3 -1.8,-2.1 -2.7,-4.1 -2.5,-5.9 q 0.1,-2.1 1.9,-3.7 C 45.9,31.4 48,31.7 49.7,32 l 0.5,0.1 0.5,-2.1 -0.5,-0.1 c -2.8,-0.7 -5.7,0 -7.8,1.8 -4.1,3.6 -4.5,9.5 -0.8,13.7 3.4,3.9 9.4,4.4 13.2,1 2.8,-2.5 3.8,-5.5 2.8,-8.9 0,0 -0.1,-0.5 -0.1,-0.5 z" /><path
         id="path3453"
         class="s2"
         d="M 70.1,15.4 66.7,17 c 0,0 2.9,6.1 3.3,6.9 -0.8,0.3 -4.8,2.3 -5.5,2.6 -0.4,-0.8 -3.3,-6.9 -3.3,-6.9 L 57.4,21.4 65.2,38 69,36.2 c 0,0 -3.1,-6.7 -3.5,-7.6 0.7,-0.3 4.8,-2.2 5.5,-2.5 0.4,0.8 3.5,7.5 3.5,7.5 l 3.9,-1.8 -7.8,-16.6 z" /><path
         id="path3455"
         class="s2"
         d="M 88.2,27.1 C 88,26.3 87.1,21.8 87,21 c 0.8,-0.2 6.4,-1.3 6.4,-1.3 L 93,17.6 c 0,0 -5.6,1.1 -6.5,1.3 -0.1,-0.8 -0.9,-4.8 -1.1,-5.6 0.9,-0.1 6.8,-1.3 6.8,-1.3 l -0.4,-2.1 -11,2.2 3.6,17.9 11.1,-2.2 -0.4,-2.1 c 0,0 -6.1,1.2 -6.9,1.4 z" /><path
         id="path3457"
         class="s2"
         d="m 106.5,9.2 -4.2,-0.1 v 0.5 l -0.4,17.8 11.2,0.2 v -2.3 c 0,0 -6,-0.2 -6.9,-0.2 0,-0.9 0.3,-15.9 0.3,-15.9 z" /><path
         id="path3459"
         class="s2"
         d="m 127.9,14 c 1.4,0.3 2.2,1.2 2.5,2.8 l 0.1,0.6 2.2,-0.7 v -0.5 c -0.5,-2.2 -2.4,-4 -4.7,-4.6 -1.7,-0.5 -3.4,-0.2 -4.8,0.6 -1.2,0.7 -2.1,1.9 -2.4,3.3 -0.9,3.5 1.4,5.1 3.2,6.4 1.8,1.4 3,2.3 2.5,4.1 -0.2,0.8 -0.7,1.3 -1.1,1.5 -0.6,0.4 -1.4,0.5 -2,0.3 -1.4,-0.3 -2.1,-1 -2.6,-2.7 l -0.2,-0.5 -2.3,1 0.2,0.4 c 0.6,2.2 2.3,3.6 4.9,4.3 3,0.7 6.6,-0.6 7.5,-4.1 0.9,-3.7 -1.5,-5.5 -3.5,-6.9 -1.7,-1.3 -2.7,-2.1 -2.3,-3.4 0.3,-1.2 1.3,-2.3 2.8,-1.9 z" /><path
         id="path3461"
         class="s2"
         d="m 146.1,21 c 0.8,0.4 6.2,3.1 6.2,3.1 l 1,-1.9 -10,-5 -0.3,0.4 -8,15.9 10.1,5.1 1,-1.9 c 0,0 -5.5,-2.8 -6.3,-3.2 0.3,-0.7 2.4,-4.8 2.8,-5.6 0.8,0.4 5.9,3 5.9,3 l 0.9,-1.9 c 0,0 -5.1,-2.6 -5.8,-3 0.3,-0.7 2.2,-4.3 2.5,-5 z" /><path
         id="path3463"
         fill-rule="evenodd"
         class="s2"
         d="m 168.2,31.6 -6.8,20.1 -3.3,-3 c 0,0 1.4,-4 1.6,-4.6 -0.5,-0.3 -3.6,-3 -4,-3.4 -0.5,0.3 -4.3,2.2 -4.3,2.2 l -2,-1.7 17.7,-9.1 z M 160.3,42 c 0.4,-0.9 1.1,-3.2 1.6,-4.5 -1.3,0.6 -3.4,1.7 -4.2,2.2 0.6,0.6 2,1.7 2.6,2.3 z" /><path
         id="path3465"
         fill-rule="evenodd"
         class="s3"
         d="m 148.9,112.1 c 3.3,-4.5 -2.5,-8.9 -5.4,-6.7 -5,3.7 5.7,7.4 5.7,17.1 0,10.3 -16.6,9.1 -21.7,3.1 0,2.2 5.3,13.7 15.2,9.1 -11.3,12.3 -2.9,24.8 -8.7,24.8 -3,0 -2.8,2.9 -2.8,2.9 0,0 -2.3,-0.7 -2.2,-3 -1.7,0 -4.1,0.5 -4.2,3.8 0,0 -2,-0.5 -1.9,-3.8 -3.2,-0.1 -5.7,0.6 -5.7,3.3 0,0 -2,-1.5 -1.8,-3.9 -1.2,-1.4 -1.6,-7.7 8.9,-7.2 2.9,0.2 3.6,-7.3 1.6,-9.5 -1.3,-0.1 -6.2,-0.2 -10.7,-8.8 -2.2,0 -8.5,2.4 -8.5,5.9 0,3.9 7,4.9 7,4.9 -14.1,2.7 -5.4,12.2 -14.7,13.8 -3.7,0.7 -2.8,3.9 -2.8,3.9 0,0 -3.3,-1.1 -3.3,-3.9 -2.1,0 -4.4,1.3 -4.4,4.7 0,0 -2.6,-0.8 -2.6,-4.7 -3.9,0 -5,1.8 -4.5,3.9 0,0 -2.9,-1.3 -2.1,-5 -1.8,-4.5 0.6,-8.4 10.2,-7.3 6.6,0.9 6.8,-9.5 6.8,-10.9 -11.1,-4.8 4.9,-18.7 12.2,-21.1 l -3.5,-5.9 c 0,0 -6,7.1 -13,8.9 -1.1,-2.2 -4.8,-2.5 -7.5,-1.2 -0.9,0.5 -1.7,1.1 -2.3,2 0,0 -1,1.1 -0.7,2.9 q -0.1,0 -0.2,0 -0.2,0 -0.3,0 -0.5,-0.1 -0.9,-0.3 v 13.6 h 1.3 v 4.3 h -2.2 c 1.2,0.5 2,1.5 2.1,2.7 0.2,1.9 -1.3,3.4 -3.2,3.6 -1.9,0.1 -3.6,-1.2 -3.7,-3 -0.1,-1.5 0.7,-2.8 2.1,-3.3 h -2.4 v -4.3 h 1.3 v -15.4 c 0,0 -1.1,-1.1 -1.1,-3.9 0,0 0.3,-2.3 -1.3,-0.7 0,0 -2.3,0.1 -0.5,-2.2 0,0 0.6,-2.3 -0.8,-1.2 -0.1,-5.3 1.1,-2.6 1.1,-2.6 0.4,-0.9 1.2,-1.9 2.6,-2.7 V 88.6 C 75,88.5 74.6,88.4 74.1,88.2 72.6,87.8 72.4,86.1 72.6,85.1 70.3,82.4 72,82 72.7,80.7 c -0.8,-1 -1.3,-1.6 -0.8,-3.1 0.5,-1.6 1.6,-2.1 3.4,-2.4 q 0,0 0.1,0 V 74 q 0,0 0,0 -0.2,0 -0.5,0 0,-0.1 -0.1,-0.1 -0.2,0 -0.4,-0.1 0,0 -0.1,0 -0.4,-0.1 -0.7,-0.3 -0.1,0 -0.1,0 -0.2,0 -0.3,-0.1 0,0 -0.1,0 -0.1,-0.1 -0.2,-0.2 0,0 -0.1,0 -0.1,0 -0.1,-0.1 -0.1,0 -0.1,0 Q 72.5,73 72.4,73 c 0.3,0 1.4,-0.4 2.7,-1.2 -3.7,-1 -6.6,-4.1 -7,-8.1 -0.4,-5 3.5,-9.4 8.8,-9.9 2.2,-0.1 4.3,0.4 6.1,1.5 q 0,0 0,0 0.3,0.2 0.5,0.3 0.1,0.1 0.1,0.1 0.3,0.2 0.5,0.4 0,0 0.1,0.1 0.4,0.3 0.8,0.7 0.1,0.1 0.2,0.2 0.1,0.2 0.2,0.4 0.1,0.1 0.3,0.3 0.1,0.1 0.2,0.3 0.1,0.2 0.2,0.4 0.1,0.1 0.2,0.3 0.2,0.3 0.3,0.7 0.1,0.1 0.1,0.2 0.2,0.3 0.2,0.6 0.1,0.1 0.1,0.2 0.1,0.3 0.2,0.6 0,0.1 0,0.3 0.1,0.4 0.1,0.8 c 0.3,2.4 -0.5,4.7 -2,6.4 -1.8,2.4 -3.6,3.8 -5.2,4.6 v 2 c 1.1,0.4 2.4,1.3 4,2.8 3.8,3.6 10.4,4.3 14.5,4.5 2.8,-2.8 3.9,-7.3 3.9,-7.3 -2.9,-1 -4,-5.1 -2.1,-7 0,2.8 8.1,2.9 8.1,-3.2 0,-0.9 1.5,-4.2 -1.4,-3.7 2.3,-4.7 3.5,-3 5,-3.2 -2,-2.7 1.3,-3.4 2.6,-3.4 -0.4,6.7 16.4,4.8 17.4,5.1 1.3,3.3 3.1,2 4.4,4.7 l -1.2,2 -1.3,-0.5 0.1,1.6 c -1.1,1 -1.7,1.8 -2.1,2.5 -0.5,0.7 -0.3,-0.2 -0.8,0.5 0.1,-0.8 -0.3,0.1 -0.8,-0.3 -0.3,-0.2 -0.9,-0.3 -1.8,-0.3 -1.6,0 -2.5,1.3 -3.1,2.4 -0.5,0.9 -0.1,3.4 4.2,2 -0.6,1.8 -0.4,3.8 0,6.8 -0.4,-1.8 -8.3,-6.3 -8.3,2.2 0,6.3 6.9,6.5 6.9,3.2 5.3,6.7 -2.8,11.1 -5.9,9.3 l -0.3,3.8 c 5.3,5.7 -0.1,24.5 15.2,24.5 2.4,0 4.1,-2 4.3,-3.6 1,-9.1 -9,-10 -9,-20 0,-9 12.5,-12.6 12.5,-17.9 0,-5.4 -7.1,-4.5 -7.1,0 -2.9,-10 16.7,-13.8 16.7,0 0,8.2 -12.6,10.1 -15.7,19 1.1,-1.5 2.7,-2.7 4.6,-3.4 4.7,-1.8 9.7,-0.1 11.2,3.7 1.4,3.8 -1.2,8.4 -5.9,10.1 z m -50,-14.2 c -0.6,-1.3 -1.4,-2.8 -2.2,-2.7 -1.6,3.4 -9.1,5.4 -11.3,1.3 3.4,-0.7 3.4,-3.8 0.7,-5.3 -2.7,-1.1 -5.1,-1.5 -6,-1.6 v 19.1 c 0.4,0.1 0.8,0 1.3,-0.2 3.4,-1.2 5.9,-4 9.7,-6.2 4.6,-2.7 6.8,-3.8 7.8,-4.4 z M 137,71.8 c 2.1,-0.2 3.8,-1.4 4.1,-2.8 q 0,0.1 0,0.3 c 0.3,2.7 -1.7,5.1 -4.4,5.3 -2,0.2 -3.8,-0.8 -4.7,-2.3 0.3,-0.5 0.7,-1.1 1.1,-1.6 0.9,0.8 2.3,1.2 3.9,1.1 z" /><path
         id="path3467"
         fill-rule="evenodd"
         class="s1"
         d="m 71.1,136.5 c 1,0 3.5,-0.6 3.5,-1.1 v -18.2 c -1.2,0 -2.2,1.9 -2.2,1.9 0,-1.7 0.7,-3.1 1.1,-3.5 -0.6,-0.6 -2.3,-0.4 -2.3,-0.4 0,0 -0.6,0 -2.2,1.6 0,-1.7 1.9,-3.8 2.3,-4.2 0,0 -0.7,-0.4 -1.8,-0.4 0,0 -1.1,0 -2.5,1.1 0,-1.4 2.1,-3.8 3.5,-3.8 0,-1.8 5.2,-1.8 7.5,-1.8 5.5,0 24.5,-12.1 24.5,-12.1 -4.7,0 -6.6,-0.7 -6.6,-0.7 -0.7,-1.4 -1.4,-2.8 -2.2,-2.7 -1.6,3.4 -9.2,5.4 -11.3,1.2 1.8,0.6 3.6,-0.1 4,-1.5 0.5,-1.4 -0.7,-3 -2.5,-3.5 q -0.4,-0.2 -0.8,-0.2 0,0 0,0 0,0 0,-0.1 C 80.3,87 78,86.7 77.1,86.6 v 19.1 c -0.8,-0.1 -1.7,-0.2 -2.5,-0.2 V 88.1 c 0,-1.8 -1.3,-2.6 -2.2,-2.6 -0.4,0 -0.8,-0.1 -1.3,-0.3 -1.5,-0.5 -1.7,-2.1 -1.5,-3.1 -2.4,-2.7 -0.6,-3.2 0.1,-4.4 -0.8,-1.1 -1.3,-1.6 -0.8,-3.2 0.5,-1.5 1.6,-2 3.3,-2.3 q 0.1,0 0.2,-0.1 c 0.4,0.5 2,1 2.2,1 v -2.3 c 0,0 -1.2,0.3 -2.2,0.2 q 0,0 0,0 -0.3,0 -0.5,-0.1 -0.1,0 -0.1,0 -0.2,-0.1 -0.4,-0.1 -0.1,0 -0.1,0 -0.4,-0.1 -0.8,-0.3 0,0 -0.1,0 -0.1,-0.1 -0.2,-0.1 -0.1,-0.1 -0.1,-0.1 -0.1,0 -0.3,-0.1 0,0 0,0 -0.1,-0.1 -0.2,-0.1 0,0 0,0 Q 69.5,70 69.4,70 c 0.3,0 1.4,-0.5 2.7,-1.2 q -0.1,0 -0.1,0 C 69.2,67.4 67.2,64 67.2,60 c 0,-4.2 2.2,-7.8 5.3,-9 q 0.7,-0.1 1.4,-0.2 c 2.2,-0.2 4.3,0.4 6,1.4 q 0,0 0,0.1 0.3,0.1 0.6,0.3 0,0.1 0.1,0.1 0.2,0.2 0.5,0.4 0,0 0,0 0.5,0.4 0.8,0.8 0.1,0.1 0.2,0.2 0.2,0.2 0.3,0.3 0.1,0.2 0.2,0.3 0.1,0.2 0.3,0.4 0.1,0.2 0.2,0.4 0.1,0.1 0.2,0.2 0.2,0.4 0.3,0.7 0.1,0.2 0.1,0.3 0.1,0.2 0.2,0.5 0.1,0.2 0.1,0.3 0.1,0.3 0.1,0.6 0.1,0.1 0.1,0.2 0.1,0.5 0.1,0.9 c 0.2,2.4 -0.6,4.6 -2,6.4 -1.8,2.3 -3.6,3.7 -5.2,4.5 V 74 c 0,0 2.6,0.9 5.8,2.3 q 1.3,0.8 2.7,1.4 0,0 0,0 c 5.2,2.7 10.6,6.9 8.8,11.9 5.1,0 4.7,-6.6 3.6,-7.7 1.7,-1.7 5,-9.2 5,-10.6 0,0 -6.7,-1.4 -5.6,-6.1 0.1,1.1 1.4,1.8 3,1.8 10.7,0 6.9,-13.8 1.1,-8 2.4,-4.8 6,-3.7 7.6,-3.9 1.1,0 2.9,0 2.9,0 -2.3,-2.3 1.1,-6.6 2.4,-6.6 -0.5,6.7 13.6,8 14.7,8.3 1.3,3.3 3.1,2 4.3,4.7 L 132.2,63.4 131,63 v 1.5 c -2.1,2.1 -2.4,3.2 -3.3,4.5 0.1,-1.2 0.3,-2.1 -2.1,-2.1 -1.7,0 -2.5,1.3 -3.1,2.4 -0.6,1 -0.2,3.4 4.1,2.1 -0.5,1.7 -0.3,3.7 0,6.8 -0.4,-1.9 -8.3,-6.3 -8.3,2.2 0,6.3 6.9,6.4 6.9,3.1 5.4,6.8 -2.8,11.2 -5.9,9.3 l -0.2,3.9 c 3.5,3.7 2.3,13.1 5.4,19.1 1.7,4.5 4.6,7.9 10.7,7.9 6.4,0 6.9,-4.7 6.9,-5.8 0,-9.1 -9.5,-11.3 -9.5,-19.9 0,-8.5 12.9,-12 12.9,-18.2 0,-7.4 -10.1,-6.2 -10.6,-0.6 q 0,0.2 0,0.5 c -2.8,-10 16.8,-13.9 16.8,-0.1 0,8.3 -12.7,10.2 -15.8,19.1 1.1,-1.5 2.7,-2.7 4.7,-3.5 4.7,-1.7 9.7,-0.1 11.1,3.7 1.5,3.9 -1.2,8.4 -5.9,10.2 q 0,0 0,0 0,0 0,0 c 1.8,-0.7 3.1,-2.5 3.1,-4.6 0,-2.7 -2.2,-4.8 -4.9,-4.8 -2.5,0 -4.6,1.9 -4.9,4.4 -0.6,3.3 7.1,7.2 7.1,15.4 0,10.2 -16.6,9 -21.8,3.1 0,2.2 5.3,13.7 15.3,9.1 -11.3,12.3 -2.9,24.8 -8.7,24.8 -3.1,0 -2.8,2.9 -2.8,2.9 -0.8,-0.8 -1.3,-2.5 -0.8,-3 H 126 c -1.7,-0.1 -4.1,0.5 -4.2,3.7 -0.9,-0.8 -1,-2.9 -0.2,-3.7 h -1.7 c -3.2,-0.2 -5.8,0.6 -5.8,3.2 -0.6,-0.6 -1.1,-3 -0.2,-3.9 h -1.6 c 0,-4.8 3.3,-5.9 11.6,-5.9 0,0 6.8,-8.7 1.4,-14.1 -1.4,0 -7.8,0.3 -8.4,-5.3 -1.4,-0.3 -3,-0.3 -4.7,-0.1 -2.2,0 -8.6,2.4 -8.6,5.9 0,3.8 7,4.9 7,4.9 -14.1,2.6 -5.3,12.2 -14.6,13.8 -3.7,0.6 -2.9,3.8 -2.9,3.8 -1.1,-1.1 -1.9,-3.3 -1.4,-3.8 0,0 -1,0 -1.8,0 -2.1,0 -4.4,1.2 -4.5,4.6 -0.7,-0.7 -1.6,-3.1 0,-4.7 h -2.5 c -4,0 -5,1.8 -4.6,4 0,0 -1.9,-3 0.2,-5.1 h -2.2 c 0,-6.7 4.8,-5.5 10.9,-5.5 3.9,0 9.6,-4.9 9.6,-13.1 0,0 -3.8,-1.5 -3.8,-5.3 0,-9 21.7,-10.1 21.7,-17.5 0,-3.1 -2.6,-4.4 -4.5,-4.4 0.5,0.5 3.4,6.6 -4.7,6.6 l -3.5,-5.9 c 0,0 -6,7 -13,8.9 -1.1,-2.2 -4.8,-2.6 -7.6,-1.2 -0.9,0.4 -1.7,1.1 -2.2,1.9 0,0 -1.1,1.2 -0.7,3 0,0 -1.9,-1.7 -1.1,-3.4 -0.5,-0.3 -1.3,-0.5 -2.1,-0.5 -0.2,1.4 0.5,2.9 1.7,3.5 v 13.7 h 1.3 l 0.1,4.2 -2.2,0.1 c 1.1,0.4 1.9,1.4 2.1,2.7 0.1,1.8 -1.3,3.4 -3.2,3.6 -1.9,0.1 -3.6,-1.2 -3.8,-3.1 v -0.1 c 0.3,0.8 1.1,1.4 2.1,1.4 1.1,0 2.1,-0.9 2.1,-2.1 0,-1.2 -1,-2.1 -2.1,-2.1 q -0.4,0 -0.8,0.1 0.4,-0.3 0.8,-0.4 h -2.3 m 74.7,-29.7 z M 83.1,88.2 q 0.1,0 0.1,0 z m 0,0 z M 79.4,60.1 c 0,-1.9 -1.6,-3.5 -3.6,-3.5 -1.6,0 -2.9,1.1 -3.4,2.5 q 0,0.1 0,0.1 -0.1,0.4 -0.1,0.9 c 0,2 1.6,3.6 3.5,3.6 q 0.1,0 0.1,0 c 0.2,0.8 0.3,1.8 0,2.4 1.9,-1.6 3.5,-3.7 3.5,-6 z m -7,-0.9 z m 0,0 z m 0,0 z m 2.7,23.6 c 0,-0.2 -2.2,-0.7 -3.3,-0.7 -0.5,0 -0.7,0.7 -0.7,0.9 0,0.2 0.3,0.8 0.7,0.8 1.1,0 3.3,-0.7 3.3,-1 z M 75.8,80 c 0,-0.3 -3,-1.4 -4.5,-1.5 -0.7,-0.1 -1,0.8 -1,1.1 0,0.3 0.2,1.1 0.8,1.2 1.5,0.1 4.7,-0.5 4.7,-0.8 z M 76,77 c 0.1,-0.3 -2.9,-2.1 -4.5,-2.5 -0.7,-0.2 -1.2,0.7 -1.3,1 -0.1,0.3 0,1.3 0.7,1.4 1.6,0.5 5,0.4 5.1,0.1 z M 72.5,59.1 q 0,0 0,0 -0.1,0.1 -0.1,0.1 z m 0.1,-0.2 z m -0.1,0.2 q 0,-0.1 0.1,-0.2 -0.1,0.1 -0.1,0.2 z m -0.1,0.1 z m 0.2,80 z M 72.5,51 Z" /><path
         id="path3469"
         class="s4"
         d="m 128.9,69.2 c 1,1.6 2.8,2.6 4.7,2.4 2.7,-0.3 4.7,-2.7 4.5,-5.4 q 0,-0.1 -0.1,-0.3 c -0.2,1.4 -1.9,2.6 -4,2.8 -1.6,0.2 -3.1,-0.3 -3.9,-1.1 -0.4,0.6 -0.8,1.1 -1.2,1.6 z" /><path
         id="path3471"
         class="s2"
         d="m 122.3,60 1.7,0.1 -0.8,1.2 c 0,0 -1.2,0.4 -0.9,-1.3 z m -4.1,0 h 2.5 c 0,0 -0.1,2 1.7,2.2 l -0.4,0.6 c 0,0 -4.8,-1.2 -3.8,-2.8 z" /><path
         id="path3473"
         fill-rule="evenodd"
         class="s5"
         d="m 70.9,76.9 c -0.7,-0.1 -0.8,-1.1 -0.7,-1.4 0.1,-0.3 0.6,-1.2 1.3,-1 1.6,0.4 4.6,2.2 4.5,2.5 -0.1,0.3 -3.5,0.4 -5.1,-0.1 z m 0.2,3.9 c -0.6,-0.1 -0.8,-0.9 -0.8,-1.2 0,-0.3 0.3,-1.2 1,-1.1 1.5,0.1 4.5,1.2 4.5,1.5 -0.1,0.3 -3.2,0.9 -4.7,0.8 z m 3.5,-10 v 2.3 c -0.2,0 -1.8,-0.5 -2.2,-1 V 71 c 1,0.1 2.2,-0.2 2.2,-0.2 z m 0.5,12 c 0,0.3 -2.2,1 -3.3,1 -0.4,0 -0.7,-0.6 -0.7,-0.8 0,-0.2 0.2,-0.9 0.7,-0.9 1.1,0 3.3,0.5 3.3,0.7 z m -3.8,29.8 c -0.4,0.4 -2.3,2.5 -2.3,4.2 0,0 -1.3,-2.2 0.5,-4.6 1.1,0 1.8,0.4 1.8,0.4 z m 25.5,22.5 c 0,8.2 -5.7,13.1 -9.6,13.1 -6.1,0 -10.9,-1.2 -10.9,5.5 -1.8,-4.4 0.6,-8.4 10.1,-7.2 6.7,0.8 6.9,-9.5 6.9,-10.9 -11.1,-4.8 4.8,-18.7 12.2,-21.1 8.1,0 5.2,-6.1 4.7,-6.6 1.9,0 4.5,1.3 4.5,4.4 0,7.4 -21.7,8.5 -21.7,17.5 0,3.8 3.8,5.3 3.8,5.3 z M 65.1,60.7 c -0.4,-4.6 2.8,-8.7 7.4,-9.7 -3.1,1.2 -5.3,4.8 -5.3,9 0,4 2,7.4 4.8,8.8 -3.7,-1.1 -6.6,-4.2 -6.9,-8.1 z m 35.3,6.3 c 2.3,0 5.1,-1.4 5.1,-5 0,-0.9 -1,-3.6 -4,-3 5.8,-5.8 9.6,8 -1.1,8 z M 85.6,77.7 c 3.4,1.3 7.2,1.6 10,1.7 2.8,-2.8 3.9,-7.2 3.9,-7.2 -2.9,-1 -4,-5.1 -2.2,-7 h 0.1 q 0,0 0,0 c -1.1,4.7 5.6,6.1 5.6,6.1 0,1.4 -3.3,8.9 -5,10.6 1.1,1.1 1.5,7.7 -3.6,7.7 1.8,-5 -3.6,-9.2 -8.8,-11.9 z M 72.4,59.2 c 0.5,-1.5 1.8,-2.6 3.4,-2.6 2,0 3.6,1.6 3.6,3.5 0,2.3 -1.6,4.4 -3.5,6 0.3,-0.6 0.2,-1.6 0,-2.4 q 0,0 -0.1,0 c -1.9,0 -3.5,-1.6 -3.5,-3.6 0.1,1.3 1.3,2.2 2.6,2.1 1.3,-0.1 2.3,-1.2 2.2,-2.4 -0.1,-1.3 -1.3,-2.2 -2.6,-2.1 -1,0 -1.8,0.7 -2.1,1.5 z m 36.7,-4.1 c -2,-2.7 3.9,-6.6 5.3,-6.6 -1.3,0 -4.7,4.3 -2.4,6.6 0,0 -1.8,0 -2.9,0 z m -38.6,54.4 c -1.4,0 -3.5,2.4 -3.5,3.8 0,-5.2 2.8,-4.9 2.8,-4.9 0.4,-0.9 1.1,-1.9 2.6,-2.6 V 85.5 c 0.9,0 2.2,0.8 2.2,2.6 v 17.4 c 0.8,0 1.7,0.1 2.5,0.2 0.3,0 0.7,0 1.2,-0.2 3.5,-1.2 6,-4 9.7,-6.2 4.7,-2.8 6.8,-3.9 7.9,-4.4 0,0 1.9,0.7 6.6,0.7 0,0 -19,12.1 -24.5,12.1 -2.3,0 -7.5,0 -7.5,1.8 z m 6.6,-37.4 c 1.1,0.5 2.4,1.3 4,2.9 q 0.8,0.7 1.8,1.3 C 79.7,74.9 77.1,74 77.1,74 Z m 6,16.1 q 0.4,0 0.8,0.1 c 1.8,0.6 3,2.2 2.5,3.6 -0.4,1.4 -2.2,2.1 -4,1.5 3.4,-0.7 3.4,-3.7 0.7,-5.2 z m 40.8,61.5 c -8.3,0 -11.6,1.2 -11.6,6 -1.2,-1.3 -1.5,-7.7 9,-7.1 2.9,0.1 3.5,-7.4 1.5,-9.6 -1.2,-0.1 -6.1,-0.1 -10.6,-8.7 1.7,-0.3 3.3,-0.2 4.7,0.1 0.6,5.5 7,5.3 8.4,5.3 5.4,5.4 -1.4,14 -1.4,14 z m 4.3,9.7 c 0,0 -2.3,-0.7 -2.2,-3 h 1.4 c -0.5,0.5 0,2.2 0.8,3 z m -15.9,-3.7 h 1.6 c -0.9,0.9 -0.4,3.3 0.2,3.9 0,0 -1.9,-1.4 -1.8,-3.9 z m 20.3,-57.8 c 0,8.7 9.5,10.9 9.5,20 0,1.1 -0.5,5.8 -6.9,5.8 -6.1,0 -9,-3.5 -10.7,-7.9 1.7,3.1 4.5,5.4 9.7,5.4 2.5,0 4.1,-2.1 4.3,-3.7 1,-9.1 -8.9,-10 -8.9,-20 0,-9 12.5,-12.5 12.5,-17.9 0,-5.1 -6.7,-4.5 -7.2,-0.4 0.5,-5.6 10.6,-6.8 10.6,0.6 0,6.2 -12.9,9.7 -12.9,18.1 z m -59.1,17.7 c -0.4,0.4 -1.1,1.8 -1.1,3.5 0,0 -1.2,-1.1 -1.2,-3.9 0,0 1.7,-0.2 2.3,0.4 z m 75.4,-11.1 c 0,2.1 -1.3,3.8 -3.1,4.6 3.3,-4.6 -2.4,-8.9 -5.4,-6.8 -0.7,0.6 -1.1,1.2 -1.3,1.8 0.3,-2.5 2.4,-4.5 4.9,-4.5 2.7,0 4.9,2.2 4.9,4.9 z m -27.1,55.6 c 0,0 -2.1,-0.5 -1.9,-3.7 h 1.7 c -0.8,0.8 -0.7,2.8 0.2,3.7 z M 75.5,141.2 c 0,1.2 -0.9,2.1 -2.1,2.1 -1,0 -1.8,-0.6 -2.1,-1.5 0,-1 0.5,-2 1.3,-2.6 q 0.4,-0.1 0.8,-0.1 c 1.2,0 2.1,0.9 2.1,2.1 z m 9.9,18.3 c 0,0 -2.5,-0.7 -2.5,-4.7 h 2.5 c -1.6,1.6 -0.7,4 0,4.7 z m -8,-41.7 c -0.8,1.6 1.1,3.4 1.1,3.4 q -0.1,0 -0.2,0 -0.2,0 -0.4,-0.1 -0.4,-0.1 -0.9,-0.3 c -1.2,-0.6 -1.9,-2.1 -1.7,-3.5 0.8,0 1.6,0.2 2.1,0.5 z m -6.3,18.6 -0.1,-1.9 h 1.4 v -15.4 c 0,0 1,-1.9 2.2,-1.9 v 18.2 c 0,0.5 -2.5,1 -3.5,1 z m 5.2,17.3 h 2.2 c -2.1,2.1 -0.2,5.1 -0.2,5.1 0,0 -2.9,-1.3 -2,-5.1 z m 16.8,5 c 0,0 -3.2,-1 -3.2,-3.8 0.8,0 1.8,0 1.8,0 -0.5,0.5 0.3,2.7 1.4,3.8 z" /><path
         id="line3475"
         class="s6"
         d="M 179.8,84" /><path
         id="path3477"
         class="s2"
         d="m 31.4,124.7 -0.1,-0.3 V 124 c -0.2,-1.3 -0.5,-3.8 -2.4,-4.2 q -0.8,-0.2 -1.6,0.2 0.2,-0.9 0,-1.6 c -0.7,-1.8 -3.2,-1.8 -4.5,-1.8 H 22.4 22 c -1.3,-0.3 -3.7,-0.7 -4.7,0.9 q -0.4,0.7 -0.3,1.6 -0.7,-0.5 -1.5,-0.5 c -1.9,0.1 -2.7,2.5 -3.1,3.7 l -0.1,0.4 -0.2,0.3 c -0.6,1.2 -1.8,3.3 -0.5,4.8 q 0.5,0.6 1.4,0.8 -0.7,0.6 -0.9,1.3 c -0.5,1.9 1.5,3.3 2.5,4 l 0.4,0.3 0.2,0.3 c 0.9,0.9 2.6,2.7 4.4,1.9 q 0.7,-0.3 1.2,-1 0.3,0.8 0.9,1.2 c 1.7,1.1 3.6,-0.4 4.7,-1.2 l 0.3,-0.2 0.4,-0.2 c 1.1,-0.5 3.4,-1.6 3.2,-3.5 q -0.1,-0.8 -0.7,-1.4 0.9,-0.1 1.5,-0.6 c 1.5,-1.2 0.8,-3.5 0.3,-4.8 z" /><path
         id="path3479"
         class="s4"
         d="m 23,126.3 c 10.8,6.4 7.4,-0.7 7.2,-1.7 -0.2,-1 -0.3,-8.8 -7.2,1.7 z" /><path
         id="path3481"
         class="s4"
         d="m 22.3,127.9 c -2.7,12.2 2.9,6.9 3.8,6.3 0.9,-0.5 8.3,-3 -3.8,-6.3 z" /><path
         id="path3483"
         class="s4"
         d="m 20.6,127.7 c -12.5,1.2 -5.7,4.9 -4.9,5.6 0.8,0.7 5.4,6.9 4.9,-5.6 z" /><path
         id="path3485"
         class="s4"
         d="m 20.2,126 c -5,-11.5 -6.4,-3.8 -6.8,-2.9 -0.5,1 -5,7.3 6.8,2.9 z" /><path
         id="path3487"
         class="s2"
         d="m 198.4,123 -0.2,-0.3 -0.1,-0.4 c -0.4,-1.2 -1.1,-3.6 -3.1,-3.7 q -0.7,0 -1.5,0.5 0.1,-0.9 -0.3,-1.6 c -1,-1.6 -3.4,-1.2 -4.7,-0.9 h -0.4 -0.4 c -1.3,0 -3.8,0 -4.4,1.8 q -0.3,0.7 -0.1,1.6 -0.8,-0.4 -1.6,-0.2 c -1.8,0.4 -2.2,2.9 -2.3,4.2 l -0.1,0.4 -0.1,0.3 c -0.4,1.3 -1.2,3.6 0.3,4.8 q 0.6,0.5 1.5,0.6 -0.6,0.6 -0.7,1.4 c -0.1,1.9 2.1,3 3.3,3.5 l 0.3,0.2 0.3,0.2 c 1.1,0.8 3.1,2.3 4.7,1.2 q 0.6,-0.4 0.9,-1.2 0.5,0.7 1.2,1 c 1.8,0.8 3.5,-1 4.4,-1.9 l 0.3,-0.3 0.3,-0.3 c 1,-0.7 3,-2.1 2.5,-4 q -0.2,-0.7 -0.8,-1.3 0.8,-0.2 1.3,-0.8 c 1.3,-1.5 0.1,-3.6 -0.5,-4.8 z" /><path
         id="path3489"
         class="s4"
         d="m 188.8,125.1 c -9.3,-8.2 -1.7,-7.3 -0.6,-7.4 1.1,0 8.5,-2.4 0.6,7.4 z" /><path
         id="path3491"
         class="s4"
         d="m 187.5,126.3 c -10.7,6.4 -7.4,-0.7 -7.2,-1.7 0.2,-1 0.3,-8.8 7.2,1.7 z" /><path
         id="path3493"
         class="s4"
         d="m 188.2,127.9 c 2.7,12.2 -2.9,6.9 -3.8,6.3 -0.9,-0.5 -8.3,-3 3.8,-6.3 z" /><path
         id="path3495"
         class="s4"
         d="m 189.9,127.7 c 12.5,1.2 5.7,4.9 4.9,5.6 -0.8,0.7 -5.4,6.9 -4.9,-5.6 z" /><path
         id="path3497"
         class="s4"
         d="m 190.3,126 c 5,-11.5 6.5,-3.8 6.9,-2.9 0.4,1 4.9,7.3 -6.9,2.9 z" /><path
         id="path3499"
         class="s2"
         d="m 192.8,126.4 q -0.1,-0.2 -0.1,-0.3 c 1,-0.7 2.1,-1.5 2.1,-1.5 l -0.1,-0.3 c 0,0 -1.3,0.3 -2.5,0.5 -0.6,-1 -1.6,-1.7 -2.8,-1.8 -0.4,-1.1 -0.8,-2.3 -0.8,-2.3 h -0.2 c 0,0 -0.2,1.2 -0.4,2.4 -0.7,0.2 -1.4,0.6 -1.9,1.2 q -0.3,0.5 -0.6,1.1 c -1.2,0 -2.5,0 -2.5,0 v 0.2 c 0,0 1.2,0.6 2.3,1.1 q 0,0.2 0,0.3 c 0.1,1 0.5,1.9 1.3,2.5 -0.4,1.3 -0.9,2.6 -0.9,2.6 l 0.3,0.2 c 0,0 1,-1.1 1.9,-2 q 0.7,0.2 1.4,0.2 0.8,-0.1 1.5,-0.5 c 1,0.8 2.2,1.6 2.2,1.6 l 0.2,-0.1 c 0,0 -0.7,-1.3 -1.3,-2.4 0.7,-0.8 0.9,-1.7 0.9,-2.7 z" /><path
         id="path3501"
         class="s4"
         d="m 188.8,124.5 c -0.6,0.1 -1.1,0.3 -1.5,0.8 -0.4,0.4 -0.5,1 -0.5,1.6 0.1,1.2 1.2,2.1 2.4,2 0.6,0 1.1,-0.3 1.5,-0.8 0.4,-0.4 0.6,-1 0.5,-1.6 -0.1,-1.2 -1.2,-2.1 -2.4,-2 z" /><path
         id="path3503"
         class="s4"
         d="m 21.7,125.1 c 9.4,-8.2 1.7,-7.3 0.6,-7.4 -1,0 -8.4,-2.4 -0.6,7.4 z" /><path
         id="path3505"
         class="s2"
         d="m 25.2,126.7 c 1.1,-0.5 2.3,-1.1 2.3,-1.1 v -0.2 c 0,0 -1.3,0 -2.5,0 q -0.2,-0.6 -0.6,-1.1 c -0.5,-0.6 -1.2,-1 -1.9,-1.2 -0.2,-1.2 -0.3,-2.4 -0.3,-2.4 h -0.3 c 0,0 -0.4,1.2 -0.8,2.3 -1.1,0.1 -2.2,0.8 -2.8,1.8 -1.2,-0.2 -2.5,-0.5 -2.5,-0.5 l -0.1,0.3 c 0,0 1.1,0.8 2.1,1.5 q 0,0.1 0,0.3 c -0.1,1 0.2,1.9 0.8,2.7 -0.6,1.1 -1.3,2.4 -1.3,2.4 l 0.2,0.1 c 0,0 1.2,-0.8 2.2,-1.6 q 0.7,0.4 1.5,0.5 0.7,0 1.5,-0.2 c 0.9,0.9 1.9,2 1.9,2 l 0.2,-0.2 c 0,0 -0.5,-1.3 -0.8,-2.6 0.7,-0.6 1.1,-1.5 1.2,-2.5 q 0,-0.1 0,-0.3 z" /><path
         id="path3507"
         class="s4"
         d="m 23.2,125.3 c -0.4,-0.5 -0.9,-0.7 -1.5,-0.8 -1.2,-0.1 -2.3,0.8 -2.4,2 -0.1,0.6 0.1,1.2 0.5,1.6 0.4,0.5 0.9,0.8 1.5,0.8 1.2,0.1 2.3,-0.8 2.4,-2 0.1,-0.6 -0.1,-1.1 -0.5,-1.6 z" /><path
         id="path3509"
         class="s2"
         d="m 23,73 c -5.2,-0.9 -10.2,2.6 -11.2,7.9 -0.9,5.2 2.6,10.2 7.9,11.2 C 24.9,93 30,89.5 30.9,84.2 31.8,79 28.3,73.9 23,73 Z" /><path
         id="path3511"
         class="s4"
         d="M 25.2,80.3 Q 25.1,80.2 24.8,80.1 C 24,79.5 22.5,78.5 22.4,78.5 Q 22.1,78.2 21.8,78 20.8,77.3 19.9,76.8 19.6,76.6 19.2,76.5 C 18.3,76 17.4,75.7 16.4,75.6 q -1.2,0.9 -2.1,2.2 c 2.4,0.9 4.8,2.2 9.7,5.3 0.2,-0.7 1.2,-2.7 1.2,-2.8 z" /><path
         id="path3513"
         class="s4"
         d="m 23,85.5 c 0.1,-0.2 0.5,-1.3 0.7,-1.7 -5,-3.2 -7.4,-4.5 -9.8,-5.4 q -0.5,1 -0.8,2.2 c 1.4,1.9 5.1,3.7 9.9,4.9 z" /><path
         id="path3515"
         class="s4"
         d="m 22.4,77.6 c 1.9,-1.1 4,-0.8 5.7,-0.2 Q 27.2,76.1 25.9,75.3 C 24.3,75 22.2,75 20.5,76.3 q 0.9,0.6 1.9,1.3 z" /><path
         id="path3517"
         class="s4"
         d="m 14.9,86.6 q 0.4,0.2 0.8,0.5 0.9,0.4 1.8,0.8 0.4,0.1 0.8,0.2 c 0.9,0.3 3.1,0.9 3.3,0.9 0,0 0.8,-2 1.1,-2.8 -3.7,-0.9 -7.8,-2.6 -9.8,-4.7 q -0.1,1.5 0.2,2.9 c 0.4,0.9 1,1.6 1.8,2.2 z" /><path
         id="path3519"
         class="s4"
         d="M 21.7,89.8 20.9,89.6 Q 19.8,89.3 18.6,89 c 0.4,0.8 1,1.5 1.7,2 q 1.3,0.1 2.5,-0.1 c -0.6,-0.5 -1.1,-1.1 -1.1,-1.1 z" /><path
         id="path3521"
         class="s4"
         d="m 29.5,80.1 q -0.3,-0.9 -0.7,-1.7 c -1.5,-0.7 -3.7,-1.3 -5.7,-0.3 l 2.7,1.7 q 0.9,0 1.6,0 0.4,0 0.7,0 0.8,0.1 1.4,0.3 z" /><path
         id="path3523"
         class="s4"
         d="m 28.1,80.6 c -0.1,4.4 -2.2,7.8 -4,10 2.9,-1 5.1,-3.4 5.6,-6.6 0.2,-1.1 0.2,-2.1 0,-3.1 Q 29,80.7 28.1,80.6 Z" /><path
         id="path3525"
         class="s4"
         d="m 19.8,76 c 1.3,-1.2 2.7,-1.5 4.1,-1.6 q -0.5,-0.1 -1.1,-0.2 c -1.9,-0.4 -3.8,0 -5.5,0.9 0.9,0.1 1.7,0.4 2.5,0.9 z" /><path
         id="path3527"
         class="s4"
         d="m 25.9,80.6 c -0.6,1.3 -1,2.1 -1.3,2.9 q -0.2,0.3 -0.3,0.6 c -0.1,0.4 -0.6,1.6 -0.6,1.6 l -0.3,0.7 -1.2,2.9 c 0.4,0.5 0.8,0.8 1.1,1.1 1.8,-2 4,-5.4 4.1,-9.9 q -0.7,0 -1.5,0.1 z" /><path
         id="path3529"
         class="s4"
         d="M 17.7,88.7 Q 16.8,88.4 16,88 c 0.2,0.6 0.5,1.2 0.8,1.7 q 0.9,0.6 2.1,1 c -0.5,-0.6 -1,-1.2 -1.2,-2 z" /><path
         id="path3531"
         class="s4"
         d="m 15.1,87.5 q -0.6,-0.4 -1.2,-0.8 0.6,1.1 1.5,1.9 -0.2,-0.5 -0.3,-1.1 z" /><path
         id="path3533"
         class="s2"
         d="m 178.6,84.2 c 0.9,5.3 5.9,8.8 11.2,7.9 5.2,-1 8.8,-6 7.8,-11.2 -0.9,-5.3 -5.9,-8.8 -11.2,-7.9 -5.2,0.9 -8.8,6 -7.8,11.2 z" /><path
         id="path3535"
         class="s4"
         d="m 184.2,80.3 q 0.2,-0.1 0.5,-0.2 c 0.7,-0.6 2.3,-1.6 2.3,-1.6 q 0.4,-0.3 0.7,-0.5 1,-0.7 1.9,-1.2 0.3,-0.2 0.6,-0.3 c 0.9,-0.5 1.8,-0.8 2.9,-0.9 q 1.2,0.9 2.1,2.2 c -2.5,0.9 -4.8,2.2 -9.7,5.3 -0.3,-0.7 -1.2,-2.7 -1.3,-2.8 z" /><path
         id="path3537"
         class="s4"
         d="m 186.5,85.5 c -0.1,-0.2 -0.5,-1.3 -0.7,-1.7 5,-3.2 7.3,-4.5 9.7,-5.4 q 0.6,1 0.9,2.2 c -1.4,1.9 -5.1,3.7 -9.9,4.9 z" /><path
         id="path3539"
         class="s4"
         d="m 187,77.6 c -1.8,-1.1 -4,-0.8 -5.6,-0.2 q 0.9,-1.3 2.2,-2.1 c 1.6,-0.3 3.7,-0.3 5.4,1 q -0.9,0.6 -2,1.3 z" /><path
         id="path3541"
         class="s4"
         d="m 194.5,86.6 q -0.3,0.2 -0.8,0.5 -0.8,0.4 -1.7,0.8 -0.4,0.1 -0.8,0.2 c -1,0.3 -3.1,0.9 -3.3,0.9 0,0 -0.8,-2 -1.1,-2.8 3.7,-0.9 7.8,-2.6 9.7,-4.7 q 0.2,1.5 -0.1,2.9 c -0.4,0.9 -1.1,1.6 -1.9,2.2 z" /><path
         id="path3543"
         class="s4"
         d="m 187.8,89.8 0.8,-0.2 q 1.1,-0.3 2.3,-0.6 c -0.4,0.8 -1,1.5 -1.7,2 q -1.3,0.1 -2.5,-0.1 c 0.6,-0.5 1.1,-1.1 1.1,-1.1 z" /><path
         id="path3545"
         class="s4"
         d="m 180,80.1 q 0.2,-0.9 0.7,-1.7 c 1.5,-0.7 3.7,-1.3 5.7,-0.3 l -2.7,1.7 q -0.9,0 -1.6,0 -0.4,0 -0.7,0 -0.8,0.1 -1.4,0.3 z" /><path
         id="path3547"
         class="s4"
         d="m 181.4,80.6 c 0,4.4 2.1,7.8 3.9,10 -2.8,-1 -5,-3.4 -5.6,-6.6 q -0.2,-1.6 0.1,-3.1 0.6,-0.2 1.6,-0.3 z" /><path
         id="path3549"
         class="s4"
         d="m 189.7,76 c -1.3,-1.2 -2.8,-1.5 -4.1,-1.6 q 0.5,-0.1 1,-0.2 c 2,-0.4 3.9,0 5.5,0.9 -0.8,0.1 -1.6,0.4 -2.4,0.9 z" /><path
         id="path3551"
         class="s4"
         d="m 183.5,80.6 c 0.7,1.3 1.1,2.1 1.4,2.9 q 0.1,0.3 0.3,0.6 c 0.1,0.4 0.6,1.6 0.6,1.6 l 0.3,0.7 1.2,2.9 c -0.4,0.5 -0.8,0.8 -1.2,1.1 -1.7,-2 -4,-5.4 -4,-9.9 q 0.7,0 1.4,0.1 z" /><path
         id="path3553"
         class="s4"
         d="m 191.8,88.7 q 0.9,-0.3 1.7,-0.7 c -0.2,0.6 -0.5,1.2 -0.8,1.7 q -1,0.6 -2.1,1 c 0.5,-0.6 0.9,-1.2 1.2,-2 z" /><path
         id="path3555"
         class="s4"
         d="m 194.4,87.5 q 0.6,-0.4 1.1,-0.8 -0.6,1.1 -1.4,1.9 0.2,-0.5 0.3,-1.1 z" /></g></g><style
     id="style110">
		.s0 { fill: #272525 } 
		.s1 { fill: url(#g1) } 
		.s2 { fill: #d5001a } 
		.s3 { fill: none } 
		.s4 { fill: #ffffff } 
		.s5 { opacity: .63;fill: #b4221a } 
		.s6 { fill: url(#g2) } 
		.s7 { fill: url(#g3) } 
		.s8 { fill: url(#g4) } 
		.s9 { fill: url(#g5) } 
		.s10 { fill: url(#g6) } 
		.s11 { fill: url(#g7) } 
	</style><style
     id="style1">
		.s0 { fill: #dba111 } 
		.s1 { fill: #001489 } 
		.s2 { fill: #ffffff } 
		.s3 { fill: #d1d3d4 } 
		.s4 { fill: #ff0000 } 
		.s5 { fill: #6a7ab5 } 
		.s6 { fill: none } 
	</style></svg>
