<?xml version="1.0" encoding="UTF-8" standalone="no"?>
<!-- Created with Inkscape (http://www.inkscape.org/) -->

<svg
   width="400mm"
   height="400mm"
   viewBox="0 0 400 400"
   version="1.1"
   id="svg1"
   xml:space="preserve"
   inkscape:export-filename="..\..\clubs\club\ENGLISH_LEAGUE\CHELSEA.svg"
   inkscape:export-xdpi="96"
   inkscape:export-ydpi="96"
   sodipodi:docname="HOSAM.svg"
   xmlns:inkscape="http://www.inkscape.org/namespaces/inkscape"
   xmlns:sodipodi="http://sodipodi.sourceforge.net/DTD/sodipodi-0.dtd"
   xmlns="http://www.w3.org/2000/svg"
   xmlns:svg="http://www.w3.org/2000/svg"><sodipodi:namedview
     id="namedview1"
     pagecolor="#ffffff"
     bordercolor="#000000"
     borderopacity="0.25"
     inkscape:showpageshadow="2"
     inkscape:pageopacity="0.0"
     inkscape:pagecheckerboard="0"
     inkscape:deskcolor="#d1d1d1"
     inkscape:document-units="mm"><inkscape:page
       x="0"
       y="0"
       width="400"
       height="400"
       id="page2"
       margin="0"
       bleed="0" /></sodipodi:namedview><defs
     id="defs1"><style
       id="style1-9">
      .cls-1, .cls-2 {
        fill: #bc0022;
        stroke-width: 0px;
      }

      .cls-2 {
        fill-rule: evenodd;
      }
    </style></defs><g
     inkscape:label="Layer 1"
     inkscape:groupmode="layer"
     id="layer1"><g
       id="Layer_1"
       data-name="Layer 1"
       transform="matrix(0.2700422,0,0,0.2700422,92.823274,3.8422567)"><g
         id="g7"><path
           class="cls-1"
           d="m 633.43,1199.36 c 5.98,1.25 10.31,2.2 15.21,3.55 0.95,1.45 5.1,47.82 5.1,50.12 -1.32,0.95 -2.6,1.86 -4.16,2.4 -2.6,-2.1 -4.43,-4.77 -7.5,-7.6 -15.95,-14.7 -27.78,-22 -49.07,-26.26 -22.64,-4.53 -38.36,-3.72 -58.84,6.96 -9.16,4.8 -14.06,8.42 -21.26,15.82 -3.24,3.35 -4.93,5.41 -7.71,9.16 -3.62,4.93 -5.37,7.98 -8.14,13.45 -9.73,19.26 -11.29,32.68 -11.02,54.28 0.07,5.17 0.17,8.08 0.81,13.21 0.95,7.54 1.99,11.76 4.16,19.06 2.16,7.13 3.58,11.12 6.86,17.81 2.84,5.71 4.66,8.85 8.31,14.06 4.8,6.86 7.71,10.78 14.06,16.22 9.43,8.14 16.26,11.42 28.15,15.11 7.67,2.4 12.27,3.04 20.31,3.65 8.11,0.64 12.77,0.47 20.82,-0.51 16.19,-1.96 25.82,-4.46 39.78,-12.91 7.64,-4.63 11.52,-7.98 17.91,-14.16 1.66,-1.62 2.6,-3.24 4.16,-4.26 1.45,0.51 2.5,1.76 3.55,2.7 -0.84,1.05 -4.7,44.37 -4.9,45.12 -6.96,2.5 -14.06,5.24 -23.22,8.01 -4.43,1.35 -6.93,2.13 -11.46,3.24 -6.69,1.59 -10.54,2.26 -17.37,3.11 -30.58,3.85 -50.02,3.14 -78.54,-8.55 -13.11,-5.34 -20.38,-9.23 -31.56,-17.91 -11.83,-9.19 -18.08,-15.44 -26.36,-27.92 -4.8,-7.23 -7.03,-11.69 -10.41,-19.7 -5.2,-12.3 -7.87,-19.7 -9.06,-33.02 -0.17,-1.96 -0.2,-3.04 -0.3,-5 -0.81,-15.28 -1.82,-24.13 0.81,-39.17 1.12,-6.35 2.06,-9.9 3.95,-16.05 5.1,-16.53 9.06,-26.02 19.36,-39.88 4.09,-5.54 6.79,-8.38 11.56,-13.35 1.76,-1.82 2.74,-2.84 4.6,-4.6 4.16,-3.92 6.66,-5.98 11.36,-9.26 2.57,-1.82 4.06,-2.77 6.76,-4.36 2.4,-1.42 3.79,-2.16 6.25,-3.45 23.76,-12.34 39.91,-15.24 66.64,-16.56 23.66,-1.18 37.11,2.53 60.32,7.4 v 0 l 0.07,0.03 z"
           id="path1" /><path
           class="cls-1"
           d="m 83.64,1195.21 c 1.25,1.35 1.86,3.24 2.91,4.77 0,0.2 -0.41,0.54 -0.61,0.74 -0.64,0.2 -0.95,0.51 -1.45,0.95 -8.25,5.61 -14.06,15.01 -16.36,24.6 -1.35,4.66 -2.81,9.46 -2.81,14.06 v 178 c 16.56,0.1 33.12,-0.71 47.82,-6.56 13.96,-4.9 26.87,-11.56 38.43,-22.1 0.54,0 0.44,-0.61 0.95,-0.74 l 0.41,-0.41 2.5,2.1 c -0.1,0.81 0.95,0.71 1.25,1.45 0.3,0.71 -0.41,1.25 -0.51,1.99 -1.86,4.7 -3.65,9.4 -5.1,14.16 -4.7,12.91 -8.96,25.95 -13.65,38.97 -0.71,1.62 -0.71,1.66 -2.2,1.66 H 1.35 c -0.2,-1.55 -1.05,-2.7 -1.35,-4.36 0.84,-1.45 2.2,-2.2 3.51,-3.72 0.2,-0.1 0.54,-0.88 0.88,-1.08 8.25,-9.26 12.1,-20.21 14.9,-31.97 1.35,-6.96 1.99,-14.36 1.69,-21.26 v -143.02 c 0.2,-15.85 -4.49,-31.67 -15.61,-43.77 -0.2,-1.66 1.35,-3.01 1.99,-4.46 H 83.7 83.63 Z"
           id="path2" /><path
           class="cls-1"
           d="m 378.04,1195.41 c 0.41,3.65 0.1,7.16 0.71,10.85 1.25,10.71 2.4,22.51 3.75,33.12 -0.51,1.05 0.84,2.2 -0.41,2.91 -1.35,0.54 -2.7,1.45 -3.75,2.2 -0.51,-0.41 -1.66,0.41 -1.35,-0.84 -4.16,-4.56 -8.92,-7.13 -15.51,-10.1 -3.14,-1.42 -5.04,-1.96 -8.35,-3.01 -4.46,-1.42 -7.06,-2.06 -11.66,-3.01 -8.08,-1.72 -12.77,-2.06 -21.05,-2.8 -7.33,-0.68 -15.31,-0.51 -18.86,-1.05 -0.61,0 -1.05,0.71 -1.66,0.61 -0.3,9.9 -0.1,78.13 -0.1,78.13 3.35,-0.2 6.29,0.14 10.31,0 8.01,-0.24 12.61,-0.14 20.41,-1.86 7.13,-1.59 11.29,-2.64 17.71,-6.15 6.25,-3.45 11.05,-6.45 14.36,-11.25 0.84,0.3 3.65,2.5 3.95,3.35 -0.1,9.06 0,44.1 0,59.89 0,0.64 -5.31,2.6 -5.31,2.6 -0.1,-0.71 -0.98,-1.22 -1.69,-1.96 -4.09,-4.49 -7.5,-6.08 -13.01,-8.65 -1.62,-0.74 -2.57,-1.18 -4.26,-1.76 -1.72,-0.61 -2.74,-0.81 -4.49,-1.25 -14.13,-3.68 -24.47,-4.8 -37.17,-4.39 v 84.49 c 0,3.65 2.74,10.61 6.35,16.46 3.28,5.27 6.56,8.45 10.51,11.9 -0.71,1.66 -1.15,3.65 -2.1,5.41 h -75.74 c -0.95,-1.45 -1.15,-3.35 -1.86,-4.7 0.74,-1.55 2.81,-2.4 3.55,-3.95 1.79,-1.76 3.14,-3.85 4.8,-5.75 7.6,-11.9 10.71,-25.72 11.15,-40.62 -0.2,-0.74 0.1,-140.42 0,-151.23 -0.64,-11.36 -3.04,-21.97 -8.35,-31.56 -2.81,-4.49 -6.45,-8.75 -10.92,-11.46 0.61,-1.66 1.76,-3.01 2.7,-4.46 h 137.31 v -0.07 z"
           id="path3" /><path
           class="cls-1"
           d="m 352.15,1431.47 c 0,-10.07 8.14,-18.22 18.22,-18.22 10.08,0 18.22,8.14 18.22,18.22 0,10.08 -8.14,18.22 -18.22,18.22 -10.08,0 -18.22,-8.14 -18.22,-18.22 z"
           id="path4" /><path
           class="cls-1"
           d="m 168.64,1431.47 c 0,-10.07 8.14,-18.22 18.22,-18.22 10.08,0 18.22,8.14 18.22,18.22 0,10.08 -8.14,18.22 -18.22,18.22 -10.08,0 -18.22,-8.14 -18.22,-18.22 z"
           id="path5" /><path
           class="cls-1"
           d="m 681.11,1431.47 c 0,-10.07 8.18,-18.22 18.22,-18.22 10.04,0 18.22,8.14 18.22,18.22 0,10.08 -8.14,18.22 -18.22,18.22 -10.08,0 -18.22,-8.14 -18.22,-18.22 z"
           id="path6" /><path
           class="cls-2"
           d="m 555.22,907.61 c -5.68,0 -10.75,2.06 -14.63,5.95 -4.09,4.16 -6.35,9.53 -6.35,15.11 0,5.58 2.16,10.71 6.15,14.73 4.02,4.09 9.23,6.32 14.84,6.32 5.61,0 10.81,-2.23 14.97,-6.25 3.99,-3.85 6.15,-9.02 6.15,-14.8 0,-5.78 -2.23,-10.88 -6.08,-14.8 -4.06,-4.09 -9.29,-6.25 -15.04,-6.25 v 0 z m 18.29,21.22 c 0,4.87 -1.86,9.36 -5.31,12.71 -3.62,3.51 -8.14,5.37 -13.11,5.37 -4.66,0 -9.29,-1.93 -12.74,-5.44 -3.45,-3.51 -5.37,-8.01 -5.37,-12.81 0,-4.8 1.99,-9.46 5.54,-13.11 3.35,-3.38 7.84,-5.2 12.77,-5.2 4.93,0 9.53,1.86 13.05,5.44 3.41,3.38 5.2,7.94 5.2,13.04 z m -17.71,-12.5 h -8.99 v 23.86 h 4.49 v -10.17 h 4.46 l 4.87,10.17 h 5.04 l -5.31,-10.88 c 3.45,-0.71 5.44,-3.04 5.44,-6.42 0,-4.33 -3.28,-6.56 -9.94,-6.56 h -0.07 z m -0.81,2.94 c 4.19,0 6.15,1.15 6.15,4.09 0,2.94 -1.93,3.79 -6.05,3.79 h -3.79 v -7.87 h 3.68 v 0 z"
           id="path7" /></g><path
         class="cls-1"
         d="m 348.6,935.05 c -9.4,-14.09 -15.88,-29.94 -20.14,-46.54 h 0.14 c -3.11,-13.42 -6.02,-31.53 -6.39,-45.52 -5.88,-1.76 -12.44,-1.99 -18.35,-3.51 -22.47,-5.24 -44.07,-14.19 -64.35,-23.99 -0.84,22.74 -6.02,49.95 -12.64,72.42 -3.28,10.51 -7.1,20.92 -11.59,30.99 19.33,0 35.15,-13.08 48.67,-24.23 -5.2,21.63 -12.67,38.43 -22.68,62.22 -15.34,36.4 -31.36,63.97 -48.06,91.35 h 0.03 c -5.54,9.09 -11.22,18.18 -17,27.81 -3.92,6.76 -8.75,14.8 -16.8,18.55 -22.47,6.08 -38.39,-12.03 -60.22,-10.04 -10.38,1.76 -13.72,3.72 -17.24,7.4 -1.96,3.04 -1.72,6.76 -0.44,10.04 -12.23,-1.08 -25.55,-1.08 -35.11,6.12 -4.16,3.89 -6.12,9.8 -4.36,15.71 1.28,3.68 3.72,6.89 8.08,8.48 5.2,-10 15.92,-14.63 26.6,-17.24 4.56,-0.64 9.43,-1.52 13.79,0.24 1.05,0.68 0.2,1.96 -0.68,2.6 -4.33,2.2 -9.12,4.8 -12.64,8.72 -3.51,4.56 -6.56,10.24 -4.8,16.15 3.18,7.57 10.88,10.48 18.35,9.63 0.64,-0.88 -0.2,-1.76 -0.2,-2.64 -0.88,-8.28 7.4,-12.67 13.72,-16.12 20.95,-7.23 44.75,-7.23 67.66,-7.87 18.99,-1.12 38.19,0.24 57.18,1.55 11.12,1.28 22.27,3.24 30.75,10.21 1.99,1.99 2.4,5.51 1.12,7.87 2.81,0.88 5.44,-0.88 7.81,-2.2 0.47,-0.41 0.74,-0.54 1.76,-1.49 6.56,-5.24 8.75,-12.44 8.75,-20.11 -0.24,-7.44 -7.23,-12.47 -13.11,-14.63 -1.28,-0.54 -1.66,-0.64 -3.04,-1.08 -14.4,-4.36 -30.31,-2.6 -45.83,-2.4 -4.36,-0.64 -10.04,0.24 -12,-4.56 -0.88,-2.8 0.44,-6.08 1.72,-8.48 9.7,-14.06 19.8,-27.92 29.91,-41.77 h 0.2 c 17.07,-23.29 34.98,-47.79 50.86,-71.51 12.4,-18.52 20.48,-41.47 21.16,-63.26 8.75,8.72 19.2,15.92 30.55,20.48 2.84,0.64 6.32,1.55 8.96,0.64 h -0.1 z"
         id="path8" /><path
         class="cls-1"
         d="m 643.19,884.36 c 1.35,-42.48 -11.86,-86.85 -41.03,-118.18 -17.07,-20.11 -37.55,-33.96 -59.65,-44.85 h -0.41 c -31.43,-15.17 -67.32,-25.65 -99.26,-38.73 -6.32,-2.2 -11.79,-6.56 -18.35,-7.67 -0.84,0.68 -1.08,1.76 -0.68,2.84 17.47,15.92 38.19,31.19 56.24,45.02 26.93,20.78 53.36,43.09 76.21,77.63 15.24,23.01 24.23,36.4 33.39,62.39 2.53,7.23 5.14,15.68 7.03,22.61 10.54,39.24 10.38,73.74 -0.47,110.27 0,3.28 -2.84,5.47 -1.08,8.75 4.6,1.08 6.32,-4.36 8.72,-7 12,-19.87 23.56,-40.59 30.31,-63.03 5.34,-16.12 8.35,-33.05 9.06,-50.05 h -0.07 0.03 z"
         id="path9" /><path
         class="cls-1"
         d="m 603.92,588.31 c 0.84,4.39 -3.48,7.43 -4.77,11.12 -7,9.83 -14.46,19.64 -22.95,28.35 -17.88,3.04 -36.23,2.4 -54.78,1.32 -7.4,-0.44 -14.4,-1.99 -21.43,-3.28 -0.61,-0.68 -0.17,-1.52 0,-2.16 37.14,-4.6 70.26,-18.59 101.96,-36.5 0.64,0.24 1.76,0.24 1.96,1.12 v 0.03 z"
         id="path10" /><path
         class="cls-1"
         d="m 654.99,507.37 c -0.68,-0.88 -1.55,-2.4 -2.87,-2.2 -6.52,2.87 -11.79,8.52 -17.67,12.23 -27.1,17.51 -57.82,31.97 -88.41,41.4 h 0.07 c -12.67,3.85 -25.62,6.93 -38.9,9.23 l -0.17,2.4 c 2.16,20.11 -15.95,35.35 -31.87,43.66 v 1.28 l 2.84,0.44 c 13.08,-1.12 25.72,-4.36 37.95,-7.2 32.95,-10.95 65.06,-25.11 92.73,-47.99 0.54,-0.44 1.15,-0.88 1.76,-1.35 v 0 c 0,0 0.24,-0.17 0.37,-0.3 0.3,-0.24 0.64,-0.47 0.91,-0.71 v 0 c 13.82,-10.88 28.19,-25.35 38.7,-39.78 1.05,-3.72 5.24,-6.96 4.6,-11.12 H 655 Z"
         id="path11" /><path
         class="cls-1"
         d="m 687.03,417 c -10.24,6.76 -16.56,15.51 -27.04,22.07 -12.88,10.04 -25.99,18.76 -39.54,27.27 -29.67,17.03 -60.19,32.07 -92.5,42.75 1.08,16.19 -4.6,31.94 -17.47,42.58 0.2,1.32 -1.93,0.84 -1.93,1.99 0,0.41 0,1.08 0.41,1.52 27.31,-5 52.86,-16.15 77.93,-29.06 33.83,-20.24 66.98,-44.07 90.13,-77.22 6.12,-8.96 11.56,-17.78 13.52,-28.83 -0.14,-2.4 -1.52,-3.24 -3.48,-3.04 z"
         id="path12" /><line
         class="cls-1"
         x1="80.839996"
         y1="640.48999"
         x2="80.769997"
         y2="639.88"
         id="line12" /><path
         class="cls-1"
         d="m 721.94,318.62 c -26.53,28.62 -55.86,54.11 -87.09,76.61 v 0 c -31.56,22.78 -65.12,42.45 -99.7,59.11 3.68,11.76 1.72,24.87 -4.8,35.55 -1.55,2.64 -4.36,4.6 -5.04,7.43 0.68,1.32 1.99,0.2 3.04,0.2 55.83,-24.3 111.32,-56.2 154.95,-102.33 v 0 c 6.56,-6.89 12.81,-14.09 18.76,-21.63 11.56,-16.39 23.59,-33.15 25.11,-53.26 -0.44,-2.57 -3.51,-2.57 -5.24,-1.72 v 0.03 z"
         id="path13" /><path
         class="cls-1"
         d="M 772.56,194.86 C 709.97,277.25 625.04,343.8 538.8,395.2 v 0 c -1.22,0.74 -2.43,1.45 -3.65,2.16 0.41,2.4 1.72,4.8 2.81,7.2 3.95,11.36 1.79,24.67 -5.24,34.03 -0.44,0.88 -0.2,1.72 0.44,2.16 25.11,-14.06 49.92,-29.17 73.88,-45.56 v 0 c 44.44,-30.35 86.14,-65.12 121.87,-106.08 18.99,-23.35 34.67,-47.38 45.83,-74.21 1.96,-6.12 4.6,-12.23 4.33,-18.96 -0.64,-3.31 -4.8,-3.51 -6.52,-1.12 l 0.03,0.03 z"
         id="path14" /><path
         class="cls-1"
         d="m 793.11,106.08 c -1.28,-6.32 -1.08,-13.35 -4.36,-18.79 -0.64,-1.32 -2.84,-1.32 -3.72,-0.24 -3.92,9.63 -7.2,19.43 -11.15,28.83 -18.32,37.75 -38.39,75.5 -65.46,108.69 -19.64,27.48 -45.18,50.39 -67.02,75.47 -0.17,0.84 -0.64,2.4 0,3.28 1.12,1.32 3.08,0.88 4.19,0.88 l 10.68,-8.52 c 46.06,-39.27 90.1,-80.5 124.37,-131.36 10.95,-16.56 14.84,-37.55 12.47,-58.23 v 0 z"
         id="path15" /><path
         class="cls-1"
         d="m 661.34,108.62 c 16.15,26.43 6.56,61.78 -8.31,85.98 -32.24,59.34 -82.06,106.05 -135.28,145.76 -15.28,10.48 -30.31,20.95 -45.39,31.87 -19.43,13.32 -37.07,26.83 -54.78,41.91 -1.96,0.44 -3.04,0.88 -4.8,0.44 -1.12,-0.64 -1.52,-1.52 -2.16,-2.16 0.41,-6.12 6.08,-9.4 9.6,-13.99 60.19,-60.02 135.05,-104.77 184.79,-175.47 23.12,-31.4 41.67,-67.19 46.74,-106.52 0,-4.97 -0.71,-9.8 -0.71,-14.77 0.44,-1.35 2.4,-2.2 4.16,-1.52 2.43,2.4 4.36,5.44 6.08,8.48 h 0.07 z"
         id="path16" /><path
         class="cls-1"
         d="M 753.16,4.09 C 751.2,2.33 749.51,0.2 746.6,0 c -1.42,0.44 -1.69,2.2 -2.16,3.51 0.84,12.23 -2.2,22.47 -3.28,32.95 -1.96,14.13 -7.2,27.71 -10.68,41.43 -17.91,58.7 -46.03,112.57 -85.33,162.62 -47.58,64.01 -112.44,109.94 -177.73,154.72 -10.07,6.89 -20.21,13.75 -30.21,20.72 -17.91,13.92 -36.7,27.68 -47.82,47.99 -7.43,13.72 -13.28,29.44 -18.76,44.04 -5.34,17.44 -13.32,35.69 -25.14,50.29 -9.97,12.27 -22.64,22.07 -38.76,26.77 -3.31,-0.2 -8.31,2.37 -10.44,-1.28 -0.71,-2.2 0.41,-3.99 1.96,-5.24 10.41,-4.43 18.79,-11.59 25.38,-20.24 5.75,-7.6 10.21,-16.36 13.25,-25.38 10.68,-31.87 18.11,-65.29 34.71,-94.73 8.21,-15.65 18.25,-29.6 29.57,-42.58 v 0 c 26.63,-30.62 60.12,-56 90.81,-82.87 8.08,-5.75 15.68,-13.55 23.59,-19.67 37.11,-33.15 72.19,-70.9 97.3,-113.48 9.56,-17.44 17.91,-35.79 20.28,-55.83 4.12,-23.39 0.47,-50.15 -19.2,-62.83 -6.83,-4.36 -13.52,-11.15 -22.03,-10.07 -1.76,0.44 -2.67,1.99 -1.99,3.75 10.68,15.24 13.52,37.78 8.08,55.66 -12.67,45.35 -39.27,85.3 -70.29,121.93 -40.15,49.98 -93.11,87.29 -140.08,131.19 -6.12,6.52 -13.75,12.37 -18.55,19.87 -3.55,3.65 -7.03,7.98 -10.17,12 h -0.1 c -12.84,16.93 -21.87,36.16 -29.06,55.39 -8.72,26.39 -14.36,53.9 -21.53,80.74 -1.08,6.52 -4.83,11.79 -7.03,17.67 -2.33,3.41 -5.14,7.57 -8.99,9.23 -1.52,0.74 -3.31,0.95 -5.14,0.54 -0.44,-0.14 -0.84,-0.3 -1.25,-0.54 -5.78,-2.97 -9.09,-9.46 -10.31,-15.34 -11.79,-52.62 13.25,-99.56 45.56,-137.92 2.74,-3.28 5.51,-6.56 8.35,-9.77 9.63,-11.05 19.77,-22.07 29.5,-33.39 9.67,-11.32 18.79,-22.98 26.29,-35.15 11.15,-18.52 15.07,-45.22 2.67,-63.7 -3.72,-8.55 -11.76,-14.67 -19.64,-18.35 -0.71,-0.84 -0.71,-1.99 0,-2.81 6.96,-1.76 13.32,1.52 19.87,1.76 15.68,1.96 32.95,-0.44 46.87,-6.12 9.16,-4.56 19.43,-11.39 22.07,-21.83 0.61,-3.68 2.6,-9.16 -1.52,-12 -3.28,-1.32 -2.43,3.08 -3.95,4.36 -7.2,7.64 -18.35,10.68 -29,10.68 -25.99,-2.64 -49.58,-10.68 -73.3,-18.49 -17.27,-5.31 -33.86,-11.19 -51.54,-14.46 -18.76,-1.93 -44.34,-6.52 -56.71,11.15 -2.64,4.36 -1.52,9.16 0.61,13.55 -10.48,1.08 -21.36,0.61 -32.27,1.76 -2.67,-7.87 -5.04,-15.55 -8.55,-22.71 -6.05,1.28 -12,3.45 -18.76,2.6 5.17,6.76 9.4,14.19 10.71,22.47 -15.07,4.63 -31.87,9.8 -40.82,23.56 -1.76,4.6 -5.68,8.96 -4.6,13.99 14.63,-6.35 29.88,-11.32 46.94,-12.23 l 0.84,0.71 c 0,8.25 -2.16,16.97 -4.8,24.87 -6.96,1.96 -13.96,0.88 -20.72,1.52 0.41,1.08 -1.08,2.23 -0.61,3.51 1.05,7.87 10.68,7.2 14.77,10.71 -4.09,8.28 -9.36,16.97 -15.92,23.76 -6.32,-5.88 -14.84,-10.88 -23.56,-10.44 -16.83,-1.55 -29.44,11.32 -44.47,15.51 -3.55,1.28 -7.47,-1.15 -10.51,-1.76 -1.28,4.12 1.52,8.48 4.97,11.08 2.87,1.08 5.27,3.99 8.31,3.28 4.12,2.23 10.04,1.96 15.28,1.76 11.56,-1.05 20.04,-9.4 30.75,-13.08 4.6,-0.68 9.4,-3.72 13.99,-0.88 -0.84,3.04 -4.6,4.8 -6.93,7.16 -14.67,10.71 -32.82,15.75 -42.38,32.54 -2.43,6.52 -2.6,14.4 0.2,20.99 4.77,7.6 13.11,11.96 22.03,10.68 0,-1.15 -0.68,-1.99 -1.08,-2.87 -3.72,-12.03 9.19,-19.84 16.63,-26.83 5.17,-5.91 8.89,-14.63 4.97,-22.51 5.04,-4.09 9.83,-8.01 15.28,-12 3.04,7.91 7.16,15.31 13.96,21.63 7.87,6.76 19.87,9.63 29.67,5.07 11.76,-5.27 23.52,-17.51 22.71,-31.29 -5.64,5.95 -13.08,10.07 -21.43,11.59 -3.48,-4.19 -6.49,-6.56 -10.68,-10.24 -7.23,-5.47 -16.83,-7.23 -25.92,-5.47 7.81,-9.16 13.69,-18.96 19.57,-29.23 13.75,-1.28 27.48,-4.16 41.26,-7.4 17.2,-3.51 37.99,-2.67 49.07,12.2 2.23,2.4 3.95,5.91 5.68,9.63 7.4,21.16 -5.68,40.59 -19.8,55.63 -16.19,16.39 -35.15,31.84 -53.26,46.37 l 0.98,-0.68 c -38.46,30.65 -78.24,60.02 -105.95,101.86 -6.96,9.09 -13.28,20.04 -17.88,31.4 -4.87,9.16 -9.02,19.43 -12.17,29.74 -5.41,17.64 -8.18,36.87 -8.18,55.97 0,8.62 0.54,17.2 1.72,25.55 v 0.1 c 2.67,19.2 8.31,37.78 17.34,54.21 4.56,9.67 11.96,21.29 18.49,29.81 l -1.62,-2.64 c 27.41,35.52 69.82,61.27 109.26,76.95 44.71,18.49 91.45,30.72 139.91,36.6 l 0.81,0.95 c 5.85,14.73 9.9,32.17 11.12,48.56 h -0.07 c 0.95,15.75 -0.68,31.6 -5.61,46.57 -0.64,1.76 -2.13,3.75 -1.55,5.88 7.43,-2.64 14.84,-7.81 20.34,-13.32 4.16,-2.8 6.12,-7.16 9.56,-10.68 0.91,-0.17 1.35,0.24 1.79,0.88 6.29,45.42 16.8,89.73 33.05,131.9 h -0.03 c 0.24,0.54 0.41,1.08 0.68,1.59 0,0.1 0.07,0.17 0.07,0.24 3.72,9.46 8.28,20.21 12.5,29.27 2.43,7.64 9.83,13.55 7.87,21.83 -1.55,1.93 -3.92,4.53 -6.73,4.36 -3.31,-0.24 -7.03,-0.41 -9.87,-1.35 -8.92,-2.37 -17.68,-6.49 -26.39,-8.96 -13.08,-2.13 -31.87,-9.53 -42.82,2.43 -1.69,3.28 -1.69,7.44 -0.17,10.92 -3.92,0.84 -8.28,-0.2 -12.64,0.17 -9.4,-0.17 -17.44,5.54 -21.66,13.55 -1.28,3.95 -1.28,9.83 1.12,13.32 1.55,2.67 4.36,4.19 7.23,4.39 0.84,-0.68 1.08,-1.76 1.28,-3.04 5.68,-10.92 18.59,-12.67 30.11,-12.88 0.88,0.2 1.99,1.12 1.55,2.2 -3.28,2.8 -7.43,4.36 -10.04,7.87 -3.24,4.49 -5.04,10 -2.16,15.65 2.4,4.63 6.93,8.11 12.67,8.11 2.03,0 1.93,0.84 2.81,0 -0.64,-4.19 1.93,-8.55 5.24,-11.76 13.99,-10.95 31.63,-13.15 49.51,-14.9 33.15,-2.84 71.44,-3.48 103.65,3.31 7.3,1.52 7.03,1.93 10.71,3.72 4.8,2.16 9.56,6.12 11.32,11.36 2.64,0.44 5.04,-1.12 7,-2.4 7.23,-5.64 13.96,-13.35 12.03,-22.71 -0.71,-2.64 -1.93,-4.19 -4.6,-6.96 -11.15,-8.79 -27.04,-8.55 -40.59,-7.44 h -1.96 c -11.08,0.41 -22.47,0.17 -31.43,-5.95 -11.79,-9.09 -13.52,-24.4 -19.67,-36.6 -1.69,-5.81 -3.79,-13.75 -5.31,-19.57 l 0.41,2.1 c -11.02,-41.1 -18.45,-82.97 -21.66,-126.09 0,-0.91 0,-2.2 1.05,-1.76 10.48,7.87 22.07,12.64 34.91,14.6 6.35,0.91 14.03,1.12 18.11,-3.92 -5.85,-5.47 -13.45,-10.21 -19.13,-15.92 -8.31,-8.65 -15.07,-18.45 -20.65,-28.86 h 0.14 c -14.8,-28.83 -19.87,-63.94 -13.59,-96.35 -13.52,-10.95 -25.28,-21.43 -37.72,-32.71 -11.42,-11.19 -23.32,-23.39 -33.9,-35.59 h -0.14 c -20.72,-23.89 -37.99,-50.25 -44.37,-80.87 -0.51,-2.7 -1.12,-6.15 -1.45,-8.58 0.2,-4.6 -1.99,-10.68 1.72,-14.63 0.61,-0.2 1.93,-0.44 2.4,0.24 2.5,7.13 8.96,22.88 8.96,22.88 3.89,8.96 8.25,17.71 13.08,26.19 10.92,20.28 27.37,38.83 44.07,55.32 h -0.14 c 27.27,26.73 58.16,50.96 80.26,80.87 8.48,11.12 14.6,23.76 20.04,36.67 4.6,14.36 7.77,30.92 8.42,46.57 v 4.93 c 0,5.54 -0.24,10.95 -1.01,16.36 0.95,1.08 1.79,2.16 3.31,1.72 3.68,-2.4 4.16,-6.52 5.68,-10.24 1.18,-4.26 2.1,-8.52 2.87,-12.77 h 0.2 c 7.47,-43.49 -5.04,-88.07 -30.11,-123.15 -12,-15.24 -25.68,-28.46 -39.84,-40.93 h -0.17 c -29.44,-25.68 -61.95,-49.65 -84.25,-81.28 -3.08,-4.49 -6.73,-10.14 -9.29,-14.63 -1.25,-3.28 -4.6,-7.64 -0.84,-10.92 0.84,-0.24 2.16,-0.37 3.04,0.24 l 11.32,12.23 c 4.7,4.49 16.26,14.4 16.26,14.4 31.87,26.19 69.08,44.07 112.74,42.75 25.95,-3.48 49.31,-16.8 68.13,-35.35 l 0.61,-2.6 c -0.41,-1.08 -1.28,-1.76 -2.16,-1.96 -20.62,0.84 -40.52,-0.71 -59.72,-3.89 H 513 c -15.44,-2.81 -34.3,-7.23 -48.94,-12.03 -13.28,-5.2 -26.6,-9.8 -38.59,-17.88 -0.24,-1.08 -0.24,-2.64 0.37,-3.55 25.41,-0.84 53.09,-9.56 67.29,-32.92 -0.24,-1.52 1.12,-3.92 -1.12,-4.6 -20.04,1.55 -41.91,1.76 -61.3,-2.37 -1.52,0 -1.93,-1.28 -1.93,-2.6 0.17,-0.91 1.25,-1.32 1.93,-1.99 9.9,-0.57 19.5,-1.89 28.73,-4.09 15.68,-3.82 30.31,-10.38 43.06,-20.78 3.95,-3.08 5,-7.87 8.72,-10.71 1.96,-3.95 5.27,-7.87 3.11,-12.67 -22.3,3.72 -44.07,9.4 -66.14,10.44 -5.47,0.27 -12.23,0.47 -17.71,-0.41 -1.08,-1.32 0,-2.84 0.91,-3.68 12.64,-3.51 25.55,-5.68 37.55,-10.48 17,-6.35 34,-12.81 46.47,-27.71 2.87,-6.08 8.75,-11.96 6.12,-19.2 -1.12,-1.08 -2.2,-1.93 -3.95,-1.52 -24.4,10.27 -50.19,18.11 -76.99,22.71 -3.55,-0.24 -7.27,2.43 -9.87,-0.61 -1.76,-1.76 1.52,-1.35 1.05,-2.91 28.22,-9.53 56.34,-18.72 79.25,-39.44 8.04,-8.72 15.07,-20.34 12.81,-32.31 -0.61,-1.72 -2.16,-3.45 -4.33,-3.28 -19.64,9.4 -39.3,18.55 -60.22,25.14 -2.64,0 -5.04,2.81 -7.67,0.61 -0.61,-0.88 -0.61,-2.37 0.24,-3.08 16.39,-11.39 33.05,-22.17 49.75,-33.12 15.82,-10.24 31.56,-20.62 46.98,-31.63 10.68,-8.11 21.76,-17.03 32.68,-25.14 49.54,-39.1 94.05,-87.94 130.28,-140.96 4.8,-7 8.96,-14.4 13.99,-21.12 18.96,-34.91 39.64,-70.09 47.08,-109.77 2.84,-22.3 -4.6,-45.15 -19.43,-62.45 V 4.08 Z M 208.28,263.87 c 1.05,-2.97 2.67,-8.28 3.68,-13.69 0.81,-4.22 1.18,-5 1.42,-11.02 21.93,0 32.71,0.84 32.71,7.74 0,9.43 -20.11,14.46 -37.78,17 z m 69.04,-31.36 c -3.28,0 -6.35,-0.44 -8.99,-2.4 -3.45,-3.28 -3.68,-8.72 -2.4,-12.91 1.32,-2.4 4.83,-0.64 7.16,-0.64 12.23,2.2 24.67,4.16 36.26,7.67 0.64,0.41 0.17,1.28 0,1.96 -11.15,1.28 -20.99,5.44 -32.07,6.32 h 0.03 z m 24.61,508.56 c -14.3,-4.53 -28.29,-10.81 -41.5,-18.52 -20.92,-12.61 -41.97,-30.42 -56.51,-50.42 -7.23,-9.87 -13.38,-20.78 -18.11,-32.31 -7.84,-19.26 -12.13,-40.66 -12.13,-61.71 0,-6.56 0.41,-13.01 1.25,-19.4 1.69,-12.3 4.9,-24.7 9.8,-36.03 6.79,-15.48 15.48,-30.82 25.52,-44.07 9.4,-10.71 18.59,-22.03 31.02,-30.38 1.08,0 2.13,0 2.6,1.08 v 2.2 c -7.2,10.71 -13.11,21.43 -18.35,33.15 -10.31,23.05 -17.44,48.36 -18.35,73.61 -0.2,5.24 -0.17,10.58 0.24,15.85 1.25,23.42 7.6,47.04 16.26,67.46 l 0.1,0.07 c 5.17,12.13 10.34,21.87 17.68,33.05 2.67,3.08 4.39,6.96 7.43,9.4 10.31,13.82 22.81,25.72 36.13,36.36 7.54,6.02 16.53,12.37 24.33,17.57 1.79,1.52 5.27,2.81 4.8,5.2 -3.89,2.64 -8.31,-1.35 -12.2,-2.16 v 0 z"
         id="path17" /></g></g><style
     id="style110">
		.s0 { fill: #272525 } 
		.s1 { fill: url(#g1) } 
		.s2 { fill: #d5001a } 
		.s3 { fill: none } 
		.s4 { fill: #ffffff } 
		.s5 { opacity: .63;fill: #b4221a } 
		.s6 { fill: url(#g2) } 
		.s7 { fill: url(#g3) } 
		.s8 { fill: url(#g4) } 
		.s9 { fill: url(#g5) } 
		.s10 { fill: url(#g6) } 
		.s11 { fill: url(#g7) } 
	</style><style
     id="style1">
		.s0 { fill: #dba111 } 
		.s1 { fill: #001489 } 
		.s2 { fill: #ffffff } 
		.s3 { fill: #d1d3d4 } 
		.s4 { fill: #ff0000 } 
		.s5 { fill: #6a7ab5 } 
		.s6 { fill: none } 
	</style></svg>
