<?xml version="1.0" encoding="UTF-8" standalone="no"?>
<svg
   width="500"
   height="500"
   viewBox="0 0 500 500"
   fill="none"
   version="1.1"
   id="svg843"
   sodipodi:docname="Genoa.svg"
   inkscape:version="1.4.2 (f4327f4, 2025-05-13)"
   xmlns:inkscape="http://www.inkscape.org/namespaces/inkscape"
   xmlns:sodipodi="http://sodipodi.sourceforge.net/DTD/sodipodi-0.dtd"
   xmlns="http://www.w3.org/2000/svg"
   xmlns:svg="http://www.w3.org/2000/svg">
  <sodipodi:namedview
     id="namedview845"
     pagecolor="#ffffff"
     bordercolor="#666666"
     borderopacity="1.0"
     inkscape:pageshadow="2"
     inkscape:pageopacity="0.0"
     inkscape:pagecheckerboard="0"
     showgrid="false"
     inkscape:zoom="0.61779772"
     inkscape:cx="74.458028"
     inkscape:cy="454.0321"
     inkscape:window-width="1904"
     inkscape:window-height="1041"
     inkscape:window-x="0"
     inkscape:window-y="0"
     inkscape:window-maximized="0"
     inkscape:current-layer="svg843"
     inkscape:showpageshadow="2"
     inkscape:deskcolor="#d1d1d1" />
  <g
     id="g1"
     transform="translate(19.600619,2.184711)">
    <path
       d="M 79.313986,45.322278 V 346.72804 c 0,16.91262 3e-6,37.96142 10.477197,54.80443 12.314457,19.80225 35.751537,29.42538 71.607527,29.42538 21.03868,0 35.57293,2.40325 45.31502,5.1541 9.45945,2.67155 17.51332,6.24668 23.15423,14.19635 h 1.06263 c 5.64555,-7.9446 13.69478,-11.5248 23.15423,-14.19635 9.74715,-2.75085 24.28098,-5.1541 45.32008,-5.1541 35.86569,0 59.29285,-9.62313 71.60736,-29.42538 10.47736,-16.84301 10.47736,-37.89181 10.4723,-54.80443 V 45.322278 Z"
       fill="#ffd508"
       id="path824"
       style="stroke-width:4.21845" />
    <path
       d="m 230.34929,438.27222 c 0,0 12.26978,-15.78038 67.1978,-15.78038 74.79567,0 75.37655,-43.23954 75.37655,-76.54337 V 117.41427 H 230.41383 Z"
       fill="#00263e"
       id="path826"
       style="stroke-width:4.21845"
       sodipodi:nodetypes="cssccc" />
    <path
       d="M 230.39949,117.41427 H 87.770587 v 228.5342 c 0,33.30383 -0.585942,76.54337 73.628543,76.54337 54.92339,0 68.951,15.78038 68.951,15.78038 z"
       fill="#ae1919"
       id="path828"
       style="stroke-width:4.21845"
       sodipodi:nodetypes="ccsscc" />
    <path
       d="M 372.92406,53.778499 H 87.770461 V 140.5306 H 372.92406 Z"
       fill="#ffffff"
       id="path830"
       style="stroke-width:4.21845" />
    <path
       d="M 364.52259,90.955368 H 236.59639 V 62.036201 H 224.20258 V 90.955368 H 95.998296 V 103.34917 H 224.20258 v 28.91917 h 12.39381 v -28.91917 h 127.9262 z"
       fill="#ae1919"
       id="path832"
       style="stroke-width:4.21845" />
    <path
       d="m 178.7087,291.55662 c -0.58595,1.17188 -2.6416,3.81348 0.29318,4.96511 l -1.17189,3.22796 c 0,0 4.99001,-1.17695 4.99001,-4.40449 0,-2.051 -1.76247,-8.21796 -2.93435,-10.26855 7.62696,1.17147 17.31463,1.46465 22.29999,0.87871 6.45508,-0.58595 11.74333,-2.34884 17.02188,-5.86913 0,0 -2.63696,5.57637 -12.61739,7.33884 6.37872,5.74215 13.37291,10.76126 20.85518,14.96622 0,0 -28.16955,5.57594 -31.40215,6.16188 -3.23218,0.58595 -5.88896,2.08054 -7.08067,5.29838 -5.55655,15.56186 9.43456,22.9007 9.43456,24.36577 0,1.76289 -6.16231,13.79391 -6.16231,13.79391 -5.86913,-4.99 -9.38985,-2.93435 -10.27361,-1.76246 0.88376,0 2.34883,0.88376 2.34883,1.76246 -0.98923,-0.54966 -2.09657,-0.85086 -3.22754,-0.8787 -3.22754,0 -4.10667,1.17188 -4.69261,2.64159 0.87913,0 2.05101,0.29318 2.34377,1.48954 -0.81078,-0.43197 -1.72407,-0.63446 -2.64159,-0.58594 -6.16231,0 -3.81348,8.8039 -3.81348,8.8039 1.17189,-0.8787 2.34841,-1.17188 4.69724,-1.17188 h 17.02188 c 1.22546,0.016 2.43953,-0.23919 3.55531,-0.74625 1.11578,-0.50705 2.10585,-1.25457 2.89977,-2.18811 l 12.03144,-12.32969 c 1.76289,-2.05059 2.05565,-3.81347 1.48953,-5.57594 -1.76289,-6.45508 -3.22754,-15.84493 -3.22754,-15.84493 0,0 0.87871,0.8787 2.63654,2.34842 4.02946,2.64243 8.50481,4.53188 13.20839,5.57636 -0.29276,-2.05565 -3.81348,-12.91014 0.8787,-20.85517 0,0 -2.05059,7.94503 2.93478,21.13317 4.40448,10.26898 13.50115,18.19375 26.41636,18.19375 14.96622,0 13.20332,21.42594 13.20332,21.42594 -6.1623,-5.8742 -9.97579,-3.23218 -11.42061,-1.17653 1.17695,0 3.22754,0.29276 4.11131,2.05565 0,0 -2.6416,-1.17694 -4.69725,-1.17694 -1.03816,-0.0515 -2.05902,0.27842 -2.87023,0.92805 -0.81163,0.64965 -1.35708,1.57349 -1.53425,2.59773 0.29824,0 2.34883,0.58594 2.64159,1.7574 -1.06136,-0.2164 -2.14381,-0.31469 -3.22754,-0.29276 -4.39942,0 -2.34841,10.27362 -2.34841,10.27362 l 0.88377,-0.88377 c 0.56274,-0.51887 1.28663,-0.82934 2.05059,-0.87912 h 21.42635 c 2.93436,0 5.86913,-2.34841 5.86913,-5.28319 v -28.18431 c 0,-3.5203 -2.34883,-4.39942 -5.57637,-4.39942 0,0 1.76289,-1.48954 1.76289,-4.69725 0,0 -1.76289,0.591 -9.10173,-1.75783 -4.96554,-1.76289 -8.2129,-6.45507 -7.92014,-19.36521 11.42061,7.04101 24.94201,11.15231 30.78625,2.93435 3.52536,-4.69725 4.40449,-14.67304 -5.57636,-22.59782 -13.49609,-11.73868 -9.09667,-14.67304 -5.27813,-18.19376 0.58594,0.58594 3.22754,1.46507 5.57595,-0.29276 2.93477,-2.34883 0.87912,-7.63202 3.52072,-9.39491 0,0 -6.16232,-0.8787 -9.68768,1.48954 -3.22753,2.05607 -1.75782,5.57637 -1.17188,6.45549 -4.10666,3.81348 -10.56638,9.09667 2.05565,20.54217 7.94503,7.63202 8.21796,12.91014 4.96554,16.72869 -5.57131,5.57637 -21.42129,-5.28319 -25.23477,-8.51073 -0.29276,-4.39942 -2.34841,-8.51115 -4.99001,-11.73868 -6.16231,-7.04101 -14.08751,-18.19333 -18.19375,-31.40173 2.25181,2.01853 4.90859,3.5338 7.79232,4.44499 2.88373,0.91118 5.92861,1.19677 8.9313,0.8382 l -6.18678,-13.54587 c 4.1113,8.51115 14.39969,13.79434 26.70954,10.5668 l -14.4001,-17.02187 c 7.3342,10.5668 22.29999,14.96622 37.56404,5.57637 l -25.22001,-17.2948 c 10.26897,7.33378 24.94665,4.99001 35.21562,-5.57637 l -25.23983,-9.09667 c 25.23983,9.09667 33.4578,-13.79433 33.4578,-13.79433 -22.30506,9.38985 -45.18636,-18.77928 -58.39939,2.64159 -7.33926,13.79434 -15.5568,17.02188 -20.54723,18.7797 4.40449,-2.93478 9.10173,-5.57131 16.14275,-17.90057 8.51072,-14.40011 15.84998,-15.25898 29.05331,-11.15274 3.5203,0.88376 6.16189,0.88376 8.51073,0 9.09666,-3.82318 9.9606,-10.27868 9.9606,-10.27868 -19.0771,9.38985 -35.22026,-13.79391 -46.67546,5.28361 -7.04102,12.61739 -11.42062,19.36522 -16.72405,24.94159 1.48995,-4.69261 2.34377,-16.13768 -2.6416,-28.46737 5.57637,-1.17189 4.39942,-7.62696 4.39942,-7.62696 0,0 -1.75782,1.75783 -6.16188,1.75783 -3.81348,0 -4.69767,-4.10624 -13.2084,-4.10624 -9.6826,0 -13.78927,4.96554 -13.78927,4.96554 -12.03144,0.29276 -12.32927,9.38943 -12.32927,9.38943 0,0 14.40011,-2.93436 14.97087,8.8039 0,4.99043 -2.6416,8.80391 -10.85956,12.61739 -6.16189,2.93477 -13.50115,9.98043 -15.84957,19.66346 -1.89239,8.00704 -0.94619,16.42243 2.67619,23.80936 0.18182,-1.69793 0.5775,-3.36633 1.17695,-4.96554 1.17189,2.93477 5.27812,8.80391 6.74825,10.56174 -1.44018,0.41045 -2.82172,1.00272 -4.11172,1.76289 -5.57131,3.52029 -6.74783,4.40448 -9.9758,4.96554 -0.58594,-0.87913 -2.34841,-4.96554 -4.99,-11.42062 -3.22754,-7.33926 -9.97579,0 -9.97579,0 h 4.10624 c 0,0 -0.8787,3.22754 2.64201,4.10624 3.5203,0.87913 5.28319,7.04608 5.28319,7.04608 l -12.03651,-7.36373 c -3.22753,-1.75782 -6.16231,2.64159 -7.04607,4.96554 l 2.93477,-0.87912 c 0.39274,0.94788 1.10312,1.72956 2.00883,2.21173 0.9057,0.48175 1.95103,0.63361 2.95671,0.42986 4.99043,-0.88376 10.27362,4.10666 10.27362,4.10666 0,0 -6.45508,-0.58594 -9.09709,-0.87912 -3.23218,-0.29277 -4.40407,3.8139 -4.99001,6.45549 l 2.93435,-1.76289 c 0,0 1.75783,2.34884 4.10667,1.48953 2.64159,-0.88376 5.86912,-4.40448 9.98043,-1.48953 2.05101,1.48953 2.34883,3.81854 1.75783,4.99043 m 37.88675,-96.52954 c 0.29318,0.591 -0.29782,1.76289 -1.17653,2.05565 -1.75783,0.58594 -3.52071,-0.58595 -3.81347,-1.48953 0.29993,-0.45518 0.68845,-0.8458 1.14235,-1.14869 0.45348,-0.30288 0.9635,-0.5117 1.49924,-0.61421 4.39942,-0.8787 7.04102,0.29319 7.04102,0.29319 -3.22754,0.29275 -4.69261,0.8787 -4.69261,0.8787 m -59.88387,32.3108 c 2.34884,0 6.16232,-3.81854 9.38986,0.29276 2.05564,2.93478 -1.17189,5.86913 -1.17189,5.86913 0,0 -3.52536,3.22796 -1.17694,6.16231 l -2.05566,2.05565 c 0,0 5.57637,0.58594 6.16738,-2.34841 l 1.75782,-8.8039 10.27363,9.38984 c 3.22753,-7.94502 11.15232,-9.97579 11.15232,-9.97579 -9.10174,-4.40448 -23.18377,-7.63201 -23.18377,-7.63201 l -8.78914,-11.72857 c -2.6416,-3.52029 -5.8742,-0.29276 -7.33885,1.75783 l 2.6416,-0.29276 c -0.29318,1.17653 -0.58594,3.81812 3.5203,4.69725 4.69766,0.8787 7.04607,6.45507 7.04607,6.45507 0,0 -7.33883,-1.75783 -9.98043,-2.34883 -2.93478,-0.29276 -4.39942,3.81854 -4.39942,6.45507 l 2.34377,-2.34841 c 0.32566,0.73021 0.86478,1.34526 1.54606,1.76458 0.68129,0.41889 1.47351,0.62264 2.27206,0.58383"
       fill="#ffd508"
       id="path834"
       style="stroke-width:4.21845" />
  </g>
  <defs
     id="defs841" />
</svg>
