<?xml version="1.0" encoding="UTF-8" standalone="no"?>
<!-- Created with Inkscape (http://www.inkscape.org/) -->

<svg
   width="400mm"
   height="300mm"
   viewBox="0 0 400 300"
   version="1.1"
   id="svg1"
   xml:space="preserve"
   inkscape:export-filename="أولى_حاسبات.svg"
   inkscape:export-xdpi="96"
   inkscape:export-ydpi="96"
   sodipodi:docname="كومو.svg"
   xmlns:inkscape="http://www.inkscape.org/namespaces/inkscape"
   xmlns:sodipodi="http://sodipodi.sourceforge.net/DTD/sodipodi-0.dtd"
   xmlns="http://www.w3.org/2000/svg"
   xmlns:svg="http://www.w3.org/2000/svg"><sodipodi:namedview
     id="namedview1"
     pagecolor="#ffffff"
     bordercolor="#000000"
     borderopacity="0.25"
     inkscape:showpageshadow="2"
     inkscape:pageopacity="0.0"
     inkscape:pagecheckerboard="0"
     inkscape:deskcolor="#d1d1d1"
     inkscape:document-units="mm"><inkscape:page
       x="0"
       y="0"
       width="400"
       height="300"
       id="page2"
       margin="0"
       bleed="0" /></sodipodi:namedview><defs
     id="defs1"><clipPath
       clipPathUnits="userSpaceOnUse"
       id="clipPath5"><path
         style="fill:#1000ff;fill-opacity:1;stroke:#1200fe;stroke-width:1.41803;stroke-linecap:round;stroke-linejoin:round;stroke-dasharray:none;stroke-opacity:1;paint-order:stroke fill markers"
         d="m 15.427326,1.4220522 0.205011,0.034945 0.701235,0.00233 0.302859,-0.020967 5.101364,0.342279 6.589336,2.9520223 6.325763,9.2250695 6.43119,12.651523 -1.054294,3.690029 -2.319444,4.638891 -2.952025,3.057452 -3.16288,3.162882 -2.214016,1.054295 L 17.678764,47.484272 4.6055231,46.957124 -1.0876626,39.998786 -5.5156959,27.030972 1.8643599,16.698894 3.0240828,11.849144 1.7589304,3.2039354 5.9761052,2.6767885 10.931285,0.98991866 Z"
         id="path6" /></clipPath></defs><g
     inkscape:label="Layer 1"
     inkscape:groupmode="layer"
     id="layer1"><g
       id="g1"
       transform="matrix(7.0520619,0,0,7.0520619,87.167011,-5.1344958)"
       clip-path="url(#clipPath5)"><path
         d="m 22.319,12.464 c -0.187,0 -0.333,-0.146 -0.333,-0.323 0,-0.177 0.146,-0.323 0.333,-0.323 0.187,0 0.333,0.146 0.333,0.323 0.01,0.177 -0.146,0.323 -0.333,0.323 z M 2.446,27.559 c 0,-7.214 6.1,-13.075 13.554,-13.075 7.454,0 13.554,5.871 13.554,13.075 0,7.193 -6.1,13.085 -13.554,13.085 C 8.547,40.634 2.446,34.752 2.446,27.559 Z M 21.319,7.592 C 21.642,7.675 21.839,7.988 21.756,8.3 21.673,8.612 21.34,8.8 21.017,8.716 20.694,8.632 20.497,8.32 20.58,8.008 c 0.083,-0.312 0.416,-0.5 0.739,-0.416 z m 0.552,-1.145 c 0.187,0 0.333,0.146 0.333,0.323 0,0.177 -0.146,0.323 -0.333,0.323 -0.187,0 -0.333,-0.146 -0.333,-0.323 -0.01,-0.187 0.146,-0.323 0.333,-0.323 z M 21.59,5.281 c 0.187,0 0.333,0.146 0.333,0.323 0,0.177 -0.146,0.323 -0.333,0.323 -0.187,0 -0.333,-0.146 -0.333,-0.323 -0.01,-0.177 0.146,-0.323 0.333,-0.323 z m 4.164,3.061 c 0.187,0 0.333,0.146 0.333,0.323 0,0.177 -0.146,0.323 -0.333,0.323 -0.187,0 -0.333,-0.146 -0.333,-0.323 0,-0.177 0.146,-0.323 0.333,-0.323 z M 25.473,7.187 c 0.187,0 0.333,0.146 0.333,0.323 0,0.177 -0.146,0.323 -0.333,0.323 -0.187,0 -0.333,-0.146 -0.333,-0.323 0,-0.177 0.146,-0.323 0.333,-0.323 z m -0.5,-1.02 c 0.187,0 0.333,0.146 0.333,0.323 0,0.177 -0.156,0.323 -0.333,0.323 C 24.786,6.813 24.64,6.667 24.64,6.49 24.63,6.313 24.786,6.167 24.973,6.167 Z M 24.171,5.261 c 0.187,0 0.333,0.146 0.333,0.323 0,0.177 -0.146,0.323 -0.333,0.323 -0.187,0 -0.333,-0.146 -0.333,-0.323 0,-0.177 0.146,-0.323 0.333,-0.323 z M 23.192,4.574 c 0.187,0 0.333,0.146 0.333,0.323 0,0.177 -0.146,0.323 -0.333,0.323 -0.187,0 -0.333,-0.146 -0.333,-0.323 0,-0.177 0.146,-0.323 0.333,-0.323 z M 22.13,4.168 c 0.187,0 0.333,0.146 0.333,0.323 0,0.177 -0.146,0.323 -0.333,0.323 -0.187,0 -0.333,-0.146 -0.333,-0.323 0,-0.177 0.156,-0.323 0.333,-0.323 z m -1.072,0.094 c 0.187,0 0.333,0.146 0.333,0.323 0,0.177 -0.146,0.323 -0.333,0.323 -0.187,0 -0.333,-0.146 -0.333,-0.323 0,-0.177 0.146,-0.323 0.333,-0.323 z M 20.267,3.377 c 0.187,0 0.333,0.146 0.333,0.323 0,0.177 -0.156,0.323 -0.333,0.323 -0.187,0 -0.333,-0.146 -0.333,-0.323 0,-0.177 0.146,-0.323 0.333,-0.323 z M 19.236,2.721 c 0.187,0 0.333,0.146 0.333,0.323 0,0.177 -0.146,0.323 -0.333,0.323 -0.187,0 -0.333,-0.146 -0.333,-0.323 0,-0.177 0.146,-0.323 0.333,-0.323 z M 18.164,2.336 c 0.187,0 0.333,0.146 0.333,0.323 0,0.177 -0.146,0.323 -0.333,0.323 -0.187,0 -0.333,-0.146 -0.333,-0.323 0,-0.177 0.146,-0.323 0.333,-0.323 z M 17.071,2.149 c 0.187,0 0.333,0.146 0.333,0.323 0,0.177 -0.146,0.323 -0.333,0.323 -0.187,0 -0.333,-0.146 -0.333,-0.323 -0.01,-0.177 0.146,-0.323 0.333,-0.323 z M 6.673,10.695 A 0.62,0.62 0 0 1 5.851,10.466 0.568,0.568 0 0 1 6.09,9.675 0.62,0.62 0 0 1 6.912,9.904 c 0.156,0.281 0.052,0.635 -0.239,0.791 z m 4.31,-1.978 C 10.66,8.8 10.327,8.613 10.244,8.301 10.161,7.989 10.359,7.666 10.681,7.593 11.004,7.51 11.337,7.697 11.42,8.009 11.503,8.321 11.305,8.644 10.983,8.717 Z M 16,8.103 A 0.593,0.593 0 0 1 15.396,7.52 c 0,-0.323 0.271,-0.583 0.604,-0.583 0.333,0 0.604,0.26 0.604,0.583 0,0.323 -0.271,0.583 -0.604,0.583 z m -5.861,-1.01 c -0.187,0 -0.333,-0.146 -0.333,-0.323 0,-0.177 0.146,-0.323 0.333,-0.323 0.187,0 0.333,0.146 0.333,0.323 0,0.177 -0.156,0.323 -0.333,0.323 z M 10.42,5.927 c -0.187,0 -0.333,-0.146 -0.333,-0.323 0,-0.177 0.146,-0.323 0.333,-0.323 0.187,0 0.333,0.146 0.333,0.323 0,0.177 -0.156,0.323 -0.333,0.323 z M 6.246,8.998 c -0.187,0 -0.333,-0.146 -0.333,-0.323 0,-0.177 0.146,-0.323 0.333,-0.323 0.187,0 0.333,0.146 0.333,0.323 0.01,0.177 -0.146,0.323 -0.333,0.323 z M 6.527,7.832 C 6.34,7.832 6.194,7.686 6.194,7.509 6.194,7.332 6.35,7.186 6.527,7.186 6.714,7.186 6.86,7.332 6.86,7.509 6.87,7.686 6.714,7.832 6.527,7.832 Z m 0.5,-1.02 C 6.84,6.812 6.694,6.666 6.694,6.489 6.694,6.312 6.84,6.166 7.027,6.166 7.214,6.166 7.36,6.312 7.36,6.489 7.37,6.666 7.214,6.812 7.027,6.812 Z M 7.829,5.906 C 7.642,5.906 7.496,5.76 7.496,5.583 7.496,5.406 7.642,5.26 7.829,5.26 c 0.187,0 0.333,0.146 0.333,0.323 0,0.177 -0.146,0.323 -0.333,0.323 z M 8.808,5.219 c -0.187,0 -0.333,-0.146 -0.333,-0.323 0,-0.177 0.146,-0.323 0.333,-0.323 0.187,0 0.333,0.146 0.333,0.323 0.01,0.177 -0.146,0.323 -0.333,0.323 z M 9.87,4.823 C 9.683,4.823 9.537,4.677 9.537,4.5 c 0,-0.177 0.146,-0.323 0.333,-0.323 0.187,0 0.333,0.146 0.333,0.323 0,0.177 -0.146,0.323 -0.333,0.323 z m 1.072,0.083 c -0.187,0 -0.333,-0.146 -0.333,-0.323 0,-0.177 0.146,-0.323 0.333,-0.323 0.187,0 0.333,0.146 0.333,0.323 0.01,0.177 -0.146,0.323 -0.333,0.323 z m 0.791,-0.874 c -0.187,0 -0.333,-0.146 -0.333,-0.323 0,-0.177 0.156,-0.323 0.333,-0.323 0.187,0 0.333,0.146 0.333,0.323 0,0.177 -0.146,0.323 -0.333,0.323 z m 1.031,-0.666 c -0.187,0 -0.333,-0.146 -0.333,-0.323 0,-0.177 0.146,-0.323 0.333,-0.323 0.187,0 0.333,0.146 0.333,0.323 0,0.177 -0.146,0.323 -0.333,0.323 z m 1.072,-0.385 c -0.187,0 -0.333,-0.146 -0.333,-0.323 0,-0.177 0.156,-0.323 0.333,-0.323 0.187,0 0.333,0.146 0.333,0.323 0,0.177 -0.146,0.323 -0.333,0.323 z M 16,6.166 c -0.187,0 -0.333,-0.146 -0.333,-0.323 0,-0.177 0.156,-0.323 0.333,-0.323 0.187,0 0.333,0.146 0.333,0.323 0,0.177 -0.146,0.323 -0.333,0.323 z M 16,4.99 c -0.187,0 -0.333,-0.146 -0.333,-0.323 0,-0.177 0.156,-0.323 0.333,-0.323 0.187,0 0.333,0.146 0.333,0.323 0,0.177 -0.146,0.323 -0.333,0.323 z m 0,-1.176 c -0.187,0 -0.333,-0.146 -0.333,-0.323 0,-0.177 0.156,-0.323 0.333,-0.323 0.187,0 0.333,0.146 0.333,0.323 0,0.177 -0.146,0.323 -0.333,0.323 z m -1.062,-1.02 c -0.187,0 -0.344,-0.146 -0.344,-0.323 0,-0.177 0.156,-0.323 0.344,-0.323 0.188,0 0.333,0.146 0.333,0.323 0,0.187 -0.156,0.323 -0.333,0.323 z m 10.972,6.88 c 0.291,0.156 0.396,0.51 0.239,0.791 -0.157,0.281 -0.531,0.385 -0.822,0.229 A 0.578,0.578 0 0 1 25.088,9.903 0.62,0.62 0 0 1 25.91,9.674 Z m -7.755,1.707 c -0.187,0 -0.333,-0.146 -0.333,-0.323 0,-0.177 0.146,-0.323 0.333,-0.323 0.187,0 0.333,0.146 0.333,0.323 0.01,0.177 -0.146,0.323 -0.333,0.323 z m -8.474,1.083 c -0.187,0 -0.333,-0.146 -0.333,-0.323 0,-0.177 0.156,-0.323 0.333,-0.323 0.187,0 0.333,0.146 0.333,0.323 0,0.177 -0.146,0.323 -0.333,0.323 z m 4.164,-1.083 c -0.187,0 -0.333,-0.146 -0.333,-0.323 0,-0.177 0.156,-0.323 0.333,-0.323 0.187,0 0.333,0.146 0.333,0.323 0,0.177 -0.146,0.323 -0.333,0.323 z"
         fill="#ffffff"
         id="path1" /><path
         d="m 18.498,9.039 c 0.094,0.198 0.198,0.344 0.333,0.468 L 17.905,9.392 a 1.42,1.42 0 0 0 0.448,-0.375 0.64,0.64 0 0 0 0.146,0.021 z m -4.997,0 a 0.76,0.76 0 0 0 0.156,-0.021 c 0.115,0.156 0.271,0.281 0.437,0.375 L 13.168,9.508 C 13.314,9.373 13.428,9.217 13.501,9.04 Z M 11.7,9.778 10.888,9.976 C 11.034,9.799 11.127,9.58 11.148,9.351 A 1.39,1.39 0 0 0 11.7,9.778 Z m -3.092,0.979 a 1.58,1.58 0 0 0 0.177,-0.406 l 0.042,-0.01 a 0.7,0.7 0 0 0 0.219,-0.094 1.5,1.5 0 0 0 0.416,0.187 z M 16,8.758 C 16.083,8.977 16.239,9.164 16.427,9.31 16.281,9.31 16.146,9.3 16,9.3 L 15.573,9.31 C 15.771,9.164 15.917,8.977 16,8.758 Z m 6.954,1.478 c 0.062,0.042 0.146,0.073 0.219,0.094 l 0.042,0.01 c 0.031,0.146 0.094,0.281 0.177,0.406 l -0.864,-0.333 a 1.2,1.2 0 0 0 0.427,-0.177 z M 21.111,9.976 20.299,9.778 a 1.29,1.29 0 0 0 0.541,-0.427 1.25,1.25 0 0 0 0.271,0.625 z m 1.051,-2.54 c 0.229,-0.094 0.396,-0.291 0.448,-0.531 0.364,0.083 0.77,0.177 1.103,0.312 a 2.56,2.56 0 0 1 0.739,0.427 c 0.177,0.448 0.281,0.968 0.344,1.603 -0.219,0.094 -0.364,0.312 -0.448,0.531 -0.135,0.333 -0.135,0.677 0.239,0.937 A 0.59,0.59 0 0 1 23.952,10.101 0.75,0.75 0 0 0 24.108,9.82 C 24.212,9.424 23.973,9.029 23.567,8.935 23.161,8.831 22.755,9.07 22.651,9.455 22.641,9.497 22.63,9.538 22.63,9.58 22.286,9.986 21.599,9.778 21.568,9.247 22.203,9.372 22.474,9.06 22.578,8.643 22.672,8.299 22.63,7.946 22.224,7.737 22.203,7.622 22.193,7.518 22.162,7.435 Z M 11.43,6 C 12.638,5.355 14.209,5.24 15.427,5.417 V 5.5 a 0.621,0.621 0 0 0 0.146,0.843 c -0.229,0.073 -0.406,0.239 -0.468,0.531 -0.458,0.104 -0.583,0.437 -0.583,0.791 0,0.427 0.177,0.791 0.822,0.822 -0.073,0.239 -0.302,0.406 -0.573,0.406 A 0.59,0.59 0 0 1 14.209,8.497 C 14.23,8.435 14.23,8.372 14.23,8.31 c 0,-0.406 -0.344,-0.729 -0.76,-0.729 -0.416,0 -0.76,0.323 -0.76,0.729 A 0.63,0.63 0 0 0 12.804,8.654 0.593,0.593 0 0 1 12.356,9.185 0.6,0.6 0 0 1 11.7,8.925 C 12.314,8.738 12.397,8.342 12.283,7.926 12.189,7.582 11.981,7.291 11.513,7.301 A 0.688,0.688 0 0 0 11.18,6.968 C 11.242,6.635 11.315,6.302 11.43,6 Z m 5.132,-0.593 c 1.218,-0.177 2.8,-0.062 3.997,0.583 a 4.34,4.34 0 0 1 0.239,0.979 0.69,0.69 0 0 0 -0.333,0.333 c -0.468,-0.01 -0.677,0.281 -0.76,0.625 -0.115,0.416 -0.031,0.812 0.583,0.999 -0.135,0.208 -0.396,0.323 -0.656,0.26 A 0.586,0.586 0 0 1 19.184,8.655 0.66,0.66 0 0 0 19.278,8.311 c 0,-0.406 -0.333,-0.729 -0.76,-0.729 -0.416,0 -0.76,0.323 -0.76,0.729 a 1.08,1.08 0 0 0 0.021,0.187 0.6,0.6 0 0 1 -0.562,0.396 0.6,0.6 0 0 1 -0.573,-0.406 c 0.645,-0.031 0.822,-0.396 0.822,-0.822 0,-0.364 -0.125,-0.687 -0.583,-0.791 A 0.72,0.72 0 0 0 16.415,6.344 c 0.146,-0.115 0.25,-0.302 0.25,-0.5 0,-0.125 -0.042,-0.25 -0.104,-0.344 z M 8.297,7.218 C 8.63,7.093 9.036,6.989 9.4,6.906 9.452,7.145 9.619,7.343 9.848,7.437 A 0.66,0.66 0 0 0 9.806,7.728 C 9.39,7.936 9.358,8.29 9.452,8.634 9.567,9.05 9.827,9.363 10.462,9.238 10.441,9.769 9.744,9.977 9.4,9.571 9.4,9.529 9.39,9.488 9.379,9.446 9.275,9.05 8.859,8.821 8.453,8.926 8.047,9.031 7.808,9.426 7.912,9.811 c 0.031,0.104 0.083,0.208 0.156,0.281 0.01,0.219 -0.104,0.427 -0.312,0.541 A 0.73,0.73 0 0 1 7.433,10.706 C 7.808,10.456 7.808,10.113 7.672,9.769 7.578,9.561 7.443,9.342 7.214,9.249 7.266,8.614 7.37,8.094 7.547,7.646 7.734,7.5 7.974,7.334 8.297,7.219 Z M 17.083,10.945 16,11.33 14.928,10.945 16,10.559 Z M 8.973,12.36 8.879,12.724 8.848,12.859 8.775,12.817 8.411,12.619 8.505,12.275 8.526,12.202 8.651,12.244 Z m 14.053,0 0.448,-0.167 0.021,0.073 0.094,0.354 -0.354,0.187 -0.073,0.042 -0.031,-0.135 z"
         fill="#e62644"
         id="path2" /><path
         d="M 21.111,9.976 C 20.965,9.799 20.872,9.58 20.851,9.351 20.716,9.538 20.518,9.684 20.31,9.778 l 0.802,0.198 z m 1.843,0.26 c -0.125,0.083 -0.271,0.146 -0.416,0.187 l 0.864,0.333 A 1.27,1.27 0 0 1 23.225,10.35 L 23.183,10.34 C 23.1,10.319 23.027,10.278 22.954,10.236 Z M 16,8.758 C 15.917,8.977 15.771,9.164 15.573,9.31 L 16,9.3 16.427,9.31 A 1.301,1.301 0 0 1 16,8.758 Z M 8.609,10.757 9.473,10.424 C 9.327,10.382 9.182,10.32 9.057,10.237 8.995,10.279 8.911,10.31 8.838,10.331 l -0.042,0.01 C 8.744,10.487 8.692,10.632 8.609,10.757 Z M 11.701,9.778 A 1.29,1.29 0 0 1 11.16,9.351 C 11.129,9.58 11.045,9.799 10.9,9.976 L 11.702,9.778 Z M 13.502,9.039 C 13.429,9.216 13.315,9.372 13.169,9.507 L 14.095,9.392 A 1.27,1.27 0 0 1 13.658,9.017 c -0.052,0.01 -0.104,0.021 -0.156,0.021 z m 4.997,0 A 0.614,0.614 0 0 1 18.353,9.018 c -0.115,0.156 -0.271,0.281 -0.448,0.375 l 0.926,0.115 A 1.49,1.49 0 0 1 18.508,9.071 Z m 7.412,0.635 a 0.619,0.619 0 0 0 -0.822,0.229 c -0.156,0.281 -0.052,0.635 0.239,0.791 A 0.62,0.62 0 0 0 26.15,10.465 0.56,0.56 0 0 0 25.911,9.674 Z M 21.32,7.592 C 20.997,7.509 20.664,7.696 20.581,8.008 20.498,8.32 20.696,8.643 21.018,8.716 21.341,8.799 21.674,8.612 21.757,8.3 21.84,7.988 21.642,7.665 21.32,7.592 Z m 0.552,-1.145 c -0.187,0 -0.333,0.146 -0.333,0.323 0,0.177 0.156,0.323 0.333,0.323 0.187,0 0.333,-0.146 0.333,-0.323 A 0.32,0.32 0 0 0 21.872,6.447 Z M 21.591,5.281 c -0.187,0 -0.333,0.146 -0.333,0.323 0,0.177 0.156,0.323 0.333,0.323 0.187,0 0.333,-0.146 0.333,-0.323 0,-0.177 -0.146,-0.323 -0.333,-0.323 z m 4.164,3.061 c -0.187,0 -0.333,0.146 -0.333,0.323 0,0.177 0.146,0.323 0.333,0.323 0.187,0 0.333,-0.146 0.333,-0.323 0,-0.177 -0.146,-0.323 -0.333,-0.323 z M 25.474,7.187 c -0.187,0 -0.333,0.146 -0.333,0.323 0,0.177 0.146,0.323 0.333,0.323 0.187,0 0.333,-0.146 0.333,-0.323 0,-0.177 -0.146,-0.323 -0.333,-0.323 z m -0.5,-1.02 c -0.187,0 -0.333,0.146 -0.333,0.323 0,0.177 0.156,0.323 0.333,0.323 0.187,0 0.333,-0.146 0.333,-0.323 0,-0.177 -0.146,-0.323 -0.333,-0.323 z M 24.172,5.261 c -0.187,0 -0.333,0.146 -0.333,0.323 0,0.177 0.146,0.323 0.333,0.323 0.187,0 0.333,-0.146 0.333,-0.323 0,-0.177 -0.146,-0.323 -0.333,-0.323 z M 23.193,4.574 c -0.187,0 -0.333,0.146 -0.333,0.323 0,0.177 0.146,0.323 0.333,0.323 0.187,0 0.333,-0.146 0.333,-0.323 0,-0.177 -0.146,-0.323 -0.333,-0.323 z M 22.131,4.168 c -0.187,0 -0.333,0.146 -0.333,0.323 0,0.177 0.146,0.323 0.333,0.323 0.187,0 0.333,-0.146 0.333,-0.323 0.01,-0.177 -0.146,-0.323 -0.333,-0.323 z m -1.072,0.094 c -0.187,0 -0.333,0.146 -0.333,0.323 0,0.177 0.146,0.323 0.333,0.323 0.187,0 0.333,-0.146 0.333,-0.323 0,-0.177 -0.146,-0.323 -0.333,-0.323 z M 20.268,3.377 c -0.187,0 -0.333,0.146 -0.333,0.323 0,0.177 0.146,0.323 0.333,0.323 0.187,0 0.333,-0.146 0.333,-0.323 0.01,-0.177 -0.146,-0.323 -0.333,-0.323 z M 19.237,2.721 c -0.187,0 -0.333,0.146 -0.333,0.323 0,0.177 0.146,0.323 0.333,0.323 0.187,0 0.333,-0.146 0.333,-0.323 0,-0.177 -0.146,-0.323 -0.333,-0.323 z M 18.165,2.336 c -0.187,0 -0.333,0.146 -0.333,0.323 0,0.177 0.146,0.323 0.333,0.323 0.187,0 0.333,-0.146 0.333,-0.323 0.01,-0.177 -0.146,-0.323 -0.333,-0.323 z M 17.072,2.149 c -0.187,0 -0.333,0.146 -0.333,0.323 0,0.177 0.146,0.323 0.333,0.323 0.187,0 0.333,-0.146 0.333,-0.323 0,-0.177 -0.146,-0.323 -0.333,-0.323 z M 6.673,10.695 C 6.964,10.539 7.069,10.185 6.912,9.904 A 0.616,0.616 0 0 0 6.09,9.675 c -0.291,0.156 -0.396,0.51 -0.239,0.791 0.157,0.281 0.531,0.385 0.822,0.229 z m 4.31,-1.978 c 0.323,-0.083 0.52,-0.396 0.437,-0.708 -0.083,-0.312 -0.416,-0.5 -0.739,-0.416 -0.323,0.084 -0.52,0.396 -0.437,0.708 a 0.61,0.61 0 0 0 0.739,0.416 z M 16,8.103 c 0.333,0 0.604,-0.26 0.604,-0.583 A 0.593,0.593 0 0 0 16,6.937 0.593,0.593 0 0 0 15.396,7.52 c 0,0.323 0.271,0.583 0.604,0.583 z m -5.861,-1.01 c 0.187,0 0.333,-0.146 0.333,-0.323 0,-0.177 -0.146,-0.323 -0.333,-0.323 -0.187,0 -0.333,0.146 -0.333,0.323 -0.01,0.177 0.146,0.323 0.333,0.323 z M 10.42,5.927 c 0.187,0 0.333,-0.146 0.333,-0.323 0,-0.177 -0.146,-0.323 -0.333,-0.323 -0.187,0 -0.333,0.146 -0.333,0.323 -0.01,0.177 0.146,0.323 0.333,0.323 z M 6.246,8.998 c 0.187,0 0.333,-0.146 0.333,-0.323 0,-0.177 -0.146,-0.323 -0.333,-0.323 -0.187,0 -0.333,0.146 -0.333,0.323 0,0.177 0.146,0.323 0.333,0.323 z M 6.527,7.832 C 6.714,7.832 6.86,7.686 6.86,7.509 A 0.333,0.333 0 0 0 6.527,7.186 c -0.187,0 -0.333,0.146 -0.333,0.323 0,0.177 0.146,0.323 0.333,0.323 z m 0.5,-1.02 c 0.187,0 0.333,-0.146 0.333,-0.323 0,-0.177 -0.146,-0.323 -0.333,-0.323 -0.187,0 -0.333,0.146 -0.333,0.323 0,0.177 0.156,0.323 0.333,0.323 z M 7.829,5.906 c 0.187,0 0.333,-0.146 0.333,-0.323 0,-0.177 -0.146,-0.323 -0.333,-0.323 -0.187,0 -0.333,0.146 -0.333,0.323 0,0.177 0.146,0.323 0.333,0.323 z M 8.808,5.219 c 0.187,0 0.333,-0.146 0.333,-0.323 0,-0.177 -0.146,-0.323 -0.333,-0.323 -0.187,0 -0.333,0.146 -0.333,0.323 0,0.177 0.156,0.323 0.333,0.323 z M 9.87,4.823 c 0.187,0 0.333,-0.146 0.333,-0.323 0,-0.177 -0.146,-0.323 -0.333,-0.323 -0.187,0 -0.333,0.146 -0.333,0.323 0,0.177 0.146,0.323 0.333,0.323 z m 1.072,0.083 c 0.187,0 0.333,-0.146 0.333,-0.323 0,-0.177 -0.146,-0.323 -0.333,-0.323 -0.187,0 -0.333,0.146 -0.333,0.323 0,0.177 0.146,0.323 0.333,0.323 z m 0.791,-0.874 c 0.187,0 0.333,-0.146 0.333,-0.323 0,-0.177 -0.146,-0.323 -0.333,-0.323 -0.187,0 -0.333,0.146 -0.333,0.323 0,0.177 0.146,0.323 0.333,0.323 z m 1.031,-0.666 c 0.187,0 0.333,-0.146 0.333,-0.323 0,-0.177 -0.146,-0.323 -0.333,-0.323 -0.187,0 -0.333,0.146 -0.333,0.323 0,0.177 0.146,0.323 0.333,0.323 z m 1.072,-0.385 c 0.187,0 0.333,-0.146 0.333,-0.323 0,-0.177 -0.146,-0.323 -0.333,-0.323 -0.187,0 -0.333,0.146 -0.333,0.323 0,0.177 0.146,0.323 0.333,0.323 z M 16,6.166 c 0.187,0 0.333,-0.146 0.333,-0.323 0,-0.177 -0.146,-0.323 -0.333,-0.323 -0.187,0 -0.333,0.146 -0.333,0.323 0,0.177 0.146,0.323 0.333,0.323 z M 16,4.99 c 0.187,0 0.333,-0.146 0.333,-0.323 0,-0.177 -0.146,-0.323 -0.333,-0.323 -0.187,0 -0.333,0.146 -0.333,0.323 0,0.177 0.146,0.323 0.333,0.323 z m 0,-1.176 c 0.187,0 0.333,-0.146 0.333,-0.323 0,-0.177 -0.146,-0.323 -0.333,-0.323 -0.187,0 -0.333,0.146 -0.333,0.323 0,0.177 0.146,0.323 0.333,0.323 z m -1.062,-1.02 c 0.187,0 0.333,-0.146 0.333,-0.323 A 0.333,0.333 0 0 0 14.938,2.148 c -0.187,0 -0.344,0.146 -0.344,0.323 0,0.187 0.156,0.323 0.344,0.323 z m 9.244,7.964 c 0.281,0.146 0.5,0.083 0.77,-0.01 C 24.504,10.529 24.265,10.332 24.473,9.822 24.567,9.593 24.681,9.416 24.931,9.343 24.775,7.355 24.202,6.407 22.329,5.502 l -0.135,0.042 c 0,0.021 0.01,0.042 0.01,0.073 0,0.271 -0.156,0.406 -0.364,0.552 0.333,0.062 0.635,0.219 0.635,0.604 0,0.323 -0.229,0.5 -0.52,0.583 0.094,0.177 0.115,0.25 0.094,0.458 0.385,0.177 0.468,0.406 0.364,0.791 -0.146,0.541 -0.479,0.593 -1.01,0.458 a 0.739,0.739 0 0 0 1.332,0.552 c 0,-0.052 0.01,-0.094 0.021,-0.146 0.083,-0.312 0.416,-0.51 0.75,-0.427 0.334,0.083 0.531,0.406 0.437,0.718 -0.031,0.104 -0.083,0.187 -0.156,0.26 -0.01,0.312 0.125,0.593 0.396,0.739 z M 15.479,3.481 c 0,-0.042 0.01,-0.083 0.01,-0.135 -2.446,-0.177 -4.206,1.437 -4.445,3.706 0.219,0.083 0.302,0.177 0.396,0.385 0.427,-0.021 0.614,0.146 0.718,0.52 0.146,0.531 -0.125,0.739 -0.656,0.874 0.156,0.344 0.479,0.583 0.895,0.479 A 0.71,0.71 0 0 0 12.949,8.613 0.552,0.552 0 0 1 12.855,8.301 c 0,-0.323 0.271,-0.593 0.614,-0.593 0.333,0 0.614,0.26 0.614,0.593 a 0.59,0.59 0 0 1 -0.031,0.187 0.73,0.73 0 0 0 0.718,0.531 c 0.427,0 0.677,-0.302 0.739,-0.677 -0.541,0 -0.854,-0.135 -0.854,-0.687 0,-0.396 0.146,-0.593 0.562,-0.677 0.094,-0.489 0.354,-0.52 0.77,-0.583 0.427,0.073 0.677,0.094 0.77,0.583 0.416,0.083 0.562,0.281 0.562,0.677 0,0.552 -0.312,0.687 -0.854,0.687 0.062,0.375 0.312,0.677 0.739,0.677 A 0.75,0.75 0 0 0 17.922,8.488 0.589,0.589 0 0 1 17.891,8.301 c 0,-0.323 0.271,-0.593 0.614,-0.593 0.343,0 0.614,0.26 0.614,0.593 a 0.55,0.55 0 0 1 -0.094,0.312 c 0.01,0.333 0.219,0.614 0.552,0.697 0.416,0.104 0.739,-0.135 0.895,-0.479 C 19.941,8.696 19.681,8.487 19.816,7.957 19.92,7.582 20.107,7.416 20.534,7.437 20.638,7.229 20.711,7.135 20.93,7.052 20.691,4.783 18.942,3.169 16.485,3.346 a 0.55,0.55 0 0 1 0.01,0.135 c 0,0.115 -0.042,0.208 -0.104,0.302 v 0.573 c 0.062,0.094 0.104,0.187 0.104,0.302 0,0.115 -0.042,0.208 -0.104,0.302 l 0.01,0.593 c 0.052,0.083 0.094,0.177 0.094,0.281 0,0.344 -0.26,0.437 -0.52,0.552 -0.26,-0.115 -0.52,-0.219 -0.52,-0.552 0,-0.115 0.042,-0.208 0.104,-0.302 V 4.97 A 0.529,0.529 0 0 1 15.455,4.668 c 0,-0.115 0.042,-0.208 0.104,-0.302 V 3.783 A 0.598,0.598 0 0 1 15.476,3.481 Z M 7.526,9.82 c 0.198,0.51 -0.031,0.708 -0.479,0.926 0.271,0.094 0.489,0.156 0.77,0.01 A 0.7,0.7 0 0 0 8.192,10.038 0.603,0.603 0 0 1 8.036,9.778 0.614,0.614 0 0 1 8.484,9.049 0.614,0.614 0 0 1 9.254,9.622 C 9.722,10.215 10.67,9.903 10.586,9.07 10.055,9.195 9.722,9.143 9.576,8.612 9.472,8.237 9.555,7.998 9.94,7.821 A 0.69,0.69 0 0 1 10.034,7.363 C 9.743,7.28 9.514,7.103 9.514,6.78 9.514,6.384 9.816,6.239 10.149,6.176 9.951,6.02 9.795,5.895 9.795,5.624 9.795,5.603 9.795,5.572 9.66,5.53 7.755,6.436 7.224,7.352 7.058,9.361 7.318,9.423 7.433,9.59 7.526,9.819 Z m 16.198,1.884 C 21.382,10.642 18.758,10.038 16,10.038 c -2.758,0 -5.371,0.593 -7.714,1.655 -0.156,0.073 -0.333,0 -0.406,-0.146 -0.073,-0.156 0,-0.271 0.073,-0.396 C 7.474,11.297 7.12,11.297 6.704,10.984 5.934,11.484 5.049,10.453 5.632,9.985 5.361,9.641 5.361,9.267 5.757,9.017 A 0.599,0.599 0 0 1 5.642,8.663 C 5.642,8.278 5.944,8.122 6.277,8.059 6.079,7.913 5.923,7.778 5.923,7.507 5.923,7.111 6.246,6.945 6.589,6.914 6.495,6.768 6.422,6.664 6.422,6.487 6.422,6.164 6.693,5.904 7.036,5.904 7.14,5.904 7.244,5.935 7.338,5.966 7.276,5.831 7.223,5.727 7.223,5.581 c 0,-0.323 0.271,-0.583 0.614,-0.583 0.167,0 0.26,0.062 0.406,0.125 A 0.885,0.885 0 0 1 8.201,4.894 c 0,-0.323 0.271,-0.593 0.614,-0.593 0.187,0 0.291,0.073 0.437,0.167 0.073,-0.312 0.25,-0.562 0.614,-0.562 0.271,0 0.427,0.146 0.562,0.344 0.146,-0.156 0.281,-0.26 0.51,-0.26 0.094,0 0.177,0.021 0.271,0.042 A 0.764,0.764 0 0 1 11.115,3.699 c 0,-0.323 0.271,-0.583 0.604,-0.583 0.198,0 0.302,0.083 0.458,0.177 -0.01,-0.073 -0.042,-0.167 -0.042,-0.25 0,-0.323 0.271,-0.583 0.614,-0.583 0.198,0 0.302,0.073 0.448,0.177 0.073,-0.312 0.25,-0.562 0.625,-0.562 0.229,0 0.354,0.094 0.5,0.239 0.115,-0.25 0.281,-0.427 0.593,-0.427 a 0.66,0.66 0 0 1 0.239,0.052 1.07,1.07 0 0 1 0.625,-0.364 V 0.951 h -0.51 V 0.576 h 0.51 V 0.129 h 0.406 v 0.448 h 0.51 v 0.364 h -0.51 V 1.566 A 1.1,1.1 0 0 1 16.81,1.93 0.66,0.66 0 0 1 17.049,1.878 c 0.312,0 0.479,0.187 0.593,0.427 0.146,-0.146 0.281,-0.239 0.5,-0.239 0.375,0 0.552,0.26 0.614,0.562 0.146,-0.104 0.26,-0.177 0.458,-0.177 0.333,0 0.614,0.26 0.614,0.583 0,0.083 -0.021,0.177 -0.031,0.25 0.156,-0.094 0.26,-0.167 0.458,-0.167 0.333,0 0.614,0.26 0.614,0.583 0,0.125 -0.042,0.219 -0.094,0.333 a 1.13,1.13 0 0 1 0.271,-0.042 c 0.229,0 0.364,0.104 0.51,0.26 0.135,-0.208 0.291,-0.344 0.562,-0.344 0.375,0 0.552,0.26 0.625,0.562 0.146,-0.094 0.25,-0.167 0.437,-0.167 0.333,0 0.614,0.26 0.614,0.593 0,0.073 -0.021,0.156 -0.031,0.229 0.135,-0.073 0.239,-0.125 0.396,-0.125 0.333,0 0.614,0.26 0.614,0.583 0,0.146 -0.052,0.25 -0.115,0.375 0.104,-0.031 0.198,-0.062 0.312,-0.062 0.333,0 0.614,0.26 0.614,0.583 0,0.177 -0.073,0.281 -0.167,0.427 0.354,0.031 0.677,0.198 0.677,0.593 0,0.271 -0.156,0.406 -0.354,0.552 0.333,0.073 0.635,0.219 0.635,0.604 0,0.146 -0.042,0.239 -0.115,0.354 0.406,0.25 0.396,0.614 0.125,0.958 0.354,0.281 0.167,0.718 -0.125,0.947 -0.302,0.229 -0.614,0.271 -0.947,0.052 -0.416,0.312 -0.77,0.312 -1.249,0.167 l 0.073,0.146 c 0.094,0.26 -0.146,0.52 -0.416,0.427 z M 9.088,12.297 8.588,12.12 8.546,12.047 c -0.042,0.021 -0.073,0.021 -0.104,0.031 -0.135,0.01 -0.125,-0.135 -0.062,-0.167 2.311,-1.051 4.882,-1.634 7.61,-1.634 2.728,0 5.299,0.583 7.61,1.634 0.062,0.031 0.073,0.177 -0.062,0.167 -0.031,0 -0.062,-0.01 -0.104,-0.031 l -0.042,0.073 -0.5,0.177 0.146,0.552 -0.042,0.094 c 0.26,0.115 0.083,0.302 -0.031,0.25 -2.124,-0.968 -4.487,-1.499 -6.985,-1.499 -2.498,0 -4.861,0.531 -6.985,1.499 -0.052,0.021 -0.115,0 -0.146,-0.062 -0.031,-0.062 0,-0.104 0.042,-0.146 0.021,-0.021 0.052,-0.031 0.083,-0.042 L 8.932,12.849 Z m 2.759,-0.406 1.062,-0.718 -1.291,-0.135 -1.062,0.718 z m 10.472,0.666 c 0.239,0 0.437,-0.187 0.437,-0.416 0,-0.229 -0.198,-0.416 -0.437,-0.416 -0.239,0 -0.437,0.187 -0.437,0.416 0.01,0.229 0.198,0.416 0.437,0.416 z m -8.474,-1.083 c 0.239,0 0.437,-0.187 0.437,-0.416 0,-0.229 -0.198,-0.416 -0.437,-0.416 -0.239,0 -0.437,0.187 -0.437,0.416 0,0.229 0.198,0.416 0.437,0.416 z m -4.164,1.083 c 0.239,0 0.437,-0.187 0.437,-0.416 0,-0.229 -0.187,-0.416 -0.437,-0.416 -0.239,0 -0.437,0.187 -0.437,0.416 0,0.229 0.198,0.416 0.437,0.416 z m 8.474,-1.083 c 0.239,0 0.437,-0.187 0.437,-0.416 0,-0.229 -0.198,-0.416 -0.437,-0.416 a 0.42,0.42 0 0 0 -0.427,0.416 c 0,0.229 0.198,0.416 0.427,0.416 z m 1.999,0.416 1.291,-0.135 -1.062,-0.718 -1.291,0.135 z M 17.354,10.943 16,10.455 14.647,10.944 16,11.433 Z M 1.988,27.559 c 0,7.443 6.308,13.533 14.012,13.533 7.714,0 14.022,-6.09 14.022,-13.533 0,-7.464 -6.308,-13.533 -14.022,-13.533 -7.714,0 -14.012,6.069 -14.012,13.533 z m 29.554,0 C 31.542,35.814 24.567,42.56 16,42.56 7.433,42.56 0.458,35.814 0.458,27.559 0.458,19.294 7.433,12.548 16,12.548 c 8.567,-0.01 15.542,6.735 15.542,15.011 z m -17.582,-6.382 2.03,1.999 1.895,-1.936 c -0.666,-0.167 -1.301,-0.291 -1.999,-0.312 -0.645,-0.031 -1.301,0.115 -1.926,0.25 z m 5.34,-1.395 2.977,-2.967 c 3.852,2.134 6.444,6.131 6.444,10.701 0,2.977 -1.093,5.705 -2.936,7.839 L 24.4,34.012 c 1.561,-1.843 2.582,-3.675 2.582,-6.61 0,-3.133 -1.697,-6.631 -4.403,-8.442 l -1.79,1.77 c 0.916,0.666 1.645,1.332 2.259,2.269 l -1.364,1.135 C 21.143,23.218 20.445,22.573 19.55,21.979 l -3.56,3.623 -3.696,-3.675 c -1.915,1.291 -3.04,3.133 -3.092,5.424 -0.062,3.05 1.978,5.163 4.841,6.09 V 27.32 h 4.372 v 1.26 H 15.74 v 1.634 h 2.644 v 1.437 H 15.74 v 2.061 c 1.957,0.094 4.049,-0.999 5.319,-2.353 l 1.312,1.28 c -1.676,1.874 -4.091,2.821 -6.621,2.842 v 1.884 H 14.053 V 35.283 C 10.191,34.357 7.391,31.088 7.443,27.184 7.474,24.509 8.952,22.312 11.097,20.751 L 9.286,18.94 c -2.811,2.217 -4.32,4.924 -4.445,8.442 -0.094,3.113 1.572,5.611 2.623,6.662 L 6.246,35.241 C 4.362,33.117 3.248,30.494 3.248,27.506 3.248,22.967 5.84,18.97 9.66,16.836 l 3.019,3.04 c 1.072,-0.396 2.186,-0.604 3.331,-0.604 a 9.51,9.51 0 0 1 3.196,0.604 z"
         fill="#fcbf00"
         id="path3" /><path
         d="M 32,27.559 C 32,36.064 24.817,43.007 16,43.007 7.172,43.007 0,36.064 0,27.559 0,19.043 7.183,12.09 16,12.09 c 8.828,0 16,6.954 16,15.469 z m -0.458,0 c 0,-8.265 -6.975,-15.011 -15.542,-15.011 -8.567,0 -15.542,6.745 -15.542,15.011 0,8.255 6.975,15.001 15.542,15.001 8.567,0 15.542,-6.746 15.542,-15.001 z m -29.096,0 c 0,7.193 6.1,13.085 13.554,13.085 7.454,0 13.554,-5.882 13.554,-13.085 C 29.554,20.345 23.454,14.484 16,14.484 8.547,14.474 2.446,20.345 2.446,27.559 Z m -0.458,0 c 0,-7.464 6.308,-13.533 14.012,-13.533 7.714,0 14.022,6.069 14.022,13.533 0,7.443 -6.308,13.533 -14.022,13.533 C 8.286,41.082 1.988,35.002 1.988,27.559 Z m 15.656,-2.988 7.578,7.547 c 0.864,-1.374 1.301,-2.779 1.301,-4.726 0,-3.394 -1.978,-6.485 -3.883,-7.859 l -1.145,1.135 a 8.67,8.67 0 0 1 2.155,2.415 l -2.103,1.759 c -0.5,-0.958 -1.031,-1.634 -1.936,-2.269 z m 9.608,9.567 c -1.364,2.238 -3.446,4.008 -5.913,5.07 L 20.112,38 17.822,35.741 a 8.24,8.24 0 0 1 -1.614,0.187 v 1.895 H 13.585 V 35.637 C 9.65,34.606 6.933,31.046 6.975,27.184 6.985,26.539 7.079,25.914 7.235,25.31 L 5.944,24.04 c -0.385,1.041 -0.604,2.165 -0.645,3.362 -0.073,2.394 1.01,4.986 2.811,6.641 L 6.215,35.906 C 3.987,33.491 2.769,30.774 2.769,27.505 c 0,-4.768 2.707,-8.932 6.964,-11.222 l 3.05,3.081 c 1.01,-0.354 2.155,-0.531 3.206,-0.531 1.135,0.01 2.165,0.208 3.092,0.531 l 3.102,-3.113 c 4.289,2.301 6.995,6.465 6.995,11.263 0.01,2.436 -0.666,4.643 -1.926,6.621 z M 13.573,31.567 9.66,27.715 c 0.094,2.155 1.457,4.195 3.914,5.101 z M 19.3,19.782 19.196,19.886 A 9.025,9.025 0 0 0 16,19.283 c -1.145,0 -2.259,0.208 -3.331,0.604 L 9.65,16.847 c -3.82,2.124 -6.412,6.121 -6.412,10.66 0,2.998 1.114,5.611 2.998,7.735 L 7.454,34.045 C 6.403,32.994 4.737,30.495 4.831,27.383 4.956,23.864 6.465,21.158 9.276,18.941 l 1.811,1.811 c -2.144,1.561 -3.623,3.758 -3.654,6.433 -0.052,3.904 2.738,7.172 6.61,8.099 v 2.082 H 15.74 V 35.48 c 2.54,-0.021 4.955,-0.968 6.621,-2.842 l -1.312,-1.28 c -1.27,1.353 -3.352,2.457 -5.319,2.353 V 31.65 h 2.644 V 30.213 H 15.73 v -1.634 h 2.675 v -1.26 H 14.033 V 33.44 C 11.17,32.514 9.12,30.4 9.192,27.35 c 0.052,-2.29 1.176,-4.133 3.092,-5.424 l 3.696,3.675 3.56,-3.623 c 0.906,0.593 1.593,1.239 2.134,2.155 l 1.364,-1.135 c -0.614,-0.937 -1.343,-1.603 -2.259,-2.269 l 1.79,-1.77 c 2.707,1.811 4.403,5.309 4.403,8.442 0,2.925 -1.02,4.768 -2.582,6.61 l 1.385,1.343 a 11.91,11.91 0 0 0 2.936,-7.839 c 0,-4.57 -2.592,-8.567 -6.444,-10.701 z m -5.34,1.395 c 0.625,-0.135 1.28,-0.281 1.926,-0.26 0.697,0.021 1.332,0.146 1.999,0.312 l -1.895,1.936 z m 0.926,0.271 1.093,1.083 1.02,-1.041 c -0.364,-0.073 -0.739,-0.104 -1.135,-0.115 -0.239,-0.01 -0.604,0.021 -0.979,0.073 z m 8.141,-9.088 0.094,0.364 0.042,0.125 0.073,-0.042 0.354,-0.187 -0.094,-0.354 -0.021,-0.073 z m 0.697,-0.656 c 0.271,0.094 0.51,-0.177 0.385,-0.406 l -0.073,-0.146 c 0.479,0.146 0.833,0.146 1.249,-0.167 0.333,0.219 0.635,0.177 0.947,-0.052 0.302,-0.229 0.479,-0.666 0.125,-0.947 0.271,-0.344 0.281,-0.718 -0.125,-0.958 0.073,-0.115 0.115,-0.208 0.115,-0.354 0,-0.385 -0.302,-0.541 -0.635,-0.604 0.198,-0.156 0.354,-0.281 0.354,-0.552 0,-0.396 -0.323,-0.562 -0.677,-0.593 0.094,-0.146 0.167,-0.239 0.167,-0.427 0,-0.323 -0.271,-0.583 -0.614,-0.583 -0.104,0 -0.208,0.031 -0.312,0.062 0.062,-0.135 0.115,-0.229 0.115,-0.375 0,-0.323 -0.271,-0.583 -0.614,-0.583 -0.167,0 -0.26,0.052 -0.396,0.125 0.01,-0.073 0.031,-0.156 0.031,-0.229 A 0.604,0.604 0 0 0 23.152,4.322 c -0.187,0 -0.291,0.073 -0.437,0.167 -0.073,-0.312 -0.25,-0.562 -0.625,-0.562 -0.271,0 -0.427,0.146 -0.562,0.344 -0.146,-0.156 -0.281,-0.26 -0.51,-0.26 -0.094,0 -0.187,0.021 -0.271,0.042 0.052,-0.115 0.094,-0.208 0.094,-0.333 0,-0.323 -0.271,-0.583 -0.614,-0.583 -0.198,0 -0.302,0.073 -0.458,0.167 0.01,-0.073 0.031,-0.167 0.031,-0.25 0,-0.323 -0.271,-0.583 -0.614,-0.583 -0.198,0 -0.302,0.073 -0.458,0.177 -0.073,-0.312 -0.25,-0.562 -0.614,-0.562 -0.229,0 -0.354,0.094 -0.5,0.239 -0.125,-0.25 -0.281,-0.427 -0.593,-0.427 -0.094,0 -0.156,0.021 -0.239,0.052 A 1.07,1.07 0 0 0 16.157,1.586 V 0.961 h 0.51 V 0.576 h -0.51 V 0.129 h -0.406 v 0.448 h -0.51 v 0.364 h 0.51 V 1.566 C 15.491,1.628 15.324,1.722 15.126,1.93 A 0.661,0.661 0 0 0 14.887,1.878 c -0.312,0 -0.479,0.187 -0.593,0.427 -0.146,-0.146 -0.281,-0.239 -0.5,-0.239 -0.375,0 -0.552,0.26 -0.625,0.562 -0.146,-0.104 -0.26,-0.177 -0.448,-0.177 -0.333,0 -0.614,0.26 -0.614,0.583 0,0.083 0.021,0.177 0.042,0.25 C 11.993,3.19 11.878,3.107 11.691,3.107 A 0.593,0.593 0 0 0 11.087,3.69 c 0,0.125 0.042,0.219 0.094,0.333 C 11.087,4.002 11.004,3.981 10.91,3.981 10.681,3.981 10.546,4.085 10.4,4.241 10.265,4.033 10.109,3.897 9.838,3.897 9.463,3.897 9.286,4.157 9.224,4.459 9.109,4.376 8.995,4.303 8.808,4.303 A 0.604,0.604 0 0 0 8.194,4.896 c 0,0.073 0.021,0.156 0.031,0.229 A 0.714,0.714 0 0 0 7.828,5 C 7.495,5 7.214,5.26 7.214,5.583 c 0,0.146 0.052,0.25 0.115,0.375 C 7.235,5.937 7.142,5.906 7.027,5.906 6.694,5.906 6.413,6.166 6.413,6.489 6.413,6.666 6.486,6.77 6.58,6.916 6.236,6.947 5.924,7.114 5.924,7.509 5.924,7.78 6.08,7.915 6.278,8.061 5.945,8.134 5.643,8.28 5.643,8.665 c 0,0.146 0.042,0.239 0.115,0.354 -0.396,0.25 -0.396,0.625 -0.125,0.968 -0.583,0.468 0.302,1.509 1.072,0.999 0.416,0.312 0.77,0.312 1.249,0.167 -0.062,0.135 -0.146,0.25 -0.073,0.396 a 0.3,0.3 0 0 0 0.406,0.146 c 2.342,-1.062 4.955,-1.655 7.714,-1.655 2.769,0.01 5.382,0.604 7.724,1.666 z M 8.973,12.36 8.65,12.245 8.525,12.203 8.504,12.276 8.41,12.62 8.764,12.807 8.837,12.849 8.868,12.714 Z M 8.765,12.922 8.297,12.672 8.412,12.224 C 8.235,12.203 8.152,12.005 8.235,11.87 A 0.461,0.461 0 0 1 7.756,11.62 C 7.714,11.537 7.704,11.453 7.714,11.37 A 1.32,1.32 0 0 1 6.704,11.162 C 5.882,11.641 4.914,10.496 5.444,9.965 5.205,9.621 5.267,9.205 5.569,8.976 A 0.629,0.629 0 0 1 5.496,8.664 c 0,-0.302 0.198,-0.562 0.468,-0.677 A 0.705,0.705 0 0 1 5.777,7.508 C 5.777,7.164 6.027,6.883 6.35,6.8 A 0.629,0.629 0 0 1 6.277,6.488 c 0,-0.406 0.333,-0.729 0.75,-0.729 H 7.1 A 0.736,0.736 0 0 1 7.829,4.853 0.81,0.81 0 0 1 8.058,4.884 c 0,-0.396 0.344,-0.718 0.75,-0.718 A 0.76,0.76 0 0 1 9.152,4.249 C 9.256,3.968 9.537,3.77 9.86,3.77 a 0.76,0.76 0 0 1 0.583,0.271 0.75,0.75 0 0 1 0.5,-0.177 h 0.052 C 10.985,3.812 10.974,3.76 10.974,3.708 c 0,-0.406 0.333,-0.729 0.75,-0.729 0.104,0 0.198,0.021 0.281,0.052 0.01,-0.396 0.344,-0.718 0.75,-0.718 0.135,0 0.26,0.031 0.364,0.094 0.104,-0.281 0.385,-0.479 0.708,-0.479 0.177,0 0.333,0.052 0.458,0.156 0.135,-0.198 0.364,-0.333 0.635,-0.333 0.073,0 0.135,0.01 0.198,0.031 0.125,-0.125 0.271,-0.219 0.448,-0.291 L 15.639,1.46 V 1.085 h -0.51 V 0.441 h 0.51 v -0.448 h 0.697 v 0.448 h 0.51 v 0.645 h -0.51 v 0.375 l 0.073,0.031 a 1.15,1.15 0 0 1 0.448,0.291 c 0.062,-0.021 0.125,-0.031 0.198,-0.031 0.271,0 0.5,0.135 0.635,0.333 0.125,-0.094 0.291,-0.156 0.458,-0.156 0.323,0 0.604,0.198 0.708,0.479 0.104,-0.062 0.229,-0.094 0.364,-0.094 0.416,0 0.75,0.323 0.75,0.718 0.083,-0.031 0.177,-0.052 0.281,-0.052 0.416,0 0.75,0.323 0.75,0.729 0,0.052 0,0.104 -0.021,0.156 h 0.052 a 0.833,0.833 0 0 1 0.5,0.177 c 0.135,-0.167 0.344,-0.271 0.583,-0.271 0.323,0 0.604,0.198 0.708,0.479 a 0.76,0.76 0 0 1 0.344,-0.083 c 0.416,0 0.75,0.323 0.75,0.718 a 0.812,0.812 0 0 1 0.229,-0.031 c 0.416,0 0.75,0.323 0.75,0.729 0,0.062 -0.01,0.125 -0.021,0.187 h 0.073 c 0.416,0 0.75,0.323 0.75,0.729 0,0.115 -0.031,0.219 -0.073,0.312 0.333,0.073 0.573,0.364 0.573,0.708 A 0.71,0.71 0 0 1 26,8.008 0.72,0.72 0 0 1 26.479,8.685 c 0,0.115 -0.031,0.219 -0.073,0.312 0.302,0.229 0.364,0.645 0.125,0.989 0.333,0.333 0.042,0.864 -0.239,1.083 -0.271,0.208 -0.656,0.333 -1.031,0.115 -0.291,0.198 -0.656,0.281 -1.01,0.208 0.042,0.291 -0.229,0.541 -0.52,0.5 0.083,0.135 0,0.333 -0.177,0.354 l 0.115,0.448 -0.468,0.25 c 0.062,0.073 0.073,0.177 0.031,0.271 -0.062,0.125 -0.208,0.198 -0.344,0.135 -2.103,-0.958 -4.445,-1.489 -6.933,-1.489 A 16.65,16.65 0 0 0 9.032,13.35 C 8.897,13.412 8.751,13.34 8.688,13.215 8.698,13.1 8.709,12.996 8.771,12.924 Z m 0.323,-0.625 -0.146,0.552 0.042,0.094 c -0.021,0.01 -0.052,0.021 -0.083,0.042 -0.042,0.031 -0.073,0.073 -0.042,0.146 0.031,0.062 0.094,0.083 0.146,0.062 2.124,-0.968 4.487,-1.499 6.985,-1.499 2.509,0 4.861,0.531 6.985,1.499 0.104,0.052 0.291,-0.135 0.031,-0.25 l 0.042,-0.094 -0.146,-0.552 0.5,-0.177 0.042,-0.073 c 0.042,0.021 0.073,0.021 0.104,0.031 0.135,0.01 0.125,-0.135 0.062,-0.167 A 18.307,18.307 0 0 0 16,10.278 c -2.727,0 -5.299,0.583 -7.61,1.634 -0.062,0.031 -0.073,0.177 0.062,0.167 0.031,0 0.062,-0.01 0.104,-0.031 l 0.031,0.073 z M 20.518,5.864 C 19.925,4.417 18.53,3.386 16.677,3.48 c 0,0.125 -0.042,0.239 -0.104,0.344 v 0.489 c 0.062,0.104 0.104,0.219 0.104,0.344 0,0.125 -0.042,0.25 -0.104,0.344 v 0.312 c 1.27,-0.167 2.769,-0.042 3.945,0.552 z M 16.562,5.5 a 0.621,0.621 0 0 1 -0.146,0.843 c 0.229,0.073 0.406,0.239 0.468,0.531 0.458,0.104 0.583,0.437 0.583,0.791 0,0.427 -0.177,0.791 -0.822,0.822 0.073,0.239 0.302,0.406 0.573,0.406 A 0.59,0.59 0 0 0 17.78,8.497 C 17.759,8.435 17.759,8.372 17.759,8.31 c 0,-0.406 0.344,-0.729 0.76,-0.729 0.416,0 0.76,0.323 0.76,0.729 0,0.125 -0.031,0.239 -0.094,0.344 0.01,0.25 0.187,0.458 0.448,0.531 0.26,0.062 0.52,-0.042 0.656,-0.26 C 19.675,8.738 19.592,8.342 19.706,7.926 19.8,7.582 20.008,7.291 20.466,7.301 20.549,7.134 20.664,7.03 20.799,6.968 20.757,6.624 20.684,6.302 20.56,5.989 19.352,5.344 17.781,5.229 16.563,5.406 Z M 15.479,3.48 c 0,0.115 0.042,0.208 0.104,0.302 v 0.573 c -0.062,0.094 -0.104,0.187 -0.104,0.302 0,0.115 0.042,0.208 0.104,0.302 v 0.583 c -0.062,0.094 -0.104,0.187 -0.104,0.302 0,0.344 0.26,0.437 0.52,0.552 0.26,-0.115 0.52,-0.219 0.52,-0.552 0,-0.104 -0.031,-0.208 -0.094,-0.281 L 16.415,4.97 c 0.062,-0.094 0.104,-0.187 0.104,-0.302 0,-0.115 -0.042,-0.208 -0.104,-0.302 V 3.783 c 0.062,-0.094 0.104,-0.187 0.104,-0.302 0,-0.042 -0.01,-0.083 -0.01,-0.135 2.446,-0.177 4.206,1.437 4.445,3.706 -0.219,0.083 -0.302,0.177 -0.396,0.385 -0.427,-0.021 -0.614,0.146 -0.718,0.52 -0.146,0.531 0.125,0.739 0.656,0.874 C 20.34,9.175 20.017,9.414 19.601,9.31 A 0.711,0.711 0 0 1 19.049,8.613 0.552,0.552 0 0 0 19.143,8.301 0.604,0.604 0 0 0 18.529,7.708 0.604,0.604 0 0 0 17.915,8.301 0.59,0.59 0 0 0 17.946,8.488 0.74,0.74 0 0 1 17.228,9.019 c -0.427,0 -0.677,-0.302 -0.739,-0.677 0.541,0 0.854,-0.135 0.854,-0.687 0,-0.396 -0.146,-0.593 -0.562,-0.677 -0.094,-0.489 -0.354,-0.52 -0.77,-0.583 -0.427,0.073 -0.677,0.094 -0.77,0.583 -0.416,0.083 -0.562,0.281 -0.562,0.677 0,0.552 0.312,0.687 0.854,0.687 -0.062,0.375 -0.312,0.677 -0.739,0.677 A 0.75,0.75 0 0 1 14.076,8.488 0.59,0.59 0 0 0 14.107,8.301 0.604,0.604 0 0 0 13.493,7.708 c -0.344,0 -0.614,0.26 -0.614,0.593 a 0.55,0.55 0 0 0 0.094,0.312 C 12.963,8.946 12.754,9.227 12.421,9.31 12.005,9.414 11.682,9.175 11.526,8.831 12.057,8.696 12.317,8.487 12.182,7.957 12.078,7.582 11.891,7.416 11.464,7.437 11.36,7.229 11.287,7.135 11.068,7.052 11.307,4.783 13.056,3.169 15.513,3.346 A 0.36,0.36 0 0 0 15.482,3.481 Z M 11.43,6 c -0.115,0.312 -0.198,0.635 -0.229,0.979 0.135,0.062 0.25,0.167 0.333,0.333 0.468,-0.01 0.677,0.281 0.77,0.625 0.115,0.416 0.031,0.812 -0.583,0.999 0.135,0.208 0.396,0.323 0.656,0.26 0.26,-0.063 0.437,-0.281 0.448,-0.531 A 0.656,0.656 0 0 1 12.731,8.321 c 0,-0.406 0.344,-0.729 0.76,-0.729 0.416,0 0.76,0.323 0.76,0.729 0,0.062 -0.01,0.125 -0.021,0.187 a 0.6,0.6 0 0 0 0.562,0.396 c 0.271,0 0.489,-0.167 0.573,-0.406 -0.645,-0.031 -0.822,-0.396 -0.822,-0.822 0,-0.364 0.125,-0.687 0.583,-0.791 a 0.72,0.72 0 0 1 0.468,-0.531 0.652,0.652 0 0 1 -0.25,-0.5 c 0,-0.125 0.042,-0.25 0.104,-0.344 V 5.406 C 14.209,5.239 12.637,5.354 11.43,5.999 Z M 15.334,3.481 C 13.471,3.377 12.086,4.418 11.482,5.865 12.648,5.282 14.157,5.136 15.427,5.313 V 5 C 15.365,4.896 15.323,4.781 15.323,4.656 c 0,-0.125 0.042,-0.25 0.104,-0.344 V 3.823 A 0.734,0.734 0 0 1 15.333,3.479 Z m 7.578,6.621 0.042,-0.031 c 0.083,0.062 0.156,0.104 0.26,0.135 0.042,0.01 0.094,0.01 0.135,0.021 0.052,0.26 0.146,0.468 0.333,0.656 l -0.083,0.115 a 19.41,19.41 0 0 0 -1.364,-0.52 l 0.021,-0.135 c 0.229,-0.021 0.468,-0.104 0.656,-0.239 z m 0.042,0.135 c -0.125,0.083 -0.271,0.146 -0.416,0.187 a 21.24,21.24 0 0 1 0.864,0.333 1.27,1.27 0 0 1 -0.177,-0.406 l -0.042,-0.01 C 23.1,10.32 23.027,10.279 22.954,10.237 Z M 15.927,8.478 h 0.146 c 0.052,0.375 0.302,0.697 0.645,0.854 L 16.687,9.467 C 16.458,9.457 16.229,9.457 16,9.457 c -0.229,0 -0.458,0 -0.687,0.01 L 15.282,9.332 C 15.626,9.165 15.875,8.853 15.927,8.478 Z M 16,8.759 c -0.083,0.219 -0.229,0.406 -0.427,0.552 0.146,0 0.281,-0.01 0.427,-0.01 A 5.84,5.84 0 0 1 16.427,9.311 1.301,1.301 0 0 1 16,8.758 Z M 8.411,10.987 8.328,10.872 C 8.515,10.674 8.609,10.476 8.661,10.216 A 0.65,0.65 0 0 0 9.046,10.07 c 0.219,0.156 0.437,0.25 0.708,0.26 l 0.021,0.135 a 19.41,19.41 0 0 0 -1.364,0.52 z M 8.609,10.758 A 21.24,21.24 0 0 1 9.473,10.425 C 9.327,10.383 9.182,10.321 9.057,10.238 8.995,10.28 8.911,10.311 8.838,10.332 l -0.042,0.01 C 8.744,10.488 8.692,10.633 8.609,10.758 Z M 11.992,9.727 V 9.862 A 18.54,18.54 0 0 0 10.68,10.185 L 10.618,10.06 C 10.899,9.821 11.066,9.456 11.014,9.081 L 11.149,9.05 c 0.146,0.354 0.468,0.604 0.843,0.677 z M 11.701,9.779 A 1.29,1.29 0 0 1 11.16,9.352 C 11.129,9.581 11.045,9.8 10.9,9.977 11.16,9.904 11.431,9.842 11.702,9.779 Z M 12.919,9.685 12.867,9.56 c 0.26,-0.167 0.427,-0.385 0.531,-0.666 h 0.083 c 0.083,0 0.146,-0.021 0.229,-0.042 0.177,0.25 0.385,0.427 0.687,0.51 l -0.01,0.135 A 31.34,31.34 0 0 0 12.919,9.684 Z M 13.502,9.04 C 13.429,9.217 13.315,9.373 13.169,9.508 L 14.095,9.393 A 1.27,1.27 0 0 1 13.658,9.018 c -0.052,0.01 -0.104,0.021 -0.156,0.021 z m 4.112,0.468 -0.01,-0.135 a 1.31,1.31 0 0 0 0.687,-0.51 c 0.083,0.021 0.146,0.042 0.229,0.042 h 0.083 c 0.104,0.281 0.271,0.5 0.531,0.666 L 19.082,9.696 C 18.603,9.613 18.114,9.55 17.614,9.509 Z M 18.499,9.04 A 0.614,0.614 0 0 1 18.353,9.019 C 18.238,9.175 18.082,9.3 17.905,9.394 18.217,9.425 18.53,9.456 18.831,9.509 A 1.49,1.49 0 0 1 18.508,9.072 Z m 2.894,1.02 -0.062,0.125 C 20.904,10.06 20.467,9.956 20.019,9.862 V 9.727 c 0.364,-0.073 0.687,-0.323 0.833,-0.666 l 0.135,0.031 a 1.08,1.08 0 0 0 0.406,0.968 z M 21.112,9.977 C 20.966,9.8 20.873,9.581 20.852,9.352 20.717,9.539 20.519,9.685 20.311,9.779 l 0.802,0.198 z M 21.32,7.593 C 20.997,7.51 20.664,7.697 20.581,8.009 20.498,8.321 20.696,8.644 21.018,8.717 21.341,8.8 21.674,8.613 21.757,8.301 21.84,7.989 21.642,7.666 21.32,7.593 Z m 0.021,-0.094 c 0.375,0.094 0.604,0.458 0.51,0.822 -0.094,0.364 -0.479,0.583 -0.854,0.489 a 0.679,0.679 0 0 1 -0.51,-0.822 c 0.094,-0.364 0.479,-0.583 0.854,-0.489 z m 0.531,-1.051 c -0.187,0 -0.333,0.146 -0.333,0.323 0,0.177 0.156,0.323 0.333,0.323 0.187,0 0.333,-0.146 0.333,-0.323 A 0.32,0.32 0 0 0 21.872,6.448 Z m 0,-0.094 c 0.239,0 0.437,0.187 0.437,0.416 0,0.229 -0.198,0.416 -0.437,0.416 -0.239,0 -0.437,-0.187 -0.437,-0.416 0,-0.229 0.198,-0.416 0.437,-0.416 z M 21.591,5.282 c -0.187,0 -0.333,0.146 -0.333,0.323 0,0.177 0.156,0.323 0.333,0.323 0.187,0 0.333,-0.146 0.333,-0.323 0,-0.177 -0.146,-0.323 -0.333,-0.323 z m 0,-0.094 c 0.239,0 0.437,0.187 0.437,0.416 0,0.229 -0.198,0.416 -0.437,0.416 -0.239,0 -0.437,-0.187 -0.437,-0.416 0,-0.229 0.198,-0.416 0.437,-0.416 z m 4.164,3.154 c -0.187,0 -0.333,0.146 -0.333,0.323 0,0.177 0.146,0.323 0.333,0.323 0.187,0 0.333,-0.146 0.333,-0.323 0,-0.177 -0.146,-0.323 -0.333,-0.323 z m 0,-0.094 c 0.239,0 0.437,0.187 0.437,0.416 0,0.229 -0.198,0.416 -0.437,0.416 -0.239,0 -0.437,-0.187 -0.437,-0.416 0,-0.229 0.198,-0.416 0.437,-0.416 z M 25.474,7.186 c -0.187,0 -0.333,0.146 -0.333,0.323 0,0.177 0.146,0.323 0.333,0.323 0.187,0 0.333,-0.146 0.333,-0.323 0,-0.177 -0.146,-0.323 -0.333,-0.323 z m 0,-0.094 c 0.239,0 0.437,0.187 0.437,0.416 0,0.229 -0.198,0.416 -0.437,0.416 -0.239,0 -0.437,-0.187 -0.437,-0.416 0.01,-0.229 0.198,-0.416 0.437,-0.416 z m -0.5,-0.926 c -0.187,0 -0.333,0.146 -0.333,0.323 0,0.177 0.156,0.323 0.333,0.323 0.187,0 0.333,-0.146 0.333,-0.323 0,-0.177 -0.146,-0.323 -0.333,-0.323 z m 0,-0.094 c 0.239,0 0.437,0.187 0.437,0.416 0,0.229 -0.198,0.416 -0.437,0.416 -0.239,0 -0.437,-0.187 -0.437,-0.416 0,-0.229 0.198,-0.416 0.437,-0.416 z M 24.172,5.26 c -0.187,0 -0.333,0.146 -0.333,0.323 0,0.177 0.146,0.323 0.333,0.323 0.187,0 0.333,-0.146 0.333,-0.323 0,-0.177 -0.146,-0.323 -0.333,-0.323 z m 0,-0.094 c 0.239,0 0.437,0.187 0.437,0.416 C 24.609,5.811 24.422,6 24.172,6 23.933,6 23.735,5.813 23.735,5.584 23.745,5.355 23.933,5.168 24.172,5.168 Z M 23.193,4.573 c -0.187,0 -0.333,0.146 -0.333,0.323 0,0.177 0.146,0.323 0.333,0.323 0.187,0 0.333,-0.146 0.333,-0.323 0,-0.177 -0.146,-0.323 -0.333,-0.323 z m 0,-0.094 c 0.239,0 0.437,0.187 0.437,0.416 0,0.229 -0.198,0.416 -0.437,0.416 -0.239,0 -0.437,-0.187 -0.437,-0.416 0,-0.229 0.198,-0.416 0.437,-0.416 z M 22.131,4.167 c -0.187,0 -0.333,0.146 -0.333,0.323 0,0.177 0.146,0.323 0.333,0.323 0.187,0 0.333,-0.146 0.333,-0.323 0.01,-0.177 -0.146,-0.323 -0.333,-0.323 z m 0,-0.094 c 0.239,0 0.437,0.187 0.437,0.416 0,0.229 -0.198,0.416 -0.437,0.416 -0.239,0 -0.437,-0.187 -0.437,-0.416 0.01,-0.229 0.198,-0.416 0.437,-0.416 z M 21.059,4.26 c -0.187,0 -0.333,0.146 -0.333,0.323 0,0.177 0.146,0.323 0.333,0.323 0.187,0 0.333,-0.146 0.333,-0.323 0,-0.177 -0.146,-0.323 -0.333,-0.323 z m 0,-0.094 c 0.239,0 0.437,0.187 0.437,0.416 0,0.229 -0.197,0.418 -0.437,0.418 -0.24,0 -0.437,-0.187 -0.437,-0.416 0,-0.229 0.198,-0.416 0.437,-0.416 z M 20.268,3.375 c -0.187,0 -0.333,0.146 -0.333,0.323 0,0.177 0.146,0.323 0.333,0.323 0.187,0 0.333,-0.146 0.333,-0.323 0.01,-0.177 -0.146,-0.323 -0.333,-0.323 z m 0,-0.083 c 0.239,0 0.437,0.187 0.437,0.416 0,0.229 -0.198,0.416 -0.437,0.416 -0.239,0 -0.437,-0.187 -0.437,-0.416 0.01,-0.229 0.198,-0.416 0.437,-0.416 z M 19.237,2.719 c -0.187,0 -0.333,0.146 -0.333,0.323 0,0.177 0.146,0.323 0.333,0.323 0.187,0 0.333,-0.146 0.333,-0.323 0,-0.177 -0.146,-0.323 -0.333,-0.323 z m 0,-0.094 c 0.239,0 0.437,0.187 0.437,0.416 0,0.229 -0.198,0.416 -0.437,0.416 C 18.998,3.457 18.8,3.27 18.8,3.041 18.81,2.812 18.998,2.625 19.237,2.625 Z M 18.165,2.334 c -0.187,0 -0.333,0.146 -0.333,0.323 0,0.177 0.146,0.323 0.333,0.323 0.187,0 0.333,-0.146 0.333,-0.323 0.01,-0.177 -0.146,-0.323 -0.333,-0.323 z m 0,-0.094 c 0.239,0 0.437,0.187 0.437,0.416 0,0.229 -0.198,0.416 -0.437,0.416 -0.239,0 -0.437,-0.187 -0.437,-0.416 0.01,-0.229 0.198,-0.416 0.437,-0.416 z M 17.072,2.146 c -0.187,0 -0.333,0.146 -0.333,0.323 0,0.177 0.146,0.323 0.333,0.323 0.187,0 0.333,-0.146 0.333,-0.323 0,-0.177 -0.146,-0.323 -0.333,-0.323 z m 0,-0.094 c 0.239,0 0.437,0.187 0.437,0.416 0,0.229 -0.198,0.416 -0.437,0.416 A 0.42,0.42 0 0 1 16.645,2.468 C 16.635,2.239 16.832,2.052 17.072,2.052 Z M 6.673,10.692 C 6.964,10.536 7.069,10.182 6.912,9.901 A 0.616,0.616 0 0 0 6.09,9.672 c -0.291,0.156 -0.396,0.51 -0.239,0.791 0.157,0.281 0.531,0.385 0.822,0.229 z m 0.042,0.083 C 6.371,10.952 5.955,10.837 5.768,10.504 A 0.659,0.659 0 0 1 6.049,9.588 C 6.393,9.411 6.819,9.526 6.996,9.859 A 0.66,0.66 0 0 1 6.715,10.775 Z M 10.983,8.714 C 11.306,8.631 11.503,8.318 11.42,8.006 11.337,7.694 11.004,7.506 10.681,7.59 10.358,7.674 10.161,7.986 10.244,8.298 a 0.61,0.61 0 0 0 0.739,0.416 z m 0.031,0.094 A 0.702,0.702 0 0 1 10.16,8.319 0.67,0.67 0 0 1 10.67,7.497 c 0.375,-0.094 0.76,0.125 0.854,0.489 0.094,0.364 -0.135,0.729 -0.51,0.822 z M 16,8.103 c 0.333,0 0.604,-0.26 0.604,-0.583 A 0.593,0.593 0 0 0 16,6.937 0.593,0.593 0 0 0 15.396,7.52 c 0,0.323 0.271,0.583 0.604,0.583 z m 0,0.094 A 0.687,0.687 0 0 1 15.303,7.52 c 0,-0.375 0.312,-0.677 0.697,-0.677 0.385,0 0.697,0.302 0.697,0.677 C 16.707,7.895 16.385,8.197 16,8.197 Z M 10.139,7.094 c 0.187,0 0.333,-0.146 0.333,-0.323 0,-0.177 -0.146,-0.323 -0.333,-0.323 -0.187,0 -0.333,0.146 -0.333,0.323 -0.01,0.177 0.146,0.323 0.333,0.323 z m 0,0.094 A 0.42,0.42 0 0 1 9.712,6.772 c 0,-0.229 0.198,-0.416 0.427,-0.416 0.239,0 0.437,0.187 0.437,0.416 -0.01,0.229 -0.198,0.416 -0.437,0.416 z m 0.281,-1.26 c 0.187,0 0.333,-0.146 0.333,-0.323 0,-0.177 -0.146,-0.323 -0.333,-0.323 -0.187,0 -0.333,0.146 -0.333,0.323 -0.01,0.177 0.146,0.323 0.333,0.323 z m 0,0.094 c -0.239,0 -0.437,-0.187 -0.437,-0.416 0,-0.229 0.198,-0.416 0.437,-0.416 0.239,0 0.437,0.187 0.437,0.416 -0.01,0.229 -0.208,0.416 -0.437,0.416 z M 6.246,8.998 c 0.187,0 0.333,-0.146 0.333,-0.323 0,-0.177 -0.146,-0.323 -0.333,-0.323 -0.187,0 -0.333,0.146 -0.333,0.323 0,0.177 0.146,0.323 0.333,0.323 z m 0,0.094 C 6.007,9.092 5.809,8.905 5.809,8.676 5.809,8.447 6.007,8.26 6.246,8.26 A 0.42,0.42 0 0 1 6.673,8.676 C 6.683,8.905 6.486,9.092 6.246,9.092 Z M 6.527,7.832 C 6.714,7.832 6.86,7.686 6.86,7.509 A 0.333,0.333 0 0 0 6.527,7.186 c -0.187,0 -0.333,0.146 -0.333,0.323 0,0.177 0.146,0.323 0.333,0.323 z m 0,0.094 C 6.288,7.926 6.09,7.739 6.09,7.51 c 0,-0.229 0.198,-0.416 0.437,-0.416 0.239,0 0.437,0.187 0.437,0.416 0,0.229 -0.198,0.416 -0.437,0.416 z m 0.5,-1.114 c 0.187,0 0.333,-0.146 0.333,-0.323 0,-0.177 -0.146,-0.323 -0.333,-0.323 -0.187,0 -0.333,0.146 -0.333,0.323 0,0.177 0.156,0.323 0.333,0.323 z m 0,0.094 C 6.788,6.906 6.59,6.719 6.59,6.49 c 0,-0.229 0.198,-0.416 0.437,-0.416 0.239,0 0.437,0.187 0.437,0.416 0,0.229 -0.198,0.416 -0.437,0.416 z M 7.829,5.907 c 0.187,0 0.333,-0.146 0.333,-0.323 0,-0.177 -0.146,-0.323 -0.333,-0.323 -0.187,0 -0.333,0.146 -0.333,0.323 0,0.177 0.146,0.323 0.333,0.323 z m 0,0.094 C 7.59,6.001 7.392,5.814 7.392,5.585 7.392,5.356 7.59,5.169 7.829,5.169 8.068,5.169 8.266,5.356 8.266,5.585 8.266,5.814 8.068,6 7.828,6 Z M 8.808,5.22 c 0.187,0 0.333,-0.146 0.333,-0.323 0,-0.177 -0.146,-0.323 -0.333,-0.323 -0.187,0 -0.333,0.146 -0.333,0.323 0,0.177 0.156,0.323 0.333,0.323 z m 0,0.094 c -0.239,0 -0.437,-0.187 -0.437,-0.416 0,-0.229 0.198,-0.416 0.437,-0.416 0.239,0 0.437,0.187 0.437,0.416 0,0.229 -0.198,0.416 -0.437,0.416 z M 9.87,4.825 c 0.187,0 0.333,-0.146 0.333,-0.323 0,-0.177 -0.146,-0.323 -0.333,-0.323 -0.187,0 -0.333,0.146 -0.333,0.323 0,0.177 0.146,0.323 0.333,0.323 z m 0,0.094 c -0.239,0 -0.437,-0.187 -0.437,-0.416 0,-0.229 0.198,-0.416 0.437,-0.416 0.239,0 0.437,0.187 0.437,0.416 -0.01,0.229 -0.198,0.416 -0.437,0.416 z m 1.072,-0.01 c 0.187,0 0.333,-0.146 0.333,-0.323 0,-0.177 -0.146,-0.323 -0.333,-0.323 -0.187,0 -0.333,0.146 -0.333,0.323 0,0.177 0.146,0.323 0.333,0.323 z m 0,0.094 c -0.239,0 -0.437,-0.187 -0.437,-0.416 0,-0.229 0.198,-0.416 0.437,-0.416 0.239,0 0.437,0.187 0.437,0.416 C 11.379,4.816 11.18,5 10.941,5 Z m 0.791,-0.968 c 0.187,0 0.333,-0.146 0.333,-0.323 0,-0.177 -0.146,-0.323 -0.333,-0.323 -0.187,0 -0.333,0.146 -0.333,0.323 0,0.177 0.146,0.323 0.333,0.323 z m 0,0.094 c -0.239,0 -0.437,-0.187 -0.437,-0.416 0,-0.229 0.198,-0.416 0.437,-0.416 0.239,0 0.437,0.187 0.437,0.416 0,0.229 -0.198,0.416 -0.437,0.416 z m 1.031,-0.76 c 0.187,0 0.333,-0.146 0.333,-0.323 0,-0.177 -0.146,-0.323 -0.333,-0.323 -0.187,0 -0.333,0.146 -0.333,0.323 0,0.177 0.146,0.323 0.333,0.323 z m 0,0.094 c -0.239,0 -0.437,-0.187 -0.437,-0.416 0,-0.229 0.198,-0.416 0.437,-0.416 0.239,0 0.437,0.187 0.437,0.416 0,0.229 -0.198,0.416 -0.437,0.416 z m 1.072,-0.479 c 0.187,0 0.333,-0.146 0.333,-0.323 0,-0.177 -0.146,-0.323 -0.333,-0.323 -0.187,0 -0.333,0.146 -0.333,0.323 0,0.177 0.146,0.323 0.333,0.323 z m 0,0.094 c -0.239,0 -0.437,-0.187 -0.437,-0.416 0,-0.229 0.198,-0.416 0.437,-0.416 0.239,0 0.437,0.187 0.437,0.416 0,0.229 -0.198,0.416 -0.437,0.416 z M 16,6.166 c 0.187,0 0.333,-0.146 0.333,-0.323 0,-0.177 -0.146,-0.323 -0.333,-0.323 -0.187,0 -0.333,0.146 -0.333,0.323 0,0.177 0.146,0.323 0.333,0.323 z m 0,0.094 c -0.239,0 -0.437,-0.187 -0.437,-0.416 0,-0.229 0.198,-0.416 0.437,-0.416 0.239,0 0.437,0.187 0.437,0.416 0,0.229 -0.198,0.416 -0.437,0.416 z m 0,-1.27 c 0.187,0 0.333,-0.146 0.333,-0.323 0,-0.177 -0.146,-0.323 -0.333,-0.323 -0.187,0 -0.333,0.146 -0.333,0.323 0,0.177 0.146,0.323 0.333,0.323 z m 0,0.094 c -0.239,0 -0.437,-0.187 -0.437,-0.416 0,-0.229 0.198,-0.416 0.437,-0.416 0.239,0 0.437,0.187 0.437,0.416 0,0.229 -0.198,0.416 -0.437,0.416 z m 0,-1.27 c 0.187,0 0.333,-0.146 0.333,-0.323 0,-0.177 -0.146,-0.323 -0.333,-0.323 -0.187,0 -0.333,0.146 -0.333,0.323 0,0.177 0.146,0.323 0.333,0.323 z m 0,0.083 c -0.239,0 -0.437,-0.187 -0.437,-0.416 0,-0.229 0.198,-0.416 0.437,-0.416 0.239,0 0.437,0.187 0.437,0.416 0,0.239 -0.198,0.416 -0.437,0.416 z M 14.938,2.794 c 0.187,0 0.333,-0.146 0.333,-0.323 A 0.333,0.333 0 0 0 14.938,2.148 c -0.187,0 -0.344,0.146 -0.344,0.323 0,0.187 0.156,0.323 0.344,0.323 z m 0,0.104 c -0.239,0 -0.437,-0.187 -0.437,-0.416 0,-0.229 0.198,-0.416 0.437,-0.416 0.239,0 0.437,0.187 0.437,0.416 -0.01,0.229 -0.198,0.416 -0.437,0.416 z M 25.91,9.674 a 0.619,0.619 0 0 0 -0.822,0.229 c -0.156,0.281 -0.052,0.635 0.239,0.791 A 0.62,0.62 0 0 0 26.149,10.465 0.56,0.56 0 0 0 25.91,9.674 Z m 0.052,-0.083 c 0.344,0.177 0.458,0.593 0.271,0.916 A 0.718,0.718 0 0 1 25.275,10.778 0.656,0.656 0 0 1 25.004,9.862 0.718,0.718 0 0 1 25.962,9.591 Z M 7.526,9.82 C 7.432,9.591 7.318,9.414 7.068,9.341 7.235,7.332 7.765,6.416 9.65,5.5 9.817,5.562 9.806,5.583 9.806,5.604 9.806,5.875 9.962,6.01 10.16,6.156 9.827,6.229 9.525,6.375 9.525,6.77 c 0,0.323 0.229,0.5 0.52,0.583 C 9.951,7.53 9.93,7.603 9.951,7.811 9.566,7.988 9.483,8.227 9.576,8.602 9.722,9.133 10.055,9.195 10.586,9.06 A 0.739,0.739 0 0 1 9.254,9.612 C 9.254,9.56 9.244,9.518 9.233,9.466 9.15,9.164 8.817,8.977 8.483,9.05 8.16,9.133 7.952,9.456 8.035,9.768 c 0.031,0.104 0.083,0.187 0.156,0.26 0.031,0.302 -0.104,0.573 -0.375,0.718 -0.281,0.146 -0.5,0.083 -0.77,-0.01 C 7.494,10.528 7.723,10.33 7.525,9.82 Z M 7.557,7.644 C 7.37,8.092 7.276,8.612 7.213,9.247 7.432,9.341 7.577,9.559 7.661,9.778 7.796,10.111 7.796,10.455 7.422,10.715 A 0.51,0.51 0 0 0 7.745,10.642 C 7.953,10.527 8.068,10.319 8.057,10.101 A 0.791,0.791 0 0 1 7.901,9.81 C 7.797,9.414 8.047,9.019 8.442,8.925 a 0.77,0.77 0 0 1 0.926,0.52 C 9.378,9.487 9.389,9.528 9.389,9.57 9.733,9.976 10.42,9.768 10.451,9.237 9.816,9.362 9.545,9.05 9.441,8.633 9.347,8.289 9.389,7.936 9.795,7.727 A 0.82,0.82 0 0 1 9.837,7.436 0.731,0.731 0 0 1 9.4,6.905 C 9.036,6.978 8.63,7.082 8.297,7.217 7.974,7.332 7.735,7.498 7.558,7.644 Z M 9.66,5.646 C 8.609,6.177 7.994,6.718 7.63,7.468 A 2.56,2.56 0 0 1 8.255,7.135 C 8.599,7 9.015,6.896 9.379,6.823 V 6.77 c 0,-0.302 0.198,-0.573 0.468,-0.677 A 0.73,0.73 0 0 1 9.66,5.645 Z m 14.522,5.111 A 0.716,0.716 0 0 1 23.807,10.039 C 23.88,9.966 23.932,9.883 23.963,9.779 A 0.593,0.593 0 0 0 23.526,9.061 0.614,0.614 0 0 0 22.756,9.634 C 22.288,10.227 21.34,9.915 21.424,9.082 21.955,9.207 22.288,9.155 22.434,8.624 22.538,8.249 22.444,8.01 22.07,7.833 A 0.69,0.69 0 0 0 21.976,7.375 c 0.291,-0.083 0.52,-0.26 0.52,-0.583 0,-0.396 -0.302,-0.541 -0.635,-0.604 0.198,-0.156 0.364,-0.281 0.364,-0.552 0,-0.021 0,-0.052 -0.01,-0.073 L 22.35,5.521 c 1.874,0.906 2.446,1.853 2.613,3.841 -0.26,0.073 -0.375,0.25 -0.458,0.479 -0.198,0.51 0.031,0.708 0.479,0.926 -0.302,0.073 -0.52,0.135 -0.802,-0.01 z M 22.61,6.905 c -0.052,0.239 -0.219,0.437 -0.448,0.531 a 0.66,0.66 0 0 1 0.042,0.291 c 0.416,0.208 0.448,0.562 0.354,0.906 -0.115,0.416 -0.375,0.729 -1.01,0.604 0.031,0.531 0.718,0.739 1.062,0.333 0,-0.042 0.01,-0.083 0.021,-0.125 0.104,-0.385 0.52,-0.625 0.916,-0.52 0.406,0.104 0.645,0.5 0.541,0.885 -0.031,0.104 -0.083,0.208 -0.156,0.281 a 0.59,0.59 0 0 0 0.635,0.614 C 24.192,10.455 24.192,10.112 24.328,9.768 24.411,9.549 24.547,9.331 24.776,9.237 24.724,8.602 24.62,8.082 24.432,7.634 A 2.56,2.56 0 0 0 23.693,7.207 C 23.381,7.092 22.964,6.988 22.61,6.905 Z m -0.271,-1.28 c -0.01,0.177 -0.083,0.344 -0.198,0.458 A 0.72,0.72 0 0 1 22.62,6.76 v 0.052 c 0.375,0.083 0.77,0.177 1.124,0.312 0.25,0.094 0.458,0.208 0.625,0.333 -0.364,-0.739 -0.979,-1.28 -2.03,-1.832 z m -2.186,6.267 -1.062,-0.718 1.291,-0.135 1.062,0.718 z M 18.154,11.476 A 0.42,0.42 0 0 1 17.727,11.06 c 0,-0.229 0.198,-0.416 0.427,-0.416 0.239,0 0.437,0.187 0.437,0.416 0,0.229 -0.198,0.416 -0.437,0.416 z m 0,-0.094 c 0.187,0 0.333,-0.146 0.333,-0.323 0,-0.177 -0.146,-0.323 -0.333,-0.323 -0.187,0 -0.333,0.146 -0.333,0.323 0,0.177 0.156,0.323 0.333,0.323 z M 9.68,12.465 c 0.187,0 0.333,-0.146 0.333,-0.323 0,-0.177 -0.146,-0.323 -0.333,-0.323 -0.187,0 -0.333,0.146 -0.333,0.323 0,0.177 0.146,0.323 0.333,0.323 z m 0,0.094 c -0.239,0 -0.437,-0.187 -0.437,-0.416 0,-0.229 0.198,-0.416 0.437,-0.416 0.239,0 0.437,0.187 0.437,0.416 -0.01,0.229 -0.198,0.416 -0.437,0.416 z m 4.164,-1.176 c 0.187,0 0.333,-0.146 0.333,-0.323 a 0.333,0.333 0 0 0 -0.333,-0.323 c -0.187,0 -0.333,0.146 -0.333,0.323 -0.01,0.177 0.146,0.323 0.333,0.323 z m 0,0.094 c -0.239,0 -0.437,-0.187 -0.437,-0.416 0,-0.229 0.198,-0.416 0.437,-0.416 0.239,0 0.437,0.187 0.437,0.416 -0.01,0.229 -0.198,0.416 -0.437,0.416 z m 8.474,0.989 c 0.187,0 0.333,-0.146 0.333,-0.323 0,-0.177 -0.146,-0.323 -0.333,-0.323 -0.187,0 -0.333,0.146 -0.333,0.323 0,0.177 0.146,0.323 0.333,0.323 z m 0,0.094 c -0.239,0 -0.437,-0.187 -0.437,-0.416 0,-0.229 0.198,-0.416 0.437,-0.416 0.239,0 0.437,0.187 0.437,0.416 0,0.229 -0.198,0.416 -0.437,0.416 z m -10.472,-0.666 -1.291,-0.135 1.062,-0.718 1.291,0.135 z M 17.082,10.947 16,10.559 14.928,10.944 16,11.33 Z m 0.271,0 L 16,11.434 14.647,10.945 16,10.455 Z"
         fill="#004996"
         id="path4" /></g></g><style
     type="text/css"
     id="style1">
	.st0{fill:#00285E;}
	.st1{fill:#FFFFFF;}
	.st2{fill:#6CADDF;}
	.st3{fill-rule:evenodd;clip-rule:evenodd;fill:#00285E;}
	.st4{fill-rule:evenodd;clip-rule:evenodd;fill:#97C1E7;}
	.st5{fill-rule:evenodd;clip-rule:evenodd;fill:#FFFFFF;}
	.st6{fill:#FFC758;}
	.st7{fill:#EE3124;}
	.st8{fill:#D4A11E;}
	.st9{fill-rule:evenodd;clip-rule:evenodd;fill:#FFC758;}
	.st10{fill-rule:evenodd;clip-rule:evenodd;fill:#D4A11E;}
</style></svg>
