<?xml version="1.0" encoding="UTF-8" standalone="no"?>
<!-- Created with Inkscape (http://www.inkscape.org/) -->

<svg
   width="300mm"
   height="300mm"
   viewBox="0 0 300 300"
   version="1.1"
   id="svg1"
   xml:space="preserve"
   inkscape:export-filename="AL-QADISIAH.svg"
   inkscape:export-xdpi="96"
   inkscape:export-ydpi="96"
   xmlns:inkscape="http://www.inkscape.org/namespaces/inkscape"
   xmlns:sodipodi="http://sodipodi.sourceforge.net/DTD/sodipodi-0.dtd"
   xmlns="http://www.w3.org/2000/svg"
   xmlns:svg="http://www.w3.org/2000/svg"><sodipodi:namedview
     id="namedview1"
     pagecolor="#ffffff"
     bordercolor="#000000"
     borderopacity="0.25"
     inkscape:showpageshadow="2"
     inkscape:pageopacity="0.0"
     inkscape:pagecheckerboard="0"
     inkscape:deskcolor="#d1d1d1"
     inkscape:document-units="mm"><inkscape:page
       x="0"
       y="0"
       width="300"
       height="300"
       id="page2"
       margin="0"
       bleed="0" /></sodipodi:namedview><defs
     id="defs1"><style
       id="style1">
      .cls-1 {
        fill: #fff;
      }

      .cls-2 {
        fill: #b71315;
      }

      .cls-3 {
        fill: #8b1d1e;
      }

      .cls-4 {
        fill: #d6b631;
      }

      .cls-5 {
        fill: #ffc700;
      }
    </style></defs><g
     inkscape:label="Layer 1"
     inkscape:groupmode="layer"
     id="layer1"><g
       id="g13"
       transform="matrix(0.53058676,0,0,0.53058676,36.460713,2.6616799)">
	<g
   id="g12">
		<path
   class="st0"
   d="m 86.1,288 c 3.5,-2.1 6.6,-4.1 9.9,-5.9 18.8,-10.8 38.8,-18.3 60.4,-21.3 13.4,-1.9 26.8,-2.4 40.2,-1.1 27.7,2.7 53.3,11.4 76,27.8 8.9,6.4 16.8,14 23.8,22.5 0.5,0.6 1.1,1.2 0.3,2.2 -0.7,0.9 -1.2,1 -2.3,0.6 -11.7,-4.3 -23.8,-7.3 -36.1,-9.4 -1.2,-0.2 -1.8,0 -1.6,1.3 0.1,0.6 0,1.1 0,1.7 0,74 0,148.1 0,222.1 0,1.7 -0.5,2.7 -1.9,3.5 -12.8,7.6 -25.9,14.5 -39.5,20.5 -0.9,0.4 -1.7,0.4 -2.6,0 -10.5,-4.6 -20.6,-9.8 -30.6,-15.4 -2.9,-1.6 -5.8,-3.3 -8.8,-4.7 -1.7,-0.8 -2.2,-2 -2.2,-3.7 0.1,-5.4 0.2,-10.8 0.2,-16.2 0.1,-65.3 0.1,-130.6 0.1,-195.8 0,-2.7 0,-2.7 -2.4,-1.7 -31.1,14.1 -54.5,36.3 -69.4,67.2 -6,12.5 -9.6,25.7 -11.3,39.4 -1.4,11.2 -1.5,22.4 0,33.6 0.2,1.3 -0.5,2 -1.5,2.5 -1.3,0.6 -1.6,-0.7 -2.1,-1.3 C 65.8,434.1 49.9,409.8 37.1,383.6 24.3,357.6 14.9,330.4 8.8,302.1 5.9,288.6 3.8,274.9 2.5,261.1 1.7,253.2 1.2,245.2 1.1,237.3 0.4,172.3 1.1,107.3 0.8,42.2 0.8,40.9 1.2,40.4 2.4,39.9 29,29.6 56.3,21.4 84.2,15 c 1.4,-0.3 2,-0.1 2,1.5 -0.1,4.2 0,8.4 0,12.6 0,85.3 0,170.6 0,255.9 -0.1,0.9 -0.1,1.8 -0.1,3 z"
   id="path1" />
		<path
   class="st0"
   d="m 342,147.4 c 0,-44.4 0,-88.5 0,-132.8 10.3,2.3 20.5,4.8 30.5,7.6 17.8,5 35.3,10.8 52.6,17.4 1.6,0.6 2.1,1.3 2.1,3.1 -0.1,63.3 0,126.6 -0.1,189.8 0,17 -1.7,33.9 -4.3,50.7 -4.4,28 -12.2,55.1 -23.1,81.3 -11.9,28.4 -27.2,54.7 -46.1,79.1 -2.7,3.4 -5.4,6.8 -8.1,10.2 -0.5,0.6 -0.9,1.3 -1.9,0.7 -0.8,-0.5 -1.8,-0.7 -1.7,-1.9 0.1,-0.6 0,-1.1 0,-1.7 0,-68.5 0,-137 0,-205.4 0,-1.7 -0.5,-2.9 -1.6,-4.2 -13.4,-15.1 -29.2,-27.2 -47.2,-36.4 -16.2,-8.2 -33.3,-13.5 -51.2,-16.3 -12.5,-2 -25.1,-2.5 -37.6,-1.9 -23.4,1.1 -45.9,6.3 -67.5,15.3 -2.3,1 -4.6,2 -6.8,3 -0.7,0.3 -1.3,0.7 -1.9,-0.3 -0.5,-0.8 -0.9,-1.4 -0.2,-2.4 5.7,-8.2 12.3,-15.6 19.5,-22.5 7,-6.7 14.7,-12.6 22.8,-17.8 1.2,-0.8 1.3,-1.7 1.3,-2.8 0,-51 0,-102.1 0,-153.1 0,-3.7 0,-3.7 3.7,-4 14.7,-1.1 29.4,-1.3 44.1,-1.3 11.9,0 23.9,0.7 35.8,1.3 1.2,0.1 1.7,0.4 1.6,1.6 -0.1,0.8 0,1.7 0,2.6 0,41.9 0,83.9 0,125.8 0,2 0.5,2.3 2.4,2.2 27.8,-1.3 54.8,2.5 80.9,12.4 0.5,0.2 1.1,0.4 2,0.7 z"
   id="path2" />
		<path
   class="st1"
   d="m 138.9,804.4 c -0.1,-0.8 -0.8,-0.8 -1.2,-1 -5.7,-2.1 -8.6,-6.3 -9.9,-12.1 -2.9,-13 -6,-26 -9.1,-39 -0.5,-2.3 -1.1,-4.7 -1.7,-7 -0.3,-1.1 -0.2,-1.7 1.2,-1.7 6.3,0.1 12.7,0.1 19,0 1.4,0 1.6,0.8 1.8,1.8 3.6,15.5 7.2,31 10.8,46.5 0.9,3.8 1.8,7.6 2.6,11.4 0.2,1.1 0.7,1.5 1.9,1.5 2.2,-0.1 4.4,0.2 6.6,-0.3 3.4,-0.7 5.4,-2.8 5.7,-6.2 0.4,-3.5 0.1,-7.1 0.1,-10.7 0,-19.9 0,-39.7 -0.1,-59.6 0,-1.7 0.4,-2.2 2.1,-2.2 6,0.1 12,0.1 17.9,0 1.7,0 2.1,0.4 2.1,2.1 -0.1,19.7 0,39.4 0,59.1 0,3.7 0.1,7.4 0.8,11 1,4.6 3.3,6.6 8,6.6 7,0.1 14.1,0 21.1,0.1 1.6,0 1.7,-0.6 1.6,-1.9 -0.8,-7.2 -0.1,-14.2 2.8,-20.9 1.4,-3.3 3.4,-6.3 5.9,-8.8 0.8,-0.8 1,-1.6 1,-2.6 0,-5 0,-10 -0.1,-14.9 0,-1.4 0.5,-2.4 1.5,-3.2 7.8,-6.5 16.8,-10 26.8,-11.2 14.1,-1.7 27.4,0.7 38.6,9.8 14.1,11.3 20.4,26.2 18.7,44.4 -0.3,2.7 -0.6,5.4 -1.3,8 -0.2,1 -0.1,1.4 1,1.4 10,0 19.9,0 29.9,-0.1 0.1,0 0.2,-0.1 0.3,-0.2 0.2,-0.6 -0.3,-0.7 -0.7,-0.8 -5.7,-1.9 -7.4,-6 -7.5,-11.7 -0.2,-16.2 0,-32.5 -0.1,-48.7 0,-5.1 0,-10.3 0,-15.4 0,-1.5 0.3,-2.1 2,-2.1 6.1,0.1 12.2,0.1 18.4,0 1.4,0 1.8,0.3 1.8,1.8 -0.1,32.5 -0.1,64.9 -0.1,97.4 0,1.8 -0.9,1.7 -2.1,1.7 -17.6,0 -35.2,0 -52.7,0 -1.5,0 -2.5,0.4 -3.5,1.4 -7.4,7.2 -16.5,10.9 -26.7,12.1 -14.8,1.8 -28.1,-1.6 -39.7,-11.1 -3.8,-3.1 -6.9,-6.8 -9.7,-11.5 -0.6,2.8 -1.1,5.1 -1.5,7.4 -0.2,1.1 -0.6,1.7 -1.9,1.6 -8.1,-0.1 -16.2,0 -24.3,-0.1 -4.7,0 -8.5,-2.1 -11.3,-5.9 -1,-1.3 -1.8,-2.7 -2.7,-4.1 0,0 -0.2,0 -0.3,0 -5.7,7.2 -13.6,9.9 -22.4,9.9 -18.9,0.2 -37.7,0 -56.6,0.1 -1.3,0 -1.7,-0.5 -1.9,-1.6 -1.2,-6.2 -2.4,-12.4 -3.8,-18.6 -0.4,-1.6 0.3,-1.7 1.6,-1.7 12.2,0 24.5,0 36.7,0 1.1,0 1.9,0.4 2.6,-0.2 z m 113.9,-40.6 c 30.3,0.7 39.4,34.7 23.8,54.9 5.6,-0.9 11.5,-4.8 14.7,-10.3 11.2,-19.2 0.9,-45.6 -22.8,-47 -5.4,-0.3 -10.7,0.3 -15.7,2.4 z M 240.6,797 c 0,7.7 4.3,11.9 12,11.7 0.6,0 1.3,-0.1 1.9,-0.1 4.8,-0.6 7.6,-3.2 8.6,-7.9 0.5,-2.6 0.6,-5.2 0,-7.8 -0.5,-2.4 -1.5,-4.4 -3.5,-5.9 -7.3,-5.6 -17.6,-1.4 -18.9,7.5 -0.1,0.8 -0.1,1.7 -0.1,2.5 z"
   id="path3" />
		<path
   class="st1"
   d="m 152.3,641.4 c 2,0 3.9,0 5.7,0 5.3,0 10.7,-0.1 16,0 1.7,0 2.1,-0.5 2.1,-2.2 -0.1,-12.2 0,-24.3 -0.1,-36.5 0,-1.9 0.5,-2.4 2.4,-2.3 5.9,0.1 11.8,0.1 17.7,0 1.3,0 1.9,0.1 1.9,1.7 0,32.4 0,64.8 0,97.1 0,1.3 -0.3,1.7 -1.7,1.7 -6.2,-0.1 -12.4,-0.1 -18.6,0 -1.5,0 -1.7,-0.6 -1.7,-1.9 0,-11.7 0,-23.3 0.1,-35 0,-1.7 -0.3,-2.3 -2.2,-2.3 -3.6,0.2 -7.3,0.1 -10.9,0 -1.9,-0.1 -2.5,0.3 -2.5,2.4 0.1,11.5 0,22.9 0.1,34.4 0,1.8 -0.3,2.4 -2.3,2.4 -5.8,-0.1 -11.7,-0.1 -17.5,0 -1.8,0 -2.2,-0.6 -2.2,-2.3 0,-32 0,-64.1 0,-96.1 0,-1.6 0.3,-2.2 2.1,-2.2 6,0.1 12.1,0.1 18.1,0 1,0 1.8,0 1.8,1.4 -0.1,9.5 -0.1,19.1 -0.1,28.6 0,4.8 -2.3,7.9 -6.7,9.6 -0.5,0.4 -1.1,0.4 -1.5,1.5 z"
   id="path4" />
		<path
   class="st0"
   d="m 75.3,819.8 c -0.2,-0.8 -0.9,-0.9 -1.5,-1.1 -4.1,-1.6 -6.5,-4.5 -6.6,-9 0,-1.1 -0.1,-2.1 -0.1,-3.2 0,-26.1 0,-52.3 0,-78.4 0,-1.8 0.4,-2.4 2.3,-2.4 5.8,0.1 11.7,0.1 17.5,0 1.6,0 2.2,0.3 2.2,2.1 -0.1,24.8 -0.1,49.6 -0.1,74.3 0,12.6 0,25.2 0,37.8 0,1.7 -0.4,2.1 -2.1,2.1 -12.5,-0.1 -25.1,0.1 -37.6,-0.3 -8.9,-0.3 -16.7,-3.6 -21.6,-11.6 -3,-4.8 -3.9,-10.2 -3.9,-15.7 0,-16.5 0,-33 -0.1,-49.5 0,-1.7 0.6,-2 2.1,-2 6,0.1 12,0.1 17.9,0 1.7,0 2.1,0.5 2.1,2.1 -0.1,14.4 -0.1,28.8 -0.1,43.1 0,1.1 0,2.1 0,3.2 0.3,5 3.3,8.4 8.3,8.6 6.9,0.3 13.8,0.1 20.7,0.1 0.2,0.1 0.4,-0.1 0.6,-0.2 z"
   id="path5" />
		<path
   class="st1"
   d="m 331.4,600.5 c 4.1,0 8.3,0.1 12.4,-0.1 1.9,-0.1 2.7,0.5 3,2.4 3.8,19.6 7.7,39.2 11.5,58.8 2.4,12.4 4.9,24.8 7.4,37.2 0.4,1.9 -0.1,2.2 -1.9,2.2 -5.7,-0.1 -11.4,-0.1 -17.1,0 -2,0.1 -2.5,-0.7 -2.8,-2.4 -0.8,-5.3 -1.8,-10.5 -2.5,-15.8 -0.2,-1.4 -0.9,-2 -2.2,-2.4 -5.4,-1.4 -10.8,-1.3 -16.2,0.1 -1.3,0.3 -1.8,1 -2,2.3 -0.8,5.5 -1.8,10.9 -2.6,16.4 -0.2,1.3 -0.6,1.8 -2,1.7 -6,-0.1 -12.1,-0.1 -18.1,0 -1.6,0 -1.6,-0.5 -1.4,-1.8 3.1,-15.6 6.1,-31.2 9.2,-46.8 3.2,-16.6 6.5,-33.2 9.7,-49.8 0.3,-1.4 0.7,-2.2 2.4,-2.1 4.3,0.2 8.8,0.1 13.2,0.1 z m 0,20.7 c -0.1,0 -0.2,0 -0.3,0 -0.4,2.2 -0.7,4.3 -1.1,6.5 -1.6,10 -3.2,20 -4.9,30.1 -0.4,2.4 -0.4,2.4 2,2 2.9,-0.5 5.8,-0.5 8.7,0.1 1.2,0.2 1.8,0.3 1.6,-1.4 -2.1,-12.5 -4,-24.9 -6,-37.3 z"
   id="path6" />
		<path
   class="st1"
   d="m 38.2,600.5 c 4.3,0 8.5,0.1 12.8,0 1.7,-0.1 2.3,0.5 2.6,2.1 4,20.7 8.1,41.3 12.2,61.9 2.2,11.2 4.4,22.3 6.6,33.5 0.6,3 0.6,3 -2.5,3 -5.5,0 -11,-0.1 -16.4,0.1 -1.8,0 -2.3,-0.6 -2.5,-2.2 -0.8,-5.3 -1.8,-10.7 -2.6,-16 -0.2,-1.5 -0.9,-2 -2.2,-2.4 -5.4,-1.4 -10.7,-1.3 -16,0 -1.5,0.4 -2.1,1.1 -2.3,2.6 -0.8,5.4 -1.8,10.8 -2.6,16.2 -0.2,1.4 -0.7,1.7 -2.1,1.7 -6,-0.1 -12,-0.1 -17.9,0 -1.7,0 -1.8,-0.5 -1.5,-2 3.7,-18.6 7.3,-37.2 11,-55.9 2.6,-13.5 5.3,-26.9 7.9,-40.4 0.3,-1.7 0.9,-2.5 2.8,-2.4 4.2,0.3 8.5,0.2 12.7,0.2 z m 0,20.3 c -0.2,0.6 -0.4,1 -0.5,1.4 -1.9,12.1 -3.9,24.2 -5.8,36.3 -0.2,1.5 0.4,1.5 1.5,1.2 3.2,-0.6 6.4,-0.7 9.5,0 1.3,0.3 1.6,0 1.4,-1.3 -2,-12.4 -4,-24.8 -6.1,-37.6 z"
   id="path7" />
		<path
   class="st1"
   d="m 93.4,680.5 c 0.8,0 1.6,0 2.3,0 11,0 22.1,0.1 33.1,0 1.8,0 2.1,0.5 1.8,2.1 -1.2,5.5 -2.3,11 -3.2,16.5 -0.3,1.6 -1,1.9 -2.4,1.8 -14.4,0 -28.8,-0.1 -43.1,0 -2,0 -2.3,-0.6 -2.3,-2.4 0,-29.8 0,-59.6 0,-89.5 0,-2.3 0,-4.7 0,-7 0,-1.2 0.3,-1.6 1.6,-1.6 6.3,0.1 12.5,0.1 18.8,0 1.6,0 1.7,0.7 1.7,1.9 0,10.9 0,21.8 0,32.7 0,11.5 -0.1,23.1 -0.1,34.6 0,4.7 -2.3,7.8 -6.6,9.5 -0.6,0.2 -1.3,0.2 -1.6,1.4 z"
   id="path8" />
		<path
   class="st1"
   d="m 386.1,680.5 c 1.3,0 2,0 2.6,0 11,0 22.1,0 33.1,0 1.8,0 2.2,0.4 1.8,2.1 -1.2,5.6 -2.2,11.1 -3.3,16.7 -0.2,1.2 -0.6,1.7 -1.9,1.7 -14.7,0 -29.5,0 -44.2,0 -1.4,0 -1.6,-0.5 -1.6,-1.8 0,-32.4 0,-64.8 0,-97.1 0,-1.4 0.5,-1.6 1.7,-1.6 6.2,0.1 12.4,0.1 18.6,0 1.3,0 1.7,0.4 1.7,1.7 0,22.6 0,45.3 0,67.9 0,4 -1.8,6.8 -5.3,8.5 -0.9,0.4 -2,0.6 -3.2,1.9 z"
   id="path9" />
		<path
   class="st1"
   d="m 255.1,680 c 1.2,0.7 2,0.5 2.7,0.5 11,0 21.9,0.1 32.9,0 1.9,0 2.2,0.5 1.9,2.3 -1.2,5.6 -2.2,11.1 -3.2,16.7 -0.2,1.2 -0.6,1.5 -1.8,1.5 -14.7,0 -29.5,-0.1 -44.2,0 -1.8,0 -1.7,-0.9 -1.7,-2.1 0,-21.5 0,-43 0,-64.5 0,-10.6 0,-21.2 0,-31.8 0,-1.6 0.3,-2.2 2.1,-2.2 6,0.1 12,0.1 17.9,0 1.4,0 2,0.3 2,1.8 -0.1,22.4 0,44.8 0,67.2 0,4.2 -1.7,7.4 -5.7,9.2 -1,0.4 -1.8,0.9 -2.9,1.4 z"
   id="path10" />
		<path
   class="st1"
   d="m 394.8,776.1 c 0,16.1 0,32.2 0,48.3 0,1.8 -0.5,2.3 -2.2,2.2 -6,-0.1 -12,-0.1 -17.9,0 -1.4,0 -1.8,-0.4 -1.8,-1.8 0,-32.4 0,-64.8 0,-97.2 0,-1.5 0.4,-1.9 1.9,-1.9 6,0.1 12,0.1 17.9,0 1.7,0 2.1,0.4 2.1,2.1 0,16.1 0,32.2 0,48.3 z"
   id="path11" />
		<path
   class="st1"
   d="m 230.7,650.8 c 0,15.9 0,31.9 0,47.8 0,1.8 -0.3,2.4 -2.3,2.4 -5.8,-0.2 -11.5,-0.1 -17.3,0 -1.8,0 -2.4,-0.4 -2.4,-2.3 0.1,-26.3 0.1,-52.7 0.1,-79 0,-5.8 0,-11.5 0,-17.3 0,-1.5 0.3,-2 1.9,-1.9 6,0.1 12.1,0.1 18.2,0 1.7,0 1.9,0.6 1.9,2.1 -0.1,16 -0.1,32.1 -0.1,48.2 z"
   id="path12" />
	</g>
</g></g><style
     type="text/css"
     id="style1-9">
	.st0{fill:#F9DF00;}
	.st1{fill:#EE0000;}
</style><style
     type="text/css"
     id="style1-4">
	.st0{fill:#001FF9;}
	.st1{fill:#0120F9;}
</style></svg>
