<?xml version="1.0" encoding="UTF-8" standalone="no"?>
<!-- Created with Inkscape (http://www.inkscape.org/) -->

<svg
   width="300mm"
   height="300mm"
   viewBox="0 0 300 300"
   version="1.1"
   id="svg1"
   xml:space="preserve"
   inkscape:export-filename="AL-AHLI.svg"
   inkscape:export-xdpi="96"
   inkscape:export-ydpi="96"
   xmlns:inkscape="http://www.inkscape.org/namespaces/inkscape"
   xmlns:sodipodi="http://sodipodi.sourceforge.net/DTD/sodipodi-0.dtd"
   xmlns="http://www.w3.org/2000/svg"
   xmlns:svg="http://www.w3.org/2000/svg"><sodipodi:namedview
     id="namedview1"
     pagecolor="#ffffff"
     bordercolor="#000000"
     borderopacity="0.25"
     inkscape:showpageshadow="2"
     inkscape:pageopacity="0.0"
     inkscape:pagecheckerboard="0"
     inkscape:deskcolor="#d1d1d1"
     inkscape:document-units="mm"><inkscape:page
       x="0"
       y="0"
       width="300"
       height="300"
       id="page2"
       margin="0"
       bleed="0" /></sodipodi:namedview><defs
     id="defs1"><style
       id="style1">
      .cls-1 {
        fill: #fff;
      }

      .cls-2 {
        fill: #b71315;
      }

      .cls-3 {
        fill: #8b1d1e;
      }

      .cls-4 {
        fill: #d6b631;
      }

      .cls-5 {
        fill: #ffc700;
      }
    </style><style
       id="style1-8">
      .st0 {
        fill: none;
      }

      .st1 {
        fill: #fff;
      }

      .st2 {
        fill: #002a49;
      }

      .st3 {
        fill: #008357;
      }
    </style></defs><g
     inkscape:label="Layer 1"
     inkscape:groupmode="layer"
     id="layer1"><g
       id="الأتحاد"
       transform="matrix(0.42904172,0,0,0.42904172,24.719819,4.2714732)">
    <g
   id="الشعار">
      <path
   d="M 545.2,480.2 H 514.7 V 37.5 L 475.7,0 H 163.1 L 0,157.9 v 103.3 l 36.3,37.3 H 67.6 V 479.7 H 9.5 c 0,0 -9.5,0.9 -9.5,12.3 v 150.8 l 37.9,37.5 h 538.7 c 0,0 7.4,-0.8 7.4,-11.4 V 517.6 Z"
   class="st0"
   id="path1" />
      <path
   d="M 13.6,638.7 H 541.4 V 492.6 H 471.3 V 13.7 H 167 L 12.2,164.1 v 92.4 H 81.6 V 493.2 H 13.9 Z"
   class="st1"
   id="path2" />
      <path
   d="m 436.3,137.7 v 114.6 c 0,0 10.1,135.3 -160.1,235.1 0,0 -150.3,-74.6 -161.4,-230.6 v -119 c -0.1,-0.1 148.7,-93.3 321.5,-0.1 z"
   class="st0"
   id="path3" />
      <path
   d="M 411.1,140.2 130.3,268.4 c 0,0 -2.1,-13.1 -2.1,-28.5 v -94.6 c 0,0.1 133.1,-77.1 282.9,-5.1 z"
   class="st1"
   id="path4" />
      <path
   d="m 202.2,342.8 v 72.3 c 0,0 -35.6,-36.8 -42.2,-54.3 l 42.2,-19.2 z"
   class="st1"
   id="path5" />
      <path
   d="m 276.2,308.5 v 164.3 l -37.9,-26 V 324.5 l 37.9,-16.7 z"
   class="st1"
   id="path6" />
      <path
   d="m 350.2,274.6 v 142 l -37.5,32.9 V 291.4 L 350.2,274 Z"
   class="st1"
   id="path7" />
      <path
   d="M 424.1,241.4 388,256.6 v 110.2 c 0,0 35.6,-45.6 36.1,-125.4 z"
   class="st1"
   id="path8" />
      <g
   id="نادي_الاتحاد">
        <path
   d="m 407.4,184 v 27.8 l -26.8,12.1 v -33.7 h -4.8 l 4.6,-7.5 8.9,-4.6 v 33.2 l 9.1,-4.6 v -19.6 z"
   class="st1"
   id="path9" />
        <path
   d="m 407.4,179.5 -8.8,3 v -8.9 l 8.8,-3.6 z"
   class="st1"
   id="path10" />
        <path
   d="m 350.2,238.1 24.2,-11.5 v -9.5 c 0,0 -0.6,-17.1 -21.2,-10.1 v 7 c 0,0 14,-4.8 14,7.7 l -17,7.1 z"
   class="st1"
   id="path11" />
        <path
   d="m 344.1,240 v -19.6 c 0,0 -3.1,-9.3 -12.7,-3.1 l -8.3,4.4 v 19.7 L 314,246 c 0,0 -9.2,3.8 -9.2,-3.9 0,-7.7 0,-12.7 0,-12.7 l -8.9,6.1 v 8 c 0,0 -2.2,18.8 17.9,11.6 l 16.6,-7.5 v -21.2 c 0,0 -0.3,-3.1 3.1,-3.1 0,0 3,-0.3 3,3 v 16.8 z"
   class="st1"
   id="path12" />
        <path
   d="m 327.3,261.8 -8.8,3 v -8.9 l 8.8,-3.6 z"
   class="st1"
   id="path13" />
        <path
   d="m 315.5,266.9 -8.8,3.1 v -9 l 8.8,-3.5 z"
   class="st1"
   id="path14" />
        <path
   d="m 282.2,268.4 v -42.2 l -9,4.9 -3,7.4 h 4.5 v 33.2 z"
   class="st1"
   id="path15" />
        <path
   d="m 267.2,235.4 v 30.8 c 0,0 -0.4,14.6 -22.6,18.9 v -9 c 0,0 15.1,-3.6 15.1,-10.4 v -27.3 z"
   class="st1"
   id="path16" />
        <path
   d="m 253.6,241.4 v 24 l -9,4.8 v -25.8 z"
   class="st1"
   id="path17" />
        <path
   d="m 238.3,261.2 v 27.4 L 181.1,315 v -34.2 h -4.6 l 3.5,-6.6 8.7,-4 V 303 l 25.7,-11.8 v -6.1 c 0,0 -0.2,-9.3 -13.2,-1.1 l -6.5,3 2.3,-7.4 c 0,0 12.6,-8.2 20,-5.6 7.4,2.6 4.4,14.1 4.4,14.1 l 8.2,-3.6 V 264 Z"
   class="st1"
   id="path18" />
        <path
   d="m 237.6,256.5 -8.3,2.9 v -8.7 l 8.3,-3.4 z"
   class="st1"
   id="path19" />
        <path
   d="m 227.6,260.6 -8.3,2.9 v -8.7 l 8.3,-3.4 z"
   class="st1"
   id="path20" />
        <path
   d="m 149.9,328.9 24.2,-11.5 v -9.5 c 0,0 -0.6,-17.1 -21.2,-10.1 v 7 c 0,0 14,-4.8 14,7.7 l -17,7.1 z"
   class="st1"
   id="path21" />
      </g>
      <g
   id="JEDDAH">
        <ellipse
   cx="250.10001"
   cy="153.39999"
   class="st0"
   rx="3.2"
   ry="3.5"
   id="ellipse21" />
        <path
   d="m 229.4,137.4 1.4,-6.3 c 0,0 20.8,-15.8 27.2,-2.6 v 13.1 l -63.4,29 v -7.3 l 16.8,-6.9 v -6.2 c 0,0 -1.2,-6.3 -16.8,3.8 v -5.8 c 0,0 12.5,-12 21.4,-3.3 1.9,2.7 1.6,9.2 1.6,9.2 L 252,137.3 v -6 c 0,0 -1.1,-7.4 -22.8,7.4 z"
   class="st0"
   id="path22" />
        <path
   d="m 169.2,160.1 c 0,0 -4.6,17.8 5.7,17.8 12.9,0 15.2,-10.3 15.2,-10.3 v -17.7 z m 14.8,7 c 0,0 -1.1,4.8 -7.3,4.8 -5,0 -2.8,-8.3 -2.8,-8.3 l 10.1,-4.7 z"
   class="st0"
   id="path23" />
        <ellipse
   cx="175"
   cy="148.8"
   class="st0"
   rx="3.2"
   ry="3.5"
   id="ellipse23" />
        <ellipse
   cx="182.2"
   cy="145.5"
   class="st0"
   rx="3.2"
   ry="3.5"
   id="ellipse24" />
        <path
   d="m 169.2,240 145.4,-67.1 c 0,0 6.6,-3.8 3.4,-11 -3.2,-7.1 -10.4,-4 -10.4,-4 l -24.7,12.4 c 0,0 -2.1,0.8 -2.1,-1.4 v -14.3 c 0,0 -1.1,-9.1 -13.4,-4.2 v -35.8 l -4.6,1.6 v 67.9 l 4.6,-1.6 v -22.8 c 0,0 0.2,-2.7 5.2,-2.7 0,0 3.6,-0.3 3.6,2.3 V 171 c 0,0 -0.2,4 5,4 5.2,0 27.6,-11.9 27.6,-11.9 0,0 3.8,-1.9 3.8,2.9 0,0 0.3,2.5 -12.1,7.2 l -131.2,61 v 5.8 z"
   class="st0"
   id="path24" />
        <path
   d="m 250.1,161.2 -11.4,4.8 v 5.9 c 0,0 9.3,-7.1 13.1,-4.5 v 3.2 c 0,0 -8.9,1.8 -13.1,8.5 v 6.3 c 0,0 -0.8,6 8.2,6 9,0 11.1,-9.9 11.1,-9.9 v -11 c 0,0.1 0.5,-9.3 -7.9,-9.3 z m 2.1,20.6 v 0.8 l -0.2,0.5 -0.5,0.8 -0.5,0.7 -0.6,0.6 -0.7,0.4 -0.7,0.3 -1,0.2 -0.8,0.1 h -0.4 -0.6 l -0.5,-0.1 -0.4,-0.2 -0.5,-0.6 -0.2,-0.4 -0.2,-0.5 -0.1,-0.7 -0.1,-0.7 v -0.7 -0.4 l 0.1,-0.5 0.2,-1 0.1,-0.6 7.7,-3.6 v 5.6 z"
   class="st0"
   id="path25" />
        <path
   d="m 234,191 v -34.2 c -3,-0.2 -4.5,1.6 -4.5,1.6 v 12.1 c -12.7,3.3 -13.6,8.9 -13.6,8.9 v 9.5 c 0,5.4 -1,13.2 5.5,13.2 13.3,0 12.6,-11.1 12.6,-11.1 z m -4.5,3.3 c 0,0 -7.3,5.2 -9.1,1.4 V 181 c 0,0 2.1,-3.6 9.1,-4.7 z"
   class="st0"
   id="path26" />
        <path
   d="m 210.5,202.3 v -34.2 c -3,-0.2 -4.5,1.6 -4.5,1.6 v 12.1 c -12.7,3.3 -13.6,8.9 -13.6,8.9 v 9.5 c 0,5.4 -1,13.2 5.5,13.2 13.3,0.1 12.6,-11.1 12.6,-11.1 z m -4.5,3.4 c 0,0 -7.3,5.2 -9.1,1.4 v -14.7 c 0,0 2.1,-3.6 9.1,-4.7 z"
   class="st0"
   id="path27" />
        <path
   d="m 174.9,215.7 12.3,-7.2 c 0,0 3.1,-15.4 -6.7,-15.4 -11.3,0 -11.3,11.2 -11.3,11.2 V 219 c 0,0 0,5.6 6.2,5.8 8,0 11.6,-5.7 11.6,-5.7 v -5 c 0,0 -9.9,5.9 -12.1,4.8 -3,-1.4 0,-3.2 0,-3.2 z m 5.8,-17.7 c 2.9,0 2,6.8 2,6.8 0,0 -6,4.7 -7.4,4.7 -1.4,0 -1.5,-4.1 -1.5,-4.1 -0.1,-5.3 6.9,-7.4 6.9,-7.4 z"
   class="st0"
   id="path28" />
        <path
   d="m 144.7,191.3 v -16.9 c 0,0 0.3,-4.8 11.3,-8.7 l 7.1,-2.5 v 74.9 c 0,0 0.3,6.6 -10.4,9.4 0,0 -13.7,5.6 -13.7,-3.9 v -28.2 c 0,0 -1.1,-7.5 14.7,-10.5 v 6.3 c 0,0 -9.9,2.3 -10.4,8.2 v 18.7 1.5 c 0,0 1.2,5.1 6.3,2.9 5.1,-2.2 9.2,-3.2 9.2,-8.4 v -62.9 c 0,0 -7.7,0.5 -7.7,5.5 v 12.8 z"
   class="st0"
   id="path29" />
      </g>
      <g
   id="ITTIHAD_CLUB">
        <path
   d="m 87.6,571.9 h -24 v -10.6 h 5.9 V 538.8 H 60.6 L 68,528.1 h 12.2 v 33.2 h 7.4 z"
   class="st0"
   id="path30" />
        <path
   d="m 98.2,571.9 v -33.2 h -12 v -10.6 h 33.1 v 10.7 h -12 v 33.1 z"
   class="st0"
   id="path31" />
        <path
   d="m 136,571.9 v -33.2 h -12.1 v -10.6 h 33.2 v 10.7 H 145 v 33.1 z"
   class="st0"
   id="path32" />
        <path
   d="m 194.8,571.9 v -43.8 h 9.2 v 16.6 h 13.5 v -16.6 h 9 v 43.8 h -9 v -16.6 h -13.7 v 16.6 z"
   class="st0"
   id="path33" />
        <path
   d="m 163.1,571.9 v -10.5 h 6.1 v -22.8 h -6.1 v -10.5 h 22.6 v 10.6 h -5.9 v 22.6 h 5.9 v 10.6 z"
   class="st0"
   id="path34" />
        <path
   d="m 256.5,528.1 h -6.7 l -17.6,43.8 h 10.7 l 3.4,-7.6 h 13.9 l 2.7,7.6 h 11.7 z m -6.5,27.6 3,-10 3.8,10 z"
   class="st0"
   id="path35" />
        <path
   d="m 313.9,548.8 c 0,-21 -19.6,-20.7 -19.6,-20.7 h -16.5 v 43.8 h 18.1 c 19.7,0 18,-23.1 18,-23.1 z m -18.6,12.4 h -8.7 v -22.5 h 8 c 0,0 9.5,-0.2 9.5,10.6 -0.1,0 0.7,11.9 -8.8,11.9 z"
   class="st0"
   id="path36" />
        <path
   d="m 368.6,546.1 h 9.7 c 0,-18.2 -19.7,-18 -19.7,-18 -21.6,0 -20.7,21.9 -20.7,21.9 0,22.3 20.4,21.9 20.4,21.9 18.1,0 20,-17.7 20,-17.7 h -9.8 c 0,0 -2.1,7.2 -10.4,7.2 -8.3,0 -11,-6.8 -11,-12.8 0,0 0.5,-9.9 11.9,-9.9 8.7,0.1 9.6,7.4 9.6,7.4 z"
   class="st0"
   id="path37" />
        <path
   d="m 384.7,571.9 v -43.8 h 10.9 v 33.4 h 16.7 v 10.4 z"
   class="st0"
   id="path38" />
        <path
   d="m 416.7,528.1 v 28.1 c 0,0 -0.1,15.7 17,15.7 0,0 16.2,0.1 16.2,-16.2 v -27.6 h -10.5 v 28.3 c 0,0 0.2,4.9 -6.1,4.9 0,0 -6.2,0.7 -6.2,-5.3 v -28 h -10.4 z"
   class="st0"
   id="path39" />
        <path
   d="m 482.3,549 c 0,0 5.2,-0.7 5.2,-8.7 0,-11.8 -11.8,-12.2 -11.8,-12.2 h -3 -15.3 v 43.8 h 16.7 c 10.5,0 14.8,-5.4 14.8,-13.7 0.1,-8.4 -6.6,-9.2 -6.6,-9.2 z M 468,544.9 v -7.7 h 6.6 c 0,0 3.9,0.1 3.9,5.2 0,0 0.6,4 -3.7,4 H 468 Z m 7.9,16.1 h -8 v -1.1 -6.2 h 7.7 c 0,0 4.6,0.1 4.6,4.1 0,0 0.7,3.2 -4.3,3.2 z"
   class="st0"
   id="path40" />
      </g>
      <g
   id="التاريخ">
        <path
   d="m 178.1,589.9 h 6.1 v 24.2 h -6.1 z"
   class="st0"
   id="path41" />
        <path
   d="M 190.3,614.2 V 590 h 6 v 9.3 c 1,0.9 2,0.9 3.1,0 V 590 h 4.4 v 9.1 c 0.8,0.7 1.6,0.7 2.4,0 V 590 h 5.2 v 7.7 c 0,0 0.6,5.9 -6.1,5.9 -3.1,0 -3.5,-1.5 -3.5,-1.5 0,0 -1.9,3 -5.4,1.5 v 10.6 z"
   class="st0"
   id="path42" />
        <path
   d="m 229.5,614.2 h -9.9 c 0,0 -5.4,0.1 -5.4,-7.8 0,0 0.4,-4.3 2.1,-4.3 0,0 -2.8,-2.7 -2.1,-6 0,0 1.3,-6.2 8.7,-6.2 h 6.6 v 6 h -7.7 c -1.5,0 -1.5,4.6 0,4.6 h 7.7 v 4.5 h -9 c -0.8,0 -0.8,4.6 0,4.6 h 9 z"
   class="st0"
   id="path43" />
        <path
   d="m 243.1,614.2 v -18.1 h -9 v -6.2 h 1.1 14 v 24.3 z"
   class="st0"
   id="path44" />
        <path
   d="m 271.6,606.7 h 9.1 v 7.5 h -9.1 z"
   class="st0"
   id="path45" />
        <path
   d="m 311.2,614.2 v -24 H 306 l -7.3,6.8 v 3.5 h 6.3 v 13.7 z"
   class="st0"
   id="path46" />
        <path
   d="m 324.9,590.2 c 0,0 -9.5,-1.2 -9.5,9.6 0,7.1 8.1,6.9 8.1,6.9 0,0 -3.2,7.5 -4.8,7.5 h 7.3 c 0,0 7.4,-6.7 7.4,-15.3 0,-8.6 -8.5,-8.7 -8.5,-8.7 z m -0.5,12.4 c -1.9,0 -3.5,-1.6 -3.5,-3.5 0,-1.9 1.6,-3.5 3.5,-3.5 1.9,0 3.5,1.6 3.5,3.5 0,2 -1.5,3.5 -3.5,3.5 z"
   class="st0"
   id="path47" />
        <path
   d="m 365,614.2 7.9,-16.1 v -7.9 h -15.2 v 5.8 h 9.5 l -9.1,18.2 z"
   class="st0"
   id="path48" />
        <path
   d="m 336.8,599.1 c 0,0 0,-9 8.2,-9 0,0 8.2,-1 8.2,9 -0.6,5.8 -8.2,10.5 -8.2,10.5 h 8.2 v 4.5 H 337.8 V 609 l 9.3,-8.3 c 0,0 0.7,-4.7 -2.5,-4.7 -1.7,0 -2,3.2 -2,3.2 h -5.8 z"
   class="st0"
   id="path49" />
      </g>
    </g>
  </g></g><style
     type="text/css"
     id="style1-9">
	.st0{fill:#F9DF00;}
	.st1{fill:#EE0000;}
</style><style
     type="text/css"
     id="style1-4">
	.st0{fill:#001FF9;}
	.st1{fill:#0120F9;}
</style><style
     type="text/css"
     id="style1-2">
    .st0{fill:#261e1d}.st1{fill:#fef201}
  </style></svg>
