<?xml version="1.0" encoding="UTF-8" standalone="no"?>
<!-- Created with Inkscape (http://www.inkscape.org/) -->

<svg
   width="300mm"
   height="300mm"
   viewBox="0 0 300 300"
   version="1.1"
   id="svg1"
   xml:space="preserve"
   inkscape:export-filename="LENS.svg"
   inkscape:export-xdpi="96"
   inkscape:export-ydpi="96"
   xmlns:inkscape="http://www.inkscape.org/namespaces/inkscape"
   xmlns:sodipodi="http://sodipodi.sourceforge.net/DTD/sodipodi-0.dtd"
   xmlns="http://www.w3.org/2000/svg"
   xmlns:svg="http://www.w3.org/2000/svg"><sodipodi:namedview
     id="namedview1"
     pagecolor="#ffffff"
     bordercolor="#000000"
     borderopacity="0.25"
     inkscape:showpageshadow="2"
     inkscape:pageopacity="0.0"
     inkscape:pagecheckerboard="0"
     inkscape:deskcolor="#d1d1d1"
     inkscape:document-units="mm"><inkscape:page
       x="0"
       y="0"
       width="300"
       height="300"
       id="page2"
       margin="0"
       bleed="0" /></sodipodi:namedview><defs
     id="defs1"><style
       id="style1">
      .cls-1 {
        fill: #fff;
      }

      .cls-2 {
        fill: #b71315;
      }

      .cls-3 {
        fill: #8b1d1e;
      }

      .cls-4 {
        fill: #d6b631;
      }

      .cls-5 {
        fill: #ffc700;
      }
    </style></defs><g
     inkscape:label="Layer 1"
     inkscape:groupmode="layer"
     id="layer1"><g
       id="g15"
       transform="matrix(0.72832691,0,0,0.72832691,53.496684,3.2383602)">
	<g
   id="g14">
		<path
   class="st0"
   d="m 75.3,442.2 c 0,-4.2 0,-8.3 0,-12.5 0,-1 0,-2.1 0,-3.1 0,-0.8 0.2,-0.9 1,-0.9 1.5,0 3.9,0 5.9,0 0.7,0 1.5,0.1 2.3,0.1 0.8,0 1,0.3 1,1.1 0,5.7 -0.1,11.3 -0.1,17 0,4.3 0,8.7 -0.1,13 0,0.4 -0.1,0.8 -0.1,1.3 0,0.5 0.2,0.7 0.7,0.6 0.9,-0.1 1.9,-0.1 2.8,-0.1 2,0 4,0.1 6,0.2 0.5,0 0.6,-0.2 0.6,-0.6 0,-7 -0.1,-14 0,-21 0,-3.1 -0.1,-5.9 0,-9 0,-0.4 0,-0.9 0,-1.3 0,-0.8 0.5,-1.1 1.3,-1.1 2.1,0.1 4.2,0.1 6.2,0.1 0.6,0 1.3,0 1.9,0 0.5,0 0.6,0.1 0.7,0.8 0,0.7 0,1.4 0,2.1 0,6.4 0,12.9 0,19.3 0,3.4 -0.1,6.8 -0.2,10.1 0,0.4 0.1,0.6 0.6,0.6 3,0 6,0 9,0 0.5,0 0.7,-0.3 0.7,-0.8 0,-8.3 0,-16.7 0,-25 0,-2.4 0,-4.8 0,-7.2 0,-0.2 0,-0.5 0,-0.7 0.1,-1.3 0.6,-1.6 1.6,-1.6 1.7,0 3.4,0 5.1,0 0.8,0 1.6,0.1 2.3,0.1 0.8,0 1.1,0.4 1.1,1.2 0,2.4 -0.1,4.9 -0.1,7.3 0,2.5 0,4.9 0,7.4 0,1.5 0.1,3.1 0,4.6 0,6.1 -0.1,12.3 -0.1,18.4 0,1.3 0,2.6 0,4 0,0.7 -0.4,1.1 -1.1,1.1 -3,0 -107.6,0.1 -108.6,0 -1.7,-0.1 -3.7,-0.8 -4.4,-1.1 -0.1,0 -4.1,-2 -5.5,-3.2 C 4.3,462 3,460.3 2.6,458.2 2.4,457.1 2.3,456 2.3,454.8 c 0,-6.8 0,-13.5 0,-20.3 0,-3 1.3,-5.5 3.4,-7.6 1.1,-1.1 2.5,-1.8 4,-2.6 1.6,-0.8 3.4,-0.8 5.1,-1.1 1.2,-0.2 2.5,0 3.8,0 3.5,0 7,0 10.5,0.1 2.1,0 4.2,0 6.3,0 0.9,0 1.1,0.1 1.1,1.1 -0.1,5.3 -0.2,10.5 -0.3,15.8 0,5.2 0,10.4 0,15.5 0,0.7 0,1.4 -0.1,2.1 0,0.7 0.2,0.7 0.9,0.7 0.9,-0.1 1.8,-0.1 2.7,-0.1 1,0 2.1,-0.1 3.1,-0.1 0.9,0 1.8,0 2.6,0 1.2,0 2.4,0 3.6,0.1 0.1,0 0.2,0 0.3,0 1,0.2 1,0.1 1,-0.9 0,-2.9 -0.1,-5.7 -0.1,-8.6 0,-2.4 0,-4.8 0,-7.2 0,-3.8 0,-7.6 0.1,-11.3 0,-1.4 0.1,-2.8 0.1,-4.2 0,-0.3 -0.3,-2.7 1.4,-2.7 2.3,0 4.7,0 7,0 1.3,0 1.6,0.2 1.6,1.6 0,1.4 0,2.7 0,4.1 0,6.7 0,13.5 0,20.2 0,2.6 0,5.2 -0.1,7.8 0,0.2 0,0.3 -0.1,0.5 -0.2,0.6 0,0.9 0.6,0.9 1.2,0 2.3,-0.1 3.5,-0.1 1,0 2,0.1 3,0.1 1,0 2.1,-0.1 3.1,0 1.2,0 2.4,0.1 3.6,0.1 1,0.1 1.1,0 1.1,-1 0,-5.2 0,-10.4 0,-15.5 0.1,0 0.1,0 0.2,0 z m -62.9,2.3 h -0.1 c 0,3.3 0,6.5 0,9.8 0,2.1 1.9,4 4,4 0.7,0 1.5,0 2.2,0 1,0 2,0.1 3,0.1 1.3,0 2.6,0 3.9,0.1 0.5,0 0.8,-0.2 0.8,-0.7 0,-0.5 0,-1 0,-1.5 0,-3.3 0.1,-6.7 0.1,-10 0.1,-4.8 0.1,-9.7 0.1,-14.5 0,-0.7 -0.3,-0.8 -0.9,-0.8 -2.7,0.1 -5.3,0.2 -8,0.1 -1.4,0 -2.5,0.4 -3.6,1 -1.1,0.6 -1.6,1.6 -1.6,2.8 0.1,3.1 0.1,6.3 0.1,9.6 z"
   id="path1" />
		<path
   class="st0"
   d="m 170.3,435.2 c 0,-7.2 0,-14.3 0,-21.5 0,-0.1 0,-0.2 0,-0.3 0,-1.3 0.1,-1.5 1.4,-1.6 0.2,0 0.4,0 0.7,0 2.2,0.4 4.3,0.2 6.5,0.1 1.5,-0.1 1.7,0.1 1.7,1.7 0,7.4 -0.1,14.8 -0.1,22.2 0,6.2 0,12.4 -0.1,18.6 0,0.2 0,0.4 0,0.5 -0.2,2.3 1.8,4.1 3.9,4.2 1.2,0 2.4,0.1 3.6,0.1 0.5,0 1,0.1 1.5,0.1 0.6,0.1 0.9,-0.2 0.9,-0.8 0,-6.9 0,-13.8 0,-20.8 0,-1.4 0.1,-2.7 0.3,-4.1 0.3,-2.6 1.8,-4.5 3.7,-6.1 1.3,-1.2 2.9,-1.9 4.6,-2.5 2.1,-0.7 4.3,-0.8 6.5,-0.8 1.5,0 3,0 4.5,0 1.6,0.1 3.3,0 4.9,0.4 1.4,0.3 2.8,1 4.1,1.7 1.3,0.7 2.5,1.8 3.3,3.1 1.1,1.6 2,3.2 2.1,5.2 0.1,2.2 0.1,4.4 0.1,6.6 0,3.7 0.1,7.3 0.1,11 0,2 -0.1,4 -0.2,6 -0.1,1.1 0.1,1.2 1.2,1.1 0.5,-0.1 1.1,0 1.7,0 2.1,0 4.2,0.1 6.3,0.2 0.6,0 0.8,-0.2 0.8,-0.7 0,-1.1 -0.1,-2.2 -0.1,-3.2 0,-6.3 0.1,-12.5 0.1,-18.8 0,-4.2 -0.1,-8.5 -0.1,-12.7 0,-3.4 0.1,-6.7 0.1,-10.1 0,-1.7 0,-1.7 1.7,-1.7 2.5,0 5,0 7.4,0 1.2,0 1.6,0.4 1.4,1.6 -0.1,0.4 -0.1,0.8 -0.1,1.2 0,11.9 0,23.8 0,35.8 0,3.8 -0.1,7.6 -0.1,11.4 0,1.6 0.1,3.3 0.1,4.9 0,0.9 -0.5,1.4 -1.4,1.4 -1.9,0 -3.8,-0.1 -5.7,-0.1 -2.9,0 -5.8,0 -8.6,0 -8,0 -16.1,-0.1 -24.1,-0.1 -3.9,0 -7.7,-0.1 -11.6,-0.2 -1.3,0 -2.7,0.1 -4,0.1 -2.5,0 -5,0 -7.5,-0.2 -3.8,-0.4 -7,-2 -9.3,-5.1 -1.1,-1.5 -1.9,-3.2 -2,-5.1 -0.1,-2.6 -0.1,-5.2 -0.1,-7.8 -0.2,-5.2 -0.2,-10.1 -0.1,-14.9 z m 30.2,21.4 c 0,0 -0.1,0 0,0 0,0.7 0,1.3 0,2 0,0.5 0.3,0.8 0.8,0.8 1.5,0 3,0 4.5,0 2.3,0 4.6,-0.1 6.8,-0.1 1.6,0 1.6,0 1.6,-1.5 0,-3 -0.1,-6.1 -0.1,-9.1 0,-3.6 0,-7.3 0,-10.9 0,-0.5 0.1,-1.1 0.1,-1.6 -0.1,-2.1 -2.4,-3.9 -4.7,-3.9 -1.3,0 -2.5,0 -3.8,0 -1.8,-0.1 -4.3,0.7 -4.9,2.9 -0.2,0.7 -0.3,1.4 -0.3,2.1 0,6.4 0,12.8 0,19.3 z"
   id="path2" />
		<path
   class="st0"
   d="m 37.2,514 c 0,3.2 0,6.4 0,9.6 0,4.6 -0.1,9.2 -0.1,13.7 0,0.5 0,1 0.1,1.5 0,0.5 -0.2,0.9 -0.7,0.9 -0.7,0 -1.3,0 -2,0 -1,0 -2,0 -3,0 -0.8,0 -1.6,-0.1 -2.4,-0.1 -0.2,0 -0.3,0.1 -0.5,0.1 0.1,0.2 0.2,0.4 0.3,0.5 1.5,1 3,2.1 4.5,3.1 1.1,0.8 2.2,1.6 3.3,2.4 0.3,0.2 0.6,0.4 0.9,0.5 0.5,0.2 0.8,0.5 0.8,1.1 0,0.6 0,1.3 0,1.9 0,1.5 0.1,3 0.1,4.6 0,0.3 -0.1,0.8 -0.4,0.9 -0.2,0.1 -0.7,-0.1 -0.9,-0.2 -2.5,-1.7 -4.9,-3.5 -7.4,-5.3 -0.7,-0.5 -1.3,-1 -2,-1.4 -0.6,-0.3 -1.4,-0.6 -2.1,-0.6 -1.6,-0.1 -3.2,0.1 -4.8,0.1 -2.5,0 -5,0 -7.5,0 -1,0 -2,-0.3 -2.9,-0.6 -0.9,-0.2 -1.7,-0.6 -2.6,-1 -3,-1.5 -5.2,-3.7 -6.1,-7 -0.3,-1 -0.4,-2.1 -0.4,-3.1 0,-4.6 0,-9.3 0,-13.9 0.1,-4.4 0.2,-8.7 0.3,-13.1 0,-1.6 -0.1,-3.2 0,-4.8 0,-0.9 0.3,-1.9 0.6,-2.8 0.6,-1.5 1.2,-2.9 2.5,-3.9 0.8,-0.6 1.6,-1.4 2.5,-1.9 0.9,-0.5 1.9,-1.1 3,-1.3 1.4,-0.3 2.8,-0.6 4.2,-0.6 2.2,-0.1 4.5,0 6.8,0.1 1.5,0 3,-0.1 4.4,0.1 1,0.1 2,0.6 3,0.8 0.9,0.2 1.7,0.6 2.5,1 2.5,1.4 4.3,3.4 5.3,6.1 0.6,1.6 0.5,3.3 0.5,5 0.2,2.4 0.2,5 0.2,7.6 z m -25.7,11.8 c 0,2.9 0,5.7 0,8.6 0,0.6 0.1,1.3 0.4,1.9 0.9,1.9 3.1,2.9 5.2,2.6 1,-0.1 2.1,-0.1 3.1,-0.1 1,0 1.9,0.1 2.9,0.1 0.8,0 1.6,0 2.4,0 0.3,0 0.7,0 1,0.1 0.6,0.1 0.8,0 0.8,-0.6 0,-2.1 -0.1,-4.2 -0.1,-6.3 0,-4 0,-8 0.1,-12 0,-3.4 0.1,-6.8 0.1,-10.3 0,-0.8 0.1,-1.6 0.1,-2.4 0,-0.8 0.1,-1.5 0,-2.3 -0.2,-1.1 -0.6,-2.1 -1.7,-2.6 -0.2,-0.1 -0.3,-0.2 -0.4,-0.3 -0.9,-0.7 -1.9,-0.8 -2.9,-0.7 -1,0 -5.7,-0.1 -7,0.1 -2.1,0.4 -3.6,1.7 -3.6,4.1 -0.3,2.9 -0.4,16.3 -0.4,20.1 z"
   id="path3" />
		<path
   class="st0"
   d="m 121,511 c 0,1.4 0,2.9 0,4.3 0,2.9 0,5.8 0,8.7 0,1.6 0,3.2 -0.1,4.8 -0.1,2.7 -0.1,5.3 -0.2,8 0,2 -1,3.6 -2,5.2 -1.5,2.3 -3.7,3.7 -6.3,4.6 -3.2,1.2 -6.6,1.2 -10,1.1 -1,0 -2,0 -3.1,0 -3.8,0 -7.7,-0.1 -11.5,-0.1 -0.6,0 -0.8,-0.2 -0.8,-0.8 0,-2.5 0.1,-5.1 0.1,-7.6 0,-9.2 0.1,-18.4 0.1,-27.5 0,-5.3 0.1,-10.5 0.1,-15.8 0,-0.5 0,-1 0,-1.5 0,-0.8 0.4,-1.1 1.2,-1 1.2,0.1 2.5,0.1 3.8,0.1 1.7,0 3.4,0 5.1,0 1.1,0 2.1,0 3.2,0 0.9,0 1.9,0.1 2.8,0.1 0.8,0 1.5,0 2.3,0 0.9,0 1.9,0 2.8,0.1 0.7,0.1 1.3,0.3 1.9,0.5 1.8,0.4 3.5,1.2 5.1,2.2 2.3,1.5 3.8,3.5 4.7,6 0.5,1.3 0.6,2.8 0.7,4.2 0.3,1.4 0.2,2.9 0.1,4.4 0.1,0 0,0 0,0 z m -23.5,9.7 c -0.1,0 -0.1,0 0,0 -0.1,2.9 -0.1,5.8 -0.1,8.8 0,3.1 0,6.1 -0.1,9.2 0,1.1 0,1.1 1.1,1 0.1,0 0.1,0 0.2,0 1.1,0 2.1,0.1 3.2,0.1 1.6,0 3.3,0 4.9,-0.3 1,-0.2 1.9,-0.6 2.5,-1.3 1,-1.1 1.7,-2.5 1.7,-4.2 -0.1,-3 0,-6 0,-9 0,-2.8 0.1,-5.6 0.1,-8.4 0,-3 -0.1,-6 0,-9 0.1,-2.3 -1,-4.4 -3.1,-5.3 -1.2,-0.5 -2.5,-0.9 -3.8,-0.7 -0.3,0 -0.6,0 -0.9,0 -1.5,0 -3.1,-0.1 -4.6,-0.1 -1,0 -1,0 -1,1 -0.1,6 -0.1,12.1 -0.1,18.2 z"
   id="path4" />
		<path
   class="st0"
   d="m 263.4,521.8 c 0,8.5 0,17 0,25.5 0,1.3 0,1.3 -1.3,1.3 -2.6,0 -5.3,0 -7.9,0 -1,0 -1.2,-0.3 -1.1,-1.3 0.1,-1.6 0.1,-3.3 0.1,-4.9 0,-5 0,-10.1 0,-15.1 0,-0.5 -0.1,-0.8 -0.6,-0.8 -2.9,0 -5.7,0 -8.6,0 -1.3,0 -2.5,-0.1 -3.8,-0.1 -0.4,0 -0.7,0 -0.7,0.6 0,2.7 0.1,5.5 0.1,8.2 0,3.7 0,7.4 0,11.1 0,0.4 0,0.8 0.1,1.1 0.1,0.8 -0.1,1.1 -0.9,1.1 -0.9,0 -1.9,0 -2.8,0 -1.7,0 -3.5,0 -5.2,0 -0.4,0 -0.8,-0.1 -1.2,-0.3 -0.2,-0.1 -0.4,-0.5 -0.4,-0.7 0,-1 0.1,-2 0.1,-3 0,-10.4 0,-20.7 0,-31.1 0,-4.6 0,-9.2 0,-13.9 0,-1.1 0,-2.3 0,-3.4 0,-0.2 0,-0.5 0.1,-0.7 0.2,-0.9 0.4,-1.1 1.4,-1 2.6,0 5.2,0 7.8,0 0.9,0 1.2,0.3 1.2,1.2 0,4.8 -0.1,9.6 -0.1,14.3 0,2.5 0,4.9 -0.1,7.4 0,1.5 0,1.5 1.5,1.5 3.8,0 7.7,0 11.5,0.1 0.5,0 0.8,-0.2 0.8,-0.8 0,-4.2 -0.1,-8.3 -0.1,-12.5 0,-3.3 0,-6.6 0,-9.9 0,-1.1 0.2,-1.2 1.3,-1.2 2.3,0.1 4.6,0 6.9,0.1 2,0 2.1,0.1 2.1,2.1 0,4.8 -0.1,9.6 -0.2,14.3 0,3.5 0,7.1 0,10.8 z"
   id="path5" />
		<path
   class="st0"
   d="m 152.8,511 c 0,-1.3 0,-2.7 0,-4 0.1,-2.4 -1,-4 -3.4,-4.5 -0.7,-0.2 -1.5,-0.3 -2.3,-0.3 -1.4,-0.1 -2.7,-0.1 -4.1,-0.1 -1.7,0 -3.1,0.6 -4.1,2 -0.4,0.6 -0.6,1.5 -0.7,2.2 -0.1,1.1 -0.1,2.2 -0.1,3.2 0,0.4 0.3,0.8 0.6,1 1.5,1.1 3,2.2 4.6,3.3 1.3,0.9 2.6,1.9 4,2.8 2.6,1.8 5.1,3.7 7.7,5.5 2.1,1.5 4.1,3.1 6.3,4.5 1.1,0.7 1.4,1.4 1.4,2.6 -0.1,3 0,6 -0.1,9 -0.1,1.5 -0.8,2.8 -1.6,4 -1.3,2 -3.1,3.5 -5.2,4.5 -1.3,0.6 -2.6,1 -4.1,1 -0.1,0 -0.2,0 -0.3,0 -2.7,0.6 -5.4,0.2 -8.1,0.2 -0.9,0 -1.8,-0.1 -2.6,-0.1 -1.7,0 -3.5,-0.3 -5,-0.9 -1.3,-0.5 -2.5,-1.4 -3.6,-2.2 -2.2,-1.6 -3.2,-3.9 -3.9,-6.4 -0.2,-0.9 -0.1,-1.8 -0.2,-2.8 0,-2 0,-4.1 0,-6.1 0,-1 0.5,-1.5 1.4,-1.7 0.9,-0.2 1.8,-0.4 2.7,-0.7 1.2,-0.4 2.5,-0.8 3.7,-1.3 0.3,-0.1 0.7,-0.3 1,-0.5 0.7,-0.3 1.1,-0.1 1.2,0.7 0.1,0.6 0.1,1.1 0.1,1.7 0,2.6 -0.2,5.2 -0.1,7.8 0,1.3 0.7,2.5 1.9,3.2 1.4,0.8 2.8,0.7 4.3,0.8 1.1,0 2.3,0 3.4,0 2,0 3.6,-0.8 4.6,-2.6 0.2,-0.3 0.2,-0.6 0.3,-0.9 0,-1.1 0,-2.2 0,-3.3 0,-0.6 -0.3,-1 -0.8,-1.4 -2.1,-1.4 -4.2,-2.8 -6.3,-4.3 -2.2,-1.5 -4.4,-3 -6.5,-4.5 -3.5,-2.4 -7,-4.8 -10.4,-7.3 -0.3,-0.2 -0.5,-0.7 -0.5,-1.1 0,-3.4 0,-6.9 0.1,-10.3 0,-0.2 0,-0.5 0.1,-0.6 0.6,-1.3 1.1,-2.7 1.8,-3.9 0.4,-0.7 1,-1.4 1.6,-1.9 2.9,-2.6 6.3,-3.7 10.2,-3.7 2.3,0 4.6,0 7,0.1 1.6,0 3.3,0.1 4.8,0.6 2.6,0.8 5,2 6.7,4.2 1.4,1.9 2.4,4 2.4,6.5 -0.1,2.5 0,5 0,7.5 0,0.7 -0.3,1 -0.9,1.2 -1.8,0.6 -3.5,1.2 -5.3,1.8 -0.8,0.3 -1.6,0.7 -2.5,1 -1,0.4 -1.4,0.1 -1.4,-1 0,-1.5 0,-3 0,-4.5 0.1,0 0.2,0 0.2,0 z"
   id="path6" />
		<path
   class="st0"
   d="m 77.6,547.5 c -1.3,0 -2.6,0 -3.8,0 -0.5,0 -0.8,-0.1 -0.9,-0.7 -0.4,-2 -0.7,-3.9 -1.1,-5.9 -0.1,-0.7 -0.3,-1.3 -0.5,-2 -0.4,-2 -0.8,-4 -1.2,-6 -0.1,-0.5 -0.5,-0.6 -0.9,-0.6 -1.7,0 -3.3,0 -5,0 -2.8,0 -5.5,0 -8.3,-0.1 -0.6,0 -0.9,0.2 -1,0.8 -0.3,1.7 -0.7,3.4 -1,5.2 -0.3,1.7 -0.6,3.4 -1,5.1 -0.2,1.1 -0.5,2.2 -0.7,3.4 -0.1,0.5 -0.4,0.7 -0.9,0.6 -2.5,0 -5,-0.1 -7.5,-0.1 -1,0 -1.4,-0.4 -1.2,-1.4 0.5,-1.8 1,-3.6 1.4,-5.4 0.2,-0.6 0.1,-1.3 0.3,-2 0.5,-2.4 1,-4.8 1.5,-7.3 0.5,-2.1 0.9,-4.2 1.4,-6.3 0.5,-2 0.9,-4.1 1.4,-6.1 0.7,-3 1.4,-5.9 2.1,-8.9 0.6,-2.7 1.1,-5.4 1.7,-8 0.6,-2.7 1.2,-5.4 1.8,-8.1 0.1,-0.5 0.5,-0.8 1.1,-0.8 2.6,0 5.2,0 7.8,0 1.3,0 2.7,0 4,0 1.2,0 2.4,0.1 3.6,0.1 0.5,0 0.8,0.3 0.9,0.7 0.4,2 0.8,4.1 1.2,6.1 0.4,1.8 0.8,3.6 1.2,5.4 0.4,1.8 0.7,3.6 1.1,5.3 0.6,2.8 1.2,5.5 1.8,8.3 0.4,1.7 0.7,3.5 1,5.3 0.2,1 0.4,2 0.7,3 0.6,2.9 1.2,5.7 1.8,8.6 0.5,2.4 1,4.9 1.5,7.3 0.2,1 0.5,2 0.7,3 0.2,0.9 0,1.2 -0.9,1.2 -1.6,0.3 -2.9,0.3 -4.1,0.3 z m -10,-22.8 c 0.5,0.1 0.8,-0.2 0.7,-0.6 -0.3,-1.3 -0.5,-2.6 -0.8,-3.9 -0.4,-2.2 -0.9,-4.4 -1.3,-6.6 -0.8,-3.9 -1.5,-7.8 -2.3,-11.7 -0.1,-0.3 -0.5,-0.7 -0.6,-0.7 -0.6,0.2 -1.3,-0.3 -1.9,0.3 v 0.1 c -0.2,0.6 -0.3,1.3 -0.4,1.9 -0.4,2.3 -0.9,4.7 -1.3,7 -0.2,1.2 -0.6,2.5 -0.8,3.7 -0.7,3.2 -1.3,6.5 -2,9.7 -0.1,0.5 0,0.7 0.5,0.7 0.4,0 0.8,-0.1 1.2,-0.1 1.5,0 2.9,0 4.4,0 1.5,0.1 3.1,0.2 4.6,0.2 z"
   id="path7" />
		<path
   class="st0"
   d="m 219.9,547.5 c -1.3,0 -2.6,0 -3.8,0 -0.5,0 -0.8,-0.1 -0.9,-0.7 -0.4,-2 -0.7,-3.9 -1.1,-5.9 -0.1,-0.7 -0.3,-1.3 -0.5,-2 -0.4,-2 -0.8,-4 -1.2,-6 -0.1,-0.5 -0.5,-0.6 -0.9,-0.6 -1.7,0 -3.3,0 -5,0 -2.8,0 -5.5,0 -8.3,-0.1 -0.6,0 -0.9,0.2 -1,0.8 -0.3,1.7 -0.7,3.4 -1,5.2 -0.3,1.7 -0.6,3.4 -1,5.1 -0.2,1.1 -0.5,2.2 -0.7,3.4 -0.1,0.5 -0.4,0.7 -0.9,0.6 -2.5,0 -5,-0.1 -7.5,-0.1 -1,0 -1.4,-0.4 -1.2,-1.4 0.5,-1.8 1,-3.6 1.4,-5.4 0.2,-0.6 0.1,-1.3 0.3,-2 0.5,-2.4 1,-4.8 1.5,-7.3 0.5,-2.1 0.9,-4.2 1.4,-6.3 0.5,-2 0.9,-4.1 1.4,-6.1 0.7,-3 1.4,-5.9 2.1,-8.9 0.6,-2.7 1.1,-5.4 1.7,-8 0.6,-2.7 1.2,-5.4 1.8,-8.1 0.1,-0.5 0.5,-0.8 1.1,-0.8 2.6,0 5.2,0 7.8,0 1.3,0 2.7,0 4,0 1.2,0 2.4,0.1 3.6,0.1 0.5,0 0.8,0.3 0.9,0.7 0.4,2 0.8,4.1 1.2,6.1 0.4,1.8 0.8,3.6 1.2,5.4 0.4,1.8 0.7,3.6 1.1,5.3 0.6,2.8 1.2,5.5 1.8,8.3 0.4,1.7 0.7,3.5 1,5.3 0.2,1 0.4,2 0.7,3 0.6,2.9 1.2,5.7 1.8,8.6 0.5,2.4 1,4.9 1.5,7.3 0.2,1 0.5,2 0.7,3 0.2,0.9 0,1.2 -0.9,1.2 -1.6,0.3 -2.9,0.3 -4.1,0.3 z m -10,-22.8 c 0.5,0.1 0.8,-0.2 0.7,-0.6 -0.3,-1.3 -0.5,-2.6 -0.8,-3.9 -0.4,-2.2 -0.9,-4.4 -1.3,-6.6 -0.8,-3.9 -1.5,-7.8 -2.3,-11.7 -0.1,-0.3 -0.5,-0.7 -0.6,-0.7 -0.6,0.2 -1.3,-0.3 -1.9,0.3 v 0.1 c -0.2,0.6 -0.3,1.3 -0.4,1.9 -0.4,2.3 -0.9,4.7 -1.3,7 -0.2,1.2 -0.6,2.5 -0.8,3.7 -0.7,3.2 -1.3,6.5 -2,9.7 -0.1,0.5 0,0.7 0.5,0.7 0.4,0 0.8,-0.1 1.2,-0.1 1.5,0 2.9,0 4.4,0 1.5,0.1 3.1,0.2 4.6,0.2 z"
   id="path8" />
		<path
   class="st0"
   d="m 163.6,450.3 c -0.1,4.6 -0.2,9.2 -0.2,13.8 0,0.8 0.1,1.5 0.1,2.3 0,1.3 -0.3,1.5 -1.5,1.5 -6.6,0 -13.2,-0.1 -19.8,-0.1 -3,0 -6,0 -8.9,0 -0.7,0 -0.9,-0.3 -0.9,-1.1 0,-0.9 0.1,-1.7 0.1,-2.6 0,-1.4 0,-2.8 0,-4.2 0,-1 0.2,-1.1 1.2,-1.1 6.2,0 12.3,0.1 18.5,0.1 1.3,0 1.3,0 1.2,-1.4 0,-0.5 0,-1 0,-1.5 0,-3.2 0.1,-6.4 0.1,-9.5 0,-3.1 0,-6.2 0,-9.3 0,-1 0.3,-2.1 -0.3,-3 -0.8,-1.3 -1.8,-2.5 -3.5,-2.6 -0.8,-0.1 -1.5,-0.1 -2.3,-0.1 -1.2,-0.1 -2.3,0.3 -3.3,1 -1,0.6 -1.3,1.6 -1.4,2.7 -0.1,0.8 0,1.5 0,2.3 0,2.6 0,5.3 0,7.9 0,0.7 0.1,1.3 0.1,2 0,1.2 -0.6,1.6 -1.7,1.2 -1.3,-0.5 -2.5,-1 -3.8,-1.5 -1.3,-0.5 -2.7,-1 -4,-1.5 -0.6,-0.2 -1,-0.7 -0.9,-1.3 0.1,-0.8 0.2,-1.7 0.2,-2.5 0.1,-2.7 0.2,-5.3 0.2,-8 0,-1.8 0.7,-3.4 1.7,-4.9 1.9,-2.6 4.5,-4.2 7.6,-5 3.4,-0.9 6.8,-0.6 10.1,-0.4 3,0.2 5.7,1.5 8,3.6 1.6,1.5 2.6,3.2 3.2,5.2 0.2,0.8 0.2,1.7 0.2,2.6 0,5.1 0,10.1 0,15.2 -0.1,0.2 0,0.2 0,0.2 z"
   id="path9" />
		<path
   class="st0"
   d="m 263.3,440.4 c 0,8.9 0,17.8 0,26.7 0,1 -0.6,1.5 -1.6,1.5 -2.4,0 -4.9,-0.1 -7.3,-0.1 -0.3,0 -0.6,0 -0.9,-0.1 -0.4,-0.1 -0.6,-0.5 -0.6,-1 0,-2.4 -0.1,-4.8 -0.1,-7.2 0,-3 0.2,-6 0.2,-8.9 0,-0.9 -0.1,-1.7 -0.1,-2.6 0,-3.4 0.1,-6.7 0.1,-10.1 0,-3.3 -0.2,-6.7 -0.2,-10 0,-3.6 0.1,-7.2 0.2,-10.8 0,-1.5 0,-3 0,-4.5 0,-0.7 0.3,-1.1 0.9,-1.1 2.2,0 4.4,0.1 6.6,0.1 0.5,0 1.1,0 1.6,0 0.9,0 1.2,0.3 1.2,1.2 0,9.1 0,18 0,26.9 z"
   id="path10" />
		<path
   class="st0"
   d="m 180.2,514.5 c 0,5.6 0,11.2 0,16.9 0,4.8 -0.1,9.7 -0.1,14.5 0,0.4 0,0.9 0,1.3 0,0.7 -0.3,1 -0.9,1 -2.4,-0.1 -4.8,-0.1 -7.2,-0.2 -0.2,0 -0.5,0 -0.7,0 -0.9,0.1 -1.5,-0.4 -1.5,-1.4 0,-4 0,-8 0,-12 0,-4.7 0.1,-9.3 0.1,-14 0,-2.1 0,-4.2 0,-6.3 0,-1.5 0.1,-3 0.1,-4.4 0,-3.8 0,-7.5 0,-11.3 0,-1.3 0,-2.5 0,-3.8 0,-0.9 0.4,-1.2 1.3,-1.2 0.6,0 1.2,0.1 1.9,0.1 1.2,0 2.4,0 3.6,0.1 1,0 1.9,0.1 2.9,0.2 0.5,0 0.7,0.4 0.7,0.9 0,0.8 0,1.6 0,2.4 0,4.6 0,9.2 0,13.7 -0.2,1.2 -0.2,2.4 -0.2,3.5 z"
   id="path11" />
		<path
   class="st0"
   d="m 207.3,410.9 c 3.8,0 7.6,0 11.3,0 0.8,0 1.3,0.5 1.2,1.4 -0.1,1.6 -0.1,3.2 -0.1,4.8 0,0.2 0,0.3 0,0.5 0,1.1 -0.5,1.5 -1.5,1.5 -6.7,-0.1 -13.5,-0.1 -20.2,-0.2 -0.7,0 -1.4,0.1 -2,0.1 -0.7,0.1 -1.2,-0.3 -1.2,-1.1 0,-2 0.1,-4 0.1,-6 0,-0.9 0.1,-1 1.1,-1 2.9,0 5.7,0 8.6,0 1,0.1 1.9,0.1 2.7,0 0,0.1 0,0 0,0 z"
   id="path12" />
		<path
   class="st0"
   d="m 42,476.3 c 0,-1 0,-2 0,-3 0,-0.6 0.3,-1 1,-1 2.2,0 4.4,0 6.5,0.1 0.9,0 1.9,-0.1 2.8,-0.1 0.8,0 1.5,0 2.3,0 1.6,0 3.3,0.1 4.9,0.1 0.9,0 1.7,-0.1 2.6,-0.1 0.8,0 1.6,0 2.4,0.1 0.4,0 0.8,0 1.2,0 0.7,-0.1 1,0.2 1,0.9 0,1.4 0,2.9 0,4.3 0,0.6 0,1.2 0,1.9 0,0.8 -0.4,1 -1.1,1 -1.8,-0.1 -3.6,-0.1 -5.4,-0.1 -1.1,0 -2.2,-0.1 -3.3,-0.1 -1,0 -1.9,0.1 -2.9,0.1 -0.2,0 -0.4,0 -0.6,-0.1 -0.2,0 -0.3,-0.1 -0.4,-0.1 -1.7,0.4 -3.3,-0.2 -5,0 -1.6,0.2 -3.2,0.1 -4.8,0.1 -0.9,0 -1,-0.2 -1,-1.1 -0.2,-1 -0.2,-2 -0.2,-2.9 z"
   id="path13" />
		<path
   class="st0"
   d="m 19.2,417.6 c -3.3,0 -6.6,0 -9.9,0 -0.5,0 -0.9,-0.2 -0.8,-0.8 0,-0.8 0.1,-1.6 0.2,-2.4 0,-1.2 0,-2.4 0,-3.6 0,-0.8 0.6,-1.2 1.4,-1.1 1.6,0.1 3.2,0.2 4.8,0.2 2.1,0 4.3,0 6.4,0 2.6,0 5.2,-0.1 7.8,-0.1 1.2,0 2.5,0.1 3.7,0.1 0.2,0 0.6,0.4 0.6,0.6 0.1,2.1 0.1,4.3 0,6.4 0,0.2 -0.4,0.6 -0.6,0.6 -0.6,0.1 -1.1,0.1 -1.7,0.1 -4.1,0.1 -8,0.1 -11.9,0 0,0.1 0,0 0,0 z"
   id="path14" />
	</g>
	<path
   id="path15"
   class="st1"
   d="M 222.7,1.3 43.7,90 v 190.7 c 0,52.3 14.4,78.9 89.8,120.6 v -33.8 h -32.1 l 18,-22.6 V 215.7 l 28.7,-23.9 v 118.6 c 44.1,-43.4 74.5,-85.3 74.5,-129 z m -24.3,26 v 153.3 c 0,31.5 -5.9,64.1 -27,86.1 V 54.3 Z m -50.3,24.8 v 109.5 l -28.7,21.6 V 80.8 Z M 95.6,77.9 v 289.7 c -22.8,-25.7 -28,-61.2 -28,-93.8 V 105.9 Z" />
</g></g><style
     type="text/css"
     id="style1-9">
	.st0{fill:#F9DF00;}
	.st1{fill:#EE0000;}
</style></svg>
